<svg viewBox="0 0 1117 400" xmlns="http://www.w3.org/2000/svg"><g><g><g><g><g><line x1="34" y1="354.7968510357976" x2="29" y2="354.7968510357976" style="visibility: inherit;" fill="rgb(0, 0, 0)" stroke="rgb(204, 204, 204)" stroke-width="1px"></line><line x1="34" y1="320.5385876145445" x2="29" y2="320.5385876145445" style="visibility: inherit;" fill="rgb(0, 0, 0)" stroke="rgb(204, 204, 204)" stroke-width="1px"></line><line x1="34" y1="286.28032419329145" x2="29" y2="286.28032419329145" style="visibility: inherit;" fill="rgb(0, 0, 0)" stroke="rgb(204, 204, 204)" stroke-width="1px"></line><line x1="34" y1="252.0220607720384" x2="29" y2="252.0220607720384" style="visibility: inherit;" fill="rgb(0, 0, 0)" stroke="rgb(204, 204, 204)" stroke-width="1px"></line><line x1="34" y1="217.76379735078535" x2="29" y2="217.76379735078535" style="visibility: inherit;" fill="rgb(0, 0, 0)" stroke="rgb(204, 204, 204)" stroke-width="1px"></line><line x1="34" y1="183.50553392953225" x2="29" y2="183.50553392953225" style="visibility: inherit;" fill="rgb(0, 0, 0)" stroke="rgb(204, 204, 204)" stroke-width="1px"></line><line x1="34" y1="149.2472705082792" x2="29" y2="149.2472705082792" style="visibility: inherit;" fill="rgb(0, 0, 0)" stroke="rgb(204, 204, 204)" stroke-width="1px"></line><line x1="34" y1="114.98900708702614" x2="29" y2="114.98900708702614" style="visibility: inherit;" fill="rgb(0, 0, 0)" stroke="rgb(204, 204, 204)" stroke-width="1px"></line><line x1="34" y1="80.73074366577308" x2="29" y2="80.73074366577308" style="visibility: inherit;" fill="rgb(0, 0, 0)" stroke="rgb(204, 204, 204)" stroke-width="1px"></line><line x1="34" y1="46.47248024452002" x2="29" y2="46.47248024452002" style="visibility: inherit;" fill="rgb(0, 0, 0)" stroke="rgb(204, 204, 204)" stroke-width="1px"></line><line x1="34" y1="12.214216823266925" x2="29" y2="12.214216823266925" style="visibility: inherit;" fill="rgb(0, 0, 0)" stroke="rgb(204, 204, 204)" stroke-width="1px"></line></g><g transform="translate(24, 0)"><text x="0" y="354.7968510357976" dx="0em" dy="0.3em" style="text-anchor: end; visibility: inherit; font-family: Roboto, sans-serif; font-size: 12px; font-weight: 200;" fill="rgb(50, 49, 63)" stroke="none" stroke-width="1px">10</text><text x="0" y="320.5385876145445" dx="0em" dy="0.3em" style="text-anchor: end; visibility: inherit; font-family: Roboto, sans-serif; font-size: 12px; font-weight: 200;" fill="rgb(50, 49, 63)" stroke="none" stroke-width="1px">15</text><text x="0" y="286.28032419329145" dx="0em" dy="0.3em" style="text-anchor: end; visibility: inherit; font-family: Roboto, sans-serif; font-size: 12px; font-weight: 200;" fill="rgb(50, 49, 63)" stroke="none" stroke-width="1px">20</text><text x="0" y="252.0220607720384" dx="0em" dy="0.3em" style="text-anchor: end; visibility: inherit; font-family: Roboto, sans-serif; font-size: 12px; font-weight: 200;" fill="rgb(50, 49, 63)" stroke="none" stroke-width="1px">25</text><text x="0" y="217.76379735078535" dx="0em" dy="0.3em" style="text-anchor: end; visibility: inherit; font-family: Roboto, sans-serif; font-size: 12px; font-weight: 200;" fill="rgb(50, 49, 63)" stroke="none" stroke-width="1px">30</text><text x="0" y="183.50553392953225" dx="0em" dy="0.3em" style="text-anchor: end; visibility: inherit; font-family: Roboto, sans-serif; font-size: 12px; font-weight: 200;" fill="rgb(50, 49, 63)" stroke="none" stroke-width="1px">35</text><text x="0" y="149.2472705082792" dx="0em" dy="0.3em" style="text-anchor: end; visibility: inherit; font-family: Roboto, sans-serif; font-size: 12px; font-weight: 200;" fill="rgb(50, 49, 63)" stroke="none" stroke-width="1px">40</text><text x="0" y="114.98900708702614" dx="0em" dy="0.3em" style="text-anchor: end; visibility: inherit; font-family: Roboto, sans-serif; font-size: 12px; font-weight: 200;" fill="rgb(50, 49, 63)" stroke="none" stroke-width="1px">45</text><text x="0" y="80.73074366577308" dx="0em" dy="0.3em" style="text-anchor: end; visibility: inherit; font-family: Roboto, sans-serif; font-size: 12px; font-weight: 200;" fill="rgb(50, 49, 63)" stroke="none" stroke-width="1px">50</text><text x="0" y="46.47248024452002" dx="0em" dy="0.3em" style="text-anchor: end; visibility: inherit; font-family: Roboto, sans-serif; font-size: 12px; font-weight: 200;" fill="rgb(50, 49, 63)" stroke="none" stroke-width="1px">55</text><text x="0" y="12.214216823266925" dx="0em" dy="0.3em" style="text-anchor: end; visibility: inherit; font-family: Roboto, sans-serif; font-size: 12px; font-weight: 200;" fill="rgb(50, 49, 63)" stroke="none" stroke-width="1px">60</text></g><line x1="34" y1="0" x2="34" y2="378" fill="rgb(0, 0, 0)" stroke="rgb(204, 204, 204)" stroke-width="1px"></line></g></g><g transform="translate(34, 0)" clip-path="url(#clip_0)"><clipPath id="clip_0"><rect width="1083" height="378"></rect></clipPath><g><g><g><line x1="1.4703446717346706" y1="0" x2="1.4703446717346706" y2="378" fill="rgb(0, 0, 0)" stroke="rgb(60, 60, 60)" stroke-width="1px" opacity="0.25"></line><line x1="95.67507765606146" y1="0" x2="95.67507765606146" y2="378" fill="rgb(0, 0, 0)" stroke="rgb(60, 60, 60)" stroke-width="1px" opacity="0.25"></line><line x1="189.87981064038826" y1="0" x2="189.87981064038826" y2="378" fill="rgb(0, 0, 0)" stroke="rgb(60, 60, 60)" stroke-width="1px" opacity="0.25"></line><line x1="284.0845436247151" y1="0" x2="284.0845436247151" y2="378" fill="rgb(0, 0, 0)" stroke="rgb(60, 60, 60)" stroke-width="1px" opacity="0.25"></line><line x1="378.2892766090419" y1="0" x2="378.2892766090419" y2="378" fill="rgb(0, 0, 0)" stroke="rgb(60, 60, 60)" stroke-width="1px" opacity="0.25"></line><line x1="472.4940095933687" y1="0" x2="472.4940095933687" y2="378" fill="rgb(0, 0, 0)" stroke="rgb(60, 60, 60)" stroke-width="1px" opacity="0.25"></line><line x1="566.6987425776955" y1="0" x2="566.6987425776955" y2="378" fill="rgb(0, 0, 0)" stroke="rgb(60, 60, 60)" stroke-width="1px" opacity="0.25"></line><line x1="660.9034755620223" y1="0" x2="660.9034755620223" y2="378" fill="rgb(0, 0, 0)" stroke="rgb(60, 60, 60)" stroke-width="1px" opacity="0.25"></line><line x1="755.1082085463491" y1="0" x2="755.1082085463491" y2="378" fill="rgb(0, 0, 0)" stroke="rgb(60, 60, 60)" stroke-width="1px" opacity="0.25"></line><line x1="849.3129415306759" y1="0" x2="849.3129415306759" y2="378" fill="rgb(0, 0, 0)" stroke="rgb(60, 60, 60)" stroke-width="1px" opacity="0.25"></line><line x1="943.5176745150027" y1="0" x2="943.5176745150027" y2="378" fill="rgb(0, 0, 0)" stroke="rgb(60, 60, 60)" stroke-width="1px" opacity="0.25"></line><line x1="1037.7224074993294" y1="0" x2="1037.7224074993294" y2="378" fill="rgb(0, 0, 0)" stroke="rgb(60, 60, 60)" stroke-width="1px" opacity="0.25"></line></g><g><line x1="0" y1="354.7968510357976" x2="1083" y2="354.7968510357976" fill="rgb(0, 0, 0)" stroke="rgb(60, 60, 60)" stroke-width="1px" opacity="0.25"></line><line x1="0" y1="320.5385876145445" x2="1083" y2="320.5385876145445" fill="rgb(0, 0, 0)" stroke="rgb(60, 60, 60)" stroke-width="1px" opacity="0.25"></line><line x1="0" y1="286.28032419329145" x2="1083" y2="286.28032419329145" fill="rgb(0, 0, 0)" stroke="rgb(60, 60, 60)" stroke-width="1px" opacity="0.25"></line><line x1="0" y1="252.0220607720384" x2="1083" y2="252.0220607720384" fill="rgb(0, 0, 0)" stroke="rgb(60, 60, 60)" stroke-width="1px" opacity="0.25"></line><line x1="0" y1="217.76379735078535" x2="1083" y2="217.76379735078535" fill="rgb(0, 0, 0)" stroke="rgb(60, 60, 60)" stroke-width="1px" opacity="0.25"></line><line x1="0" y1="183.50553392953225" x2="1083" y2="183.50553392953225" fill="rgb(0, 0, 0)" stroke="rgb(60, 60, 60)" stroke-width="1px" opacity="0.25"></line><line x1="0" y1="149.2472705082792" x2="1083" y2="149.2472705082792" fill="rgb(0, 0, 0)" stroke="rgb(60, 60, 60)" stroke-width="1px" opacity="0.25"></line><line x1="0" y1="114.98900708702614" x2="1083" y2="114.98900708702614" fill="rgb(0, 0, 0)" stroke="rgb(60, 60, 60)" stroke-width="1px" opacity="0.25"></line><line x1="0" y1="80.73074366577308" x2="1083" y2="80.73074366577308" fill="rgb(0, 0, 0)" stroke="rgb(60, 60, 60)" stroke-width="1px" opacity="0.25"></line><line x1="0" y1="46.47248024452002" x2="1083" y2="46.47248024452002" fill="rgb(0, 0, 0)" stroke="rgb(60, 60, 60)" stroke-width="1px" opacity="0.25"></line><line x1="0" y1="12.214216823266925" x2="1083" y2="12.214216823266925" fill="rgb(0, 0, 0)" stroke="rgb(60, 60, 60)" stroke-width="1px" opacity="0.25"></line></g></g></g><g><g><line x1="0" y1="423.31337787830375" x2="1083" y2="423.31337787830375" fill="rgb(0, 0, 0)" stroke="rgb(153, 153, 153)" stroke-width="1.5px"></line></g></g><g><g><line x1="1.4703446717346706" y1="0" x2="1.4703446717346706" y2="378" fill="rgb(0, 0, 0)" stroke="rgb(153, 153, 153)" stroke-width="1.5px"></line></g></g><g><g><g><g><g><path style="fill: none;" stroke="rgb(255, 112, 67)" stroke-width="2px" d="M11.456046368073311,-8.381798163140441L12.021274765979273,88.3977823716646L14.847416755509075,125.79762956181553L15.412645153415038,124.39374458725867L19.18083447278811,123.77382705603391L20.688110200537338,133.71362298719197L21.253338598443296,150.33227773242228L21.44174806441195,159.35282724115004L22.760614326192524,154.20325811849855L25.209937383785025,180.04153813314554L27.659260441377523,195.99458565968754L29.73176456703271,187.06222577725117L30.67381189687598,210.60773875439875L31.239040294781937,199.71039980414113L32.93472548849982,206.5255566866891L33.123134954468476,204.11025572284194L35.007229614155015,210.32387056752953L35.94927694399828,219.36532597090428L36.326095875935586,225.33630555970478L36.51450534190424,211.60696621007992L37.268143205778856,191.9421524476869L38.77541893352808,192.5200650832957L40.28269466127731,193.18048768659756L40.471104127245965,191.31040299014782L41.413151457089235,197.35809312799213L43.48565558274442,209.21725827573124L44.616112378556345,228.58608234192758L45.55815970839961,231.74220380229204L48.384301697929416,225.38670034294543L49.51475849374134,230.86106999806702L50.45680582358461,204.93138451911332L51.77567208536519,230.9618277066487L52.529309949239796,212.0174701455048L52.9061288811771,216.25289767465898L56.48590873458152,216.4399963296207L57.42795606442479,233.9222342917909L57.616365530393445,230.82278825878407L58.558412860236714,259.827193925539L59.50046019007998,258.93291576429993L59.877279122017285,241.55334913910693L61.384554849766516,230.6009772320657L61.57296431573517,221.24664519864078L63.645468441390356,225.93770380516375L65.34115363510824,174.65010610001042L66.84842936285747,218.14699106191998L69.86298081835594,237.50852434396435L70.61661868223055,245.56112856477046L72.50071334191708,264.76003259894037L80.79072984453784,240.26692813447164L80.97913931050648,235.55336387627304L82.48641503825571,234.15097671220818L84.18210023197359,224.67361414618892L84.5589191639109,231.66145245080102L84.74732862987956,238.503242981479L85.31255702778552,212.59396249113692L86.44301382359744,173.6316667564319L88.13869901731532,192.87583247595003L88.70392741522129,224.78127305950787L88.89233688118993,225.23217901676364L90.77643154087647,233.85128198264047L93.97939246234358,258.11495091410234L94.35621139428089,242.1118445500635L97.93599124768531,238.49174242224905L98.31281017962262,252.34539316685405L98.87803857752857,209.7125934728671L100.3853143052778,225.08638947734L101.51577110108973,248.4578515653695L101.89259003302705,233.45046269941622L102.457818430933,243.6301655205077L103.58827522674493,242.86872865867227L104.53032255658819,264.5818077258753L106.41441721627473,233.34035310043177L107.54487401208665,189.43339849308427L108.67533080789858,183.93783798765813L109.42896867177319,171.5504988774823L110.55942546758511,184.4033930062355L110.93624439952241,212.0528888725815L111.50147279742838,173.10917609574125L111.87829172936569,204.79719468541495L112.06670119533433,238.1611319580361L113.00874852517761,247.16510925969612L113.19715799114626,257.21713906032136L114.89284318486413,252.0646356078383L116.40011891261337,257.71457356785834L117.34216624245664,264.5959978720791L118.2842135722999,238.99396365699434L118.66103250423721,249.73740812455532L120.92194609586105,251.56503894048956L122.24081235764163,254.5660623961193L122.42922182361028,253.10625016901488L122.80604075554758,248.85532064424285L123.37126915345355,260.3965736072881L123.74808808539086,264.6449560566875L126.0090016770147,251.20143087882508L126.57423007492066,257.36247419118166L127.32786793879528,258.2301274743048L127.89309633670123,265.29929292693686L128.4583247346072,277.9708414686519L129.21196259848182,275.3001180212882L129.40037206445047,302.2230933786842L130.15400992832508,304.77345308289546L131.09605725816834,285.22115680562194L133.16856138382354,289.70769718966164L134.4874276456041,288.11865579625913L135.99470337335336,274.36937019931355L136.74834123722798,265.62881565757675L137.5019791011026,268.4262464439016L137.6903885670712,277.07252079723526L139.0092548288518,285.69557856579183L140.70494002256967,295.31017512372034L141.4585778864443,292.9634684887644L142.2122157503189,262.1702590998888L142.96585361419352,290.89369823710376L143.1542630801622,249.90719536239757L143.9079009440368,252.4794472862578L145.60358613775466,280.8994557556943L146.35722400162928,297.1941548883364L146.54563346759795,279.86450242207627L146.7340429335666,291.15503120956305L147.1108618655039,269.87713863810154L147.29927133147257,264.9400963721042L148.42972812728448,253.35131346622688L149.1833659911591,248.5619086776012L149.37177545712774,250.04041810904903L149.74859438906503,205.31662093455324L150.69064171890832,185.92392787943567L150.87905118487697,189.4092558868913L151.06746065084565,231.11532304262573L151.82109851472023,254.44469105968145L152.57473637859485,261.31996893072915L153.5167837084381,290.8961173748695L153.7051931744068,272.3738836379836L153.89360264037543,273.6844017370006L158.22702035765445,269.91142994666365L158.98065822152907,254.23123145957013L159.3574771534664,258.77997781356055L160.29952448330965,210.86416256681764L164.82135166655735,247.6691746427323L165.19817059849467,241.78074054227088L166.1402179283379,262.35788957819665L166.51703686027523,242.38710913951624L167.27067472414984,232.25191903805973L167.64749365608714,242.68679971096466L169.15476938383637,257.5198161930835L170.2852261796483,264.56640437117835L171.03886404352292,247.01140545825402L172.3577303053035,275.27658990615294L172.7345492372408,233.41125757329263L173.86500603305274,229.46683904285425L174.24182496499003,245.05844216627068L174.80705336289597,262.7685969975608L175.37228176080194,279.5718882468757L176.87955748855117,286.83881084812634L177.06796695451982,275.54719939870716L177.6331953524258,265.86503706874737L178.95206161420634,265.1001351382095L179.51729001211234,266.73400293889443L181.2129752058302,282.8356647419392L181.9666130697048,281.9813780916468L182.53184146761077,250.780655610929L182.72025093357942,269.9004176171616L184.41593612729733,251.88582429474408L184.60434559326595,238.36445220794835L185.35798345714056,250.61416655627042L185.73480238907788,257.71155375029485L185.92321185504656,276.56706640187076L186.67684971892118,281.81264777248896L186.8652591848898,259.866916391984L187.4304875827958,275.93265029148506L187.6188970487644,269.2759235877837L189.12617277651364,269.5262561889298L189.87981064038826,227.18615682446332L190.25662957232558,249.21441304474004L190.63344850426287,243.19259389166268L190.82185797023155,229.03913239356396L192.5175431639494,250.5033234774122L193.0827715618554,232.61805244225664L194.59004728960463,261.9162613228949L194.96686622154192,248.0666800437385L196.85096088122845,244.6595179408733L198.169827143009,279.5661158582635L200.61915020060152,276.75453348661085L201.74960699641343,281.606131400558L202.3148353943194,292.03169689535247L202.6916543262567,271.13257936340705L203.4452921901313,258.79285810599714L204.19893005400593,251.89372522262343L204.57574898594322,269.9621898469279L205.5177963157865,253.1239864464316L205.70620578175516,263.9358293634187L207.40189097547307,254.36740602466668L208.53234777128498,273.72759218968463L209.2859856351596,266.1805766531665L209.47439510112827,278.3993607009881L211.3584897608148,282.4978734370308L212.30053709065805,286.27223576964997L214.9382696142192,243.93045723520305L215.3150885461565,266.2945332245407L219.08327786552957,280.07920496515095L219.27168733149824,240.2577752255493L220.02532519537286,228.982497796931L220.2137346613415,268.9894845460861L220.40214412731015,267.71379016381803L223.79351451474594,242.0732966607011L226.05442810636976,261.9075471079849L226.2428375723384,281.0627927587114L227.37329436815034,305.6370024167042L227.75011330008763,298.94628187416015L228.69216062993092,285.98511921544554L233.5908067451159,274.93944852702606L233.9676256770532,290.3727138091189L235.85172033673976,278.1018646119815L237.92422446239493,304.29724675112107L238.4894528603009,292.575162707276L239.05468125820684,273.1714988380777L241.50400431579936,272.85851596651344L242.82287057757992,275.4278483877575L243.95332737339183,283.37923395542856L245.2721936351724,285.1566073444239L246.40265043098435,274.91166748572516L248.28674509067088,268.5090107151307L249.22879242051417,285.8894113640961L249.41720188648281,248.80462491793304L249.98243028438878,267.05996762894546L251.1128870802007,297.3879760571597L251.48970601213802,282.81692413299305L252.05493441004396,278.2957551519221L252.62016280794992,270.41094778045374L253.18539120585586,259.7480873879149L253.37380067182454,267.44475370920674L256.7651710592603,291.0629793912283L259.5913130487901,285.4477603545452L262.41745503831993,305.4603066818366L262.98268343622584,264.9098371616544L263.1710929021945,263.19681537736193L263.5479118341318,261.905180850395L263.7363213001005,247.86103001613094L267.88132955141083,270.2979750538812L268.82337688125415,255.48919184060043L269.38860527916006,257.61146431298187L270.1422431430347,265.5890417721963L270.519062074972,271.21979181667615L271.27269993884664,266.5277067435769L272.02633780272123,228.5821057784387L272.7799756665958,258.6804322808112L277.4902123158122,242.39141559644924L277.67862178178086,269.3142063422313L279.751125907436,274.5717969301019L281.25840163518524,263.87403375961634L281.4468111011539,266.23199626493727L282.0120394990598,279.46806492744975L282.3888584309972,291.0305509353224L282.57726789696585,239.63699255164195L284.2729530906837,248.63258117466103L285.59181935246426,248.2045920329177L288.4179613419941,280.98813878078204L288.6063708079627,263.01388175359426L289.1715992058687,280.7773559062452L292.7513790592731,290.1212259586766L293.6934263891164,279.1943708052052L293.88183585508506,266.5378236750725L294.25865478702235,270.231798735159L295.57752104880296,274.9595085209338L296.8963873105835,274.15345997570313L297.0847967765522,273.63009218301784L298.78048197027005,288.6301780905387L299.5341198341447,296.1468148372466L299.9109387660819,300.7566871983385L300.66457662995657,289.1412649190224L302.3602618236745,272.83193011260454L303.67912808545503,271.17008444876376L303.8675375514237,301.1315694946195L304.80958488126697,291.4083393322942L306.3168606090162,294.00900356708314L308.01254580273405,239.9976227235535L308.2009552687027,253.61250765958766L308.9545931325773,239.85705959853667L309.89664046242063,219.24226389247312L310.46186886032655,220.641506322224L310.8386877922639,247.28825702605715L311.40391619016987,261.13490984211734L311.9691445880758,268.20923603989917L312.72278245195037,265.615540298882L314.2300581796996,260.7797276921004L315.73733390744883,265.9144207803081L316.4909717713235,248.6215960434065L317.05620016922944,273.44614140909545L317.24460963519806,257.50227367671414L318.37506643101005,281.9363019597986L320.0707516247279,301.9412976211115L320.8243894886025,304.53891294634127L321.01279895457117,264.1027978728853L321.20120842053984,286.1269094149743L321.57802735247714,266.6872910226811L322.1432557503831,266.1915643591038L323.46212201216366,259.540228338293L325.15780720588157,269.31249168711656L327.04190186556804,260.1294485250109L327.7955397294427,242.10903132964629L328.17235866138003,259.1241553204907L328.737587059286,265.6006702214694L329.67963438912926,276.80844658496517L330.24486278703523,254.74496359186028L330.43327225300385,277.6160850111008L330.62168171897247,299.47455177599295L331.56372904881573,285.54623626474995L334.2014615723769,280.6564272310873L335.8971467660948,274.4162817009474L337.02760356190674,270.6341598484621L338.34646982368736,267.8347555836196L338.534879289656,248.89135495359088L340.2305644833738,266.87855536559135L341.54943074515444,236.5550891414093L343.81034433677826,260.8447479498834L345.12921059855887,253.36357340162894L345.50602953049616,274.94848816354175L346.25966739437075,278.9554928896503L348.14376205405733,276.92657105429885L348.33217152002595,280.45832303929996L348.8973999179319,239.80126219314397L349.8394472477752,254.24818913226497L350.59308511164977,277.8383083017408L353.04240816924226,283.5631773714672L353.60763656714823,284.78695728760425L354.73809336296017,298.98121622450026L354.92650282892885,279.1946049082227L355.11491229489747,267.64505345831446L361.5208341378317,307.01574511115376L362.6512909336436,260.9939009515157L363.97015719542424,245.41572406838588L365.1006139912361,260.46281754440247L365.8542518551107,266.0501976143657L366.23107078704805,259.8622199421814L366.60788971898535,279.2900863063991L367.7383465147973,262.0525882184087L368.3035749127032,288.43947886018225L368.68039384464055,280.185224993308L369.2456222425465,271.70717556862945L369.81085064045243,287.92849856852035L370.3760790383584,287.3812362357761L372.07176423207625,319.04448317085235L372.4485831640136,281.07560366794064L374.7094967556375,283.6986842016897L374.8979062216061,277.7820554361503L375.08631568757477,305.9354255918458L377.7240482111359,323.515738936587L378.4776860750105,330.78180694891904L379.2313239388851,305.6494143710708L379.98496180275976,298.18904985548807L380.73859966663434,268.18691208709083L381.1154185985717,282.14333148303194L381.492237530509,280.41194679742665L382.9995132582582,257.5948426858382L383.37633219019557,288.19043222086754L383.9415605881015,296.8305687802802L384.50678898600745,306.19349392853013L385.0720173839134,274.3388740256508L385.4488363158507,272.2370685045355L386.0140647137567,283.0679456965368L389.5938445671611,271.2334448303421L391.85475815878493,268.7588226284016L392.04316762475355,272.5308809268934L392.2315770907222,292.12562103124066L392.6083960226596,282.36278585386333L392.7968054886282,295.052388124496L393.17362442056555,323.75210905443805L393.5504433525028,284.0064207974837L394.3040812163774,247.6245430269841L395.057719080252,277.4149418637844L395.9997664100953,274.3980989268458L396.3765853420326,272.7382964862391L397.6954516038132,283.73133309359866L398.26068000171915,293.96486344836575L399.2027273315624,283.21982298380203L399.95636519543706,301.72955364369375L400.8984125252803,290.07600443783735L401.27523145721756,295.39724178300867L401.4636409231863,302.69378813095295L404.289782912716,307.0154691571248L404.855011310622,261.3914356783368L405.420239708528,236.2309955928732L405.60864917449663,270.3616542986765L406.3622870383712,277.37277154470894L406.7391059703086,306.0427881355743L407.68115330015183,299.87572359291465L407.86956276612045,281.1939975013337L409.18842902790107,267.60632932058246L409.3768384938697,301.03173170605953L410.1304763577443,317.62070243119297L410.5072952896816,322.4144932698351L410.8841142216189,301.2596435532002L411.63775208549356,296.16600337772195L413.5218467451801,244.0475281297622L413.8986656771174,272.2458682567913L414.27548460905473,310.3155653608185L414.46389407502335,286.8640912688019L415.217531938898,263.5883790227986L415.78276033680396,282.6230122070584L417.2900360645532,309.5072741594858L418.0436739284278,314.6751478306701L420.6814064519889,326.1030200102658L421.43504431586354,303.79918435016555L421.8118632478009,289.92919303011155L422.7539105776441,297.9494970525219L422.94232004361277,268.49402241383L423.3191389755501,283.22218289213896L423.69595790748735,281.445766086968L423.8843673734561,297.7265047807139L424.2611863053933,279.4880832009278L424.6380052373307,286.4111307279733L424.8264147032993,319.2518037316766L426.1452809650799,316.11015754500244L426.7105093629858,318.90111489636564L427.65255669282914,299.74508804164265L431.2323365462335,316.9276760514177L433.1164312059201,315.7736588714313L434.246888001732,301.22656825717075L434.81211639963794,282.9602343657398L435.3773447975439,317.29264081674944L435.9425731954499,316.30151150075716L436.13098266141856,324.02910211373916L436.3193921273872,295.55951117215943L438.20348678707376,286.00163675441127L438.3918962530424,311.55676725576814L438.580305719011,282.39172467905865L438.95712465094834,283.5908599356405L441.21803824257216,285.6339387048414L441.40644770854084,278.7635582144881L441.78326664047813,304.3145814479223L443.2905423682273,298.0637701446507L444.98622756194527,307.3953022437403L448.18918848341235,280.93008966056146L450.82692100697346,291.59759299711885L451.5805588708481,315.7268325715882L451.7689683368168,305.2842784931553L452.1457872687541,259.4885072385343L453.6530629965033,256.0558958478768L454.0298819284406,275.5603418002325L454.78351979231525,280.8992400250467L456.66761445200177,293.9299582680458L458.174890179751,269.258475499846L458.3632996457197,290.97862125669866L460.4358037713748,279.34785627972803L461.94307949912405,262.4818297461418L463.073536294936,271.50114867212784L463.2619457609046,295.084742498051L463.63876469284196,285.30510764818985L464.01558362477925,279.41814742179173L464.9576309546225,248.47900508601202L468.53741080802695,274.12530784512006L469.6678676038389,280.38264232963724L469.8562770698075,277.1084534311466L471.74037172949403,256.70321286773856L472.1171906614314,278.3805062472326L472.87082852530597,282.82463215611097L473.05923799127464,277.45597775578784L475.13174211692984,288.72791867827414L475.6969705148358,263.3083260882575L476.8274273106477,225.1749193638587L477.76947464049096,256.191321293496L478.1462935724283,280.13397427400264L478.52311250436554,291.80250669990954L478.8999314363029,300.1299315619123L480.59561663002074,320.2832007120348L481.3492544938954,321.5563157343525L482.10289235777,314.06537609250637L482.4797112897073,311.780803805944L483.04493968761324,280.4959618560566L484.74062488133114,276.71730726078624L484.9290343472998,282.104240453345L486.8131290069863,256.9155702304814L487.18994793892364,283.1791898223881L489.4508615305475,295.13618728211395L489.63927099651613,302.1700719904395L489.82768046248475,308.6098193092421L490.5813183263594,295.29769852037583L491.334956190234,283.2113581271283L492.465412986046,281.0791559070555L492.6538224520146,290.00630465206007L495.66837390751306,282.49640897772684L496.233602305419,291.9110693448714L496.798830703325,265.38884392601085L496.9872401692936,275.1082286645222L498.49451589704285,284.1823767488947L499.62497269285484,274.7317295905666L500.7554294886667,283.259707216639L501.69747681851,310.32024031769686L505.2772566719144,300.48350524625044L506.030894535789,296.37413698493134L506.40771346772635,258.3085420639685L507.3497607975696,245.3206261239887L508.2918081274128,276.374635934396L510.7411311850053,291.0012959905148L511.49476904887996,271.53437108642186L512.0599974467859,272.264603485231L514.8861394363157,304.5891459116818L516.9586435619709,292.2750325728756L517.1470530279396,291.7441869402479L517.7122814258455,257.6434437425971L518.8427382216574,283.6928899516926L520.161604483438,262.0434682717362L520.3500139494066,283.9351895337209L520.5384234153753,305.5496338629102L520.726832881344,295.241306546461L520.9152423473126,255.63565855774206L522.6109275410305,262.8606766626234L526.9443452583096,266.649801000199L527.1327547242782,276.3417818983135L527.3211641902468,274.84759649107684L528.6400304520274,281.00989441309L530.7125345776826,260.596535703084L531.0893535096199,291.8386739190052L533.3502671012437,315.62324514995555L533.5386765672124,303.59278847879L534.1039049651183,311.99879906468965L534.4807238970557,289.3387426654977L534.6691333630243,284.82520509202845L535.0459522949617,266.0556517287472L538.6257321483661,286.4826853042318L539.5677794782093,285.53401400822077L540.1330078761152,239.4267155708536L540.6982362740213,263.0681842603429L542.3939214677392,283.2460347019951L542.5823309337078,269.29115371466645L544.0896066614571,269.78255600991463L544.2780161274256,283.2288569985984L545.4084729232376,291.2723824736637L545.9737013211436,299.2217153649894L547.1041581169555,266.6347426149092L547.4809770488928,274.58645677164697L547.85779598083,272.0730094074558L551.0607569022973,289.7113353293877L551.4375758342345,321.9414292105846L551.6259853002032,298.4814903150053L551.8143947661719,271.21297480497253L553.886898891827,284.05807531740527L555.7709935515136,281.8009919512316L557.2782692792629,285.67474446140557L560.4812302007299,294.3025613926274L561.8000964625105,296.20552152767164L561.9885059284792,326.008431148201L562.5537343263851,322.67333380810436L565.5682857818836,308.66145192874797L566.3219236457581,296.6664262687146L567.2639709756014,305.2237321679687L567.6407899075388,324.7896339517586L568.0176088394761,303.15465519422384L568.3944277714133,320.06394527338864L568.7712467033506,324.8859469208617L569.5248845672253,304.324101041354L569.713294033194,288.8571109772691L570.2785224310999,300.22966911878024L571.4089792269118,293.03234477374855L571.785798158849,243.82235795345449L572.3510265567551,265.96715904813806L573.8583022845044,285.1469774801435L574.2351212164416,277.84811903647545L574.4235306824103,297.14560743782306L574.6119401483788,296.85359077084325L576.1192158761281,293.1277973919682L578.9453578656579,314.131983828987L579.3221767975953,321.31738426442996L579.6989957295326,302.15444277409006L580.0758146614698,290.71530835512607L582.148318787125,304.1720260090147L582.9019566509998,302.2204204530813L585.3512797085921,278.57793699642L586.1049175724668,307.59356979001404L589.6846974258711,299.44611819997846L592.5108394154009,292.6994595084363L592.6992488813696,305.4604911733783L593.8297056771816,289.22857363735926L594.0181151431502,265.8589771948122L594.3949340750875,295.37340260802466L594.9601624729935,302.88998402790634L595.9022098028368,279.11059005054386L596.6558476667115,308.1163688068002L597.0326665986487,306.5387685782044L600.0472180541472,322.19178139820076L602.1197221798024,317.77448906467663L603.4385884415829,259.09303957206265L603.6269979075516,271.17675741630984L604.9458641693321,298.5977377858396L605.5110925672382,304.8333645464325L610.0329197504858,299.5395993184825L610.5981481483917,318.02881411407344L611.9170144101723,263.173437341503L612.4822428080782,285.0708451908705L612.670652274047,272.90656497494206L613.0474712059843,280.2346067414083L613.2358806719529,291.2406169424279L614.5547469337336,294.51000683847684L617.0040699913259,274.14130739567224L617.9461173211693,249.61582175800487L619.6418025148871,273.7102039877998L620.0186214468243,291.65840462920477L620.3954403787618,316.80019710085674L621.7143066405424,239.68645089413567L624.1636296981347,256.9960115857785L624.5404486300721,222.69422287846788L625.670905425884,226.16413275188282L627.1781811536332,266.2998551225705L628.3086379494451,300.5080460581105L628.4970474154138,290.19319995829795L629.4390947452572,276.7315310349531L630.3811420751003,290.9482137869588L631.700008336881,313.0083451721502L633.2072840646301,304.72133127359217L633.9609219285048,273.8421998794806L634.7145597923794,277.491269656054L637.163882849972,292.2470791370402L637.5407017819092,294.64003637626064L637.9175207138464,295.5985180867453L638.4827491117525,294.05822625744446L639.4247964415957,291.751305557153L642.6277573630629,308.1173308748302L643.5698046929061,261.2512556076238L646.9611750803418,284.0299251678093L647.7148129442165,296.30479425666704L648.2800413421224,308.4988914367508L649.2220886719657,295.4511367639348L650.5409549337463,279.8197745023019L651.2945927976209,292.0178816005676L651.6714117295583,302.727982521315L652.8018685253701,320.0924792969849L652.9902779913388,307.2231536425435L654.1207347871507,294.9824742765398L655.4396010489313,300.1823798876149L656.5700578447432,306.8809280900194L657.1352862426492,294.4642583757481L658.2657430384611,302.58483225402125L660.3382471641163,303.59175497316187L660.7150660960536,312.58411779598197L662.5991607557402,329.52306372706533L663.1643891536461,304.726959717247L663.5412080855833,298.13267630026104L664.4832554154267,288.87220192806535L667.4978068709252,322.04357437836865L667.8746258028624,286.24501955190004L668.8166731327057,297.7107667941009L669.0050825986743,304.4940571872068L669.758720462549,280.336834492931L670.1355393944863,285.052580584131L671.4544056562669,280.24784480544963L672.7732719180475,295.8635089722216L675.0341855096713,287.5950298859645L675.9762328395145,288.82245809742L678.2371464311384,276.2725049537004L678.425555897107,258.79466227805614L679.5560126929189,281.1883725614061L679.7444221588876,273.8423587213747L682.3821546824488,276.1981751093542L683.1357925463234,290.7873221704641L683.5126114782607,278.57124665598445L683.889430410198,284.08767647563604L684.4546588081039,308.9939674651114L685.0198872060099,285.0480736030883L686.7155723997278,262.1764001300774L687.8460291955398,226.14205902345319L688.222848127477,262.4762180769807L690.2953522531321,268.6984483025216L690.4837617191008,292.08042115947546L691.6142185149127,316.12885575751477L692.9330847766934,301.6148982530411L697.454911959941,297.69694094835745L698.585368755753,241.85965823490082L698.9621876876903,265.17747996762864L702.918786473032,289.6368518889921L703.4840148709379,285.7279865822244L704.2376527348126,296.56960534738175L704.4260622007813,305.70124646598947L704.6144716667499,302.0444337262451L705.7449284625619,296.62669974124105L706.3101568604678,287.7843555056941L706.6869757924051,282.85199163595576L708.3826609861229,274.7415180555909L709.7015272479035,313.66379064493134L710.6435745777468,299.5835847820402L712.1508503054961,285.4853778595363L712.9044881693707,281.00833908642403L713.6581260332453,273.14280126043747L716.1074490908378,302.3997553280792L716.4842680227752,314.5991817916864L717.0494964206811,305.77632993633466L719.3104100123049,313.6138379567582L720.0640478761795,308.20530926350983L721.0060952060228,321.2170778225791L721.38291413796,272.3025441297384L723.2670087976466,304.29847301141876L723.643827729584,304.78346806142105L724.0206466615213,313.4376141456058L726.4699697191137,299.1094572555693L729.4845211746122,285.6920518039001L730.4265685044554,298.285840057133L731.745434766236,303.954646625705L736.4556714154523,324.4638991641537L736.644080881421,311.79533295227435L736.8324903473896,295.8168831547877L738.1513566091702,294.6444783195564L740.0354512688567,279.37063048581973L741.5427269966059,268.86448055775566L742.673183792418,287.5029611042832L742.8615932583865,298.546945806899L743.6152311222612,276.93164674249795L745.6877352479164,278.23446109972645L746.8181920437283,232.55894189849468L747.9486488395403,254.98440102872283L748.5138772374462,262.84001656537197L751.340019226976,271.68073924786734L752.0936570908507,267.1035645415739L753.4125233526312,286.3345164662441L754.1661612165058,269.64045681260706L755.1082085463491,283.46239023453904L756.0502558761923,272.90930257950276L756.803893740067,288.1626650920234L756.9923032060357,298.089210205178L759.0648073316908,288.8126878452278L759.2532167976594,290.4541409668544L761.3257209233146,287.8353452532205L761.702539855252,241.7570603740583L761.8909493212205,253.13617203224987L763.2098155830012,288.25500224506897L763.5866345149385,252.6140495150997L763.7750439809071,277.7843935678607L763.9634534468757,292.7493808505293L764.1518629128445,288.6509884257664L765.2823197086564,283.85289183397623L769.4273279599668,267.149411100507L772.6302888814338,287.25458138496055L773.5723362112772,299.8817117593311L773.7607456772457,316.34990322739446L774.1375646091831,269.5312933465036L775.6448403369322,278.7469246366862L777.9057539285562,291.69004754847055L786.5725893631142,316.00013351374804L789.2103218866754,331.777746522463L789.398731352644,316.2650266979493L791.4712354782993,307.0836207381215L791.6596449442678,307.82058508725976L792.0364638762052,268.6819132396385L792.4132828081424,278.1478662792L792.9785112060484,280.53052457731417L793.1669206720171,298.5932131911608L793.5437396039544,301.48729607658873L797.8771573212334,311.6407527245823L798.8192046510767,289.84220091187694L799.3844330489826,301.89200473733575L799.9496614468886,298.4173715597921L800.8917087767319,312.42084424212123L802.964212902387,304.4184962064142L804.659898096105,331.67754436812794L805.225126494011,326.590042655473L805.4135359599795,332.3895698386819L807.1092211536975,309.7862233665932L808.2396779495094,301.6061961942694L811.2542294050079,296.5258326397461L812.3846862008198,277.41044923425363L813.1383240646943,262.8084981784675L813.7035524626004,281.1863374181889L814.8340092584123,295.722408935749L815.2108281903496,326.47263247700005L816.9065133840675,301.20575331477556L817.660151247942,276.41018081384044L818.790608043754,281.6080144924153L819.7326553735973,291.2992296566942L820.8631121694091,317.0543004780547L822.558797363127,307.4947489865462L823.8776636249075,275.98826870642193L824.6313014887822,279.29924596518134L826.3269866825001,295.22735013158143L829.15312867203,299.54881856338443L830.4719949338105,293.9659527203293L831.0372233317164,304.3817838026764L831.4140422636538,324.8934670390748L831.6024517296223,312.21445907862534L832.356089593497,302.9545802856016L832.5444990594657,315.1849128495781L834.9938221170582,287.8261580405472L836.1242789128702,292.9808562639074L836.3126883788389,324.8424996324012L836.6895073107761,288.50335587471056L837.819964106588,299.26574785497525L838.385192504494,298.936956449121L839.5156493003059,292.8378886213317L840.2692871641805,279.5970176054956L841.5881534259611,295.7223881993748L843.4722480856476,287.540587454203L844.6027048814595,300.23425387758124L845.3563427453341,303.6611897047769L845.92157114324,312.55432535695036L847.4288468709893,315.18361784267245L847.8056658029266,293.1326988480952L850.2549888605191,298.2836169128842L851.0086267243937,281.9782332012067L851.1970361903625,281.4070707086639L854.7768160437669,286.2866099250609L854.9652255097354,295.4217252456134L855.5304539076413,268.76981778799137L856.849320169422,226.70970097773173L857.2261391013594,256.2696124130718L858.7334148291086,280.0743205190411L859.1102337610458,265.887047035492L859.2986432270145,290.6979769045804L861.7479662846071,286.6446304746822L862.1247852165443,251.39729826489048L864.0088798762308,266.51470203324595L864.5741082741367,270.0537855108926L866.646612399792,276.21397727308903L867.211840797698,234.9081811487415L867.5886597296352,267.98889993960483L867.9654786615725,309.84565699159816L870.2263922531964,283.84164199545404L873.4293531746634,273.0025200097396L874.3714005045068,302.53386695877646L876.2554951641933,309.24276471739176L877.3859519600053,299.32440573722124L878.7048182217858,294.11471876180025L879.8352750175978,302.80064728309804L880.2120939495351,277.6809386954186L880.9657318134097,254.6011503749623L882.2845980751902,283.57191690123904L882.4730075411588,271.7715988018037L882.6614170071276,266.08523039729926L884.5455116668141,268.56100473092476L888.5021104521558,271.5493300425899L889.444157781999,256.58104538617334L890.3862051118424,280.26639463056364L891.5166619076542,274.895252838775L893.4007565673409,277.19984917806994L894.342803897184,294.31889376019706L895.473260692996,315.34539535787366L896.2268985568707,299.35739231004806L896.4153080228393,296.91931191230344L897.9225837505885,295.2603944987903L898.4878121484944,290.91947914907377L898.6762216144631,304.96396713248527L899.0530405464003,282.1541660304453L899.6182689443064,318.3888391627959L899.806678410275,298.63523365384196L899.9950878762437,272.8699372984301L900.937135206087,290.0484856664721L901.3139541380243,283.1533909099765L901.8791825359302,267.82582756301576L902.0675920018988,243.9249273684523L902.2560014678676,263.51018827770486L902.4444109338363,268.98214951899917L902.8212298657735,241.37051589376324L903.3864582636794,275.6550992216463L903.5748677296481,259.46984443630083L904.70532452546,281.0542550336973L905.835781321272,276.39969503176434L906.2126002532092,281.52442551627115L906.7778286511152,279.08411517907564L909.0387422427391,281.22961329633904L910.5460179704883,262.3932770252329L910.7344274364569,285.1254285012451L910.9228369024255,307.5722101824399L912.0532936982376,315.72625985759856L913.372159960018,291.66161231744593L914.3142072898614,278.0502578754502L915.6330735516418,280.06001458131186L918.0823966092344,285.501026556176L919.2128534050464,294.8734959090761L919.5896723369837,290.72221195497474L920.1549007348897,266.6093890162889L921.4737669966702,296.5156131980313L922.6042237924821,309.139288117265L923.1694521903881,305.2438985088887L923.5462711223254,294.0489256027651L923.734680588294,317.4672220230211L927.3144604416984,306.18339964683764L929.0101456354163,311.47520261158206L931.2710592270402,335.9928764378247L931.8362876249461,329.3273288028789L932.4015160228521,277.5515492120853L934.8508390804445,282.44887330649715L936.3581148081938,294.8707523606082L937.865390535943,292.63925544647714L938.0538000019117,309.0256761534501L938.6190283998177,302.7627286750983L938.9958473317549,294.1464822921885L939.1842567977236,293.9677529877734L941.8219893212848,325.5065862405068L943.329265049034,321.5801561163597L946.1554070385638,305.25655699793094L947.4742733003444,325.52693533867983L948.6047300961562,328.7885324166048L949.1699584940623,314.63191134014846L949.3583679600309,299.3068087673165L950.4888247558429,271.1736750746172L952.9381478134353,290.4718691773086L953.3149667453727,277.80500623721855L953.5033762113413,246.6553747156135L953.69178567731,274.36529703315205L954.822242473122,268.5445656596917L955.7642898029651,283.6574229455841L958.2136128605576,287.62015110088447L961.2281643160561,289.7067004393448L962.5470305778367,300.928299073787L963.4890779076799,308.3233890017339L963.6774873736487,321.59616430700794L964.8079441694605,324.2119235610594L966.5036293631783,310.48656162215866L967.0688577610844,289.38069011377246L967.257267227053,285.95207343699224L967.6340861589903,277.88404082593746L968.7645429548022,284.1426612840053L968.9529524207709,279.441385938143L969.3297713527081,306.5043481369329L970.2718186825515,301.2896078019811L970.8370470804574,298.290758488516L973.6631890699872,273.9099495896955L974.6052363998306,244.32738412244254L975.7356931956425,244.61319272221877L977.0545594574229,262.73850974661946L977.8081973212976,269.96778978634615L978.3734257192035,286.58740734852125L981.1995677087334,289.4215239033116L982.7068434364826,265.70924790382736L983.4604813003573,263.60137027694327L983.6488907663258,285.27963313764843L987.0402611537617,312.2490443868044L987.6054895516676,303.3345163149001L987.7938990176364,312.9189412644316L988.1707179495736,290.8902277186486L988.5475368815108,296.9718248034155L988.7359463474795,282.5212375220057L989.4895842113542,274.2792179938486L989.6779936773228,306.9745387618968L991.750497802978,284.5298566176931L992.8809545987899,287.86851435425876L993.6345924626645,303.16959842874064L997.9680101799435,304.436969532081L1000.417333237536,300.10936365096705L1001.9246089652853,297.46327577115534L1002.8666562951286,306.2889098216712L1003.0550657610972,290.13843230045256L1003.4318846930345,291.2560643838215L1003.6202941590032,298.3899582853632L1005.5043888186897,272.80480037775885L1005.6927982846584,291.46698190639324L1008.5189402741881,297.4212490749665L1009.0841686720942,289.97962818264773L1011.1566727977493,282.961098764022L1011.3450822637179,277.3288507401921L1011.7219011956553,282.19805077423894L1011.910310661624,302.82279344658446L1013.7944053213105,273.32236157799827L1015.1132715830911,273.9378165021869L1015.8669094469656,286.26015804561393L1016.6205473108403,281.2777757655348L1018.3162325045581,286.0159538549159L1019.2582798344015,287.6019594407951L1019.6350987663387,278.90725003212236L1020.011917698276,279.7067600756763L1021.7076028919939,276.80457079694423L1022.6496502218372,278.75423801424046L1023.5916975516803,284.8020667021251L1026.2294300752417,320.0320503405559L1026.4178395412102,296.0188466694914L1026.7946584731476,305.40511695608683L1027.7367058029909,309.5427743051087L1029.4323909967086,289.4460649101641L1030.5628477925206,286.0369178010451L1033.012170850113,305.1396107995324L1034.707856043831,306.0718106010088L1035.0846749757684,300.8018310274528L1035.8383128396429,310.9486083135559L1036.0267223056117,255.91058040724684L1036.7803601694861,302.7089607172909L1037.9108169652982,261.6469790206158L1039.04127376111,255.0466067810574L1039.9833210909533,239.2088193584269L1040.3601400228906,259.5292783349628L1040.5485494888594,286.64699033163055L1040.9253684207965,275.14809742847945L1042.9978725464516,283.50769833073355L1043.7515104103263,272.93209119705574L1045.4471956040443,255.40698885985867L1046.200833467919,267.16711180857146L1046.9544713317935,287.44630756318065L1047.8965186616367,300.28810161818683L1048.0849281276055,316.8136040385559L1048.83856599148,316.39175573732723L1050.1574322532606,300.83254331696645L1051.0994795831039,311.4286435181578L1051.4762985150412,290.046859361481L1051.8531174469786,296.5007750693713L1052.0415269129471,253.5918913006634L1053.737212106665,291.0387862601558L1053.9256215726336,290.4299033616804L1054.1140310386024,307.8000101032988L1055.2444878344143,302.27016773324516L1056.374944630226,305.0153047845881" fill="none"></path></g></g></g></g><g opacity="0.2"><g><g><g><path style="fill: none;" stroke="rgb(255, 112, 67)" stroke-width="2px" d="M5.992171854982357,-98.86157398182544L9.006723310480814,88.98519424437339L9.383542242418121,41.8268932843046L9.948770640324081,-31.34306161264481L11.456046368073311,6.734677217954244L12.021274765979273,229.50333987538343L14.847416755509075,180.95513962096976L15.412645153415038,122.30913901441224L19.18083447278811,122.84957336557896L20.688110200537338,148.56922495341306L21.253338598443296,175.2059970591216L21.44174806441195,172.8659793086933L22.760614326192524,146.48495755971766L25.209937383785025,218.78073499818075L27.659260441377523,219.917406154436L29.73176456703271,173.6659538788031L30.67381189687598,245.92242129820366L31.239040294781937,183.36538743869917L32.93472548849982,216.74791825111066L33.123134954468476,200.4873837535783L35.007229614155015,219.6441701575749L35.94927694399828,232.92740197130743L36.326095875935586,234.29273250373825L36.51450534190424,191.01301573500334L37.268143205778856,162.44498212096627L38.77541893352808,193.38693314947685L40.28269466127731,194.17112098320786L40.471104127245965,188.50527697904053L41.413151457089235,206.4296263292786L43.48565558274442,227.00600363776297L44.616112378556345,257.6393161289735L45.55815970839961,236.4763857667721L48.384301697929416,215.8534454270645L49.51475849374134,239.07262433958698L50.45680582358461,166.0368567018575L51.77567208536519,270.0074922463117L52.529309949239796,183.6009339093049L52.9061288811771,222.60603895423614L56.48590873458152,216.720644311688L57.42795606442479,260.1455912140138L57.616365530393445,226.17361921151127L58.558412860236714,303.3338024131093L59.50046019007998,257.5914985226738L59.877279122017285,215.4839992040272L61.384554849766516,214.17241937252857L61.57296431573517,207.21514714902833L63.645468441390356,232.97429171479024L65.34115363510824,97.71870954331686L66.84842936285747,283.39231850425693L69.86298081835594,266.55082426689006L70.61661868223055,257.64003489594444L72.50071334191708,293.55838865014493L80.79072984453784,203.527271437807L80.97913931050648,228.48301748897964L82.48641503825571,232.0473959661117L84.18210023197359,210.45757029716336L84.5589191639109,242.14320990771787L84.74732862987956,248.76592877749496L85.31255702778552,173.73004175562568L86.44301382359744,115.188223154376L88.13869901731532,221.7420810552268L88.70392741522129,272.6394339348442L88.89233688118993,225.90853795264715L90.77643154087647,246.77993643145572L93.97939246234358,294.51045431129495L94.35621139428089,218.10718500400523L97.93599124768531,233.06158923052735L98.31281017962262,273.1258692837615L98.87803857752857,145.76339393188678L100.3853143052778,248.14708348404935L101.51577110108973,283.5150446974137L101.89259003302705,210.93937940048625L102.457818430933,258.89971975214485L103.58827522674493,241.7265733659191L104.53032255658819,297.15142632667994L106.41441721627473,186.47817116226645L107.54487401208665,123.57296658206305L108.67533080789858,175.69449722951893L109.42896867177319,152.96949021221863L110.55942546758511,203.68273419936526L110.93624439952241,253.5271326721005L111.50147279742838,114.6936069304809L111.87829172936569,252.32922256992546L112.06670119533433,288.2070378669678L113.00874852517761,260.671075212186L113.19715799114626,272.2951837612592L114.89284318486413,244.3358804291138L116.40011891261337,266.1894805078882L117.34216624245664,274.9181343284104L118.2842135722999,200.59091233436718L118.66103250423721,265.8525748258967L120.92194609586105,254.30648516439098L122.24081235764163,259.0675975795639L122.42922182361028,250.91653182835825L122.80604075554758,242.47892635708484L123.37126915345355,277.7084530518559L123.74808808539086,271.0175297307866L126.0090016770147,231.0361431120315L126.57423007492066,266.60403915971665L127.32786793879528,259.5316073989895L127.89309633670123,275.90304110588494L128.4583247346072,296.9781642812244L129.21196259848182,271.2940328502426L129.40037206445047,342.6075564147783L130.15400992832508,308.59899263921227L131.09605725816834,255.89271238971173L133.16856138382354,296.4375077657212L134.4874276456041,285.73509370615534L135.99470337335336,253.74544180389526L136.74834123722798,252.5179838449715L137.5019791011026,272.6223926233889L137.6903885670712,290.04193232723566L139.0092548288518,298.6301652186267L140.70494002256967,309.73206996061305L141.4585778864443,289.44340853633065L142.2122157503189,215.9804450165755L142.96585361419352,333.9788569429261L143.1542630801622,188.4274410503384L143.9079009440368,256.3378251720481L145.60358613775466,323.52946845984894L146.35722400162928,321.6362035872997L146.54563346759795,253.87002372268603L146.7340429335666,308.0908243907933L147.1108618655039,237.9602997809093L147.29927133147257,257.53453297310824L148.42972812728448,235.96813910741085L149.1833659911591,241.37780149466266L149.37177545712774,252.25818225622083L149.74859438906503,138.2309251728095L150.69064171890832,156.8348882967593L150.87905118487697,194.63724789807497L151.06746065084565,293.6744237762273L151.82109851472023,289.43874308526506L152.57473637859485,271.63288573730074L153.5167837084381,335.26034004108004L153.7051931744068,244.59053303265478L153.89360264037543,275.650178885526L158.22702035765445,264.2519722611582L158.98065822152907,230.71093372892992L159.3574771534664,265.6030973445461L160.29952448330965,138.9904396967034L164.82135166655735,302.87669275660426L165.19817059849467,232.94808939157872L166.1402179283379,293.2236131320853L166.51703686027523,212.43093848149562L167.27067472414984,217.04913388587497L167.64749365608714,258.33912072032206L169.15476938383637,279.7693409162618L170.2852261796483,275.1362866383206L171.03886404352292,220.67890708886762L172.3577303053035,317.67436657800124L172.7345492372408,170.61325907400214L173.86500603305274,223.55021124719673L174.24182496499003,268.44584685139534L174.80705336289597,289.3338292444959L175.37228176080194,304.77682512084806L176.87955748855117,297.73919475000235L177.06796695451982,258.6097822245783L177.6331953524258,251.34179357380765L178.95206161420634,263.95278224240275L179.51729001211234,269.1848046399218L181.2129752058302,306.98815744650636L181.9666130697048,280.69994811620813L182.53184146761077,203.9795718898523L182.72025093357942,298.58006062651054L184.41593612729733,224.86393431111767L184.60434559326595,218.08239407775477L185.35798345714056,268.98873807875344L185.73480238907788,268.35763454133166L185.92321185504656,304.8503353792345L186.67684971892118,289.68101982841637L186.8652591848898,226.9483193212265L187.4304875827958,300.0312511407367L187.6188970487644,259.29083353223183L189.12617277651364,269.90175509064863L189.87981064038826,163.67600777776377L190.25662957232558,282.2567973751551L190.63344850426287,234.15986516204669L190.82185797023155,207.80894014641584L192.5175431639494,282.6996101031846L193.0827715618554,205.79014588952327L194.59004728960463,305.8635746438524L194.96686622154192,227.29230812500387L196.85096088122845,239.54877478657536L198.169827143009,331.92601273434894L200.61915020060152,272.5371599291318L201.74960699641343,288.8835282714788L202.3148353943194,307.6700451375441L202.6916543262567,239.78390306548894L203.4452921901313,240.28327621988234L204.19893005400593,241.54502589756277L204.57574898594322,297.06488678338485L205.5177963157865,227.86668134568697L205.70620578175516,280.15359373889936L207.40189097547307,240.01477101653873L208.53234777128498,302.7678714372115L209.2859856351596,254.8600533483894L209.47439510112827,296.7275367727204L211.3584897608148,288.64564254109507L212.30053709065805,291.9337792685787L214.9382696142192,180.41778943353268L215.3150885461565,299.8406472085472L219.08327786552957,300.7562125760664L219.27168733149824,180.52563061614688L220.02532519537286,212.06958165400346L220.2137346613415,328.9999646698188L220.40214412731015,265.80024859041595L223.79351451474594,203.6125564060257L226.05442810636976,291.6589227789105L226.2428375723384,309.79566123480123L227.37329436815034,342.4983169036935L227.75011330008763,288.910201060344L228.69216062993092,266.54337522737353L233.5908067451159,258.3709424943969L233.9676256770532,313.52261173225816L235.85172033673976,259.69559081627534L237.92422446239493,343.5903199598305L238.4894528603009,274.99203664150826L239.05468125820684,244.0660030342803L241.50400431579936,272.389041659167L242.82287057757992,279.2818470196237L243.95332737339183,295.3063123069351L245.2721936351724,287.8226674279168L246.40265043098435,259.54425769767715L248.28674509067088,258.90502555923905L249.22879242051417,311.96001233754413L249.41720188648281,193.17744524868846L249.98243028438878,294.44298169546397L251.1128870802007,342.87998869948103L251.48970601213802,260.9603462467431L252.05493441004396,271.51400168031563L252.62016280794992,258.5837367232514L253.18539120585586,243.75379679910657L253.37380067182454,278.98975319114453L256.7651710592603,326.4903179142606L259.5913130487901,277.0249317995206L262.41745503831993,335.47912617277365L262.98268343622584,204.08413288138118L263.1710929021945,260.6272827009233L263.5479118341318,259.96772905994453L263.7363213001005,226.7948037647348L267.88132955141083,303.9533926105065L268.82337688125415,233.2760170206793L269.38860527916006,260.79487302155394L270.1422431430347,277.55540796101786L270.519062074972,279.66591688339594L271.27269993884664,259.48957913392803L272.02633780272123,171.66370433073138L272.7799756665958,303.82792203437L277.4902123158122,217.9578905699063L277.67862178178086,309.6983924609043L279.751125907436,282.458182811908L281.25840163518524,247.82738900388802L281.4468111011539,269.7689400229186L282.0120394990598,299.3221679212185L282.3888584309972,308.3742799471314L282.57726789696585,162.5466549761212L284.2729530906837,262.1259641091897L285.59181935246426,247.56260832030264L288.4179613419941,330.1634589025786L288.6063708079627,236.05249621281254L289.1715992058687,307.42256713522164L292.7513790592731,304.1370310373236L293.6934263891164,262.80408807499805L293.88183585508506,247.5530029798735L294.25865478702235,275.77276132528857L295.57752104880296,282.0510731995961L296.8963873105835,272.94438715785714L297.0847967765522,272.84504049398976L298.78048197027005,311.1303069518202L299.5341198341447,307.42176995730847L299.9109387660819,307.67149573997625L300.66457662995657,271.7181315000483L302.3602618236745,248.36792790297778L303.67912808545503,268.67731595300256L303.8675375514237,346.07379706340316L304.80958488126697,276.8234940888062L306.3168606090162,297.90999991926645L308.01254580273405,158.98055145825901L308.2009552687027,274.034835063639L308.9545931325773,219.22388750696015L309.89664046242063,188.32007033337783L310.46186886032655,222.7403699668502L310.8386877922639,287.2583830818069L311.40391619016987,281.90488906620755L311.9691445880758,278.820725336572L312.72278245195037,261.7249966873563L314.2300581796996,253.52600878192786L315.73733390744883,273.6164604126197L316.4909717713235,222.68235893805425L317.05620016922944,310.68295945762895L317.24460963519806,233.58647207814212L318.37506643101005,318.58734438442525L320.0707516247279,331.948791113081L320.8243894886025,308.4353359341859L321.01279895457117,203.4486252627013L321.20120842053984,319.16307672810785L321.57802735247714,237.52786343424137L322.1432557503831,265.4479743637378L323.46212201216366,249.56322430707684L325.15780720588157,283.9708867103519L327.04190186556804,246.35488378185235L327.7955397294427,215.07840553659938L328.17235866138003,284.6468413067573L328.737587059286,275.31544257293746L329.67963438912926,293.6201111302088L330.24486278703523,221.64973910220306L330.43327225300385,311.9227671399616L330.62168171897247,332.2622519233311L331.56372904881573,264.65376299788545L334.2014615723769,273.3217136805934L335.8971467660948,265.0560634057376L337.02760356190674,264.96097706973404L338.34646982368736,263.63564918635586L338.534879289656,220.47625400854784L340.2305644833738,293.85935598359197L341.54943074515444,191.06988980513626L343.81034433677826,297.2792361625945L345.12921059855887,242.14181157924725L345.50602953049616,307.325860306411L346.25966739437075,284.96599997881304L348.14376205405733,273.8831883012716L348.33217152002595,285.75595101680153L348.8973999179319,178.81567092391006L349.8394472477752,275.91857954094655L350.59308511164977,313.22348705595465L353.04240816924226,292.1504809760567L353.60763656714823,286.6226271618099L354.73809336296017,320.27260462984424L354.92650282892885,249.51468793380624L355.11491229489747,250.32072628345225L361.5208341378317,366.0717825904126L362.6512909336436,191.96113471205865L363.97015719542424,222.04845874369107L365.1006139912361,283.0334577584273L365.8542518551107,274.43126771931054L366.23107078704805,250.58025343390491L366.60788971898535,308.43188585272566L367.7383465147973,236.19634108642313L368.3035749127032,328.01981482284253L368.68039384464055,267.80384419299673L369.2456222425465,258.9901014316116L369.81085064045243,312.26048306835673L370.3760790383584,286.56034273665966L372.07176423207625,366.5393535734667L372.4485831640136,224.12228441357303L374.7094967556375,287.6333050023133L374.8979062216061,268.9071122878412L375.08631568757477,348.16548082538907L377.7240482111359,349.8862089536989L378.4776860750105,341.680908967417L379.2313239388851,267.9508255042985L379.98496180275976,286.99850308211404L380.73859966663434,223.18370543449493L381.1154185985717,303.07796057694367L381.492237530509,277.8148697690187L382.9995132582582,223.3691865184556L383.37633219019557,334.08381652341154L383.9415605881015,309.79077361939915L384.50678898600745,320.237881650905L385.0720173839134,226.5569441713319L385.4488363158507,269.0843602228626L386.0140647137567,299.31426148453875L389.5938445671611,253.4816935310499L391.85475815878493,265.04688932549095L392.04316762475355,278.1889683746312L392.2315770907222,321.5177311877615L392.6083960226596,267.7185330877973L392.7968054886282,314.086791530445L393.17362442056555,366.80169044935104L393.5504433525028,224.38788841205226L394.3040812163774,193.05172637123465L395.057719080252,322.1005401189848L395.9997664100953,269.8728345214381L396.3765853420326,270.24859282532884L397.6954516038132,300.22088800463814L398.26068000171915,309.3151589805163L399.2027273315624,267.1022622869566L399.95636519543706,329.4941496335314L400.8984125252803,272.5956806290526L401.27523145721756,303.3790978007657L401.4636409231863,313.6386076528694L404.289782912716,313.4979906963826L404.855011310622,192.9553854601547L405.420239708528,198.49033546467783L405.60864917449663,321.55764235738144L406.3622870383712,287.88944741375764L406.7391059703086,349.04781302187246L407.68115330015183,290.6251267789251L407.86956276612045,253.17140836396203L409.18842902790107,247.22482704945568L409.3768384938697,351.1698352842751L410.1304763577443,342.50415851889323L410.5072952896816,329.6051795277982L410.8841142216189,269.5273689782478L411.63775208549356,288.52554311450456L413.5218467451801,165.8698152578227L413.8986656771174,314.5433784473349L414.27548460905473,367.4201110168593L414.46389407502335,251.68688013077698L415.217531938898,228.67481065379374L415.78276033680396,311.17496198344804L417.2900360645532,349.83366708812684L418.0436739284278,322.42695833744654L420.6814064519889,343.2448282796594L421.43504431586354,270.34343086001513L421.8118632478009,269.1242060500306L422.7539105776441,309.9799530861373L422.94232004361277,224.3108104557922L423.3191389755501,305.31442360960233L423.69595790748735,278.7811408792116L423.8843673734561,322.14761282133287L424.2611863053933,252.13045083124854L424.6380052373307,296.7957020185415L424.8264147032993,368.5128132372316L426.1452809650799,311.3976882649912L426.7105093629858,323.0875509234104L427.65255669282914,271.0110477595582L431.2323365462335,342.7015580660803L433.1164312059201,314.0426331014516L434.246888001732,279.40593233578L434.81211639963794,255.56073352859337L435.3773447975439,368.79125049326393L435.9425731954499,314.81481752676876L436.13098266141856,335.62048803321204L436.3193921273872,252.85512475978985L438.20348678707376,271.664825127789L438.3918962530424,349.88946300780344L438.580305719011,238.64416081399446L438.95712465094834,285.3895628205131L441.21803824257216,288.6985568586429L441.40644770854084,268.4579874789582L441.78326664047813,342.64111629807365L443.2905423682273,288.68755318974314L444.98622756194527,321.39260039237485L448.18918848341235,241.2322707857931L450.82692100697346,307.59884800195493L451.5805588708481,351.92069193329235L451.7689683368168,289.62044737550593L452.1457872687541,190.79485035660275L453.6530629965033,250.9069787618906L454.0298819284406,304.817010728766L454.78351979231525,288.90758736226803L456.66761445200177,313.47603563254455L458.174890179751,232.2512513475464L458.3632996457197,323.5588398919776L460.4358037713748,261.9017088142721L461.94307949912405,237.18278994576244L463.073536294936,285.0301270611068L463.2619457609046,330.4601332369359L463.63876469284196,270.6356553733981L464.01558362477925,270.5877070821946L464.9576309546225,202.0702915823426L468.53741080802695,312.5947619837819L469.6678676038389,289.76864405641305L469.8562770698075,272.19717008341064L471.74037172949403,226.09535202262657L472.1171906614314,310.89644631647354L472.87082852530597,289.4908210194286L473.05923799127464,269.4029961553032L475.13174211692984,305.63583006200344L475.6969705148358,225.1789372032327L476.8274273106477,167.97480927726048L477.76947464049096,302.71592418795177L478.1462935724283,316.04795374476254L478.52311250436554,309.30530533877L478.8999314363029,312.6210688549165L480.59561663002074,350.51310443721843L481.3492544938954,323.465988267829L482.10289235777,302.8289666297371L482.4797112897073,308.35394537610046L483.04493968761324,233.56869893122558L484.74062488133114,271.04932536788067L484.9290343472998,290.1846402421832L486.8131290069863,219.13256489618604L487.18994793892364,322.57461921024804L489.4508615305475,313.0716834717027L489.63927099651613,312.72089905292785L489.82768046248475,318.26944028744595L490.5813183263594,275.32951733707654L491.334956190234,265.081847537257L492.465412986046,277.8808525769463L492.6538224520146,303.39702776956676L495.66837390751306,271.2315654662271L496.233602305419,306.0330598955882L496.798830703325,225.60550579772007L496.9872401692936,289.68730577228905L498.49451589704285,297.7935988754535L499.62497269285484,260.55575885307456L500.7554294886667,296.05167365574766L501.69747681851,350.91103996928365L505.2772566719144,285.72840263908085L506.030894535789,290.2100845929527L506.40771346772635,201.21014968252416L507.3497607975696,225.83875221401894L508.2918081274128,322.955650650007L510.7411311850053,312.941286074693L511.49476904887996,242.33398373028234L512.0599974467859,273.35995208344474L514.8861394363157,353.07595955135804L516.9586435619709,273.80386256466613L517.1470530279396,290.94791849130644L517.7122814258455,206.49232894612095L518.8427382216574,322.7670592653359L520.161604483438,229.56933575180147L520.3500139494066,316.772771426698L520.5384234153753,337.9713003566941L520.726832881344,279.7788155717871L520.9152423473126,196.22718657466356L522.6109275410305,273.69820381994543L526.9443452583096,272.33348750656245L527.1327547242782,290.87975324548535L527.3211641902468,272.60631838022175L528.6400304520274,290.25334129610985L530.7125345776826,229.97649763807485L531.0893535096199,338.70188124288705L533.3502671012437,351.30010199638104L533.5386765672124,285.5471034720418L534.1039049651183,324.6078149435391L534.4807238970557,255.34865806670976L534.6691333630243,278.05489873182466L535.0459522949617,237.90132168382524L538.6257321483661,317.12323566745863L539.5677794782093,284.1110070642043L540.1330078761152,170.26576791480292L540.6982362740213,298.5303872945769L542.3939214677392,313.5128103644733L542.5823309337078,248.35883223367347L544.0896066614571,270.51965945278687L544.2780161274256,303.398308481624L545.4084729232376,303.3376706862617L545.9737013211436,311.1457147019781L547.1041581169555,217.7542834897888L547.4809770488928,286.5140280067536L547.85779598083,268.3028383611691L551.0607569022973,316.1688242122854L551.4375758342345,370.28657003238015L551.6259853002032,263.2915819716362L551.8143947661719,230.31020153992336L553.886898891827,303.32572608605454L555.7709935515136,278.41536690197097L557.2782692792629,291.4853732266666L560.4812302007299,307.24428678946026L561.8000964625105,299.059961730238L561.9885059284792,370.71279557899504L562.5537343263851,317.6706877979593L565.5682857818836,287.6436291097134L566.3219236457581,278.6738877786645L567.2639709756014,318.05969101684997L567.6407899075388,354.13848662744346L568.0176088394761,270.7021870579217L568.3944277714133,345.42788039213576L568.7712467033506,332.11894939207133L569.5248845672253,273.4813322220924L569.713294033194,265.6566258811418L570.2785224310999,317.2885063310469L571.4089792269118,282.2363582562011L571.785798158849,170.00737772301332L572.3510265567551,299.18436069016343L573.8583022845044,313.91670512815176L574.2351212164416,266.8998313709733L574.4235306824103,326.09184003984456L574.6119401483788,296.4155657703735L576.1192158761281,287.5391073236557L578.9453578656579,345.6382634845152L579.3221767975953,332.0954849175944L579.6989957295326,273.41003053858014L580.0758146614698,273.5566067266802L582.148318787125,324.3571024898476L582.9019566509998,299.2930121191812L585.3512797085921,243.11421181142822L586.1049175724668,351.1170189804051L589.6846974258711,287.224940814925L592.5108394154009,282.57947147112304L592.6992488813696,324.6020386707912L593.8297056771816,264.8806973333309L594.0181151431502,230.80458253099164L594.3949340750875,339.64504072784325L594.9601624729935,314.1648561577288L595.9022098028368,243.4414990845002L596.6558476667115,351.62503694118465L597.0326665986487,304.1723682353106L600.0472180541472,345.67130062819535L602.1197221798024,311.14855056439046L603.4385884415829,171.07086533314163L603.6269979075516,289.30233418268057L604.9458641693321,339.72920834013445L605.5110925672382,314.1868046873217L610.0329197504858,291.5989514765575L610.5981481483917,345.76263630745984L611.9170144101723,180.8903721826474L612.4822428080782,317.91695696492167L612.670652274047,254.66014465104942L613.0474712059843,291.2266693911078L613.2358806719529,307.7496322439572L614.5547469337336,299.4140916825501L617.0040699913259,243.58825823146552L617.9461173211693,212.8275933015037L619.6418025148871,309.85177733249213L620.0186214468243,318.5807055913123L620.3954403787618,354.51288580833466L621.7143066405424,124.01583158405408L624.1636296981347,282.9603526232426L624.5404486300721,171.24153981750197L625.670905425884,231.36899756200532L627.1781811536332,326.5034386786019L628.3086379494451,351.8203324614206L628.4970474154138,274.72093080857906L629.4390947452572,256.5390276499357L630.3811420751003,312.2732379149674L631.700008336881,346.09854224993734L633.2072840646301,292.2908104257551L633.9609219285048,227.52350278831312L634.7145597923794,282.964874320914L637.163882849972,314.3807933585196L637.5407017819092,298.22947223509135L637.9175207138464,297.03624065247226L638.4827491117525,291.74778851349316L639.4247964415957,288.29092450671584L642.6277573630629,332.666368851346L643.5698046929061,190.9521427068142L646.9611750803418,318.1979295080876L647.7148129442165,314.71709788995366L648.2800413421224,326.7900372068764L649.2220886719657,275.87950475471087L650.5409549337463,256.37273110985257L651.2945927976209,310.31504224796606L651.6714117295583,318.7931339024362L652.8018685253701,346.1392244604897L652.9902779913388,287.91916516088133L654.1207347871507,276.6214552275343L655.4396010489313,307.98223830422745L656.5700578447432,316.9287503936263L657.1352862426492,275.83925380434107L658.2657430384611,314.76569307143103L660.3382471641163,305.10213905187265L660.7150660960536,326.07266203021214L662.5991607557402,354.9314826236904L663.1643891536461,267.53280370251946L663.5412080855833,288.2412511747822L664.4832554154267,274.9814903697718L667.4978068709252,371.80063305382356L667.8746258028624,232.54718731219722L668.8166731327057,314.90938765740225L669.0050825986743,314.6689927768656L669.758720462549,244.10100045151745L670.1355393944863,292.12619972093097L671.4544056562669,273.04074113742746L672.7732719180475,319.2870052223796L675.0341855096713,275.1923112565788L675.9762328395145,290.66360041460325L678.2371464311384,257.4475752381209L678.425555897107,232.57789826458978L679.5560126929189,314.778937986431L679.7444221588876,262.8233379613275L682.3821546824488,279.73189969132363L683.1357925463234,312.6710427621289L683.5126114782607,260.2471333842649L683.889430410198,292.36232120511346L684.4546588081039,346.3534039493244L685.0198872060099,249.12923281005368L686.7155723997278,227.86888992056117L687.8460291955398,172.09054736351678L688.222848127477,316.9774566572719L690.2953522531321,278.03179364083314L690.4837617191008,327.15338044490625L691.6142185149127,352.20150765457373L692.9330847766934,279.8439619963305L697.454911959941,291.82000499133204L698.585368755753,158.10373416471595L698.9621876876903,300.1542125667204L702.918786473032,326.32590977103735L703.4840148709379,279.8646886220729L704.2376527348126,312.8320334951178L704.4260622007813,319.39870814390105L704.6144716667499,296.55921461662837L705.7449284625619,288.50009876373514L706.3101568604678,274.52083915237375L706.6869757924051,275.4534458313483L708.3826609861229,262.57580768504357L709.7015272479035,372.04719952894203L710.6435745777468,278.4632759877034L712.1508503054961,264.33806747578035L712.9044881693707,274.29278092675565L713.6581260332453,261.3444945214577L716.1074490908378,346.2851864295418L716.4842680227752,332.89832148709735L717.0494964206811,292.542052153307L719.3104100123049,325.3700999873935L720.0640478761795,300.0925162236373L721.0060952060228,340.73473066118305L721.38291413796,198.93074359047745L723.2670087976466,352.29236633393936L723.643827729584,305.51096063642433L724.0206466615213,326.418833271883L726.4699697191137,277.6172219205144L729.4845211746122,265.5659436263963L730.4265685044554,317.17652243698234L731.745434766236,312.457856478563L736.4556714154523,355.22777797182664L736.644080881421,292.7924836344553L736.8324903473896,271.84920845855777L738.1513566091702,292.88587106670946L740.0354512688567,256.45985873521477L741.5427269966059,253.10525566565946L742.673183792418,315.46068192407455L742.8615932583865,315.1129228608226L743.6152311222612,244.5086981458964L745.6877352479164,280.1886826355692L746.8181920437283,164.0456630966471L747.9486488395403,288.62258972406505L748.5138772374462,274.62343987034563L751.340019226976,284.94182327161036L752.0936570908507,260.23780248213376L753.4125233526312,315.1809443532495L754.1661612165058,244.59936733215153L755.1082085463491,304.1952903674368L756.0502558761923,257.07967109694846L756.803893740067,311.04270886080434L756.9923032060357,312.9790278749099L759.0648073316908,274.8979043053025L759.2532167976594,292.91632064929445L761.3257209233146,283.9071516827696L761.702539855252,172.63963305531493L761.8909493212205,270.20483951953724L763.2098155830012,340.9332475642976L763.5866345149385,199.15262042014587L763.7750439809071,315.5399096470022L763.9634534468757,315.1968617745322L764.1518629128445,282.5033997886221L765.2823197086564,276.65574694629095L769.4273279599668,242.0941900003032L772.6302888814338,317.41233681164084L773.5723362112772,318.8224073208869L773.7607456772457,341.0521904294895L774.1375646091831,199.3033785251674L775.6448403369322,292.57037157196004L777.9057539285562,311.104731916147L786.5725893631142,352.4652624616643L789.2103218866754,355.4441660355356L789.398731352644,292.9959469611786L791.4712354782993,293.3115117983799L791.6596449442678,308.9260316109671L792.0364638762052,209.97390546820654L792.4132828081424,292.3467958385422L792.9785112060484,284.1045120244855L793.1669206720171,325.68724611193073L793.5437396039544,305.8284204047307L797.8771573212334,326.8709376965725L798.8192046510767,257.14437319281893L799.3844330489826,319.96671047552394L799.9496614468886,293.2054217934766L800.8917087767319,333.4260532656149L802.964212902387,292.4149741528537L804.659898096105,372.56611661069843L805.225126494011,318.95879008649064L805.4135359599795,341.08886061349517L807.1092211536975,275.88120365846027L808.2396779495094,289.33615543578355L811.2542294050079,288.90528730796115L812.3846862008198,248.73737412601506L813.1383240646943,240.9055715947882L813.7035524626004,308.753096277771L814.8340092584123,317.52651621208923L815.2108281903496,372.59796778887664L816.9065133840675,263.3054345714388L817.660151247942,239.2168220624378L818.790608043754,289.4047650102776L819.7326553735973,305.83605240311255L820.8631121694091,355.6869067100954L822.558797363127,293.15542174928345L823.8776636249075,228.72854828623557L824.6313014887822,284.26571185332045L826.3269866825001,319.1195063811815L829.15312867203,306.0310212110889L830.4719949338105,285.5916539557465L831.0372233317164,320.0055304261972L831.4140422636538,355.66099189367225L831.6024517296223,293.19594713795124L832.356089593497,289.06476209606603L832.5444990594657,333.53041169554285L834.9938221170582,246.78802582700084L836.1242789128702,300.71290359894766L836.3126883788389,372.6349646851419L836.6895073107761,233.99464023817475L837.819964106588,315.4093358253723L838.385192504494,298.4437693403395L839.5156493003059,283.68928687964774L840.2692871641805,259.7357110817414L841.5881534259611,319.91044409019366L843.4722480856476,275.2678863364453L844.6027048814595,319.27475351264854L845.3563427453341,308.80159344557046L845.92157114324,325.8940288352105L847.4288468709893,319.1275565712555L847.8056658029266,260.05632035622926L850.2549888605191,306.0099940100678L851.0086267243937,257.5201576336904L851.1970361903625,280.55032696984966L854.7768160437669,293.6059187496563L854.9652255097354,309.1243982264422L855.5304539076413,228.79195660155835L856.849320169422,163.61952576234222L857.2261391013594,300.60947956608186L858.7334148291086,315.7813826779951L859.1102337610458,244.60613681016827L859.2986432270145,327.914371708213L861.7479662846071,280.5646108298348L862.1247852165443,198.52629995020303L864.0088798762308,289.1908076857793L864.5741082741367,275.3624107273625L866.646612399792,285.4542649163836L867.211840797698,172.9494869622203L867.5886597296352,317.60997812589994L867.9654786615725,372.6307925695881L870.2263922531964,244.83561950123777L873.4293531746634,256.7438370311681L874.3714005045068,346.8308873823316L876.2554951641933,319.30611135531484L877.3859519600053,284.44686726696546L878.7048182217858,286.30018829866873L879.8352750175978,315.82954006504474L880.2120939495351,240.0013758138994L880.9657318134097,219.9814678942778L882.2845980751902,327.0280666906542L882.4730075411588,254.07112165265053L882.6614170071276,257.55567779054275L884.5455116668141,272.2746662313629L888.5021104521558,276.0318180100876L889.444157781999,234.12861840154858L890.3862051118424,315.794418497149L891.5166619076542,266.838540151092L893.4007565673409,280.65674368701247L894.342803897184,319.9974606333877L895.473260692996,346.8851477543886L896.2268985568707,275.37538773830966L896.4153080228393,293.2621913156865L897.9225837505885,292.7720183785205L898.4878121484944,284.4081061244989L898.6762216144631,326.0306991076026L899.0530405464003,247.9394643773853L899.6182689443064,372.7408488613217L899.806678410275,269.004825390411L899.9950878762437,234.22199276531236L900.937135206087,315.8163082185352L901.3139541380243,272.81074877523315L901.8791825359302,244.83448254257473L902.0675920018988,208.073577076607L902.2560014678676,292.88807964158366L902.4444109338363,277.19009138094066L902.8212298657735,199.95306545590935L903.3864582636794,327.08197421347097L903.5748677296481,235.1919622582827L904.70532452546,313.4308709297919L905.835781321272,269.41785502886495L906.2126002532092,289.21152124303126L906.7778286511152,275.42364967328234L909.0387422427391,284.4478604722343L910.5460179704883,234.13877261857368L910.7344274364569,319.2236557152635L910.9228369024255,341.24238270423206L912.0532936982376,327.9573343703367L913.372159960018,255.56464100721698L914.3142072898614,257.6332262124565L915.6330735516418,283.07464964010444L918.0823966092344,293.66254451847203L919.2128534050464,308.9321999384263L919.5896723369837,284.49528602382264L920.1549007348897,230.4401546082602L921.4737669966702,341.3749494706448L922.6042237924821,328.0748004961156L923.1694521903881,299.4008140963242L923.5462711223254,277.2564662435797L923.734680588294,352.59466665340517L927.3144604416984,289.2576660825624L929.0101456354163,319.4129070586987L931.2710592270402,372.7693871771886L931.8362876249461,319.3290073504603L932.4015160228521,199.88787982589483L934.8508390804445,289.79485944811495L936.3581148081938,313.5035709417748L937.865390535943,289.29201007528053L938.0538000019117,333.60530721390955L938.6190283998177,293.3683074575706L938.9958473317549,281.2221127178239L939.1842567977236,293.6996590311507L941.8219893212848,372.814836119607L943.329265049034,315.69051093013917L946.1554070385638,280.7711583202877L947.4742733003444,355.9325028498032L948.6047300961562,333.68092803349236L949.1699584940623,293.3969797254639L949.3583679600309,276.3191549080685L950.4888247558429,228.97397453556837L952.9381478134353,319.41916033134544L953.3149667453727,258.8047118270836L953.5033762113413,199.93092743320597L953.69178567731,315.93018050945966L954.822242473122,259.8134685995013L955.7642898029651,306.3267088744226L958.2136128605576,293.5642433338351L961.2281643160561,292.8365244470353L962.5470305778367,317.76069702545027L963.4890779076799,319.4160238936543L963.6774873736487,341.505327264919L964.8079441694605,328.1355624421366L966.5036293631783,289.8985187138076L967.0688577610844,257.7218828511932L967.257267227053,280.8091484218219L967.6340861589903,265.7819919093553L968.7645429548022,293.53059197110707L968.9529524207709,272.38947291934954L969.3297713527081,347.09879143511773L970.2718186825515,293.4674972995534L970.8370470804574,293.7924845183185L973.6631890699872,237.33873624146472L974.6052363998306,199.95353592156303L975.7356931956425,245.0419056218831L977.0545594574229,289.92648528322036L977.8081973212976,280.8117098459363L978.3734257192035,311.5168336917839L981.1995677087334,293.67269873549714L982.7068434364826,230.14083390460098L983.4604813003573,260.4395538366172L983.6488907663258,317.79702742870614L987.0402611537617,352.70316126053837L987.6054895516676,289.9627242070436L987.7938990176364,327.295578688729L988.1707179495736,257.84715739997404L988.5475368815108,306.0942204305657L988.7359463474795,260.84535659989115L989.4895842113542,261.9161887016129L989.6779936773228,356.01751991396907L991.750497802978,250.86283340138758L992.8809545987899,292.87650095910715L993.6345924626645,326.1212245404636L997.9680101799435,306.33802618709143L1000.417333237536,293.61795482929614L1001.9246089652853,293.49414395143776L1002.8666562951286,319.5273608974451L1003.0550657610972,265.9127160186246L1003.4318846930345,292.932512508875L1003.6202941590032,309.0907991376757L1005.5043888186897,234.42706351635232L1005.6927982846584,319.4602541993448L1008.5189402741881,306.3526498278265L1009.0841686720942,278.8171968441695L1011.1566727977493,272.43330463608345L1011.3450822637179,268.88047870444717L1011.7219011956553,289.5018508253092L1011.910310661624,333.75990745510273L1013.7944053213105,229.071713775119L1015.1132715830911,274.8609988884699L1015.8669094469656,304.74367036075444L1016.6205473108403,273.80420234541606L1018.3162325045581,293.1232209889876L1019.2582798344015,289.98096781961385L1019.6350987663387,265.86518591911323L1020.011917698276,280.90602514100743L1021.7076028919939,272.451286878846L1022.6496502218372,281.6787388401849L1023.5916975516803,293.87380973395204L1026.2294300752417,372.8770257982019L1026.4178395412102,259.99904116289457L1026.7946584731476,319.48452238598003L1027.7367058029909,315.7492603286416L1029.4323909967086,259.3010008177473L1030.5628477925206,280.92319713736646L1033.012170850113,333.7936502972634L1034.707856043831,307.47011030322335L1035.0846749757684,292.89686166711886L1035.8383128396429,326.16877424271047L1036.0267223056117,173.35353854778327L1036.7803601694861,372.90653118235696L1037.9108169652982,200.05400647560302L1039.04127376111,245.14604842171983L1039.9833210909533,215.45213822448122L1040.3601400228906,290.00996679976663L1040.5485494888594,327.3235583266321L1040.9253684207965,257.89975807375276L1042.9978725464516,296.0470996841147L1043.7515104103263,257.06868049653906L1045.4471956040443,229.11933535406308L1046.200833467919,284.80729623164063L1046.9544713317935,317.8651011950946L1047.8965186616367,319.5507927006961L1048.0849281276055,341.6018576691095L1048.83856599148,315.75898328548413L1050.1574322532606,277.4937246864252L1051.0994795831039,327.32279381994493L1051.4762985150412,257.9741831264658L1051.8531174469786,306.18164863120666L1052.0415269129471,189.2285656476016L1053.737212106665,347.20912869939445L1053.9256215726336,289.5165790139672L1054.1140310386024,333.85517021572633L1055.2444878344143,293.9754041781647L1056.374944630226,309.1330103616025" fill="none"></path></g></g></g></g></g></g><g transform="translate(34, 378)" clip-path="url(#clip_1)"><clipPath id="clip_1"><rect width="1083" height="22"></rect></clipPath><g><g><line x1="1.4703446717346706" y1="0" x2="1.4703446717346706" y2="5" style="visibility: inherit;" fill="rgb(0, 0, 0)" stroke="rgb(204, 204, 204)" stroke-width="1px"></line><line x1="95.67507765606146" y1="0" x2="95.67507765606146" y2="5" style="visibility: inherit;" fill="rgb(0, 0, 0)" stroke="rgb(204, 204, 204)" stroke-width="1px"></line><line x1="189.87981064038826" y1="0" x2="189.87981064038826" y2="5" style="visibility: inherit;" fill="rgb(0, 0, 0)" stroke="rgb(204, 204, 204)" stroke-width="1px"></line><line x1="284.0845436247151" y1="0" x2="284.0845436247151" y2="5" style="visibility: inherit;" fill="rgb(0, 0, 0)" stroke="rgb(204, 204, 204)" stroke-width="1px"></line><line x1="378.2892766090419" y1="0" x2="378.2892766090419" y2="5" style="visibility: inherit;" fill="rgb(0, 0, 0)" stroke="rgb(204, 204, 204)" stroke-width="1px"></line><line x1="472.4940095933687" y1="0" x2="472.4940095933687" y2="5" style="visibility: inherit;" fill="rgb(0, 0, 0)" stroke="rgb(204, 204, 204)" stroke-width="1px"></line><line x1="566.6987425776955" y1="0" x2="566.6987425776955" y2="5" style="visibility: inherit;" fill="rgb(0, 0, 0)" stroke="rgb(204, 204, 204)" stroke-width="1px"></line><line x1="660.9034755620223" y1="0" x2="660.9034755620223" y2="5" style="visibility: inherit;" fill="rgb(0, 0, 0)" stroke="rgb(204, 204, 204)" stroke-width="1px"></line><line x1="755.1082085463491" y1="0" x2="755.1082085463491" y2="5" style="visibility: inherit;" fill="rgb(0, 0, 0)" stroke="rgb(204, 204, 204)" stroke-width="1px"></line><line x1="849.3129415306759" y1="0" x2="849.3129415306759" y2="5" style="visibility: inherit;" fill="rgb(0, 0, 0)" stroke="rgb(204, 204, 204)" stroke-width="1px"></line><line x1="943.5176745150027" y1="0" x2="943.5176745150027" y2="5" style="visibility: inherit;" fill="rgb(0, 0, 0)" stroke="rgb(204, 204, 204)" stroke-width="1px"></line><line x1="1037.7224074993294" y1="0" x2="1037.7224074993294" y2="5" style="visibility: inherit;" fill="rgb(0, 0, 0)" stroke="rgb(204, 204, 204)" stroke-width="1px"></line></g><g transform="translate(0, 8)"><text x="1.4703446717346706" y="0" dx="0em" dy="0.95em" style="text-anchor: middle; visibility: hidden; font-family: Roboto, sans-serif; font-size: 12px; font-weight: 200;" fill="rgb(50, 49, 63)" stroke="none" stroke-width="1px">0</text><text x="95.67507765606146" y="0" dx="0em" dy="0.95em" style="text-anchor: middle; visibility: inherit; font-family: Roboto, sans-serif; font-size: 12px; font-weight: 200;" fill="rgb(50, 49, 63)" stroke="none" stroke-width="1px">500</text><text x="189.87981064038826" y="0" dx="0em" dy="0.95em" style="text-anchor: middle; visibility: inherit; font-family: Roboto, sans-serif; font-size: 12px; font-weight: 200;" fill="rgb(50, 49, 63)" stroke="none" stroke-width="1px">1k</text><text x="284.0845436247151" y="0" dx="0em" dy="0.95em" style="text-anchor: middle; visibility: inherit; font-family: Roboto, sans-serif; font-size: 12px; font-weight: 200;" fill="rgb(50, 49, 63)" stroke="none" stroke-width="1px">1.5k</text><text x="378.2892766090419" y="0" dx="0em" dy="0.95em" style="text-anchor: middle; visibility: inherit; font-family: Roboto, sans-serif; font-size: 12px; font-weight: 200;" fill="rgb(50, 49, 63)" stroke="none" stroke-width="1px">2k</text><text x="472.4940095933687" y="0" dx="0em" dy="0.95em" style="text-anchor: middle; visibility: inherit; font-family: Roboto, sans-serif; font-size: 12px; font-weight: 200;" fill="rgb(50, 49, 63)" stroke="none" stroke-width="1px">2.5k</text><text x="566.6987425776955" y="0" dx="0em" dy="0.95em" style="text-anchor: middle; visibility: inherit; font-family: Roboto, sans-serif; font-size: 12px; font-weight: 200;" fill="rgb(50, 49, 63)" stroke="none" stroke-width="1px">3k</text><text x="660.9034755620223" y="0" dx="0em" dy="0.95em" style="text-anchor: middle; visibility: inherit; font-family: Roboto, sans-serif; font-size: 12px; font-weight: 200;" fill="rgb(50, 49, 63)" stroke="none" stroke-width="1px">3.5k</text><text x="755.1082085463491" y="0" dx="0em" dy="0.95em" style="text-anchor: middle; visibility: inherit; font-family: Roboto, sans-serif; font-size: 12px; font-weight: 200;" fill="rgb(50, 49, 63)" stroke="none" stroke-width="1px">4k</text><text x="849.3129415306759" y="0" dx="0em" dy="0.95em" style="text-anchor: middle; visibility: inherit; font-family: Roboto, sans-serif; font-size: 12px; font-weight: 200;" fill="rgb(50, 49, 63)" stroke="none" stroke-width="1px">4.5k</text><text x="943.5176745150027" y="0" dx="0em" dy="0.95em" style="text-anchor: middle; visibility: inherit; font-family: Roboto, sans-serif; font-size: 12px; font-weight: 200;" fill="rgb(50, 49, 63)" stroke="none" stroke-width="1px">5k</text><text x="1037.7224074993294" y="0" dx="0em" dy="0.95em" style="text-anchor: middle; visibility: inherit; font-family: Roboto, sans-serif; font-size: 12px; font-weight: 200;" fill="rgb(50, 49, 63)" stroke="none" stroke-width="1px">5.5k</text></g><line x1="0" y1="0" x2="1083" y2="0" fill="rgb(0, 0, 0)" stroke="rgb(204, 204, 204)" stroke-width="1px"></line></g></g></g></g></svg>