<svg viewBox="0 0 1117 400" xmlns="http://www.w3.org/2000/svg"><g><g><g><g><g><line x1="34" y1="378" x2="29" y2="378" style="visibility: inherit;" fill="rgb(0, 0, 0)" stroke="rgb(200, 195, 188)" stroke-width="1px"></line><line x1="34" y1="336" x2="29" y2="336" style="visibility: inherit;" fill="rgb(0, 0, 0)" stroke="rgb(200, 195, 188)" stroke-width="1px"></line><line x1="34" y1="294" x2="29" y2="294" style="visibility: inherit;" fill="rgb(0, 0, 0)" stroke="rgb(200, 195, 188)" stroke-width="1px"></line><line x1="34" y1="252.00000000000003" x2="29" y2="252.00000000000003" style="visibility: inherit;" fill="rgb(0, 0, 0)" stroke="rgb(200, 195, 188)" stroke-width="1px"></line><line x1="34" y1="210" x2="29" y2="210" style="visibility: inherit;" fill="rgb(0, 0, 0)" stroke="rgb(200, 195, 188)" stroke-width="1px"></line><line x1="34" y1="168" x2="29" y2="168" style="visibility: inherit;" fill="rgb(0, 0, 0)" stroke="rgb(200, 195, 188)" stroke-width="1px"></line><line x1="34" y1="126.00000000000001" x2="29" y2="126.00000000000001" style="visibility: inherit;" fill="rgb(0, 0, 0)" stroke="rgb(200, 195, 188)" stroke-width="1px"></line><line x1="34" y1="84" x2="29" y2="84" style="visibility: inherit;" fill="rgb(0, 0, 0)" stroke="rgb(200, 195, 188)" stroke-width="1px"></line><line x1="34" y1="42.00000000000002" x2="29" y2="42.00000000000002" style="visibility: inherit;" fill="rgb(0, 0, 0)" stroke="rgb(200, 195, 188)" stroke-width="1px"></line><line x1="34" y1="0" x2="29" y2="0" style="visibility: inherit;" fill="rgb(0, 0, 0)" stroke="rgb(200, 195, 188)" stroke-width="1px"></line></g><g transform="translate(24, 0)"><text x="0" y="378" dx="0em" dy="0.3em" style="text-anchor: end; visibility: hidden; font-family: Roboto, sans-serif; font-size: 12px; font-weight: 200;" fill="rgb(197, 192, 184)" stroke="none" stroke-width="1px">-5</text><text x="0" y="336" dx="0em" dy="0.3em" style="text-anchor: end; visibility: inherit; font-family: Roboto, sans-serif; font-size: 12px; font-weight: 200;" fill="rgb(197, 192, 184)" stroke="none" stroke-width="1px">0</text><text x="0" y="294" dx="0em" dy="0.3em" style="text-anchor: end; visibility: inherit; font-family: Roboto, sans-serif; font-size: 12px; font-weight: 200;" fill="rgb(197, 192, 184)" stroke="none" stroke-width="1px">5</text><text x="0" y="252.00000000000003" dx="0em" dy="0.3em" style="text-anchor: end; visibility: inherit; font-family: Roboto, sans-serif; font-size: 12px; font-weight: 200;" fill="rgb(197, 192, 184)" stroke="none" stroke-width="1px">10</text><text x="0" y="210" dx="0em" dy="0.3em" style="text-anchor: end; visibility: inherit; font-family: Roboto, sans-serif; font-size: 12px; font-weight: 200;" fill="rgb(197, 192, 184)" stroke="none" stroke-width="1px">15</text><text x="0" y="168" dx="0em" dy="0.3em" style="text-anchor: end; visibility: inherit; font-family: Roboto, sans-serif; font-size: 12px; font-weight: 200;" fill="rgb(197, 192, 184)" stroke="none" stroke-width="1px">20</text><text x="0" y="126.00000000000001" dx="0em" dy="0.3em" style="text-anchor: end; visibility: inherit; font-family: Roboto, sans-serif; font-size: 12px; font-weight: 200;" fill="rgb(197, 192, 184)" stroke="none" stroke-width="1px">25</text><text x="0" y="84" dx="0em" dy="0.3em" style="text-anchor: end; visibility: inherit; font-family: Roboto, sans-serif; font-size: 12px; font-weight: 200;" fill="rgb(197, 192, 184)" stroke="none" stroke-width="1px">30</text><text x="0" y="42.00000000000002" dx="0em" dy="0.3em" style="text-anchor: end; visibility: inherit; font-family: Roboto, sans-serif; font-size: 12px; font-weight: 200;" fill="rgb(197, 192, 184)" stroke="none" stroke-width="1px">35</text><text x="0" y="0" dx="0em" dy="0.3em" style="text-anchor: end; visibility: hidden; font-family: Roboto, sans-serif; font-size: 12px; font-weight: 200;" fill="rgb(197, 192, 184)" stroke="none" stroke-width="1px">40</text></g><line x1="34" y1="0" x2="34" y2="378" fill="rgb(0, 0, 0)" stroke="rgb(200, 195, 188)" stroke-width="1px"></line></g></g><g transform="translate(34, 0)" clip-path="url(#clip_0)"><clipPath id="clip_0"><rect width="1083" height="378"></rect></clipPath><g><g><g><line x1="0" y1="0" x2="0" y2="378" fill="rgb(0, 0, 0)" stroke="rgb(194, 189, 181)" stroke-width="1px" opacity="0.25"></line><line x1="83.3076923076923" y1="0" x2="83.3076923076923" y2="378" fill="rgb(0, 0, 0)" stroke="rgb(194, 189, 181)" stroke-width="1px" opacity="0.25"></line><line x1="166.6153846153846" y1="0" x2="166.6153846153846" y2="378" fill="rgb(0, 0, 0)" stroke="rgb(194, 189, 181)" stroke-width="1px" opacity="0.25"></line><line x1="249.92307692307693" y1="0" x2="249.92307692307693" y2="378" fill="rgb(0, 0, 0)" stroke="rgb(194, 189, 181)" stroke-width="1px" opacity="0.25"></line><line x1="333.2307692307692" y1="0" x2="333.2307692307692" y2="378" fill="rgb(0, 0, 0)" stroke="rgb(194, 189, 181)" stroke-width="1px" opacity="0.25"></line><line x1="416.53846153846155" y1="0" x2="416.53846153846155" y2="378" fill="rgb(0, 0, 0)" stroke="rgb(194, 189, 181)" stroke-width="1px" opacity="0.25"></line><line x1="499.84615384615387" y1="0" x2="499.84615384615387" y2="378" fill="rgb(0, 0, 0)" stroke="rgb(194, 189, 181)" stroke-width="1px" opacity="0.25"></line><line x1="583.1538461538461" y1="0" x2="583.1538461538461" y2="378" fill="rgb(0, 0, 0)" stroke="rgb(194, 189, 181)" stroke-width="1px" opacity="0.25"></line><line x1="666.4615384615385" y1="0" x2="666.4615384615385" y2="378" fill="rgb(0, 0, 0)" stroke="rgb(194, 189, 181)" stroke-width="1px" opacity="0.25"></line><line x1="749.7692307692307" y1="0" x2="749.7692307692307" y2="378" fill="rgb(0, 0, 0)" stroke="rgb(194, 189, 181)" stroke-width="1px" opacity="0.25"></line><line x1="833.0769230769231" y1="0" x2="833.0769230769231" y2="378" fill="rgb(0, 0, 0)" stroke="rgb(194, 189, 181)" stroke-width="1px" opacity="0.25"></line><line x1="916.3846153846154" y1="0" x2="916.3846153846154" y2="378" fill="rgb(0, 0, 0)" stroke="rgb(194, 189, 181)" stroke-width="1px" opacity="0.25"></line><line x1="999.6923076923077" y1="0" x2="999.6923076923077" y2="378" fill="rgb(0, 0, 0)" stroke="rgb(194, 189, 181)" stroke-width="1px" opacity="0.25"></line><line x1="1083" y1="0" x2="1083" y2="378" fill="rgb(0, 0, 0)" stroke="rgb(194, 189, 181)" stroke-width="1px" opacity="0.25"></line></g><g><line x1="0" y1="378" x2="1083" y2="378" fill="rgb(0, 0, 0)" stroke="rgb(194, 189, 181)" stroke-width="1px" opacity="0.25"></line><line x1="0" y1="336" x2="1083" y2="336" fill="rgb(0, 0, 0)" stroke="rgb(194, 189, 181)" stroke-width="1px" opacity="0.25"></line><line x1="0" y1="294" x2="1083" y2="294" fill="rgb(0, 0, 0)" stroke="rgb(194, 189, 181)" stroke-width="1px" opacity="0.25"></line><line x1="0" y1="252.00000000000003" x2="1083" y2="252.00000000000003" fill="rgb(0, 0, 0)" stroke="rgb(194, 189, 181)" stroke-width="1px" opacity="0.25"></line><line x1="0" y1="210" x2="1083" y2="210" fill="rgb(0, 0, 0)" stroke="rgb(194, 189, 181)" stroke-width="1px" opacity="0.25"></line><line x1="0" y1="168" x2="1083" y2="168" fill="rgb(0, 0, 0)" stroke="rgb(194, 189, 181)" stroke-width="1px" opacity="0.25"></line><line x1="0" y1="126.00000000000001" x2="1083" y2="126.00000000000001" fill="rgb(0, 0, 0)" stroke="rgb(194, 189, 181)" stroke-width="1px" opacity="0.25"></line><line x1="0" y1="84" x2="1083" y2="84" fill="rgb(0, 0, 0)" stroke="rgb(194, 189, 181)" stroke-width="1px" opacity="0.25"></line><line x1="0" y1="42.00000000000002" x2="1083" y2="42.00000000000002" fill="rgb(0, 0, 0)" stroke="rgb(194, 189, 181)" stroke-width="1px" opacity="0.25"></line><line x1="0" y1="0" x2="1083" y2="0" fill="rgb(0, 0, 0)" stroke="rgb(194, 189, 181)" stroke-width="1px" opacity="0.25"></line></g></g></g><g><g><line x1="0" y1="336" x2="1083" y2="336" fill="rgb(0, 0, 0)" stroke="rgb(168, 160, 149)" stroke-width="1.5px"></line></g></g><g><g><line x1="83.3076923076923" y1="0" x2="83.3076923076923" y2="378" fill="rgb(0, 0, 0)" stroke="rgb(168, 160, 149)" stroke-width="1.5px"></line></g></g><g><g><g><g><g><path stroke="rgb(255, 112, 67)" stroke-width="2px" d="M120.46292307692308,-22.87689085738728L121.46261538461539,7.925297620495255L122.2956923076923,2.490334056227436L124.79492307692308,12.264147501169251L125.79461538461538,28.440353291573253L126.6276923076923,34.89910032057899L127.794,42.6845090493811L128.46046153846154,29.898824907979204L128.7936923076923,30.096133934309044L131.9593846153846,28.852967224822702L132.79246153846154,51.9167656975551L132.95907692307694,34.61567464791253L133.79215384615384,64.9189760220247L134.62523076923077,52.284950065026585L134.95846153846153,65.7094243245212L136.29138461538463,60.988876030082906L136.458,56.27471172634233L138.29076923076923,66.85827124981516L139.7903076923077,48.82821958568089L141.1232307692308,83.26369536241536L143.78907692307692,94.77189550117413L144.45553846153845,113.00096048188865L146.1216923076923,130.4490980176671L153.45276923076923,136.7926417940027L153.6193846153846,145.7403586359753L154.9523076923077,138.04693490814591L156.45184615384616,135.75082696051226L156.7850769230769,141.260288046425L156.95169230769233,145.9499151984607L157.45153846153846,146.2106675028655L158.45123076923076,127.44632909058615L159.95076923076925,126.1463582453673L160.4506153846154,147.4169397030799L160.61723076923076,131.55598352399628L162.28338461538462,149.7572180440853L165.11584615384615,161.9307425696153L165.44907692307692,155.8708066867887L168.6147692307692,147.87478168053028L168.948,159.91397820021268L169.44784615384614,157.94231209102605L170.78076923076924,169.01758818234998L171.78046153846154,176.14831475023033L172.1136923076923,179.38938863041164L172.61353846153844,144.07780401564935L173.61323076923077,154.78126431856927L174.4463076923077,172.67810246321187L176.11246153846153,179.52288045986072L177.11215384615386,166.80591333451017L178.11184615384616,170.70991640890924L178.7783076923077,170.59925062659553L179.77800000000002,176.55206075193388L180.11123076923076,187.97069598485172L180.61107692307692,167.4615328863212L180.9443076923077,187.1193641898005L181.1109230769231,195.33898728829436L181.94400000000002,164.30431980217585L182.1106153846154,182.726864342243L183.61015384615382,187.52546980163487L184.94307692307692,196.05067738879342L185.77615384615385,214.46469537370575L186.60923076923075,169.63479012461409L186.94246153846154,191.6895721948856L188.94184615384617,191.97792300443137L190.10815384615384,206.49023631608654L190.27476923076924,215.73635172007187L190.60799999999998,166.8970939299923L191.10784615384617,194.67680463680398L191.4410769230769,205.9311068909691L193.44046153846153,204.15869953497207L193.9403076923077,170.35144347586606L194.6067692307692,169.62428191803917L195.1066153846154,202.7159897440852L195.60646153846156,212.09268863404878L196.27292307692306,221.20753548267533L196.43953846153846,231.02159404351144L197.106,238.6159523367514L197.93907692307693,196.22124437568365L199.77184615384616,210.52408054875005L200.93815384615385,226.6754721939961L202.27107692307692,223.84756618382934L202.93753846153845,228.18257398153781L203.604,231.5767054912176L203.77061538461538,239.06844516973058L204.93692307692308,239.79304754007075L206.43646153846151,246.94781857531194L207.10292307692308,249.4658934462126L207.7693846153846,241.5456632344756L208.43584615384614,246.18790087037286L208.60246153846154,216.6851987131417L209.26892307692307,193.98224746274832L210.76846153846154,221.07906847886966L211.43492307692307,238.11947966154054L211.60153846153847,236.0030444558599L211.76815384615387,241.07876835442414L212.1013846153846,234.98034908638493L212.268,238.39699592033682L213.2676923076923,199.8262786068896L213.93415384615386,188.72388880720018L214.10076923076923,209.89988138002323L214.434,210.7723441417346L215.26707692307693,196.18924480291184L215.4336923076923,213.0350642157315L215.6003076923077,228.9373459024858L216.26676923076923,239.81699387572L216.93323076923076,235.61648264134993L217.7663076923077,244.95918279770055L217.9329230769231,213.6746576278391L218.09953846153846,229.859371145307L221.93169230769232,210.56199780925445L222.59815384615385,188.95681080713473L222.93138461538462,212.9822493260777L223.76446153846155,215.9103752914474L227.76323076923077,233.55736088653836L228.09646153846154,242.31812670648358L228.92953846153847,254.85161203158057L229.2627692307692,224.71013897187802L229.92923076923077,182.88287354425967L230.26246153846154,209.11068604061825L231.59538461538463,229.911502261578L232.59507692307693,198.78280803419293L233.26153846153846,193.35291419063293L234.42784615384613,228.3848294164794L234.76107692307693,236.64074597752435L235.76076923076923,244.15253657577244L236.094,252.52569568203575L236.59384615384616,216.90851250199486L237.0936923076923,236.29786445920473L238.4266153846154,241.12102977171423L238.5932307692308,198.48889899095823L239.09307692307692,219.1604574670847L240.25938461538462,236.25470526638364L240.75923076923078,247.07182218326767L242.25876923076922,255.77131886538055L242.92523076923078,263.3348868087303L243.42507692307694,260.88839988919324L243.5916923076923,264.4232732404007L245.09123076923078,263.46817598037325L245.25784615384615,242.33275434310679L245.92430769230768,219.42073048672344L246.25753846153845,242.03712335062778L246.42415384615387,254.3129177023933L247.09061538461538,265.2565894275883L247.25723076923074,213.34273356377957L247.75707692307694,232.28632541048455L247.9236923076923,213.80284352509932L249.25661538461537,204.11992999201271L249.92307692307693,188.72357420614512L250.25630769230767,222.538098304815L250.58953846153847,206.32195322117022L250.75615384615384,233.88590745211133L252.2556923076923,251.15314206648165L252.75553846153846,254.89820726137336L254.08846153846153,265.9526725257693L254.42169230769233,265.02203198225845L256.08784615384616,266.3562656065914L257.2541538461538,239.95644491082984L259.4201538461538,254.29867239693738L260.41984615384615,269.18986170232256L260.91969230769234,272.23190209829784L261.2529230769231,219.4243875358342L261.9193846153846,195.70867640577785L262.58584615384615,186.15408249141595L262.91907692307694,223.58502914572847L263.7521538461538,242.17096270838437L263.9187692307692,226.1382125432435L265.4183076923077,244.63321126312871L266.418,254.19443328863892L267.08446153846154,259.96052151493143L267.25107692307694,237.46680714113657L268.9172307692308,254.30940854920829L269.75030769230773,270.5890754578941L272.0829230769231,270.4817742847462L272.41615384615386,277.51799615043757L275.7484615384616,275.6823927677772L275.9150769230769,242.77538902980695L276.58153846153846,218.967788044349L276.74815384615385,248.73763762458304L276.91476923076925,260.04083971586306L279.9138461538462,230.40927494768192L281.9132307692308,215.1691199612849L282.0798461538462,246.48378955794772L283.07953846153845,263.6080602948272L283.4127692307692,273.37982564833186L284.2458461538462,278.5581065706398L288.57784615384617,234.59754979443466L288.9110769230769,256.39672369379946L290.57723076923077,231.93760330807655L292.41,255.57224689085177L292.90984615384616,269.6531087241107L293.4096923076923,275.1224591065367L295.5756923076923,277.6178190308166L296.742,280.8461218689294L297.74169230769235,289.3375622662551L298.908,290.5259605927853L299.90769230769234,257.22262530586653L301.5738461538462,271.06279584086855L302.4069230769231,279.45841587732383L302.5735384615385,246.28626931399197L303.0733846153846,266.8140504067546L304.07307692307694,279.77302695425783L304.4063076923077,281.5588306684043L304.9061538461538,283.7494178163258L305.40599999999995,283.4124810425787L305.9058461538462,255.96030036260774L306.07246153846154,270.0743274953967L309.07153846153847,282.0233393256072L311.57076923076926,288.59233214761036L314.07,294.1876116222454L314.56984615384613,268.52411696114024L314.7364615384615,274.63075267790487L315.06969230769226,279.73145056914524L315.23630769230766,254.1098926803543L318.9018461538461,270.7973146975681L319.7349230769231,277.1543064058211L320.23476923076925,284.3377091181509L320.9012307692308,290.2080011422772L321.2344615384615,253.95210811944835L321.9009230769231,223.53677085311432L322.56738461538464,204.1439375118686L323.2338461538461,199.19764241434774L327.39923076923077,235.7254128411868L327.56584615384617,260.186761376587L329.39861538461537,274.67555551369634L330.73153846153843,281.9047728528956L330.89815384615383,289.0508674043643L331.39799999999997,292.9324918781655L331.73123076923076,291.8921258947215L331.89784615384616,249.20348934298525L333.39738461538457,265.3385820243703L334.5636923076923,230.4994886311261L337.0629230769231,260.6241420312147L337.2295384615384,247.33102360984208L337.7293846153846,269.7021825100215L340.8950769230769,284.31836364419644L341.7281538461539,287.42921063036556L341.89476923076927,264.7317718311002L342.228,276.74670592092576L343.39430769230773,285.70109270538745L344.5606153846154,241.9981064899317L344.72723076923074,264.48019690177154L346.22676923076926,278.4448558882553L346.89323076923074,287.4392573592471L347.22646153846154,258.92342166408343L347.89292307692307,230.03884059610627L349.3924615384616,256.86152441991965L350.5587692307692,219.9710317784166L350.7253846153846,254.30146271786785L351.5584615384616,270.90371393443166L352.8913846153846,283.26563549566873L354.39092307692306,283.75475269632705L354.55753846153846,259.7009506778548L355.224,249.25144046286522L356.0570769230769,266.34797060096133L356.55692307692306,249.17857041599672L356.89015384615385,265.14999518538906L357.39000000000004,279.158311015042L357.8898461538462,249.42550159315607L358.5563076923077,222.516219840171L359.8892307692308,227.65204040629985L361.22215384615384,221.9319224859674L361.8886153846154,200.1416296878695L362.3884615384615,242.53650300498245L362.5550769230769,223.43925898072388L363.55476923076924,255.62023980615893L365.05430769230765,276.75468370913484L365.72076923076924,288.39240762233146L365.88738461538463,260.5757402887309L366.05400000000003,279.6387093252161L366.38723076923077,286.8620952240359L366.8870769230769,292.82644658754657L368.05338461538463,295.69376635951033L369.5529230769231,296.0465627026691L371.2190769230769,259.94693466139637L371.8855384615385,237.77097619600775L372.2187692307692,263.04938274519253L372.71861538461536,278.2104521721399L373.55169230769235,287.99155328570583L374.0515384615385,292.35827463804947L374.2181538461538,296.2125685425953L374.3847692307692,301.574649394295L375.2178461538462,258.62796041294416L377.55046153846155,277.15614350393105L379.04999999999995,285.295661047427L380.04969230769234,289.82361389835364L381.21599999999995,251.76939477944185L381.3826153846154,272.99506902708896L382.8821538461538,285.5250990486997L384.04846153846154,290.253094860128L386.04784615384614,296.554519841797L387.2141538461538,251.4330131135743L387.54738461538466,275.39533296122323L388.21384615384613,285.62340079602103L389.88,248.51165217194853L390.0466153846154,270.74339984198747L390.54646153846153,246.60093156779013L391.37953846153846,269.1115275304568L392.046,285.0050689840944L394.212,289.24400025276134L394.7118461538461,295.35135246794096L395.71153846153845,299.3140747635405L395.87815384615385,262.98291003756765L396.04476923076925,279.20855865986965L401.7096923076923,291.2990249664296L402.7093846153846,295.0291429156488L403.8756923076923,262.6758820506588L404.8753846153846,281.0949948676023L405.54184615384617,292.2239340238329L405.8750769230769,263.1172667558525L406.2083076923077,282.6916446909627L407.208,250.91175591858152L407.70784615384616,273.5548187107558L408.0410769230769,284.6514589602182L408.5409230769231,245.3651963600176L409.04076923076923,271.14203850082504L409.5406153846154,285.00594289572206L411.0401538461538,295.80553698224526L411.3733846153846,298.9382894592446L413.3727692307693,302.36892597657214L413.5393846153846,304.5917060421811L413.706,306.7888971833531L416.0386153846154,308.9616594617452L416.7050769230769,311.1212264051966L417.3715384615385,308.08103021567655L418.038,307.7495728336906L418.70446153846154,308.2261384298286L419.0376923076923,310.88353954135664L419.3709230769231,309.4575070713716L420.70384615384614,306.89392166225656L421.0370769230769,309.3805976491484L421.5369230769231,309.1915978778191L422.0367692307692,310.4264424913399L422.53661538461535,273.3057553263469L422.86984615384614,287.2274707586744L423.36969230769233,296.1802622098433L426.5353846153846,263.43495999924585L428.5347692307692,250.83193028421545L428.7013846153846,273.8311390283784L428.868,288.2871337725568L429.2012307692308,269.13797926866107L429.3678461538462,286.28479084946565L429.7010769230769,296.3443719004265L430.03430769230766,300.10391035644244L430.7007692307692,301.4889870677473L431.3672307692308,306.50313017094624L432.20030769230766,307.07244405105405L432.53353846153846,259.8973699340504L433.6998461538462,280.9527075439263L434.1996923076923,294.288031920765L435.03276923076925,298.8071017223442L435.6992307692308,303.3311858914998L436.53230769230765,270.1092814506714L436.86553846153845,286.31564604172854L437.0321538461538,297.03015956717576L439.53138461538464,302.6031295385232L440.0312307692308,303.35198430575554L440.5310769230769,259.57342935298453L440.6976923076923,281.4553412574206L441.36415384615384,292.62148859844655L441.69738461538464,300.40256517139704L442.5304615384615,262.93754664068L442.6970769230769,281.1783569562708L443.86338461538463,250.84991319109645L444.03,275.84380049186734L444.6964615384615,291.8840870730745L445.02969230769236,299.5036844368379L445.3629230769231,302.0639500877619L446.02938461538463,304.99197871812345L447.6955384615385,302.5793437250147L448.0287692307692,307.317333941918L448.36199999999997,310.2673102314838L448.52861538461536,284.46027230832385L449.19507692307695,252.1359119201506L449.6949230769231,277.02762518553766L451.02784615384616,291.3169141997625L451.6943076923077,299.08110753475006L454.0269230769231,305.97343380795945L454.6933846153846,306.6466534015359L455.0266153846154,307.2020746062292L455.8596923076923,268.7667193120773L456.0263076923077,285.8573941437039L456.3595384615384,297.79176619813643L456.6927692307692,302.9982416341651L456.85938461538467,306.54263398348974L457.1926153846154,277.65011270820906L457.52584615384615,290.68733836161977L457.69246153846154,299.8666725024455L458.8587692307692,304.4300916972681L459.3586153846154,308.8381392468765L460.1916923076923,309.6847546571347L463.3573846153846,312.18488004647804L465.02353846153846,312.8153399160094L466.02323076923074,312.1097130591027L466.5230769230769,262.29976094093035L467.0229230769231,283.47200233177017L467.52276923076926,294.62703055403034L467.6893846153846,303.2100562993371L467.856,270.9861859097293L469.52215384615386,287.60289932812515L469.68876923076925,298.64028612092295L469.8553846153846,264.2608126027296L470.1886153846154,284.12907510894L472.188,294.4455870789138L472.3546153846154,299.7638497449069L472.6878461538461,306.5937985096638L474.02076923076925,308.23612544979244L475.5203076923077,309.7263182142114L478.35276923076924,309.61449843279934L480.6853846153846,311.2198907711054L481.35184615384617,313.08273982155L481.51846153846157,311.6917990442971L481.8516923076923,270.8838422439611L483.1846153846154,257.43079728973606L483.51784615384616,279.5239293473524L484.1843076923077,292.1426628910042L485.85046153846156,258.3713594533525L487.1833846153846,235.8032204876853L487.35,268.1479859882899L489.1827692307692,254.9876972326224L490.5156923076923,242.40005425265934L491.5153846153846,268.7175355270595L491.682,286.4537078091556L492.01523076923075,295.4552924650344L492.3484615384615,301.44450425251915L493.1815384615385,273.79268948998805L496.34723076923075,289.89863363723015L497.3469230769231,298.3459258259538L497.5135384615385,303.3202319634678L499.17969230769233,265.37228734092247L499.5129230769231,285.53870966193875L500.1793846153846,295.0461103949416L500.346,300.84517516335654L502.1787692307692,305.8723097946692L502.67861538461534,308.6948382083445L503.67830769230767,306.3738315977972L504.5113846153846,282.44111414422525L504.8446153846154,294.3317480306025L505.1778461538462,262.77269750000215L505.5110769230769,282.98473300195445L507.0106153846154,295.8930920747322L507.6770769230769,302.6602677814604L508.34353846153846,308.15437611534844L508.67676923076925,310.51061959621103L509.1766153846154,268.20346541617386L510.6761538461538,284.97442586072725L510.84276923076925,296.542532713702L512.5089230769231,269.91922781913917L512.8421538461538,287.3957733705607L514.8415384615384,297.7996502253393L515.0081538461538,305.00368539887546L515.1747692307692,267.8427752041691L515.8412307692308,251.3563198771401L516.5076923076923,237.60369396485828L517.5073846153846,268.5208210389491L517.674,288.00686716560585L520.3398461538461,297.29951416685617L520.8396923076923,304.5196895410683L521.3395384615385,308.41554312527575L521.5061538461538,310.4189565743232L522.839076923077,311.78926884205487L523.8387692307692,272.91862996978364L524.8384615384615,286.0605519900489L525.6715384615385,298.13475915728617L528.8372307692308,303.47249909483554L529.5036923076923,308.3711784043501L529.8369230769231,247.4801215933913L530.67,274.3694576911422L531.503076923077,290.393026924866L533.669076923077,300.9047689823732L534.3355384615385,305.62000502040536L534.8353846153846,309.2590578370723L537.3346153846154,312.5914188941379L539.1673846153845,278.8735641050374L539.334,293.1780859880469L539.8338461538461,264.175360503961L540.8335384615384,284.421383409005L541.9998461538462,295.68704746025895L542.1664615384615,303.06078545247374L542.3330769230769,309.24820905682355L542.4996923076923,266.00908473585196L542.6663076923077,284.4013073936352L544.1658461538462,296.76158025832467L547.998,302.727327335903L548.1646153846154,308.1224595958167L548.3312307692308,310.17868789280493L549.4975384615385,311.7188692679706L551.3303076923077,312.1774491471471L551.6635384615386,314.7004752255929L553.6629230769231,315.9565076695355L553.8295384615385,277.76262210050055L554.3293846153846,292.87130151652593L554.6626153846154,301.4203691820103L554.8292307692308,307.4718202030538L555.1624615384615,280.7182997939514L558.3281538461538,295.188169970365L559.1612307692308,281.13355139628146L559.661076923077,291.45356940588414L560.1609230769232,301.2994683799807L561.6604615384615,308.0912709938087L561.8270769230769,280.8679892198204L563.16,254.05179786538832L563.3266153846155,279.3030484763131L564.3263076923078,295.05200051828297L564.8261538461538,304.7654186413531L565.8258461538461,265.92218194042704L566.1590769230769,284.9469332029525L566.4923076923077,264.3139738255801L569.3247692307692,285.56294198120014L569.658,298.9191314225457L569.8246153846154,267.84945416480673L569.9912307692307,286.08459918040256L571.8240000000001,271.8854488392962L573.4901538461538,290.07533764006456L574.8230769230769,299.6099995658503L577.6555384615384,307.67993419919645L578.8218461538461,310.88431050273323L578.9884615384615,314.288423864201L579.4883076923078,314.9829237795801L582.1541538461538,315.9952154646475L582.8206153846154,316.5079004579877L583.6536923076924,314.9476190360842L583.9869230769231,316.6228132887159L584.3201538461539,315.3895958330318L584.6533846153847,317.2203000298789L584.9866153846154,316.93847426841563L585.6530769230769,316.25170234364214L585.8196923076923,287.60597135735713L586.3195384615384,299.70618600197537L587.3192307692307,306.3883020934337L587.6524615384616,306.96409369807685L588.1523076923078,310.55923182309414L589.4852307692307,313.204439087753L589.8184615384615,288.00619738819864L589.9850769230769,301.02679655028976L590.1516923076923,304.7618272130108L591.4846153846154,310.0420737829457L593.9838461538461,314.185854468742L594.3170769230769,315.4024065029615L594.6503076923077,314.83294189524617L594.9835384615384,315.1344017490862L596.8163076923078,315.7579644289683L597.4827692307692,315.9621988157672L599.6487692307693,315.4471451485301L600.3152307692308,317.10756309772404L603.4809230769231,315.92929120030925L605.9801538461538,316.4434417245801L606.1467692307692,316.92283902156447L607.1464615384615,275.91162669174724L607.313076923077,291.53635200686966L607.6463076923077,303.0107722331745L608.1461538461539,308.9178257590331L608.9792307692308,311.1920859507201L609.6456923076923,314.66119463989014L609.978923076923,316.1019597420029L612.6447692307693,317.997876055773L614.4775384615384,286.134255571208L615.6438461538462,295.5848824137697L615.8104615384616,264.552801396504L616.9767692307693,286.9971644652217L617.4766153846153,299.2368751867014L621.4753846153847,305.7057790579437L621.9752307692307,312.00214581382505L623.1415384615385,286.2476900761857L623.6413846153847,299.4300624099692L623.808,268.65086947723154L624.1412307692308,288.093458240294L624.3078461538462,301.43309146944495L625.4741538461539,307.7555183719624L627.6401538461539,311.14580133384635L628.4732307692308,276.14602602735863L629.9727692307692,293.19197100887123L630.3059999999999,301.3516231113042L630.6392307692307,309.057283891044L631.8055384615385,255.34454184341544L633.9715384615384,280.4245334861762L634.3047692307692,292.580534376984L635.3044615384616,301.98011902706935L636.6373846153846,309.91490071616835L637.637076923077,314.0009397316114L637.8036923076922,264.70677599717L638.6367692307692,285.6504535377551L639.4698461538462,300.1039459812956L640.6361538461539,308.8877942054461L641.9690769230768,312.5476138096446L642.6355384615384,315.24749227412906L643.302,316.6408392670653L645.468,317.7854011203588L645.8012307692308,292.34513624106296L646.1344615384616,300.9448068117764L646.6343076923076,307.9596209034721L647.4673846153846,312.98438464077714L650.2998461538461,315.6940706114316L651.1329230769231,278.2161356651988L654.132,294.501441004527L654.7984615384615,304.7362585846498L655.2983076923077,311.8621133317896L656.1313846153846,314.83350113811184L657.2976923076923,316.10944398273284L657.9641538461539,317.55351747530256L658.2973846153845,316.6357630578134L659.2970769230769,319.0536551193865L659.4636923076923,318.253561403541L660.4633846153846,286.3124588025739L661.6296923076923,300.76452953416884L662.6293846153845,308.7586724972652L663.1292307692308,268.08700159406226L664.1289230769231,288.7316394329999L665.9616923076923,301.38278145795664L666.294923076923,308.7405367756224L667.9610769230769,314.1223219814501L668.4609230769231,272.07396508828407L668.7941538461539,289.9622454164959L669.6272307692308,301.18451159468515L672.2930769230769,309.64772210878857L672.6263076923077,313.03037330128393L673.4593846153846,315.75242472539924L673.626,317.8373481610452L674.2924615384615,317.96588240736935L674.6256923076922,318.60391165419946L675.792,289.5293577957423L676.9583076923077,300.0751908188028L678.9576923076924,307.43298390656486L679.7907692307692,283.6435952755795L681.7901538461538,258.1124419553868L681.9567692307692,281.9675498976584L682.9564615384616,297.7216217430994L683.123076923077,271.3282727284768L685.4556923076923,290.8469229724132L686.1221538461538,303.59774265445014L686.4553846153846,273.94428279970134L686.7886153846155,291.603048180187L687.2884615384615,304.0377228061225L687.7883076923077,268.78366929768714L689.2878461538461,289.29120364236354L690.2875384615385,298.87564129857725L690.6207692307692,307.91995591180626L692.4535384615385,277.09396207247437L692.6201538461538,295.35827160307326L693.6198461538461,305.9460099818025L694.7861538461538,311.71672780762395L698.7849230769232,314.99421929031774L699.7846153846154,264.6580421943078L700.1178461538461,286.78362010113057L703.6167692307693,300.2468007838229L704.1166153846154,308.44066445085406L704.7830769230769,314.25589975388647L704.9496923076923,315.39870205325957L705.1163076923077,280.3598669839089L706.116,295.28479298545034L706.6158461538461,304.3954381310529L706.949076923077,310.22160194418353L708.4486153846154,279.1843149262757L709.6149230769231,296.62396488655156L710.448,280.32831997197L711.7809230769232,252.3396462495394L712.4473846153846,240.66629110665724L713.1138461538461,231.68010181243184L715.2798461538462,268.197383215755L715.613076923077,288.9989811532079L716.112923076923,301.9629197283017L718.1123076923077,309.1794601347105L718.7787692307693,313.433020414475L719.6118461538462,317.1750234684726L719.945076923077,317.5491541720259L721.6112307692307,319.3948532782095L721.9444615384615,320.26898556006535L722.2776923076923,320.44378749997963L724.4436923076923,285.3492114953491L727.1095384615385,256.3479988820727L727.9426153846154,282.4777953962908L729.108923076923,267.6611357033506L733.2743076923077,289.80122178913683L733.440923076923,301.56758276296574L733.6075384615384,308.2128174953039L734.7738461538462,313.5239411075339L736.44,282.6825210976258L737.772923076923,261.955064416388L738.7726153846154,285.4789034417029L738.9392307692308,300.22133271519874L739.6056923076924,307.6201143111261L741.4384615384615,313.01576149973107L742.4381538461538,284.1235715848972L743.4378461538462,297.5956206883651L743.9376923076924,305.93036645446193L746.436923076923,280.2585351192592L747.1033846153847,265.11498511574496L748.2696923076924,288.1248209568371L748.9361538461538,300.44929816797435L749.7692307692307,260.4098163275424L750.6023076923076,283.9207019608321L751.2687692307693,298.7702193713845L751.4353846153847,308.53378781179555L753.2681538461538,312.4934173327683L753.4347692307692,316.01905767810337L755.2675384615385,317.81849299843304L755.6007692307693,316.2606488309812L755.7673846153847,288.5330340434618L756.9336923076922,302.4449267035429L757.266923076923,308.91636489663745L757.4335384615384,313.81662639876737L757.6001538461538,317.26290850222426L757.7667692307692,289.3153744958658L758.7664615384616,301.7863396038305L762.4319999999999,282.3018974512632L765.2644615384615,298.2124158221373L766.0975384615384,307.17085758196646L766.2641538461538,313.61424308387836L766.5973846153846,315.6830990729833L767.9303076923077,317.4243843232455L769.9296923076922,318.9662992951192L777.5939999999999,320.27418454151854L779.9266153846154,321.28006721294827L780.0932307692308,320.4829220340067L781.9259999999999,320.336395256842L782.0926153846153,320.6482541615515L782.4258461538462,280.79859040586643L782.7590769230769,296.6283794022113L783.2589230769231,306.26319772341907L783.4255384615385,312.1969680496398L783.7587692307693,278.5416988961901L787.5909230769231,295.4992216082219L788.424,273.214443853605L788.9238461538462,290.96250038809075L789.4236923076922,302.3463062707573L790.2567692307691,309.965756460666L792.0895384615385,314.2385664633747L793.5890769230768,318.10985782693837L794.088923076923,319.04543454021825L794.2555384615384,320.6368779764808L795.7550769230769,290.654263321533L796.7547692307692,303.22988114355456L799.4206153846154,309.5141142940429L800.4203076923077,284.32718714332026L801.0867692307692,264.43480715903905L801.5866153846154,288.1831395444469L802.5863076923077,302.0669300828693L802.9195384615385,310.8613026114891L804.4190769230769,281.05180186108294L805.0855384615385,272.1876707772943L806.0852307692307,292.2794532811959L806.9183076923077,304.7957354757976L807.918,312.37237828575326L809.4175384615385,316.4629215049908L810.5838461538463,318.5577703170875L811.2503076923077,319.5878804214537L812.7498461538462,320.2925142865026L815.2490769230769,321.15814239148165L816.4153846153846,270.1952867410413L816.9152307692308,289.1568909014363L817.2484615384615,302.96936281234616L817.4150769230769,309.9238012964165L818.0815384615385,313.71417713252515L818.2481538461537,316.93624568991555L820.4141538461538,291.84436841614655L821.4138461538461,303.65254380588306L821.5804615384615,311.9017504542146L821.9136923076923,315.1395866685554L822.9133846153846,318.5167357810405L823.4132307692308,318.0346490125696L824.4129230769231,283.83667106037376L825.0793846153846,274.73053001049186L826.2456923076924,292.1270497720422L827.9118461538461,303.29845318323265L828.9115384615384,311.21364100173645L829.578,316.55307508108336L830.077846153846,318.65912415860487L831.4107692307692,319.946008743515L831.744,287.6345830903473L833.91,301.67582656777034L834.5764615384616,309.156497909046L834.743076923077,314.51860722626253L837.9087692307692,317.2702004761994L838.0753846153846,319.2593647010029L838.5752307692308,320.4680350117028L839.7415384615384,282.0328458483303L840.0747692307692,297.88850010009315L841.4076923076923,307.6330737767917L841.7409230769231,276.0989568149032L841.9075384615384,295.6245003554214L844.0735384615384,306.426738959133L844.4067692307692,282.77958494042116L846.0729230769232,297.7217353583262L846.5727692307693,306.78190147882015L848.4055384615384,277.280917010339L848.9053846153846,292.88989885427463L849.2386153846154,305.108082493412L849.5718461538461,312.9433274509117L851.5712307692307,316.09627437124277L854.4036923076924,281.32318118768706L855.2367692307693,298.82071663116085L856.902923076923,308.7612795995156L857.9026153846154,314.08551287689687L859.068923076923,284.5515323355131L860.0686153846153,299.73161892141894L860.4018461538461,276.65373941925765L861.0683076923077,259.89088409344913L862.2346153846154,285.0038057780299L862.4012307692308,265.4913310132047L862.5678461538462,287.74280256757856L864.234,300.7717324705703L867.732923076923,257.4446379930844L868.566,282.75447494215194L869.3990769230769,298.654302129903L870.3987692307693,270.3173958836547L872.064923076923,291.4276674305529L872.898,302.53940546245167L873.8976923076924,311.6558473332571L874.5641538461539,315.35287214659735L874.7307692307693,318.5208134445136L876.0636923076923,320.0895991964689L876.5635384615384,321.03552135488695L876.7301538461538,321.5900529900867L877.0633846153846,286.7586823677825L877.5632307692307,302.0738086066131L877.7298461538461,268.30168918618466L877.8964615384615,289.2978031197125L878.7295384615385,302.6533513092359L879.0627692307693,272.1064455999947L879.5626153846154,291.68347120368577L879.7292307692308,262.1631781201607L879.8958461538462,286.1778249896196L880.0624615384615,300.7448384950535L880.3956923076923,267.0648439234481L880.8955384615384,289.36778010284814L881.0621538461538,280.07472323749016L882.0618461538462,298.0561660729262L883.0615384615385,283.09330993428307L883.3947692307693,298.11881158312843L883.8946153846153,307.32748321986605L885.8939999999999,313.45867123303657L887.2269230769231,316.43139178095964L887.3935384615385,318.935727921359L887.5601538461539,321.310241684456L888.5598461538461,322.94536971160136L889.7261538461538,282.9000357002518L890.5592307692308,298.29253831925996L891.7255384615385,272.1155409969271L893.8915384615385,292.2042905710566L894.8912307692308,305.4240335024851L895.2244615384616,312.32479451402764L895.7243076923077,286.6136314386412L896.8906153846153,301.9179062458446L897.8903076923076,311.3180602224213L898.3901538461539,280.72404505679265L898.7233846153847,297.5723802964047L898.89,308.22752130986186L902.0556923076923,313.259056197172L903.5552307692308,317.6300920549426L905.5546153846153,320.55466587444505L906.0544615384616,321.4514838546536L906.5543076923077,321.2356682020439L908.7203076923076,322.3327751086958L910.0532307692308,323.43853774588155L911.3861538461539,322.47173678708583L911.5527692307693,322.8009581985027L912.0526153846154,323.1620260299415L912.3858461538462,290.059059795211L912.5524615384616,303.043863077444L914.8850769230769,311.84854795663483L916.218,316.9656789906557L918.7172307692308,319.5728283195338L919.8835384615385,321.78921308211335L920.8832307692307,322.3997884922734L921.3830769230768,322.95383469662136L921.5496923076922,322.58135683298747L922.5493846153846,322.83381839132693L924.7153846153846,322.9198381539367L925.0486153846153,295.08342373586794L925.2152307692307,305.50614997516334L925.3818461538461,312.5022618578092L926.3815384615385,284.5961273173222L927.2146153846154,300.24581577180203L929.3806153846153,308.90008330463394L932.0464615384615,314.5564496333541L933.2127692307691,318.46579778523096L934.0458461538462,320.29861603457243L934.2124615384615,322.17588753151006L935.2121538461539,323.6117293420262L936.7116923076923,323.76904901878993L937.2115384615385,323.03029652248L937.3781538461539,323.24033541089403L937.7113846153845,288.2757359755403L938.7110769230769,301.73410682275096L938.8776923076923,309.48730808016177L939.2109230769231,315.9341310639174L940.044,319.14883713597004L940.5438461538462,320.5766156665918L943.0430769230769,294.31695908501365L943.8761538461538,305.0480211579479L944.8758461538462,311.689901237707L946.0421538461538,316.6252015000705L946.7086153846154,319.4088136414363L947.2084615384615,321.1971952473923L949.7076923076924,290.11810901855256L951.0406153846154,273.7271126645495L951.7070769230769,260.99710652695234L951.8736923076923,286.3657285157808L954.8727692307692,301.63524166726876L955.3726153846154,310.63390604009516L955.5392307692308,315.7372834739106L955.8724615384615,318.2596949134479L956.2056923076923,320.99788476194203L956.3723076923077,285.68743126610076L957.0387692307692,266.24472056996325L957.2053846153846,289.91185610754184L959.0381538461538,276.0192485217028L960.0378461538461,294.8548404338225L960.7043076923077,306.11516553653865L964.5364615384615,313.2383190637445L966.7024615384615,316.8733727935323L968.0353846153846,319.7453861333948L968.8684615384615,321.69110991108545L969.0350769230769,289.3435815045126L969.3683076923077,302.88386450939703L969.5349230769232,312.0100908919175L971.2010769230769,316.0462752153873L971.3676923076923,319.0096195680141L973.8669230769232,321.03170519722937L974.3667692307693,290.4396160748806L976.1995384615384,302.8828888694767L976.3661538461538,280.0485764002993L976.6993846153846,296.5747826085206L976.866,307.3426920596192L978.5321538461538,313.86302974840584L979.6984615384615,279.1498417748247L980.3649230769231,258.13926205952373L981.0313846153846,255.4948725433314L982.5309230769232,282.43200929946687L983.364,299.16394911758294L983.6972307692307,272.71303591342087L984.0304615384615,293.07045361287186L985.5300000000001,304.4976669888901L986.363076923077,275.51581882126374L987.1961538461538,294.4996665780976L989.5287692307693,306.9761847391864L989.6953846153847,293.45202477783806L990.0286153846155,305.5032681847265L990.8616923076924,313.308476509133L992.3612307692307,281.7672291549915L993.360923076923,298.5606878347918L995.526923076923,308.59950130866315L997.0264615384615,283.2732542519948L997.3596923076924,299.2911865142096L998.0261538461539,308.8554696409171L998.1927692307693,312.6724763112226L998.8592307692307,317.86319316130636L999.858923076923,319.41648527086824L1000.8586153846153,320.4155463177029L1001.6916923076924,291.7457422803678L1002.0249230769231,304.8518284363054L1002.1915384615385,312.44065982118263L1002.5247692307693,316.4022369647921L1004.3575384615384,293.9450642552913L1005.024,268.19518140595795L1006.5235384615385,290.42001304889703L1007.19,303.64022730031604L1007.8564615384615,312.02271902942056L1008.6895384615384,316.6248152326548L1008.8561538461538,320.2483427566888L1009.5226153846154,322.2212403799654L1010.6889230769231,322.7587048831917L1011.522,323.2065480031572L1011.8552307692307,322.8597086786033L1012.1884615384615,323.86147830240736L1012.3550769230769,278.94602180810455L1013.8546153846154,297.82563020522406L1014.0212307692308,307.33565684399014L1014.1878461538462,313.92513777399665L1015.1875384615385,317.5813156508482L1016.1872307692307,320.89681534189435" style="fill: none;" fill="none"></path></g></g></g></g><g opacity="0.2"><g><g><g><path stroke="rgb(255, 112, 67)" stroke-width="2px" d="M118.63015384615385,-26.16373901367186L120.46292307692308,24.518916320800763L121.46261538461539,54.12857666015624L122.2956923076923,-5.66211090087887L124.79492307692308,26.92486724853517L125.79461538461538,52.7046615600586L126.6276923076923,44.58722076416015L127.794,54.36262207031249L128.46046153846154,10.720298767089853L128.7936923076923,30.39209747314453L131.9593846153846,26.988217163085928L132.79246153846154,86.51246337890623L132.95907692307694,8.664038085937488L133.79215384615384,110.37392807006837L134.62523076923077,33.33391113281252L134.95846153846153,85.84613571166994L136.29138461538463,53.9080535888672L136.458,49.2034652709961L138.29076923076923,82.73361053466795L139.7903076923077,21.783142089843736L141.1232307692308,134.91690902709962L143.78907692307692,112.03419570922853L144.45553846153845,140.34455795288088L146.1216923076923,156.62130432128907L153.45276923076923,146.3079574584961L153.6193846153846,159.16193389892578L154.9523076923077,126.50679931640623L156.45184615384616,132.30666503906252L156.7850769230769,149.52447967529295L156.95169230769233,152.98435592651367L157.45153846153846,146.60179595947267L158.45123076923076,99.29982147216798L159.95076923076925,124.19640197753905L160.4506153846154,179.32281188964842L160.61723076923076,107.7645492553711L162.28338461538462,177.05906982421874L165.11584615384615,180.19102935791017L165.44907692307692,146.78090286254883L168.6147692307692,135.8807441711426L168.948,177.97277297973633L169.44784615384614,154.9848129272461L170.78076923076924,185.63050231933596L171.78046153846154,186.8444046020508L172.1136923076923,184.2509994506836L172.61353846153844,91.11042709350586L173.61323076923077,170.8364547729492L174.4463076923077,199.52335968017576L176.11246153846153,189.79004745483397L177.11215384615386,147.7304626464844L178.11184615384616,176.5659210205078L178.7783076923077,170.433251953125L179.77800000000002,185.48127593994138L180.11123076923076,205.09864883422853L180.61107692307692,136.6977882385254L180.9443076923077,216.60611114501953L181.1109230769231,207.66842193603517L181.94400000000002,117.75231857299805L182.1106153846154,210.36068115234374L183.61015384615382,194.72337799072264L184.94307692307692,208.83848876953124L185.77615384615385,242.08572235107422L186.60923076923075,102.38993225097657L186.94246153846154,224.77174530029296L188.94184615384617,192.41044921875L190.10815384615384,228.25870628356932L190.27476923076924,229.60552482604982L190.60799999999998,93.63820724487303L191.10784615384617,236.34637069702146L191.4410769230769,222.8125602722168L193.44046153846153,201.50008850097657L193.9403076923077,119.64055938720703L194.6067692307692,168.53353958129884L195.1066153846154,252.3535514831543L195.60646153846156,226.15773696899413L196.27292307692306,234.87980575561522L196.43953846153846,245.74268188476563L197.106,250.00748977661132L197.93907692307693,132.62918243408203L199.77184615384616,231.97833480834962L200.93815384615385,250.90255966186524L202.27107692307692,219.60570716857907L202.93753846153845,234.68508567810056L203.604,236.6679027557373L203.77061538461538,250.3060546875L204.93692307692308,240.87995109558105L206.43646153846151,257.6799751281738L207.10292307692308,253.24300575256348L207.7693846153846,229.66531791687015L208.43584615384614,253.15125732421873L208.60246153846154,172.43114547729493L209.26892307692307,159.9278205871582L210.76846153846154,261.7243000030517L211.43492307692307,263.6800964355469L211.60153846153847,232.82839164733886L211.76815384615387,248.6923542022705L212.1013846153846,225.83272018432618L212.268,243.52196617126467L213.2676923076923,141.97020263671874L213.93415384615386,172.070304107666L214.10076923076923,241.6638702392578L214.434,212.08103828430177L215.26707692307693,174.31459579467773L215.4336923076923,238.30379333496094L215.6003076923077,252.79076843261717L216.26676923076923,256.13646583557124L216.93323076923076,229.31571578979492L217.7663076923077,258.9732330322266L217.9329230769231,166.74786987304688L218.09953846153846,254.13644142150878L221.93169230769232,181.61593780517578L222.59815384615385,156.54903030395508L222.93138461538462,249.0204071044922L223.76446153846155,220.30256423950195L227.76323076923077,260.02783927917477L228.09646153846154,255.45927543640138L228.92953846153847,273.6518400192261L229.2627692307692,179.49792938232423L229.92923076923077,120.14197540283203L230.26246153846154,248.45240478515623L231.59538461538463,261.11272659301756L232.59507692307693,152.08976669311525L233.26153846153846,185.20807342529298L234.42784615384613,280.932702255249L234.76107692307693,249.0246208190918L235.76076923076923,255.42022247314455L236.094,265.0854343414307L236.59384615384616,163.48273773193358L237.0936923076923,265.3818923950195L238.4266153846154,248.3557777404785L238.5932307692308,134.54070281982422L239.09307692307692,250.1677951812744L240.25938461538462,261.89607696533204L240.75923076923078,263.29749755859376L242.25876923076922,268.8205638885498L242.92523076923078,274.6802387237549L243.42507692307694,257.2186695098877L243.5916923076923,269.7255832672119L245.09123076923078,262.03553009033203L245.25784615384615,210.62962188720704L245.92430769230768,185.05269470214841L246.25753846153845,275.9617126464844L246.42415384615387,272.7266092300415L247.09061538461538,281.67209701538087L247.25723076923074,135.47194976806642L247.75707692307694,260.701713180542L247.9236923076923,186.0776206970215L249.25661538461537,189.59555969238284L249.92307692307693,165.62904052734373L250.25630769230767,273.25988445281985L250.58953846153847,181.99773559570312L250.75615384615384,275.231838798523L252.2556923076923,277.0539939880371L252.75553846153846,260.51580505371095L254.08846153846153,282.5343704223633L254.42169230769233,263.6260711669922L256.08784615384616,268.35761604309084L257.2541538461538,200.3567138671875L259.4201538461538,275.81201362609863L260.41984615384615,291.5266456604004L260.91969230769234,276.79496269226075L261.2529230769231,140.21311569213867L261.9193846153846,160.13510971069334L262.58584615384615,171.82219161987305L262.91907692307694,279.73144912719727L263.7521538461538,270.04986305236815L263.9187692307692,202.0890872955322L265.4183076923077,272.37570934295655L266.418,268.5362663269043L267.08446153846154,268.60965385437015L267.25107692307694,203.72623558044435L268.9172307692308,279.57331066131593L269.75030769230773,295.00857582092283L272.0829230769231,270.3208225250244L272.41615384615386,288.07232894897464L275.7484615384616,272.9289876937866L275.9150769230769,193.41488342285157L276.58153846153846,183.25638656616212L276.74815384615385,293.3924119949341L276.91476923076925,276.9956428527832L279.9138461538462,185.96192779541016L281.9132307692308,192.30888748168945L282.0798461538462,293.45579395294186L283.07953846153845,289.29446640014646L283.4127692307692,288.03747367858887L284.2458461538462,286.3255279541016L288.57784615384617,168.65671463012697L288.9110769230769,289.0954845428467L290.57723076923077,195.2489227294922L292.41,291.0242122650146L292.90984615384616,290.774401473999L293.4096923076923,283.3264846801758L295.5756923076923,281.3608589172363L296.742,285.6885761260986L297.74169230769235,302.0747228622436L298.908,292.3085580825806L299.90769230769234,207.2676223754883L301.5738461538462,291.8230516433716L302.4069230769231,292.0518459320068L302.5735384615385,196.52804946899414L303.0733846153846,297.6057220458984L304.07307692307694,299.2114917755127L304.4063076923077,284.23753623962403L304.9061538461538,287.035298538208L305.40599999999995,282.907075881958L305.9058461538462,214.78202934265136L306.07246153846154,291.2453681945801L309.07153846153847,299.9468570709229L311.57076923076926,298.44582138061526L314.07,302.580530834198L314.56984615384613,230.02887496948242L314.7364615384615,283.7907062530517L315.06969230769226,287.3824974060059L315.23630769230766,215.67755584716798L318.9018461538461,295.82844772338865L319.7349230769231,286.6897939682007L320.23476923076925,295.1128131866455L320.9012307692308,299.0134391784668L321.2344615384615,199.56826858520506L321.9009230769231,177.91376495361328L322.56738461538464,175.05468749999997L323.2338461538461,191.7781997680664L327.39923076923077,290.5170684814453L327.56584615384617,296.8787841796875L329.39861538461537,296.40874671936035L330.73153846153843,292.74859886169435L330.89815384615383,299.77000923156737L331.39799999999997,298.7549285888672L331.73123076923076,290.3315769195557L331.89784615384616,185.17053451538084L333.39738461538457,289.54122104644773L334.5636923076923,178.24084854125977L337.0629230769231,305.81112213134764L337.2295384615384,227.3913459777832L337.7293846153846,303.2589208602905L340.8950769230769,306.24263534545895L341.7281538461539,292.09548110961913L341.89476923076927,230.68561363220212L342.228,294.76910705566405L343.39430769230773,299.13267288208004L344.5606153846154,176.44362716674803L344.72723076923074,298.2033325195312L346.22676923076926,299.391844367981L346.89323076923074,300.93085956573486L347.22646153846154,216.1496681213379L347.89292307692307,186.71196899414065L349.3924615384616,297.0955501556396L350.5587692307692,164.63529281616212L350.7253846153846,305.7971091270447L351.5584615384616,295.80709075927734L352.8913846153846,301.80851783752445L354.39092307692306,284.48842849731443L354.55753846153846,223.6202476501465L355.224,233.57717514038083L356.0570769230769,291.9927658081055L356.55692307692306,223.4244701385498L356.89015384615385,289.1071323394775L357.39000000000004,300.1707847595215L357.8898461538462,204.82628746032717L358.5563076923077,182.15229721069338L359.8892307692308,235.35577125549318L361.22215384615384,213.35174560546875L361.8886153846154,167.45619049072266L362.3884615384615,306.12881298065184L362.5550769230769,194.79339294433595L363.55476923076924,303.89171104431153L365.05430769230765,308.4563495635986L365.72076923076924,305.84899349212645L365.88738461538463,218.85073928833006L366.05400000000003,308.23316287994385L366.38723076923077,297.6971740722656L366.8870769230769,301.77297363281247L368.05338461538463,299.99474601745607L369.5529230769231,296.5757572174072L371.2190769230769,205.7974925994873L371.8855384615385,204.50703849792478L372.2187692307692,300.9669925689697L372.71861538461536,300.95205631256107L373.55169230769235,302.6632049560547L374.0515384615385,298.90835666656494L374.2181538461538,301.9940093994141L374.3847692307692,309.6177706718445L375.2178461538462,194.20792694091796L377.55046153846155,304.9484181404114L379.04999999999995,297.5049373626709L380.04969230769234,296.61554317474366L381.21599999999995,194.6880661010742L381.3826153846154,304.8335803985596L382.8821538461538,304.32014408111576L384.04846153846154,297.3450885772705L386.04784615384614,306.0066573143005L387.2141538461538,183.75075302124023L387.54738461538466,311.3388127326965L388.21384615384613,300.9655025482178L389.88,192.84402923583986L390.0466153846154,304.0910213470459L390.54646153846153,210.38722915649416L391.37953846153846,302.87742147445675L392.046,308.84538116455076L394.212,295.6023971557617L394.7118461538461,304.51238079071044L395.71153846153845,305.2581582069397L395.87815384615385,208.4861629486084L396.04476923076925,303.54703159332274L401.7096923076923,309.4347244262695L402.7093846153846,300.62431983947755L403.8756923076923,214.14599075317383L404.8753846153846,308.7236640930176L405.54184615384617,308.9173427581787L405.8750769230769,219.45726585388184L406.2083076923077,312.0532115936279L407.208,203.24192276000977L407.70784615384616,307.5194128990173L408.0410769230769,301.2964193344116L408.5409230769231,186.4358024597168L409.04076923076923,309.8073017120362L409.5406153846154,305.8017994880676L411.0401538461538,312.00492811203003L411.3733846153846,303.63741817474363L413.3727692307693,307.5148807525635L413.5393846153846,307.9258761405945L413.706,310.0846838951111L416.0386153846154,312.22080287933346L416.7050769230769,314.3605768203735L417.3715384615385,303.52073593139653L418.038,307.25238676071166L418.70446153846154,308.94098682403563L419.0376923076923,314.86964120864866L419.3709230769231,307.31845836639405L420.70384615384614,303.048543548584L421.0370769230769,313.1106116294861L421.5369230769231,308.9080982208252L422.0367692307692,312.2787094116211L422.53661538461535,217.62472457885744L422.86984615384614,308.11004390716556L423.36969230769233,309.6094493865967L426.5353846153846,214.3170066833496L428.5347692307692,231.92738571166996L428.7013846153846,308.32995214462284L428.868,309.9711258888245L429.2012307692308,240.4142475128174L429.3678461538462,312.0050082206726L429.7010769230769,311.4337434768677L430.03430769230766,305.7432180404663L430.7007692307692,303.56660213470457L431.3672307692308,314.0243448257446L432.20030769230766,307.9264148712158L432.53353846153846,189.13475875854493L433.6998461538462,312.53571395874025L434.1996923076923,314.29101848602295L435.03276923076925,305.5857064247132L435.6992307692308,310.11731214523314L436.53230769230765,220.2764247894287L436.86553846153845,310.6251929283142L437.0321538461538,313.10192985534667L439.53138461538464,310.96258449554443L440.0312307692308,304.475266456604L440.5310769230769,193.9055969238281L440.6976923076923,314.27820911407474L441.36415384615384,309.37070960998534L441.69738461538464,312.0741800308228L442.5304615384615,206.7400188446045L442.6970769230769,308.53957242965697L443.86338461538463,205.35724754333495L444.03,313.3346314430237L444.6964615384615,315.94451694488527L445.02969230769236,310.9330804824829L445.3629230769231,305.90434856414794L446.02938461538463,309.3840216636658L447.6955384615385,298.96039123535155L448.0287692307692,314.42431926727295L448.36199999999997,314.6922746658325L448.52861538461536,245.749715423584L449.19507692307695,203.64937133789064L449.6949230769231,314.3651950836182L451.02784615384616,312.75084772109983L451.6943076923077,310.72739753723147L454.0269230769231,316.3119232177734L454.6933846153846,307.65648279190066L455.0266153846154,308.035206413269L455.8596923076923,211.1136863708496L456.0263076923077,311.4934063911438L456.3595384615384,315.69332427978514L456.6927692307692,310.807954788208L456.85938461538467,311.85922250747683L457.1926153846154,234.3113307952881L457.52584615384615,310.2431768417358L457.69246153846154,313.63567371368407L458.8587692307692,311.275220489502L459.3586153846154,315.45021057128906L460.1916923076923,310.95467777252196L463.3573846153846,315.93506813049316L465.02353846153846,313.7610297203064L466.02323076923074,311.0512727737427L466.5230769230769,187.58483276367187L467.0229230769231,315.2303644180298L467.52276923076926,311.35957288742065L467.6893846153846,316.08459491729735L467.856,222.6503803253174L469.52215384615386,312.527969455719L469.68876923076925,315.19636631011963L469.8553846153846,212.69160232543945L470.1886153846154,313.9314688682556L472.188,309.9203550338745L472.3546153846154,307.74124374389646L472.6878461538461,316.8387216567993L474.02076923076925,310.6996158599854L475.5203076923077,311.9616073608399L478.35276923076924,309.44676876068115L480.6853846153846,313.62797927856445L481.35184615384617,315.8770133972168L481.51846153846157,309.60538787841796L481.8516923076923,209.67190704345705L483.1846153846154,237.25122985839843L483.51784615384616,312.66362743377687L484.1843076923077,311.07076320648196L485.85046153846156,207.714404296875L487.1833846153846,201.95101203918458L487.35,316.6651342391968L489.1827692307692,235.2472640991211L490.5156923076923,223.51858978271486L491.5153846153846,308.19375743865965L491.682,313.0579662322998L492.01523076923075,308.9576694488525L492.3484615384615,310.4283219337463L493.1815384615385,232.3149673461914L496.34723076923075,314.05754985809324L497.3469230769231,311.0168641090393L497.5135384615385,310.78169116973874L499.17969230769233,208.4503704071045L499.5129230769231,315.7883431434631L500.1793846153846,309.30721149444577L500.346,309.54377231597897L502.1787692307692,313.4130117416382L502.67861538461534,312.9286308288574L503.67830769230767,302.89232168197634L504.5113846153846,246.5420379638672L504.8446153846154,312.16769886016846L505.1778461538462,215.43412170410156L505.5110769230769,313.3027862548828L507.0106153846154,315.2556306838989L507.6770769230769,312.81103134155273L508.34353846153846,316.39553861618043L508.67676923076925,314.0449848175049L509.1766153846154,204.74273414611818L510.6761538461538,310.1308665275574L510.84276923076925,313.894692993164L512.5089230769231,229.98427047729493L512.8421538461538,313.6105916976929L514.8415384615384,313.40546550750736L515.0081538461538,315.8097381591797L515.1747692307692,212.10140991210935L515.8412307692308,226.62663688659666L516.5076923076923,216.97475509643553L517.5073846153846,314.8965116500855L517.674,317.2359363555908L520.3398461538461,311.2384846687317L520.8396923076923,315.34995260238645L521.3395384615385,314.25932350158695L521.5061538461538,313.4240767478943L522.839076923077,313.84473724365233L523.8387692307692,214.61267166137696L524.8384615384615,305.77343502044675L525.6715384615385,316.2460699081421L528.8372307692308,311.47910900115966L529.5036923076923,315.71919736862185L529.8369230769231,156.14353637695314L530.67,314.7034618377686L531.503076923077,314.42838077545167L533.669076923077,316.672382068634L534.3355384615385,312.69285907745365L534.8353846153846,314.71763706207275L537.3346153846154,317.5899604797363L539.1673846153845,228.2967819213867L539.334,314.634868812561L539.8338461538461,220.67127227783206L540.8335384615384,314.790417766571L541.9998461538462,312.58554353713987L542.1664615384615,314.1213924407959L542.3330769230769,318.5293444633484L542.4996923076923,201.1503982543945L542.6663076923077,311.98964138031005L544.1658461538462,315.3019895553589L547.998,311.6759479522705L548.1646153846154,316.21515798568726L548.3312307692308,313.26303033828736L549.4975384615385,314.02914133071897L551.3303076923077,312.86531896591185L551.6635384615386,318.48501434326175L553.6629230769231,317.8405563354492L553.8295384615385,220.47179374694826L554.3293846153846,315.534320640564L554.6626153846154,314.2439706802368L554.8292307692308,316.5489967346191L555.1624615384615,240.58801918029783L558.3281538461538,316.89297523498533L559.1612307692308,260.05162353515624L559.661076923077,306.9335964202881L560.1609230769232,316.06831684112547L561.6604615384615,318.27897491455076L561.8270769230769,240.03306655883787L563.16,213.82751083374023L563.3266153846155,317.1799243927002L564.3263076923078,318.6754285812378L564.8261538461538,319.33554582595826L565.8258461538461,207.65732688903807L566.1590769230769,313.48406009674073L566.4923076923077,233.36453475952146L569.3247692307692,317.4363942146301L569.658,318.9534155845642L569.8246153846154,221.24493827819825L569.9912307692307,313.4373167037964L571.8240000000001,250.58672332763672L573.4901538461538,317.36017084121704L574.8230769230769,313.91199245452884L577.6555384615384,319.7848361492157L578.8218461538461,315.69087495803836L578.9884615384615,319.39459390640263L579.4883076923078,316.0246736526489L582.1541538461538,317.5136529922486L582.8206153846154,317.27692794799805L583.6536923076924,312.6071969032287L583.9869230769231,319.1356046676636L584.3201538461539,313.5397696495056L584.6533846153847,319.96635632514955L584.9866153846154,316.5157356262207L585.6530769230769,315.2215444564819L585.8196923076923,244.63737487792972L586.3195384615384,317.8565079689026L587.3192307692307,316.41147623062136L587.6524615384616,307.82778110504154L588.1523076923078,315.95193901062015L589.4852307692307,317.1722499847412L589.8184615384615,250.20883483886718L589.9850769230769,320.55769529342655L590.1516923076923,310.3643732070923L591.4846153846154,317.9624436378479L593.9838461538461,320.4015254974365L594.3170769230769,317.22723455429076L594.6503076923077,313.9787449836731L594.9835384615384,315.5865915298462L596.8163076923078,316.6933084487915L597.4827692307692,316.2685503959656L599.6487692307693,314.6745646476746L600.3152307692308,319.5981900215149L603.4809230769231,314.161883354187L605.9801538461538,317.2146675109863L606.1467692307692,317.64193496704104L607.1464615384615,214.3948081970215L607.313076923077,314.97343997955323L607.6463076923077,320.22240257263184L608.1461538461539,317.778406047821L608.9792307692308,314.6034762382507L609.6456923076923,319.864857673645L609.978923076923,318.2631073951721L612.6447692307693,320.8417505264282L614.4775384615384,238.33882484436035L615.6438461538462,309.76082267761234L615.8104615384616,218.0046798706055L616.9767692307693,320.6637090682984L617.4766153846153,317.5964412689209L621.4753846153847,315.40913486480713L621.9752307692307,321.4466959476471L623.1415384615385,247.61600646972656L623.6413846153847,319.20362091064453L623.808,222.482080078125L624.1412307692308,317.2573413848877L624.3078461538462,321.4425413131714L625.4741538461539,317.23915872573855L627.6401538461539,316.2312257766723L628.4732307692308,223.64636306762696L629.9727692307692,318.76088848114017L630.3059999999999,313.59110126495364L630.6392307692307,320.6157750606537L631.8055384615385,174.77542877197266L633.9715384615384,318.0445209503174L634.3047692307692,310.81453571319577L635.3044615384616,316.0794960021973L636.6373846153846,321.8170732498169L637.637076923077,320.129998254776L637.8036923076922,190.7655303955078L638.6367692307692,317.0659698486328L639.4698461538462,321.7841846466065L640.6361538461539,322.0635665416718L641.9690769230768,318.03734321594237L642.6355384615384,319.29730997085574L643.302,318.7308597564697L645.468,319.50224390029905L645.8012307692308,254.18473892211915L646.1344615384616,313.8443126678467L646.6343076923076,318.4818420410156L647.4673846153846,320.52153024673464L650.2998461538461,319.75859956741334L651.1329230769231,221.9992332458496L654.132,318.9293990135193L654.7984615384615,320.088484954834L655.2983076923077,322.5508954524994L656.1313846153846,319.2905828475952L657.2976923076923,318.0233582496643L657.9641538461539,319.7196277141571L658.2973846153845,315.2591314315796L659.2970769230769,322.6804932117462L659.4636923076923,317.05342082977296L660.4633846153846,238.40080490112305L661.6296923076923,322.4426356315613L662.6293846153845,320.7498869419098L663.1292307692308,207.0794952392578L664.1289230769231,319.69859619140624L665.9616923076923,320.35949449539186L666.294923076923,319.777169752121L667.9610769230769,322.1949997901917L668.4609230769231,209.00142974853514L668.7941538461539,316.7946659088135L669.6272307692308,318.017910861969L672.2930769230769,322.34253787994385L672.6263076923077,318.10435009002686L673.4593846153846,319.83550186157225L673.626,320.96473331451415L674.2924615384615,318.15868377685547L674.6256923076922,319.5609555244446L675.792,245.91752700805665L676.9583076923077,315.89394035339353L678.9576923076924,318.469673538208L679.7907692307692,247.95951232910159L681.7901538461538,219.81571197509766L681.9567692307692,317.75021181106564L682.9564615384616,321.352729511261L683.123076923077,231.73824920654297L685.4556923076923,320.12489833831785L686.1221538461538,322.7239721775055L686.4553846153846,229.46409301757814L686.7886153846155,318.0911962509155L687.2884615384615,322.68973474502565L687.7883076923077,215.90258903503417L689.2878461538461,320.05250515937803L690.2875384615385,313.252297782898L690.6207692307692,321.4864278316498L692.4535384615385,230.85497131347654L692.6201538461538,322.75473589897155L693.6198461538461,321.8276175498962L694.7861538461538,320.37280454635624L698.7849230769232,319.91045651435854L699.7846153846154,189.15377655029297L700.1178461538461,319.97198696136473L703.6167692307693,320.4415718078613L704.1166153846154,320.7314599514008L704.7830769230769,322.978752708435L704.9496923076923,317.11290550231934L705.1163076923077,227.80161437988284L706.116,317.67218198776243L706.6158461538461,318.0614058494568L706.949076923077,318.96084766387935L708.4486153846154,232.62838439941405L709.6149230769231,322.7834398269653L710.448,255.88485260009767L711.7809230769232,210.35663566589355L712.4473846153846,223.156258392334L713.1138461538461,218.20081787109376L715.2798461538462,322.97330532073977L715.613076923077,320.2013780593872L716.112923076923,321.4088275909424L718.1123076923077,320.0042707443238L718.7787692307693,319.81336083412174L719.6118461538462,322.788028049469L719.945076923077,318.1103502273559L721.6112307692307,322.1634019374847L721.9444615384615,321.5801839828491L722.2776923076923,320.70599040985104L724.4436923076923,232.70734748840331L727.1095384615385,212.84617996215817L727.9426153846154,321.67249016761775L729.108923076923,245.43614616394044L733.2743076923077,323.0113509178162L733.440923076923,319.2171242237091L733.6075384615384,318.18066959381105L734.7738461538462,321.4906265258789L736.44,236.4203910827637L737.772923076923,230.86387939453124L738.7726153846154,320.7646619796753L738.9392307692308,322.3349766254425L739.6056923076924,318.7182867050171L741.4384615384615,321.1092322826386L742.4381538461538,240.7852867126465L743.4378461538462,317.80369434356686L743.9376923076924,318.4324851036072L746.436923076923,241.75078811645508L747.1033846153847,242.39966011047363L748.2696923076924,322.63957471847533L748.9361538461538,318.9360139846802L749.7692307692307,200.35059356689456L750.6023076923076,319.18703041076657L751.2687692307693,321.04449548721317L751.4353846153847,323.1791404724121L753.2681538461538,318.4328616142273L753.4347692307692,321.30751819610595L755.2675384615385,320.5176459789276L755.6007692307693,313.92388257980343L755.7673846153847,246.9416118621826L756.9336923076922,323.3127656936646L757.266923076923,318.62352218627933L757.4335384615384,321.1670186519623L757.6001538461538,322.43233165740963L757.7667692307692,247.39407348632812L758.7664615384616,320.49278726577757L762.4319999999999,253.07523422241212L765.2644615384615,322.0781933784485L766.0975384615384,320.6085202217102L766.2641538461538,323.2793213367462L766.5973846153846,318.78638305664066L767.9303076923077,320.03631219863894L769.9296923076922,321.2791717529297L777.5939999999999,322.2360124111176L779.9266153846154,322.7888912200928L780.0932307692308,319.2872042655945L781.9259999999999,320.116605091095L782.0926153846153,321.11604251861576L782.4258461538462,221.02409477233886L782.7590769230769,320.37306289672847L783.2589230769231,320.71542520523076L783.4255384615385,321.09762353897094L783.7587692307693,228.05879516601564L787.5909230769231,320.93550567626954L788.424,239.78727722167972L788.9238461538462,317.58458518981934L789.4236923076922,319.4220150947571L790.2567692307691,321.39493174552916L792.0895384615385,320.64778146743777L793.5890769230768,323.91679487228396L794.088923076923,320.44879961013794L794.2555384615384,323.02404313087465L795.7550769230769,245.68034133911135L796.7547692307692,322.0933078765869L799.4206153846154,318.9404640197754L800.4203076923077,246.54679641723632L801.0867692307692,234.59623718261722L801.5866153846154,323.80563812255855L802.5863076923077,322.89261589050295L802.9195384615385,324.05286140441893L804.4190769230769,236.33755073547366L805.0855384615385,258.8914741516113L806.0852307692307,322.4171270370484L806.9183076923077,323.5701587677002L807.918,323.7373425006867L809.4175384615385,322.59873633384706L810.5838461538463,321.7000435352325L811.2503076923077,321.1330455780029L812.7498461538462,321.3494650840759L815.2490769230769,322.45658454895016L816.4153846153846,193.75100326538083L816.9152307692308,317.5992971420288L817.2484615384615,323.6880706787109L817.4150769230769,320.355459022522L818.0815384615385,319.3997408866882L818.2481538461537,321.769348526001L820.4141538461538,254.2065525054932L821.4138461538461,321.36480689048767L821.5804615384615,324.27556042671205L821.9136923076923,319.9963409900665L822.9133846153846,323.58245944976807L823.4132307692308,317.31151885986327L824.4129230769231,232.53970413208006L825.0793846153846,261.07131843566896L826.2456923076924,318.2218294143677L827.9118461538461,320.05555830001833L828.9115384615384,323.0864227294922L829.578,324.5622262001038L830.077846153846,321.8181977748871L831.4107692307692,321.8763356208801L831.744,239.16744461059574L833.91,322.73769178390506L834.5764615384616,320.3775049209595L834.743076923077,322.56177120208736L837.9087692307692,321.3975903511047L838.0753846153846,322.24311103820804L838.5752307692308,322.28104047775264L839.7415384615384,224.3800621032715L840.0747692307692,321.6719814777374L841.4076923076923,322.24993429183957L841.7409230769231,228.79778137207032L841.9075384615384,324.91281566619875L844.0735384615384,322.6300968647003L844.4067692307692,247.30885391235353L846.0729230769232,320.13496098518374L846.5727692307693,320.37215065956116L848.4055384615384,233.02944030761716L848.9053846153846,316.3033716201782L849.2386153846154,323.4353579521179L849.5718461538461,324.69619488716125L851.5712307692307,320.8256947517395L854.4036923076924,229.16354141235354L855.2367692307693,325.0670197963714L856.902923076923,323.67212405204776L857.9026153846154,322.0718627929688L859.068923076923,240.25056152343748L860.0686153846153,322.5017488002777L860.4018461538461,242.0369201660156L861.0683076923077,234.7466011047363L862.2346153846154,322.67318830490115L862.4012307692308,236.2226188659668L862.5678461538462,321.1200098991394L864.234,320.315127325058L867.732923076923,192.45399627685546L868.566,320.71923036575316L869.3990769230769,322.50404291152955L870.3987692307693,227.81203651428223L872.064923076923,323.0930747509003L872.898,319.2070125102997L873.8976923076924,325.33051013946533L874.5641538461539,320.89840936660767L874.7307692307693,323.27272539138795L876.0636923076923,322.44277782440184L876.5635384615384,322.45440459251404L876.7301538461538,322.42185044288635L877.0633846153846,234.5116264343262L877.5632307692307,325.04649796485904L877.7298461538461,217.643510055542L877.8964615384615,320.79197402000426L878.7295384615385,322.6866735935211L879.0627692307693,226.2860870361328L879.5626153846154,321.0490096092224L879.7292307692308,217.88273849487308L879.8958461538462,322.19979529380794L880.0624615384615,322.5953587532044L880.3956923076923,216.54485206604002L880.8955384615384,322.82218437194825L881.0621538461538,266.1351379394531L882.0618461538462,325.0283303260803L883.0615384615385,260.64902572631837L883.3947692307693,320.6570640563965L883.8946153846153,321.1404906749725L885.8939999999999,322.6554532527923L887.2269230769231,320.8904726028442L887.3935384615385,322.692232131958L887.5601538461539,324.87201232910155L888.5598461538461,325.39806175231934L889.7261538461538,222.83203468322753L890.5592307692308,321.3812922477722L891.7255384615385,232.85004501342772L893.8915384615385,322.33741493225097L894.8912307692308,325.25364789962765L895.2244615384616,322.67593603134156L895.7243076923077,248.0468868255615L896.8906153846153,324.87431845664975L897.8903076923076,325.4182911872864L898.3901538461539,234.83302230834963L898.7233846153847,322.84488315582274L898.89,324.21023283004763L902.0556923076923,320.80635852813725L903.5552307692308,324.1866458415985L905.5546153846153,324.9415266036988L906.0544615384616,322.79671082496645L906.5543076923077,320.9119447231293L908.7203076923076,323.97843546867375L910.0532307692308,325.0971817016602L911.3861538461539,321.0215353488922L911.5527692307693,323.29479031562806L912.0526153846154,323.7036277770996L912.3858461538462,240.40461044311525L912.5524615384616,322.52106800079343L914.8850769230769,325.0555752754211L916.218,324.641375541687L918.7172307692308,323.4835523128509L919.8835384615385,325.11379022598265L920.8832307692307,323.3156516075134L921.3830769230768,323.7849040031433L921.5496923076922,322.02264003753663L922.5493846153846,323.2125107288361L924.7153846153846,323.0488677978515L925.0486153846153,253.32880210876465L925.2152307692307,321.1402393341064L925.3818461538461,322.99642968177795L926.3815384615385,242.7369255065918L927.2146153846154,323.7203484535217L929.3806153846153,321.88148460388186L932.0464615384615,323.0409991264343L933.2127692307691,324.32982001304623L934.0458461538462,323.0478434085846L934.2124615384615,324.9917947769165L935.2121538461539,325.76549205780026L936.7116923076923,324.00502853393556L937.2115384615385,321.92216777801514L937.3781538461539,323.555393743515L937.7113846153845,235.82883682250974L938.7110769230769,321.9216630935669L938.8776923076923,321.11710996627806L939.2109230769231,325.60436553955077L940.044,323.9708962440491L940.5438461538462,322.7182834625244L943.0430769230769,254.9274742126465L943.8761538461538,321.14461426734925L944.8758461538462,321.65272135734557L946.0421538461538,324.02815189361576L946.7086153846154,323.5842318534851L947.2084615384615,323.8797676563263L949.7076923076924,243.49947967529295L951.0406153846154,249.1406181335449L951.7070769230769,241.9020973205566L951.8736923076923,324.4186614990235L954.8727692307692,324.5395113945007L955.3726153846154,324.13190259933475L955.5392307692308,323.3923496246338L955.8724615384615,322.0433120727539L956.2056923076923,325.1051695346832L956.3723076923077,232.72175102233885L957.0387692307692,237.08065452575684L957.2053846153846,325.4125594139099L959.0381538461538,255.18033714294432L960.0378461538461,323.108228302002L960.7043076923077,323.0056531906128L964.5364615384615,323.9230493545532L966.7024615384615,322.3259533882141L968.0353846153846,324.0534061431885L968.8684615384615,324.60969557762144L969.0350769230769,240.82228889465333L969.3683076923077,323.19428901672364L969.5349230769232,325.69943046569824L971.2010769230769,322.10055170059206L971.3676923076923,323.45463609695435L973.8669230769232,324.06483364105225L974.3667692307693,244.55148239135744L976.1995384615384,321.5477980613708L976.3661538461538,245.7971076965332L976.6993846153846,321.3640919208526L976.866,323.4945562362671L978.5321538461538,323.6435362815857L979.6984615384615,227.0800598144531L980.3649230769231,226.62339248657224L981.0313846153846,251.52828826904295L982.5309230769232,322.83771443367004L983.364,324.2618588447571L983.6972307692307,233.03666610717772L984.0304615384615,323.6065801620484L985.5300000000001,321.63848705291747L986.363076923077,232.04304656982424L987.1961538461538,322.9754382133484L989.5287692307693,325.69096198081974L989.6953846153847,273.16578483581543L990.0286153846155,323.5801332950592L990.8616923076924,325.0162889957428L992.3612307692307,234.4553581237793L993.360923076923,323.75087585449216L995.526923076923,323.6577215194702L997.0264615384615,245.2838836669922L997.3596923076924,323.3180849075317L998.0261538461539,323.2018943309784L998.1927692307693,318.3979863166809L998.8592307692307,325.64926843643184L999.858923076923,321.7464234352112L1000.8586153846153,321.9141378879547L1001.6916923076924,248.74103622436522L1002.0249230769231,324.5109576702118L1002.1915384615385,323.82390689849854L1002.5247692307693,322.3446026802063L1004.3575384615384,260.25930519104L1005.024,229.570357131958L1006.5235384615385,323.75726051330565L1007.19,323.47054867744447L1007.8564615384615,324.5964566230774L1008.6895384615384,323.52795953750615L1008.8561538461538,325.68363404273987L1009.5226153846154,325.18058681488037L1010.6889230769231,323.564901638031L1011.522,323.8783126831055L1011.8552307692307,322.3394496917725L1012.1884615384615,325.36413273811337L1012.3550769230769,211.5728370666504L1013.8546153846154,326.14504280090335L1014.0212307692308,321.6006968021393L1014.1878461538462,323.80935916900637L1015.1875384615385,323.0655824661255L1016.1872307692307,325.8700648784637" style="fill: none;" fill="none"></path></g></g></g></g></g></g><g transform="translate(34, 378)" clip-path="url(#clip_1)"><clipPath id="clip_1"><rect width="1083" height="22"></rect></clipPath><g><g><line x1="0" y1="0" x2="0" y2="5" style="visibility: inherit;" fill="rgb(0, 0, 0)" stroke="rgb(200, 195, 188)" stroke-width="1px"></line><line x1="83.3076923076923" y1="0" x2="83.3076923076923" y2="5" style="visibility: inherit;" fill="rgb(0, 0, 0)" stroke="rgb(200, 195, 188)" stroke-width="1px"></line><line x1="166.6153846153846" y1="0" x2="166.6153846153846" y2="5" style="visibility: inherit;" fill="rgb(0, 0, 0)" stroke="rgb(200, 195, 188)" stroke-width="1px"></line><line x1="249.92307692307693" y1="0" x2="249.92307692307693" y2="5" style="visibility: inherit;" fill="rgb(0, 0, 0)" stroke="rgb(200, 195, 188)" stroke-width="1px"></line><line x1="333.2307692307692" y1="0" x2="333.2307692307692" y2="5" style="visibility: inherit;" fill="rgb(0, 0, 0)" stroke="rgb(200, 195, 188)" stroke-width="1px"></line><line x1="416.53846153846155" y1="0" x2="416.53846153846155" y2="5" style="visibility: inherit;" fill="rgb(0, 0, 0)" stroke="rgb(200, 195, 188)" stroke-width="1px"></line><line x1="499.84615384615387" y1="0" x2="499.84615384615387" y2="5" style="visibility: inherit;" fill="rgb(0, 0, 0)" stroke="rgb(200, 195, 188)" stroke-width="1px"></line><line x1="583.1538461538461" y1="0" x2="583.1538461538461" y2="5" style="visibility: inherit;" fill="rgb(0, 0, 0)" stroke="rgb(200, 195, 188)" stroke-width="1px"></line><line x1="666.4615384615385" y1="0" x2="666.4615384615385" y2="5" style="visibility: inherit;" fill="rgb(0, 0, 0)" stroke="rgb(200, 195, 188)" stroke-width="1px"></line><line x1="749.7692307692307" y1="0" x2="749.7692307692307" y2="5" style="visibility: inherit;" fill="rgb(0, 0, 0)" stroke="rgb(200, 195, 188)" stroke-width="1px"></line><line x1="833.0769230769231" y1="0" x2="833.0769230769231" y2="5" style="visibility: inherit;" fill="rgb(0, 0, 0)" stroke="rgb(200, 195, 188)" stroke-width="1px"></line><line x1="916.3846153846154" y1="0" x2="916.3846153846154" y2="5" style="visibility: inherit;" fill="rgb(0, 0, 0)" stroke="rgb(200, 195, 188)" stroke-width="1px"></line><line x1="999.6923076923077" y1="0" x2="999.6923076923077" y2="5" style="visibility: inherit;" fill="rgb(0, 0, 0)" stroke="rgb(200, 195, 188)" stroke-width="1px"></line><line x1="1083" y1="0" x2="1083" y2="5" style="visibility: inherit;" fill="rgb(0, 0, 0)" stroke="rgb(200, 195, 188)" stroke-width="1px"></line></g><g transform="translate(0, 8)"><text x="0" y="0" dx="0em" dy="0.95em" style="text-anchor: middle; visibility: hidden; font-family: Roboto, sans-serif; font-size: 12px; font-weight: 200;" fill="rgb(197, 192, 184)" stroke="none" stroke-width="1px">-500</text><text x="83.3076923076923" y="0" dx="0em" dy="0.95em" style="text-anchor: middle; visibility: inherit; font-family: Roboto, sans-serif; font-size: 12px; font-weight: 200;" fill="rgb(197, 192, 184)" stroke="none" stroke-width="1px">0</text><text x="166.6153846153846" y="0" dx="0em" dy="0.95em" style="text-anchor: middle; visibility: inherit; font-family: Roboto, sans-serif; font-size: 12px; font-weight: 200;" fill="rgb(197, 192, 184)" stroke="none" stroke-width="1px">500</text><text x="249.92307692307693" y="0" dx="0em" dy="0.95em" style="text-anchor: middle; visibility: inherit; font-family: Roboto, sans-serif; font-size: 12px; font-weight: 200;" fill="rgb(197, 192, 184)" stroke="none" stroke-width="1px">1k</text><text x="333.2307692307692" y="0" dx="0em" dy="0.95em" style="text-anchor: middle; visibility: inherit; font-family: Roboto, sans-serif; font-size: 12px; font-weight: 200;" fill="rgb(197, 192, 184)" stroke="none" stroke-width="1px">1.5k</text><text x="416.53846153846155" y="0" dx="0em" dy="0.95em" style="text-anchor: middle; visibility: inherit; font-family: Roboto, sans-serif; font-size: 12px; font-weight: 200;" fill="rgb(197, 192, 184)" stroke="none" stroke-width="1px">2k</text><text x="499.84615384615387" y="0" dx="0em" dy="0.95em" style="text-anchor: middle; visibility: inherit; font-family: Roboto, sans-serif; font-size: 12px; font-weight: 200;" fill="rgb(197, 192, 184)" stroke="none" stroke-width="1px">2.5k</text><text x="583.1538461538461" y="0" dx="0em" dy="0.95em" style="text-anchor: middle; visibility: inherit; font-family: Roboto, sans-serif; font-size: 12px; font-weight: 200;" fill="rgb(197, 192, 184)" stroke="none" stroke-width="1px">3k</text><text x="666.4615384615385" y="0" dx="0em" dy="0.95em" style="text-anchor: middle; visibility: inherit; font-family: Roboto, sans-serif; font-size: 12px; font-weight: 200;" fill="rgb(197, 192, 184)" stroke="none" stroke-width="1px">3.5k</text><text x="749.7692307692307" y="0" dx="0em" dy="0.95em" style="text-anchor: middle; visibility: inherit; font-family: Roboto, sans-serif; font-size: 12px; font-weight: 200;" fill="rgb(197, 192, 184)" stroke="none" stroke-width="1px">4k</text><text x="833.0769230769231" y="0" dx="0em" dy="0.95em" style="text-anchor: middle; visibility: inherit; font-family: Roboto, sans-serif; font-size: 12px; font-weight: 200;" fill="rgb(197, 192, 184)" stroke="none" stroke-width="1px">4.5k</text><text x="916.3846153846154" y="0" dx="0em" dy="0.95em" style="text-anchor: middle; visibility: inherit; font-family: Roboto, sans-serif; font-size: 12px; font-weight: 200;" fill="rgb(197, 192, 184)" stroke="none" stroke-width="1px">5k</text><text x="999.6923076923077" y="0" dx="0em" dy="0.95em" style="text-anchor: middle; visibility: inherit; font-family: Roboto, sans-serif; font-size: 12px; font-weight: 200;" fill="rgb(197, 192, 184)" stroke="none" stroke-width="1px">5.5k</text><text x="1083" y="0" dx="0em" dy="0.95em" style="text-anchor: middle; visibility: hidden; font-family: Roboto, sans-serif; font-size: 12px; font-weight: 200;" fill="rgb(197, 192, 184)" stroke="none" stroke-width="1px">6k</text></g><line x1="0" y1="0" x2="1083" y2="0" fill="rgb(0, 0, 0)" stroke="rgb(200, 195, 188)" stroke-width="1px"></line></g></g></g></g></svg>