<svg viewBox="0 0 1117 400" xmlns="http://www.w3.org/2000/svg"><g><g><g><g><g><line x1="34" y1="378" x2="29" y2="378" style="visibility: inherit;" fill="rgb(0, 0, 0)" stroke="rgb(200, 195, 188)" stroke-width="1px"></line><line x1="34" y1="336" x2="29" y2="336" style="visibility: inherit;" fill="rgb(0, 0, 0)" stroke="rgb(200, 195, 188)" stroke-width="1px"></line><line x1="34" y1="294" x2="29" y2="294" style="visibility: inherit;" fill="rgb(0, 0, 0)" stroke="rgb(200, 195, 188)" stroke-width="1px"></line><line x1="34" y1="252.00000000000003" x2="29" y2="252.00000000000003" style="visibility: inherit;" fill="rgb(0, 0, 0)" stroke="rgb(200, 195, 188)" stroke-width="1px"></line><line x1="34" y1="210" x2="29" y2="210" style="visibility: inherit;" fill="rgb(0, 0, 0)" stroke="rgb(200, 195, 188)" stroke-width="1px"></line><line x1="34" y1="168" x2="29" y2="168" style="visibility: inherit;" fill="rgb(0, 0, 0)" stroke="rgb(200, 195, 188)" stroke-width="1px"></line><line x1="34" y1="126.00000000000001" x2="29" y2="126.00000000000001" style="visibility: inherit;" fill="rgb(0, 0, 0)" stroke="rgb(200, 195, 188)" stroke-width="1px"></line><line x1="34" y1="84" x2="29" y2="84" style="visibility: inherit;" fill="rgb(0, 0, 0)" stroke="rgb(200, 195, 188)" stroke-width="1px"></line><line x1="34" y1="42.00000000000002" x2="29" y2="42.00000000000002" style="visibility: inherit;" fill="rgb(0, 0, 0)" stroke="rgb(200, 195, 188)" stroke-width="1px"></line><line x1="34" y1="0" x2="29" y2="0" style="visibility: inherit;" fill="rgb(0, 0, 0)" stroke="rgb(200, 195, 188)" stroke-width="1px"></line></g><g transform="translate(24, 0)"><text x="0" y="378" dx="0em" dy="0.3em" style="text-anchor: end; visibility: hidden; font-family: Roboto, sans-serif; font-size: 12px; font-weight: 200;" fill="rgb(197, 192, 184)" stroke="none" stroke-width="1px">-5</text><text x="0" y="336" dx="0em" dy="0.3em" style="text-anchor: end; visibility: inherit; font-family: Roboto, sans-serif; font-size: 12px; font-weight: 200;" fill="rgb(197, 192, 184)" stroke="none" stroke-width="1px">0</text><text x="0" y="294" dx="0em" dy="0.3em" style="text-anchor: end; visibility: inherit; font-family: Roboto, sans-serif; font-size: 12px; font-weight: 200;" fill="rgb(197, 192, 184)" stroke="none" stroke-width="1px">5</text><text x="0" y="252.00000000000003" dx="0em" dy="0.3em" style="text-anchor: end; visibility: inherit; font-family: Roboto, sans-serif; font-size: 12px; font-weight: 200;" fill="rgb(197, 192, 184)" stroke="none" stroke-width="1px">10</text><text x="0" y="210" dx="0em" dy="0.3em" style="text-anchor: end; visibility: inherit; font-family: Roboto, sans-serif; font-size: 12px; font-weight: 200;" fill="rgb(197, 192, 184)" stroke="none" stroke-width="1px">15</text><text x="0" y="168" dx="0em" dy="0.3em" style="text-anchor: end; visibility: inherit; font-family: Roboto, sans-serif; font-size: 12px; font-weight: 200;" fill="rgb(197, 192, 184)" stroke="none" stroke-width="1px">20</text><text x="0" y="126.00000000000001" dx="0em" dy="0.3em" style="text-anchor: end; visibility: inherit; font-family: Roboto, sans-serif; font-size: 12px; font-weight: 200;" fill="rgb(197, 192, 184)" stroke="none" stroke-width="1px">25</text><text x="0" y="84" dx="0em" dy="0.3em" style="text-anchor: end; visibility: inherit; font-family: Roboto, sans-serif; font-size: 12px; font-weight: 200;" fill="rgb(197, 192, 184)" stroke="none" stroke-width="1px">30</text><text x="0" y="42.00000000000002" dx="0em" dy="0.3em" style="text-anchor: end; visibility: inherit; font-family: Roboto, sans-serif; font-size: 12px; font-weight: 200;" fill="rgb(197, 192, 184)" stroke="none" stroke-width="1px">35</text><text x="0" y="0" dx="0em" dy="0.3em" style="text-anchor: end; visibility: hidden; font-family: Roboto, sans-serif; font-size: 12px; font-weight: 200;" fill="rgb(197, 192, 184)" stroke="none" stroke-width="1px">40</text></g><line x1="34" y1="0" x2="34" y2="378" fill="rgb(0, 0, 0)" stroke="rgb(200, 195, 188)" stroke-width="1px"></line></g></g><g transform="translate(34, 0)" clip-path="url(#clip_0)"><clipPath id="clip_0"><rect width="1083" height="378"></rect></clipPath><g><g><g><line x1="0" y1="0" x2="0" y2="378" fill="rgb(0, 0, 0)" stroke="rgb(194, 189, 181)" stroke-width="1px" opacity="0.25"></line><line x1="83.3076923076923" y1="0" x2="83.3076923076923" y2="378" fill="rgb(0, 0, 0)" stroke="rgb(194, 189, 181)" stroke-width="1px" opacity="0.25"></line><line x1="166.6153846153846" y1="0" x2="166.6153846153846" y2="378" fill="rgb(0, 0, 0)" stroke="rgb(194, 189, 181)" stroke-width="1px" opacity="0.25"></line><line x1="249.92307692307693" y1="0" x2="249.92307692307693" y2="378" fill="rgb(0, 0, 0)" stroke="rgb(194, 189, 181)" stroke-width="1px" opacity="0.25"></line><line x1="333.2307692307692" y1="0" x2="333.2307692307692" y2="378" fill="rgb(0, 0, 0)" stroke="rgb(194, 189, 181)" stroke-width="1px" opacity="0.25"></line><line x1="416.53846153846155" y1="0" x2="416.53846153846155" y2="378" fill="rgb(0, 0, 0)" stroke="rgb(194, 189, 181)" stroke-width="1px" opacity="0.25"></line><line x1="499.84615384615387" y1="0" x2="499.84615384615387" y2="378" fill="rgb(0, 0, 0)" stroke="rgb(194, 189, 181)" stroke-width="1px" opacity="0.25"></line><line x1="583.1538461538461" y1="0" x2="583.1538461538461" y2="378" fill="rgb(0, 0, 0)" stroke="rgb(194, 189, 181)" stroke-width="1px" opacity="0.25"></line><line x1="666.4615384615385" y1="0" x2="666.4615384615385" y2="378" fill="rgb(0, 0, 0)" stroke="rgb(194, 189, 181)" stroke-width="1px" opacity="0.25"></line><line x1="749.7692307692307" y1="0" x2="749.7692307692307" y2="378" fill="rgb(0, 0, 0)" stroke="rgb(194, 189, 181)" stroke-width="1px" opacity="0.25"></line><line x1="833.0769230769231" y1="0" x2="833.0769230769231" y2="378" fill="rgb(0, 0, 0)" stroke="rgb(194, 189, 181)" stroke-width="1px" opacity="0.25"></line><line x1="916.3846153846154" y1="0" x2="916.3846153846154" y2="378" fill="rgb(0, 0, 0)" stroke="rgb(194, 189, 181)" stroke-width="1px" opacity="0.25"></line><line x1="999.6923076923077" y1="0" x2="999.6923076923077" y2="378" fill="rgb(0, 0, 0)" stroke="rgb(194, 189, 181)" stroke-width="1px" opacity="0.25"></line><line x1="1083" y1="0" x2="1083" y2="378" fill="rgb(0, 0, 0)" stroke="rgb(194, 189, 181)" stroke-width="1px" opacity="0.25"></line></g><g><line x1="0" y1="378" x2="1083" y2="378" fill="rgb(0, 0, 0)" stroke="rgb(194, 189, 181)" stroke-width="1px" opacity="0.25"></line><line x1="0" y1="336" x2="1083" y2="336" fill="rgb(0, 0, 0)" stroke="rgb(194, 189, 181)" stroke-width="1px" opacity="0.25"></line><line x1="0" y1="294" x2="1083" y2="294" fill="rgb(0, 0, 0)" stroke="rgb(194, 189, 181)" stroke-width="1px" opacity="0.25"></line><line x1="0" y1="252.00000000000003" x2="1083" y2="252.00000000000003" fill="rgb(0, 0, 0)" stroke="rgb(194, 189, 181)" stroke-width="1px" opacity="0.25"></line><line x1="0" y1="210" x2="1083" y2="210" fill="rgb(0, 0, 0)" stroke="rgb(194, 189, 181)" stroke-width="1px" opacity="0.25"></line><line x1="0" y1="168" x2="1083" y2="168" fill="rgb(0, 0, 0)" stroke="rgb(194, 189, 181)" stroke-width="1px" opacity="0.25"></line><line x1="0" y1="126.00000000000001" x2="1083" y2="126.00000000000001" fill="rgb(0, 0, 0)" stroke="rgb(194, 189, 181)" stroke-width="1px" opacity="0.25"></line><line x1="0" y1="84" x2="1083" y2="84" fill="rgb(0, 0, 0)" stroke="rgb(194, 189, 181)" stroke-width="1px" opacity="0.25"></line><line x1="0" y1="42.00000000000002" x2="1083" y2="42.00000000000002" fill="rgb(0, 0, 0)" stroke="rgb(194, 189, 181)" stroke-width="1px" opacity="0.25"></line><line x1="0" y1="0" x2="1083" y2="0" fill="rgb(0, 0, 0)" stroke="rgb(194, 189, 181)" stroke-width="1px" opacity="0.25"></line></g></g></g><g><g><line x1="0" y1="336" x2="1083" y2="336" fill="rgb(0, 0, 0)" stroke="rgb(168, 160, 149)" stroke-width="1.5px"></line></g></g><g><g><line x1="83.3076923076923" y1="0" x2="83.3076923076923" y2="378" fill="rgb(0, 0, 0)" stroke="rgb(168, 160, 149)" stroke-width="1.5px"></line></g></g><g><g><g><g><g><path stroke="rgb(255, 112, 67)" stroke-width="2px" d="M124.79492307692308,-4.510562241093572L125.79461538461538,17.41207047423664L126.6276923076923,12.06999981984109L127.794,25.325648012414483L128.46046153846154,17.797548214504836L128.7936923076923,21.51284472956773L131.9593846153846,27.401487970393354L132.79246153846154,50.07332077166194L132.95907692307694,38.79821365114785L133.79215384615384,63.08332333649751L134.62523076923077,50.91175303383646L134.95846153846153,57.9795386981841L136.29138461538463,65.05499860980026L136.458,64.95207997642464L138.29076923076923,73.37418011487445L139.7903076923077,54.29071900627044L141.1232307692308,80.95889795662602L143.78907692307692,92.37433535604008L144.45553846153845,114.76330940458108L146.1216923076923,130.4850516828042L153.45276923076923,129.8471268959126L153.6193846153846,136.21823554917108L154.9523076923077,144.88745439102806L156.45184615384616,139.80647104770208L156.7850769230769,146.4952980338952L156.95169230769233,149.1380442988529L157.45153846153846,148.68739445040546L158.45123076923076,129.0761122073523L159.95076923076925,135.7879585841771L160.4506153846154,151.79139178868996L160.61723076923076,141.14480028317487L162.28338461538462,152.62699430564712L165.11584615384615,164.64784605848595L165.44907692307692,165.60772374837282L168.6147692307692,155.95590439062525L168.948,167.06649307382827L169.44784615384614,168.61888357623053L170.78076923076924,174.26528827562112L171.78046153846154,177.31987273343907L172.1136923076923,173.55130535393064L172.61353846153844,164.82076398628416L173.61323076923077,176.0027626520244L174.4463076923077,185.1596461776404L176.11246153846153,185.5089236929124L177.11215384615386,169.18404073918492L178.11184615384616,169.98621545913596L178.7783076923077,178.16938308407532L179.77800000000002,187.85617483335534L180.11123076923076,192.0143396656382L180.61107692307692,184.1561514068048L180.9443076923077,192.10523564388757L181.1109230769231,195.8395030806685L181.94400000000002,170.80681342066674L182.1106153846154,186.29157737124768L183.61015384615382,188.95734205263145L184.94307692307692,196.3726851082878L185.77615384615385,207.048178173127L186.60923076923075,175.76666111530199L186.94246153846154,190.4009207414468L188.94184615384617,194.0054776768017L190.10815384615384,202.9081556856709L190.27476923076924,208.5968251740978L190.60799999999998,191.72378846383373L191.10784615384617,209.8246701119916L191.4410769230769,214.11670697442153L193.44046153846153,215.02770729012164L193.9403076923077,199.82299369780347L194.6067692307692,177.90256636028366L195.1066153846154,200.55356999805497L195.60646153846156,212.30633572441891L196.27292307692306,218.42289338411425L196.43953846153846,227.75946662128888L197.106,231.45836887658191L197.93907692307693,218.26376278102725L199.77184615384616,222.69834830582337L200.93815384615385,234.4796704519999L202.27107692307692,227.75284224922729L202.93753846153845,227.68162325725118L203.604,227.26159297290542L203.77061538461538,226.7858922461456L204.93692307692308,233.16200211404478L206.43646153846151,237.8958597156925L207.10292307692308,240.7704159148647L207.7693846153846,238.15243448544226L208.43584615384614,243.6880576761286L208.60246153846154,214.6275123400522L209.26892307692307,211.99388762253713L210.76846153846154,225.9989998098504L211.43492307692307,237.3669841144259L211.60153846153847,232.27104694448562L211.76815384615387,238.37923033954291L212.1013846153846,235.36261175108908L212.268,236.1844081761417L213.2676923076923,203.92200415861473L213.93415384615386,197.9208962817899L214.10076923076923,212.53813850759937L214.434,210.31144496369043L215.26707692307693,194.39371085028458L215.4336923076923,205.41553376114732L215.6003076923077,220.94196689365128L216.26676923076923,231.65274574898376L216.93323076923076,233.45878047551332L217.7663076923077,243.63793979409706L217.9329230769231,207.00293721630197L218.09953846153846,223.10517419501554L221.93169230769232,202.45648220255623L222.59815384615385,189.13658402368216L222.93138461538462,214.98936740639678L223.76446153846155,215.34283843089864L227.76323076923077,230.32166436225012L228.09646153846154,234.50032649820943L228.92953846153847,248.659016623413L229.2627692307692,218.5595609750243L229.92923076923077,192.97710285698727L230.26246153846154,213.82375362703414L231.59538461538463,230.11567582124005L232.59507692307693,201.7858202876659L233.26153846153846,189.57758348119327L234.42784615384613,220.78809641439955L234.76107692307693,234.28686022901084L235.76076923076923,244.77972310151782L236.094,250.38550033429937L236.59384615384616,214.66962844764993L237.0936923076923,232.52818102977162L238.4266153846154,244.42789830292153L238.5932307692308,223.4211405320459L239.09307692307692,237.90877776405173L240.25938461538462,246.2377565876303L240.75923076923078,252.70673323724614L242.25876923076922,259.0739480844376L242.92523076923078,260.56735484309417L243.42507692307694,254.6254277068819L243.5916923076923,258.34445416441235L245.09123076923078,260.48346311754386L245.25784615384615,241.03666478458885L245.92430769230768,231.54465695180798L246.25753846153845,246.17695621942462L246.42415384615387,254.53327242550245L247.09061538461538,263.8611560822546L247.25723076923074,231.88355552679414L247.75707692307694,244.76355555728742L247.9236923076923,226.97696573183342L249.25661538461537,215.01238518861177L249.92307692307693,212.2972583836749L250.25630769230767,233.21861778655258L250.58953846153847,214.8958130059159L250.75615384615384,235.47272828206516L252.2556923076923,248.08377109399495L252.75553846153846,250.31593984145556L254.08846153846153,260.60030349837916L254.42169230769233,264.2517612311076L256.08784615384616,262.07048560219L257.2541538461538,223.7985767617046L259.4201538461538,242.6647760161292L260.41984615384615,256.1422971587498L260.91969230769234,264.89909487850184L261.2529230769231,249.85631270102687L261.9193846153846,219.4384955673935L262.58584615384615,203.34963634190095L262.91907692307694,232.00547371493062L263.7521538461538,247.5573690067904L263.9187692307692,229.66415437526564L265.4183076923077,243.86311405460276L266.418,256.04267296767375L267.08446153846154,263.19104979500855L267.25107692307694,228.79046300688796L268.9172307692308,246.00565826677922L269.75030769230773,260.1613585983732L272.0829230769231,266.1700826761138L272.41615384615386,273.2672416375286L275.7484615384616,275.51390806235116L275.9150769230769,219.8765705454185L276.58153846153846,211.24960992979015L276.74815384615385,241.5381224337042L276.91476923076925,252.06611290114049L279.9138461538462,232.24984657369208L281.9132307692308,220.040478928102L282.0798461538462,246.30883577299883L283.07953846153845,263.4314260365532L283.4127692307692,272.1634527899007L284.2458461538462,275.94632255895016L288.57784615384617,241.46151667990134L288.9110769230769,260.36347578858044L290.57723076923077,245.20063155469126L292.41,263.43132993684304L292.90984615384616,272.1732629126673L293.4096923076923,273.74622970499786L295.5756923076923,274.625552764405L296.742,278.26802056245157L297.74169230769235,282.4978561759719L298.908,283.38322199110564L299.90769230769234,256.3176437659524L301.5738461538462,267.7195820786633L302.4069230769231,275.89286207068426L302.5735384615385,254.0327761108188L303.0733846153846,269.2049319323604L304.07307692307694,276.9091856608811L304.4063076923077,279.81873634159706L304.9061538461538,279.59070835769256L305.40599999999995,280.4139712182288L305.9058461538462,245.47289628074202L306.07246153846154,261.8463625090458L309.07153846153847,273.9957478032791L311.57076923076926,281.09614313997525L314.07,287.8763482985359L314.56984615384613,260.39277248009813L314.7364615384615,269.8753405357884L315.06969230769226,276.84767227801603L315.23630769230766,253.04624176402638L318.9018461538461,269.07914268720003L319.7349230769231,278.65861583082585L320.23476923076925,283.28054097371523L320.9012307692308,287.09352706836L321.2344615384615,260.1839070735355L321.9009230769231,242.83100678074243L322.56738461538464,228.10232080428528L323.2338461538461,210.15394955044226L327.39923076923077,238.72380741337085L327.56584615384617,260.33804024636237L329.39861538461537,273.31373685228516L330.73153846153843,278.12267814652733L330.89815384615383,284.4418454133071L331.39799999999997,288.8633473755477L331.73123076923076,290.19261665591944L331.89784615384616,255.41571647792665L333.39738461538457,268.97255969327455L334.5636923076923,241.76218938041788L337.0629230769231,264.53188470369014L337.2295384615384,244.28423580268284L337.7293846153846,266.42313402616537L340.8950769230769,280.80954333379003L341.7281538461539,285.64228621145566L341.89476923076927,251.5119522322445L342.228,266.00902818138775L343.39430769230773,277.5041740804635L344.5606153846154,251.40743090091482L344.72723076923074,267.5981940446993L346.22676923076926,279.01368846051093L346.89323076923074,286.40641971082806L347.22646153846154,256.85620076448515L347.89292307692307,232.83623358124967L349.3924615384616,255.03660098859356L350.5587692307692,242.8259503087323L350.7253846153846,264.75612056976087L351.5584615384616,274.2528379912706L352.8913846153846,281.720599736901L354.39092307692306,284.5093173921895L354.55753846153846,245.7618514216418L355.224,223.50189967134446L356.0570769230769,252.2714941118887L356.55692307692306,228.77722263900822L356.89015384615385,255.34900097232094L357.39000000000004,272.1621327458682L357.8898461538462,237.7384087979115L358.5563076923077,223.6940667020868L359.8892307692308,208.28057789967008L361.22215384615384,214.17514575103246L361.8886153846154,201.22022142278743L362.3884615384615,239.97519796292542L362.5550769230769,225.78437735319469L363.55476923076924,256.29317279863557L365.05430769230765,274.97874101286055L365.72076923076924,286.69134334734036L365.88738461538463,264.73526621348236L366.05400000000003,280.6630838613902L366.38723076923077,289.43095586187803L366.8870769230769,292.87083685330845L368.05338461538463,292.55400388200457L369.5529230769231,296.61472021555534L371.2190769230769,263.6167694462277L371.8855384615385,246.24427187281478L372.2187692307692,268.6845941295482L372.71861538461536,279.3749087757026L373.55169230769235,287.3068695513102L374.0515384615385,288.7007075767334L374.2181538461538,292.451497391499L374.3847692307692,296.7450805256587L375.2178461538462,261.73166379391085L377.55046153846155,277.93372895871954L379.04999999999995,286.3689712009153L380.04969230769234,290.33942776449453L381.21599999999995,267.8690079160209L381.3826153846154,280.7724199931429L382.8821538461538,289.04483612064155L384.04846153846154,293.1473918609836L386.04784615384614,297.824565335096L387.2141538461538,268.9545150494463L387.54738461538466,284.4882291254929L388.21384615384613,292.2724079953153L389.88,262.49773709455246L390.0466153846154,277.61511427211235L390.54646153846153,260.30226543216384L391.37953846153846,275.3998902956753L392.046,288.13751871109656L394.212,292.9002060813943L394.7118461538461,296.69344739456415L395.71153846153845,299.20750550949236L395.87815384615385,257.6770979101876L396.04476923076925,273.2980225858343L401.7096923076923,286.51641387803863L402.7093846153846,292.31154235758487L403.8756923076923,262.72497244213884L404.8753846153846,279.0358421536378L405.54184615384617,289.4621412403638L405.8750769230769,256.8913484649214L406.2083076923077,277.6690858886452L407.208,256.10247997556996L407.70784615384616,275.4874816376857L408.0410769230769,285.3500122522648L408.5409230769231,245.28823153348776L409.04076923076923,268.1173145304443L409.5406153846154,283.78898574890616L411.0401538461538,293.09024569739057L411.3733846153846,294.6266960176775L413.3727692307693,298.7731257267564L413.5393846153846,300.73650505946694L413.706,304.2790898490346L416.0386153846154,304.92103346874694L416.7050769230769,306.89060679847233L417.3715384615385,304.8302587018861L418.038,304.29665871539436L418.70446153846154,304.81481564091877L419.0376923076923,306.18725745706104L419.3709230769231,304.55416538732254L420.70384615384614,302.28342025290135L421.0370769230769,305.0582240725172L421.5369230769231,305.9204986753829L422.0367692307692,307.7955679430227L422.53661538461535,264.0957224186456L422.86984615384614,280.33335721827723L423.36969230769233,291.4064369078706L426.5353846153846,276.2412579271931L428.5347692307692,254.16222088180413L428.7013846153846,273.9905380573418L428.868,287.84835882225906L429.2012307692308,256.75161386513275L429.3678461538462,278.32654246916513L429.7010769230769,291.1478495385059L430.03430769230766,294.78022308980275L430.7007692307692,298.6422259177855L431.3672307692308,303.2608119300658L432.20030769230766,304.0981096632275L432.53353846153846,267.35608900350286L433.6998461538462,284.2087991998312L434.1996923076923,295.26768438134894L435.03276923076925,298.90378075667803L435.6992307692308,303.0399668945585L436.53230769230765,266.21077670655933L436.86553846153845,280.7433183264869L437.0321538461538,291.24378739786965L439.53138461538464,297.3859496008922L440.0312307692308,300.16863801309876L440.5310769230769,256.5670482863749L440.6976923076923,278.9016340392688L441.36415384615384,289.97091156827565L441.69738461538464,298.2773191272447L442.5304615384615,257.46194079275307L442.6970769230769,274.8914483806811L443.86338461538463,255.7054271949126L444.03,276.2857324369427L444.6964615384615,290.2679716734693L445.02969230769236,297.6621463768843L445.3629230769231,299.618390693257L446.02938461538463,301.8697547376095L447.6955384615385,301.3343206465208L448.0287692307692,305.6957267796971L448.36199999999997,307.7411082479941L448.52861538461536,263.3573086865894L449.19507692307695,249.02742903519584L449.6949230769231,273.4295660179193L451.02784615384616,288.25015698440876L451.6943076923077,296.25228104214676L454.0269230769231,302.53495093119625L454.6933846153846,303.1562111135273L455.0266153846154,304.81076959109004L455.8596923076923,275.27799587330634L456.0263076923077,288.08646320391546L456.3595384615384,297.27556894712956L456.6927692307692,300.4543677430946L456.85938461538467,304.0237675727367L457.1926153846154,281.233410934267L457.52584615384615,291.77539232472037L457.69246153846154,299.8401739782062L458.8587692307692,303.85413543855947L459.3586153846154,307.38146022126557L460.1916923076923,307.39990667322564L463.3573846153846,309.60181053530744L465.02353846153846,308.8856891349052L466.02323076923074,307.9608663770613L466.5230769230769,272.65732213336565L467.0229230769231,288.74328541563955L467.52276923076926,296.60941958312395L467.6893846153846,303.22180134704234L467.856,275.9570944801004L469.52215384615386,289.20842577070187L469.68876923076925,298.93729674965255L469.8553846153846,267.10067669481106L470.1886153846154,284.5553504367475L472.188,295.72724758504654L472.3546153846154,300.5370437414576L472.6878461538461,305.8081835050064L474.02076923076925,306.8201698075937L475.5203076923077,308.6467753464703L478.35276923076924,309.9911010965541L480.6853846153846,309.90421681790554L481.35184615384617,310.38076564067006L481.51846153846157,310.9800911593044L481.8516923076923,277.1679158406022L483.1846153846154,248.5671151659824L483.51784615384616,271.8867711366378L484.1843076923077,288.5346620929934L485.85046153846156,250.93114851312026L487.1833846153846,234.35584761617295L487.35,266.2224037570817L489.1827692307692,230.60610308188575L490.5156923076923,232.20361790381895L491.5153846153846,261.4125317270936L491.682,281.29052505584843L492.01523076923075,291.262293663575L492.3484615384615,298.43286211428267L493.1815384615385,272.8116499467923L496.34723076923075,288.99552420879803L497.3469230769231,297.4935726887309L497.5135384615385,302.53597485103154L499.17969230769233,272.1431922714588L499.5129230769231,289.16232214693287L500.1793846153846,298.492108330274L500.346,302.38450228759314L502.1787692307692,304.9082284187595L502.67861538461534,307.16437827440024L503.67830769230767,306.6575754051919L504.5113846153846,282.30092341694325L504.8446153846154,293.59383171435053L505.1778461538462,272.1242995168916L505.5110769230769,288.4013073865265L507.0106153846154,299.06513585708683L507.6770769230769,304.25635671414227L508.34353846153846,308.0647948252993L508.67676923076925,309.36829851078016L509.1766153846154,281.47282206301105L510.6761538461538,292.69751876881253L510.84276923076925,300.7099983447225L512.5089230769231,271.0927940507788L512.8421538461538,288.16851174235694L514.8415384615384,298.2104071247599L515.0081538461538,304.9168411223901L515.1747692307692,277.37708404355124L515.8412307692308,257.9452668445878L516.5076923076923,240.91687232599097L517.5073846153846,269.66336478200816L517.674,287.65169722919023L520.3398461538461,297.18009365489695L520.8396923076923,302.214469690863L521.3395384615385,306.45294534906367L521.5061538461538,309.857132962612L522.839076923077,310.52759516910777L523.8387692307692,281.7188816253904L524.8384615384615,293.1012706485131L525.6715384615385,302.05205541889296L528.8372307692308,304.35350330138465L529.5036923076923,308.0416114870564L529.8369230769231,274.72153335951896L530.67,290.01601373519384L531.503076923077,299.5874372969024L533.669076923077,305.83216086446953L534.3355384615385,309.3009627403004L534.8353846153846,310.38460848219296L537.3346153846154,311.8127710097259L539.1673846153845,275.04918238122616L539.334,290.07069629549596L539.8338461538461,269.93773088764914L540.8335384615384,287.89132581896644L541.9998461538462,296.04897700993456L542.1664615384615,302.61732726125854L542.3330769230769,308.3211112691697L542.4996923076923,273.1441625805936L542.6663076923077,288.49465154005543L544.1658461538462,298.1098684691992L547.998,303.25284784696146L548.1646153846154,307.665591078172L548.3312307692308,309.59884176085586L549.4975384615385,312.2633542432201L551.3303076923077,310.9351354631073L551.6635384615386,313.3906287021808L553.6629230769231,314.9239436428172L553.8295384615385,286.0226332450165L554.3293846153846,296.80872921611393L554.6626153846154,302.04410776892615L554.8292307692308,307.26680577158515L555.1624615384615,279.9215486118769L558.3281538461538,293.39450784144253L559.1612307692308,269.73613097439676L559.661076923077,238.94464489323178L560.1609230769232,210.7737299901383L561.6604615384615,212.00235917938573L561.8270769230769,191.14814585431114L563.16,186.9834511112195L563.3266153846155,210.05220476096997L564.3263076923078,237.689648814834L564.8261538461538,254.48874023189356L565.8258461538461,232.5930274643314L566.1590769230769,247.46237752901388L566.4923076923077,234.26245856086535L569.3247692307692,257.99419129252504L569.658,272.09073367810294L569.8246153846154,248.45547063288717L569.9912307692307,264.0030209966757L571.8240000000001,244.70780075718508L573.4901538461538,266.6802866860005L574.8230769230769,279.1001714470251L577.6555384615384,286.27152178301L578.8218461538461,287.6072632742738L578.9884615384615,290.1153346796521L579.4883076923078,290.8375881826692L582.1541538461538,291.32152568792185L582.8206153846154,291.8050525587492L583.6536923076924,294.0725912428911L583.9869230769231,292.7690919314036L584.3201538461539,293.14954338516054L584.6533846153847,289.51158371237074L584.9866153846154,285.3266093460748L585.6530769230769,285.67452914524256L585.8196923076923,258.7830783880244L586.3195384615384,272.8136652396018L587.3192307692307,277.48546431099743L587.6524615384616,280.44433423540215L588.1523076923078,288.1535725108457L589.4852307692307,292.5529847998424L589.8184615384615,239.6945069443586L589.9850769230769,264.40017432042373L590.1516923076923,273.43807730953944L591.4846153846154,274.29791253257423L593.9838461538461,286.31146667390243L594.3170769230769,292.37885929816474L594.6503076923077,294.740083218059L594.9835384615384,297.1027564432866L596.8163076923078,298.0227511254934L597.4827692307692,299.1158641915314L599.6487692307693,301.3289246809955L600.3152307692308,303.20579196527456L603.4809230769231,300.06891570040494L605.9801538461538,294.04631066291876L606.1467692307692,296.0935800073704L607.1464615384615,261.8113985537386L607.313076923077,264.9337448787031L607.6463076923077,280.3415206546389L608.1461538461539,286.1111581203224L608.9792307692308,292.473139421754L609.6456923076923,298.11235281503974L609.978923076923,300.9351035301493L612.6447692307693,305.58263117936883L614.4775384615384,264.35746963779707L615.6438461538462,278.1001575181519L615.8104615384616,254.2362572306177L616.9767692307693,276.07189513884674L617.4766153846153,290.15076594378166L621.4753846153847,298.2201262380219L621.9752307692307,302.6064946118317L623.1415384615385,259.1790585102631L623.6413846153847,276.8417916048761L623.808,251.92358601028894L624.1412307692308,274.82753947696193L624.3078461538462,286.61137140346233L625.4741538461539,294.8590072521726L627.6401538461539,299.614764855454L628.4732307692308,274.61859081634856L629.9727692307692,284.9628324988423L630.3059999999999,293.50378981607787L630.6392307692307,299.7599107991316L631.8055384615385,267.46154676024065L633.9715384615384,280.7947563489911L634.3047692307692,287.32813478473645L635.3044615384616,292.26893821337114L636.6373846153846,301.7310002266067L637.637076923077,305.804402328652L637.8036923076922,259.80998941965214L638.6367692307692,277.39841724340505L639.4698461538462,293.1007052761578L640.6361538461539,301.11482078684946L641.9690769230768,302.507314179263L642.6355384615384,303.55075783128825L643.302,305.35489851591166L645.468,308.3708658978771L645.8012307692308,268.88143219741767L646.1344615384616,283.3550396620785L646.6343076923076,294.767860718939L647.4673846153846,300.0879592444737L650.2998461538461,302.5703390995407L651.1329230769231,278.34950219629667L654.132,291.21526291750945L654.7984615384615,300.0391659902518L655.2983076923077,307.08333853763247L656.1313846153846,308.19409331728167L657.2976923076923,304.2539836087772L657.9641538461539,305.93124979966575L658.2973846153845,303.2493867816549L659.2970769230769,308.12016975057253L659.4636923076923,307.9067995355852L660.4633846153846,281.5911860445933L661.6296923076923,295.5124888789532L662.6293846153845,302.9174699814247L663.1292307692308,280.2661936587767L664.1289230769231,293.29127602497795L665.9616923076923,300.2313139624599L666.294923076923,304.66737686319374L667.9610769230769,305.84841382696163L668.4609230769231,273.84405256863795L668.7941538461539,287.1951496503136L669.6272307692308,296.7294101942409L672.2930769230769,302.6957566588419L672.6263076923077,300.7445938878833L673.4593846153846,304.95904431185596L673.626,309.4911604204265L674.2924615384615,311.44510175457526L674.6256923076922,311.2914273933824L675.792,265.94160722948646L676.9583076923077,282.235206952438L678.9576923076924,293.6334930984647L679.7907692307692,263.73575641205736L681.7901538461538,257.62099303180474L681.9567692307692,277.56479026183183L682.9564615384616,293.3526473886054L683.123076923077,263.640654137509L685.4556923076923,284.7133674733501L686.1221538461538,297.9622947760023L686.4553846153846,268.6834538309334L686.7886153846155,285.76193554929245L687.2884615384615,296.9637577803812L687.7883076923077,266.29874844264276L689.2878461538461,283.6991128045993L690.2875384615385,292.97035406581625L690.6207692307692,299.4658702382568L692.4535384615385,264.31566807801266L692.6201538461538,284.871886350958L693.6198461538461,297.8789160360387L694.7861538461538,304.71105552372285L698.7849230769232,309.3726297894534L699.7846153846154,285.09395064588887L700.1178461538461,294.7219660906583L703.6167692307693,303.0398022740239L704.1166153846154,307.60687185818875L704.7830769230769,312.3350247949059L704.9496923076923,312.6286137538967L705.1163076923077,282.1263998197208L706.116,293.29283856431783L706.6158461538461,299.44740468430604L706.949076923077,304.07307919364024L708.4486153846154,285.30261079133066L709.6149230769231,298.7805990675718L710.448,279.5653124129552L711.7809230769232,258.9350616237985L712.4473846153846,254.16730589517752L713.1138461538461,238.87899498730184L715.2798461538462,270.696122044261L715.613076923077,290.0372400676821L716.112923076923,300.1292826697597L718.1123076923077,307.61913946422146L718.7787692307693,310.0836837288869L719.6118461538462,313.98581849081114L719.945076923077,313.6896528681683L721.6112307692307,314.7191346621852L721.9444615384615,315.2829514775479L722.2776923076923,315.8134646578911L724.4436923076923,283.44861437823073L727.1095384615385,269.0764685842138L727.9426153846154,289.305216763779L729.108923076923,272.74365221402917L733.2743076923077,290.17294250334425L733.440923076923,300.7739215612717L733.6075384615384,305.4800404215042L734.7738461538462,309.9099765386691L736.44,281.0999864725179L737.772923076923,265.15878262447757L738.7726153846154,287.0606506057229L738.9392307692308,300.41242227719107L739.6056923076924,307.8802445421569L741.4384615384615,312.3556611448498L742.4381538461538,291.19236153065987L743.4378461538462,299.371765871643L743.9376923076924,304.55514162290035L746.436923076923,274.12862193052734L747.1033846153847,266.2648742691562L748.2696923076924,287.91260536288536L748.9361538461538,300.5550681386907L749.7692307692307,274.91767406192537L750.6023076923076,290.03163413838814L751.2687692307693,299.9050299443976L751.4353846153847,308.49665638674355L753.2681538461538,309.7846110348049L753.4347692307692,312.1872085764494L755.2675384615385,313.21998711791554L755.6007692307693,312.5990990136082L755.7673846153847,281.07294390523526L756.9336923076922,297.1538685198074L757.266923076923,304.20404859754115L757.4335384615384,310.2319616101543L757.6001538461538,314.5904173149085L757.7667692307692,285.7302226789842L758.7664615384616,297.2683641676932L762.4319999999999,276.0168343880671L765.2644615384615,294.2434711849032L766.0975384615384,303.6215356299483L766.2641538461538,310.49411255533715L766.5973846153846,312.76122903832925L767.9303076923077,314.28316617971143L769.9296923076922,315.0516618690817L777.5939999999999,317.7450126434522L779.9266153846154,318.6861314264034L780.0932307692308,319.25593365473117L781.9259999999999,319.11028180386165L782.0926153846153,318.79996516385995L782.4258461538462,276.15909134196835L782.7590769230769,294.78493432788605L783.2589230769231,303.29362661235666L783.4255384615385,310.19726939316473L783.7587692307693,284.45712933609417L787.5909230769231,297.9621930603357L788.424,277.4439009192092L788.9238461538462,293.1327899838986L789.4236923076922,304.1133905354441L790.2567692307691,310.6325882687152L792.0895384615385,315.3165597017992L793.5890769230768,318.0680166468852L794.088923076923,317.90971402560666L794.2555384615384,320.11393300673365L795.7550769230769,297.7052395342648L796.7547692307692,305.9798100184715L799.4206153846154,310.31229244418836L800.4203076923077,280.15735746114194L801.0867692307692,267.5324586051031L801.5866153846154,288.8453615079716L802.5863076923077,302.37345490756L802.9195384615385,310.19878918827993L804.4190769230769,285.76153700173745L805.0855384615385,262.9665114344409L806.0852307692307,285.2620160830767L806.9183076923077,300.06287748889633L807.918,307.74410787151163L809.4175384615385,312.7647018559331L810.5838461538463,315.1822615890237L811.2503076923077,315.6772110717614L812.7498461538462,316.1882735119533L815.2490769230769,318.303006698267L816.4153846153846,294.6630202970364L816.9152307692308,304.53940210589514L817.2484615384615,311.2104875007197L817.4150769230769,315.12361692899015L818.0815384615385,315.527793356857L818.2481538461537,318.339826381851L820.4141538461538,291.604652817636L821.4138461538461,302.81742132162407L821.5804615384615,310.68448807510947L821.9136923076923,312.6221412093235L822.9133846153846,316.9434769481893L823.4132307692308,317.68927189889405L824.4129230769231,280.59998586882864L825.0793846153846,258.4247701162679L826.2456923076924,281.71239220586915L827.9118461538461,296.26291807346047L828.9115384615384,305.98145621211825L829.578,312.4044886373967L830.077846153846,316.05409273764434L831.4107692307692,317.59439320362173L831.744,287.2543364226613L833.91,301.05543340800966L834.5764615384616,307.6019513747618L834.743076923077,313.28376478085073L837.9087692307692,316.55602405863493L838.0753846153846,318.0632706546634L838.5752307692308,319.08470620535905L839.7415384615384,285.02520360602796L840.0747692307692,299.18247670921L841.4076923076923,308.3815999590893L841.7409230769231,276.04355790636174L841.9075384615384,294.7789277316405L844.0735384615384,305.14241004474604L844.4067692307692,278.4314413576582L846.0729230769232,294.0617288893019L846.5727692307693,303.58610849294394L848.4055384615384,281.4311710161765L848.9053846153846,295.0788371540785L849.2386153846154,306.4291367040682L849.5718461538461,312.96246937671947L851.5712307692307,316.14385608053L854.4036923076924,291.69639635095467L855.2367692307693,304.3819505882828L856.902923076923,311.032882244144L857.9026153846154,314.3077810661519L859.068923076923,275.9690088496521L860.0686153846153,294.4776323453137L860.4018461538461,266.3105425724714L861.0683076923077,254.48225846584617L862.2346153846154,281.024160720682L862.4012307692308,265.8162885771846L862.5678461538462,285.8402084032688L864.234,299.13609670638994L867.732923076923,268.2134512367246L868.566,286.8606817497252L869.3990769230769,300.6098161848449L870.3987692307693,272.0159734816589L872.064923076923,290.93213499613034L872.898,301.460860511228L873.8976923076924,310.1285330608872L874.5641538461539,313.4675463196866L874.7307692307693,316.53783236487106L876.0636923076923,319.54934784497857L876.5635384615384,319.1908776660326L876.7301538461538,320.61024978992714L877.0633846153846,291.20175778411254L877.5632307692307,304.24390993322385L877.7298461538461,280.73119291428003L877.8964615384615,294.3730747268395L878.7295384615385,305.6357227162001L879.0627692307693,268.63758521053063L879.5626153846154,290.1667302416138L879.7292307692308,273.34297607221436L879.8958461538462,292.0145635287656L880.0624615384615,303.15192825321515L880.3956923076923,278.85609027102095L880.8955384615384,296.05969151231346L881.0621538461538,277.31244179947794L882.0618461538462,296.53035883273856L883.0615384615385,260.4300466595064L883.3947692307693,283.88206329691235L883.8946153846153,298.3787951680888L885.8939999999999,307.1186301739734L887.2269230769231,311.32996842573414L887.3935384615385,315.1309966689964L887.5601538461539,319.20435451308606L888.5598461538461,321.2898097445948L889.7261538461538,289.1366264778604L890.5592307692308,300.63532164324704L891.7255384615385,281.58092229503023L893.8915384615385,297.6871474321939L894.8912307692308,308.1650943408166L895.2244615384616,312.787199686155L895.7243076923077,290.8619862545641L896.8906153846153,304.47961755687663L897.8903076923076,312.7646083026807L898.3901538461539,273.8282031529951L898.7233846153847,292.8792488189821L898.89,305.63913614823133L902.0556923076923,311.04109292551107L903.5552307692308,315.7619985897793L905.5546153846153,319.0117449950846L906.0544615384616,319.9223470229907L906.5543076923077,319.8043528472783L908.7203076923076,320.6737273928763L910.0532307692308,322.6042039917255L911.3861538461539,321.1601034192052L911.5527692307693,322.382008096445L912.0526153846154,322.6052674036434L912.3858461538462,290.56244114286966L912.5524615384616,303.4612403204874L914.8850769230769,311.8510476667187L916.218,317.10118855944285L918.7172307692308,319.38855588621504L919.8835384615385,320.70178961388234L920.8832307692307,321.88457413454034L921.3830769230768,322.2208696790885L921.5496923076922,321.7535439746589L922.5493846153846,321.5100734291679L924.7153846153846,321.4300222526911L925.0486153846153,283.75330708330415L925.2152307692307,298.2515652627083L925.3818461538461,308.07598131002976L926.3815384615385,276.47470652283425L927.2146153846154,294.81933807385684L929.3806153846153,306.26622547538705L932.0464615384615,313.83936323780796L933.2127692307691,318.0107030562101L934.0458461538462,319.42689329216114L934.2124615384615,321.64055841105716L935.2121538461539,322.9817723330113L936.7116923076923,323.0210229525716L937.2115384615385,320.9809614735694L937.3781538461539,321.73960387693944L937.7113846153845,287.49203777782384L938.7110769230769,301.61201282782713L938.8776923076923,309.63944375779244L939.2109230769231,315.1866100947023L940.044,317.7657506942726L940.5438461538462,318.69783084869243L943.0430769230769,294.34755608367834L943.8761538461538,304.410064068603L944.8758461538462,311.8809724278256L946.0421538461538,315.8580507342223L946.7086153846154,318.4156044426085L947.2084615384615,319.5965307106091L949.7076923076924,299.55354983505686L951.0406153846154,269.3251935607021L951.7070769230769,260.05787599359894L951.8736923076923,286.06204981490936L954.8727692307692,301.8361516266165L955.3726153846154,310.1163101738154L955.5392307692308,315.1089954510604L955.8724615384615,316.37672608228183L956.2056923076923,319.8028321428993L956.3723076923077,291.50950476669664L957.0387692307692,264.4922520848715L957.2053846153846,287.88665446594973L959.0381538461538,268.82128406140583L960.0378461538461,290.9760280357204L960.7043076923077,303.8513601914884L964.5364615384615,311.65575889443403L966.7024615384615,316.6615355521146L968.0353846153846,319.5598717707218L968.8684615384615,321.11463043319117L969.0350769230769,289.8550453497584L969.3683076923077,304.2254320522318L969.5349230769232,312.60313604713497L971.2010769230769,314.7353739073337L971.3676923076923,317.51560891929034L973.8669230769232,319.7677719715998L974.3667692307693,291.1840494134287L976.1995384615384,303.44208068718075L976.3661538461538,273.50479705732795L976.6993846153846,292.0066441035374L976.866,305.23167157030724L978.5321538461538,312.1368990603484L979.6984615384615,277.86935135027153L980.3649230769231,265.01196725547544L981.0313846153846,265.1298549138321L982.5309230769232,288.06819393889987L983.364,302.2729997221046L983.6972307692307,280.45655648609477L984.0304615384615,297.6618958133488L985.5300000000001,307.5043538271206L986.363076923077,271.69106124036415L987.1961538461538,292.03699323530736L989.5287692307693,305.4307447349771L989.6953846153847,279.8333888575878L990.0286153846155,295.96806035312693L990.8616923076924,307.2958697049182L992.3612307692307,275.619368746779L993.360923076923,294.8437525194297L995.526923076923,307.1977107478029L997.0264615384615,273.7693018026856L997.3596923076924,294.31654919074225L998.0261538461539,306.1418962579146L998.1927692307693,311.46502401954973L998.8592307692307,317.1571163328114L999.858923076923,318.7519340605511L1000.8586153846153,320.94430664604744L1001.6916923076924,277.82318097249174L1002.0249230769231,295.9605279415578L1002.1915384615385,306.8503714066583L1002.5247692307693,311.84006884466635L1004.3575384615384,287.8938130353155L1005.024,273.08880735243923L1006.5235384615385,292.8128277159069L1007.19,304.1371986208161L1007.8564615384615,312.4807089506269L1008.6895384615384,315.92258575550795L1008.8561538461538,319.8215196311002L1009.5226153846154,322.025849229069L1010.6889230769231,321.9141069495508L1011.522,322.44003857158594L1011.8552307692307,321.154379588264L1012.1884615384615,322.9657192789899L1012.3550769230769,298.6155228759877L1013.8546153846154,308.9006725589056L1014.0212307692308,313.1298707937967L1014.1878461538462,317.8928510842187L1015.1875384615385,319.81310017689844L1016.1872307692307,322.03918689599504" style="fill: none;" fill="none"></path></g></g></g></g><g opacity="0.2"><g><g><g><path stroke="rgb(255, 112, 67)" stroke-width="2px" d="M120.46292307692308,-7.792039489746077L121.46261538461539,34.54028320312501L122.2956923076923,-10.273933410644531L124.79492307692308,10.863308715820319L125.79461538461538,50.29601898193361L126.6276923076923,4.056893920898449L127.794,45.20912017822266L128.46046153846154,6.505398559570323L128.7936923076923,27.085789489746112L131.9593846153846,36.23445281982423L132.79246153846154,84.08106994628905L132.95907692307694,21.88555297851563L133.79215384615384,99.5109878540039L134.62523076923077,32.654397583007814L134.95846153846153,68.58121719360349L136.29138461538463,75.66818847656249L136.458,64.7977020263672L138.29076923076923,86.00733032226562L139.7903076923077,25.665527343750018L141.1232307692308,120.96116638183592L143.78907692307692,109.4974914550781L144.45553846153845,148.34677047729494L146.1216923076923,154.06766510009766L153.45276923076923,128.89023971557617L153.6193846153846,145.77489852905273L154.9523076923077,157.89128265380862L156.45184615384616,132.18499603271485L156.7850769230769,156.5285385131836L156.95169230769233,153.10216369628904L157.45153846153846,148.01141967773438L158.45123076923076,99.65918884277345L159.95076923076925,145.85572814941406L160.4506153846154,175.796541595459L160.61723076923076,125.17491302490234L162.28338461538462,169.85028533935545L165.11584615384615,182.67912368774415L165.44907692307692,167.04754028320312L168.6147692307692,141.4781753540039L168.948,183.73237609863278L169.44784615384614,170.947469329834L170.78076923076924,182.73489532470703L171.78046153846154,181.901749420166L172.1136923076923,167.898454284668L172.61353846153844,151.72495193481447L173.61323076923077,192.77576065063477L174.4463076923077,198.89497146606445L176.11246153846153,186.0328399658203L177.11215384615386,144.69671630859375L178.11184615384616,171.1894775390625L178.7783076923077,190.4441345214844L179.77800000000002,202.38636245727537L180.11123076923076,198.2515869140625L180.61107692307692,172.36886901855468L180.9443076923077,204.02886199951172L181.1109230769231,201.44090423583984L181.94400000000002,133.25777893066405L182.1106153846154,209.51872329711915L183.61015384615382,192.95598907470702L184.94307692307692,207.49569969177244L185.77615384615385,223.06141777038576L186.60923076923075,128.84438552856446L186.94246153846154,212.35231018066403L188.94184615384617,199.412313079834L190.10815384615384,216.26217269897458L190.27476923076924,217.1298294067383L190.60799999999998,166.4142333984375L191.10784615384617,236.9759925842285L191.4410769230769,220.5547622680664L193.44046153846153,216.3942077636719L193.9403076923077,177.01592330932618L194.6067692307692,145.0219253540039L195.1066153846154,234.5300754547119L195.60646153846156,229.93548431396485L196.27292307692306,227.59772987365724L196.43953846153846,241.7643264770508L197.106,237.0067222595215L197.93907692307693,198.47185363769535L199.77184615384616,229.35022659301757L200.93815384615385,252.15165367126465L202.27107692307692,217.66259994506837L202.93753846153845,227.5747947692871L203.604,226.63154754638674L203.77061538461538,226.07234115600585L204.93692307692308,242.72616691589354L206.43646153846151,244.99664611816408L207.10292307692308,245.08225021362304L207.7693846153846,234.22546234130857L208.43584615384614,251.9914924621582L208.60246153846154,171.03669433593748L209.26892307692307,208.04345054626467L210.76846153846154,247.0066680908203L211.43492307692307,254.41896057128906L211.60153846153847,224.62714118957518L211.76815384615387,247.5415054321289L212.1013846153846,230.8376838684082L212.268,237.41710281372067L213.2676923076923,155.5283981323242L213.93415384615386,188.91923446655272L214.10076923076923,234.46400184631347L214.434,206.97140464782717L215.26707692307693,170.5171096801758L215.4336923076923,221.9482681274414L215.6003076923077,244.23161659240725L216.26676923076923,247.71891403198242L216.93323076923076,236.1678325653076L217.7663076923077,258.9066787719727L217.9329230769231,152.0504333496094L218.09953846153846,247.25852966308594L221.93169230769232,171.4834442138672L222.59815384615385,169.1567367553711L222.93138461538462,253.76854248046874L223.76446153846155,215.87304496765137L227.76323076923077,252.78990325927737L228.09646153846154,240.76831970214846L228.92953846153847,269.89705181121826L229.2627692307692,173.4103775024414L229.92923076923077,154.60341567993166L230.26246153846154,245.09372978210448L231.59538461538463,254.5535591125488L232.59507692307693,159.29103698730466L233.26153846153846,171.26522827148435L234.42784615384613,267.603865814209L234.76107692307693,254.53500595092774L235.76076923076923,260.5190174102783L236.094,258.7941661834717L236.59384615384616,161.0958206176758L237.0936923076923,259.3160099029541L238.4266153846154,262.2774742126465L238.5932307692308,191.91100387573243L239.09307692307692,259.64023361206057L240.25938461538462,258.73122482299806L240.75923076923078,262.4101982116699L242.25876923076922,268.6247703552246L242.92523076923078,262.8074649810791L243.42507692307694,245.71253700256347L243.5916923076923,263.922993850708L245.09123076923078,263.6919765472412L245.25784615384615,211.86646728515626L245.92430769230768,217.30664520263673L246.25753846153845,268.1254051208496L246.42415384615387,267.06774673461916L247.09061538461538,277.8529815673828L247.25723076923074,183.9171546936035L247.75707692307694,264.0835556030274L247.9236923076923,200.29708099365234L249.25661538461537,197.0655143737793L249.92307692307693,208.22456817626954L250.25630769230767,264.6006568908692L250.58953846153847,187.41160583496094L250.75615384615384,266.3381011962891L252.2556923076923,267.00033531188967L252.75553846153846,253.6641929626465L254.08846153846153,276.02684898376464L254.42169230769233,269.7289478302002L256.08784615384616,258.79857215881344L257.2541538461538,166.39071350097655L259.4201538461538,270.9640748977661L260.41984615384615,276.35857887268065L260.91969230769234,278.03429145812987L261.2529230769231,227.29213943481446L261.9193846153846,173.81176986694337L262.58584615384615,179.21634750366212L262.91907692307694,274.9892297744751L263.7521538461538,270.8852119445801L263.9187692307692,202.8243324279785L265.4183076923077,265.1615535736084L266.418,274.31201133728024L267.08446153846154,273.9136150360107L267.25107692307694,177.18958282470703L268.9172307692308,271.8284511566162L269.75030769230773,281.39490909576415L272.0829230769231,275.18316879272464L272.41615384615386,283.9129800796509L275.7484615384616,278.88390769958494L275.9150769230769,136.42056427001955L276.58153846153846,198.30916900634767L276.74815384615385,286.9708911895752L276.91476923076925,267.8580986022949L279.9138461538462,202.52544708251955L281.9132307692308,201.7264274597168L282.0798461538462,285.71137104034426L283.07953846153845,289.1153114318848L283.4127692307692,285.26149291992186L284.2458461538462,281.6206272125244L288.57784615384617,189.7343078613281L288.9110769230769,288.7164144515991L290.57723076923077,222.45636520385744L292.41,290.77737751007083L292.90984615384616,285.2861623764038L293.4096923076923,276.1056798934937L295.5756923076923,275.9445373535156L296.742,283.7317222595215L297.74169230769235,288.84260959625243L298.908,284.7112707138062L299.90769230769234,215.71927642822263L301.5738461538462,284.8224895477295L302.4069230769231,288.15278205871584L302.5735384615385,221.24264717102054L303.0733846153846,291.96316566467283L304.07307692307694,288.46556625366213L304.4063076923077,284.1830623626709L304.9061538461538,279.24866638183596L305.40599999999995,281.6488655090332L305.9058461538462,193.06128387451173L306.07246153846154,286.40656185150146L309.07153846153847,292.2198257446289L311.57076923076926,291.74673614501955L314.07,298.046656036377L314.56984615384613,219.1674087524414L314.7364615384615,284.09919261932373L315.06969230769226,287.3061698913574L315.23630769230766,217.344095993042L318.9018461538461,293.12849407196046L319.7349230769231,293.02782554626464L320.23476923076925,290.2134286880493L320.9012307692308,292.81300621032716L321.2344615384615,219.8194770812988L321.9009230769231,216.80165634155276L322.56738461538464,206.0092918395996L323.2338461538461,183.23139266967775L327.39923076923077,281.5785942077637L327.56584615384617,292.75938949584963L329.39861538461537,292.77728176116943L330.73153846153843,285.3360900878906L330.89815384615383,293.92059631347655L331.39799999999997,295.49560031890866L331.73123076923076,292.18652057647705L331.89784615384616,203.25036621093753L333.39738461538457,289.30782451629636L334.5636923076923,200.94663391113284L337.0629230769231,298.6864276885986L337.2295384615384,213.91276245117186L337.7293846153846,299.63148136138915L340.8950769230769,302.38915729522705L341.7281538461539,292.8914005279541L341.89476923076927,200.31645126342772L342.228,287.7546421051025L343.39430769230773,294.74689292907715L344.5606153846154,212.26231613159177L344.72723076923074,291.88433876037595L346.22676923076926,296.1369300842285L346.89323076923074,297.4955165863037L347.22646153846154,212.5308723449707L347.89292307692307,196.80628280639647L349.3924615384616,288.33715209960934L350.5587692307692,224.50997428894044L350.7253846153846,297.6513759613037L351.5584615384616,288.4979141235351L352.8913846153846,292.92224235534667L354.39092307692306,288.6923938751221L354.55753846153846,187.64065246582032L355.224,190.11197204589843L356.0570769230769,295.4258857727051L356.55692307692306,193.53581542968752L356.89015384615385,295.20666847229L357.39000000000004,297.38183040618895L357.8898461538462,186.10282287597656L358.5563076923077,202.62755355834958L359.8892307692308,185.16034469604492L361.22215384615384,223.0169975280762L361.8886153846154,181.7878349304199L362.3884615384615,298.1076627731323L362.5550769230769,204.49814643859867L363.55476923076924,302.0563659667969L365.05430769230765,303.007093334198L365.72076923076924,304.2602468490601L365.88738461538463,231.8011505126953L366.05400000000003,304.5548103332519L366.38723076923077,302.58276386260985L366.8870769230769,298.03065834045407L368.05338461538463,292.0787544250488L369.5529230769231,302.7057947158814L371.2190769230769,214.1198432922363L371.8855384615385,220.18552551269528L372.2187692307692,302.34507751464844L372.71861538461536,295.4103807449341L373.55169230769235,299.20481071472165L374.0515384615385,290.7914646148682L374.2181538461538,298.0776821136475L374.3847692307692,303.18545522689817L375.2178461538462,209.2115386962891L377.55046153846155,302.23682670593263L379.04999999999995,299.02183456420903L380.04969230769234,296.2951126098633L381.21599999999995,234.16337814331052L381.3826153846154,300.12753810882566L382.8821538461538,301.45346031188967L384.04846153846154,299.30122547149654L386.04784615384614,304.84032554626464L387.2141538461538,225.6494396209717L387.54738461538466,307.788800239563L388.21384615384613,303.9486763000488L389.88,217.8357307434082L390.0466153846154,300.2911800384521L390.54646153846153,234.3329921722412L391.37953846153846,298.0463275909424L392.046,307.2439613342285L394.212,300.0442371368408L394.7118461538461,302.38330936431885L395.71153846153845,302.9785926818848L395.87815384615385,195.3814865112305L396.04476923076925,296.72940959930423L401.7096923076923,306.3440008163452L402.7093846153846,301.0042350769043L403.8756923076923,218.34511756896975L404.8753846153846,303.50214672088623L405.54184615384617,305.10158987045287L405.8750769230769,208.03515930175783L406.2083076923077,308.8356920242309L407.208,223.75257110595703L407.70784615384616,304.5649841308594L408.0410769230769,300.1438081741333L408.5409230769231,185.1955604553223L409.04076923076923,302.3609390258789L409.5406153846154,307.2964925765991L411.0401538461538,307.04213562011716L411.3733846153846,296.93137149810786L413.3727692307693,304.9927702903747L413.5393846153846,303.6815740585327L413.706,309.59296703338623L416.0386153846154,305.8839488983154L416.7050769230769,309.8449667930603L417.3715384615385,301.73973655700684L418.038,303.49625873565674L418.70446153846154,305.5920510292053L419.0376923076923,308.2459201812744L419.3709230769231,302.10452728271486L420.70384615384614,298.87730255126957L421.0370769230769,309.2204298019409L421.5369230769231,307.2139105796814L422.0367692307692,310.6081718444824L422.53661538461535,198.54595413208008L422.86984615384614,304.68980941772463L423.36969230769233,308.0160564422608L426.5353846153846,253.49348945617675L428.5347692307692,221.0436653137207L428.7013846153846,303.7330138206482L428.868,308.63508996963503L429.2012307692308,210.10649642944335L429.3678461538462,310.68893537521365L429.7010769230769,310.3798101425171L430.03430769230766,300.22878341674806L430.7007692307692,304.43523015975956L431.3672307692308,310.18869094848634L432.20030769230766,305.35405626296995L432.53353846153846,212.243058013916L433.6998461538462,309.48786449432373L434.1996923076923,311.8560121536255L435.03276923076925,304.3579253196716L435.6992307692308,309.24424610137936L436.53230769230765,210.96699142456058L436.86553846153845,302.5421307563782L437.0321538461538,306.9944910049438L439.53138461538464,306.59919290542604L440.0312307692308,304.3426706314087L440.5310769230769,191.16466369628907L440.6976923076923,312.4035126686096L441.36415384615384,306.5748278617859L441.69738461538464,310.73693046569826L442.5304615384615,196.2388732910156L442.6970769230769,301.0357097625732L443.86338461538463,226.92639541625977L444.03,307.1561902999878L444.6964615384615,311.24133052825925L445.02969230769236,308.75340843200684L445.3629230769231,302.5527571678162L446.02938461538463,305.24680080413816L447.6955384615385,300.5311695098877L448.0287692307692,312.23783597946164L448.36199999999997,310.80918045043944L448.52861538461536,196.7816093444824L449.19507692307695,227.5326095581055L449.6949230769231,310.03277149200443L451.02784615384616,310.48104343414303L451.6943076923077,308.25546712875365L454.0269230769231,311.9589557647705L454.6933846153846,304.0881013870239L455.0266153846154,307.2926073074341L455.8596923076923,230.97883529663088L456.0263076923077,307.2991641998291L456.3595384615384,311.0592275619507L456.6927692307692,305.22256593704225L456.85938461538467,309.3778673171997L457.1926153846154,247.0478759765625L457.52584615384615,307.5883644104004L457.69246153846154,311.93734645843506L458.8587692307692,309.87507762908933L459.3586153846154,312.6724473953247L460.1916923076923,307.4275763511658L463.3573846153846,312.90466632843015L465.02353846153846,307.81150703430177L466.02323076923074,306.5736322402954L466.5230769230769,219.70200576782224L467.0229230769231,312.8722303390503L467.52276923076926,308.4086208343506L467.6893846153846,313.14037399291993L467.856,235.06003417968753L469.52215384615386,309.08542270660405L469.68876923076925,313.5306032180786L469.8553846153846,219.34574661254882L470.1886153846154,310.73736104965207L472.188,312.4850933074951L472.3546153846154,307.75173797607425L472.6878461538461,313.7148931503296L474.02076923076925,308.3381492614746L475.5203076923077,311.38668365478514L478.35276923076924,312.00758972167966L480.6853846153846,309.7738903999329L481.35184615384617,311.0955888748169L481.51846153846157,311.8790794372559L481.8516923076923,226.44965286254885L483.1846153846154,205.66591415405273L483.51784615384616,306.86625509262086L484.1843076923077,313.50649852752684L485.85046153846156,194.52587814331054L487.1833846153846,209.49289627075197L487.35,314.0222379684448L489.1827692307692,177.1816520690918L490.5156923076923,234.59989013671876L491.5153846153846,305.2259024620056L491.682,311.1075150489807L492.01523076923075,306.2199465751648L492.3484615384615,309.1887147903442L493.1815384615385,234.37983169555662L496.34723076923075,313.27133560180664L497.3469230769231,310.24064540863037L497.5135384615385,310.0995780944824L499.17969230769233,226.55401840209962L499.5129230769231,314.69101696014405L500.1793846153846,312.48678760528566L500.346,308.22309322357177L502.1787692307692,308.69381761550903L502.67861538461534,310.5486030578613L503.67830769230767,305.8973711013794L504.5113846153846,245.76594543457028L504.8446153846154,310.53319416046145L505.1778461538462,239.9200012207031L505.5110769230769,312.816819190979L507.0106153846154,315.06087856292726L507.6770769230769,312.0431879997253L508.34353846153846,313.7774519920349L508.67676923076925,311.32355403900146L509.1766153846154,239.6296073913574L510.6761538461538,309.53456382751466L510.84276923076925,312.7287177085877L512.5089230769231,226.66698760986327L512.8421538461538,313.7820882797241L514.8415384615384,313.2732501983642L515.0081538461538,314.97649211883544L515.1747692307692,236.06744842529295L515.8412307692308,228.79754104614258L516.5076923076923,215.3742805480957L517.5073846153846,312.78310346603394L517.674,314.6341958999634L520.3398461538461,311.47268829345705L520.8396923076923,309.76603374481203L521.3395384615385,312.8106588363648L521.5061538461538,314.96341438293456L522.839076923077,311.5332884788513L523.8387692307692,238.50581130981445L524.8384615384615,310.17485418319706L525.6715384615385,315.4782325744629L528.8372307692308,307.80567512512204L529.5036923076923,313.57377376556394L529.8369230769231,224.74141616821288L530.67,312.95773429870604L531.503076923077,313.9445726394653L533.669076923077,315.1992462158203L534.3355384615385,314.5041655540466L534.8353846153846,312.01007709503176L537.3346153846154,313.9550148010254L539.1673846153845,219.90379943847657L539.334,312.60296716690067L539.8338461538461,239.7382827758789L540.8335384615384,314.8217182159424L541.9998461538462,308.2854537963867L542.1664615384615,312.4698526382446L542.3330769230769,316.87678728103634L542.4996923076923,220.37873954772948L542.6663076923077,311.52038497924804L544.1658461538462,312.53269386291504L547.998,310.96731691360475L548.1646153846154,314.2847059249878L548.3312307692308,312.4987177848816L549.4975384615385,316.26012296676635L551.3303076923077,308.94280729293826L551.6635384615386,317.07386856079097L553.6629230769231,317.223916053772L553.8295384615385,242.67066764831543L554.3293846153846,312.98787317276L554.6626153846154,309.89717559814454L554.8292307692308,315.10085277557374L555.1624615384615,238.90366287231447L558.3281538461538,313.603946685791L559.1612307692308,234.24856567382812L559.661076923077,192.75741577148438L560.1609230769232,168.51735763549806L561.6604615384615,213.8453029632568L561.8270769230769,159.86682586669923L563.16,180.736408996582L563.3266153846155,244.6553352355957L564.3263076923078,279.1458148956299L564.8261538461538,279.6873773574829L565.8258461538461,199.74945831298828L566.1590769230769,269.7664026260376L566.4923076923077,214.46258010864258L569.3247692307692,293.5917903900147L569.658,293.2355472564697L569.8246153846154,213.0025760650635L569.9912307692307,287.3243465423584L571.8240000000001,215.76497039794924L573.4901538461538,299.63901557922367L574.8230769230769,297.729998588562L577.6555384615384,297.0285472869873L578.8218461538461,289.6108755111694L578.9884615384615,293.8774417877197L579.4883076923078,291.9209684371948L582.1541538461538,292.0474319458008L582.8206153846154,292.5303428649902L583.6536923076924,297.473899269104L583.9869230769231,290.81384296417235L584.3201538461539,293.7202205657959L584.6533846153847,284.05464420318606L584.9866153846154,279.04914779663085L585.6530769230769,286.19640884399416L585.8196923076923,218.44590225219727L586.3195384615384,293.8595455169678L587.3192307692307,284.49316291809083L587.6524615384616,284.88263912200927L588.1523076923078,299.71742992401124L589.4852307692307,299.1521032333374L589.8184615384615,160.4067901611328L589.9850769230769,301.4586753845215L590.1516923076923,286.99493179321286L591.4846153846154,275.5876653671265L593.9838461538461,304.3317978858948L594.3170769230769,301.4799482345581L594.6503076923077,298.28191909790036L594.9835384615384,300.6467662811279L596.8163076923078,299.4027431488037L597.4827692307692,300.7555337905884L599.6487692307693,304.64851541519164L600.3152307692308,306.0210928916931L603.4809230769231,295.3636013031006L605.9801538461538,285.0124031066894L606.1467692307692,299.16448402404785L607.1464615384615,210.38812637329102L607.313076923077,269.6172643661499L607.6463076923077,303.45318431854247L608.1461538461539,294.76561431884767L608.9792307692308,302.01611137390137L609.6456923076923,306.57117290496825L609.978923076923,305.1692296028137L612.6447692307693,312.55392265319824L614.4775384615384,202.51972732543948L615.6438461538462,298.7141893386841L615.8104615384616,218.4404067993164L616.9767692307693,308.8253520011902L617.4766153846153,311.26907215118405L621.4753846153847,310.32416667938236L621.9752307692307,309.1860471725464L623.1415384615385,194.03790435791015L623.6413846153847,303.33589124679565L623.808,214.5462776184082L624.1412307692308,309.1834696769714L624.3078461538462,304.2871192932129L625.4741538461539,307.23046102523807L627.6401538461539,306.74840126037594L628.4732307692308,237.12432975769045L629.9727692307692,300.479195022583L630.3059999999999,306.31522579193114L630.6392307692307,309.1440922737122L631.8055384615385,219.0140007019043L633.9715384615384,300.7945707321167L634.3047692307692,297.1282024383545L635.3044615384616,299.68014335632324L636.6373846153846,315.92409324645996L637.637076923077,311.91450548171997L637.8036923076922,190.81837005615233L638.6367692307692,303.7810589790344L639.4698461538462,316.65413732528685L640.6361538461539,313.13599405288693L641.9690769230768,304.5960542678833L642.6355384615384,305.1159233093262L643.302,308.0611095428467L645.468,312.8948169708252L645.8012307692308,209.64728164672852L646.1344615384616,305.0654508590698L646.6343076923076,311.8870923042297L647.4673846153846,308.0681070327759L650.2998461538461,306.2939088821411L651.1329230769231,242.01824684143065L654.132,310.5139039993286L654.7984615384615,313.27502059936523L655.2983076923077,317.6495973587036L656.1313846153846,309.8602254867554L657.2976923076923,298.3438190460205L657.9641538461539,308.44714908599855L658.2973846153845,299.2265922546387L659.2970769230769,315.42634420394893L659.4636923076923,307.5867442131042L660.4633846153846,242.11776580810547L661.6296923076923,316.3944431304932L662.6293846153845,314.0249416351318L663.1292307692308,246.28927917480468L664.1289230769231,312.8288995742798L665.9616923076923,310.6413708686828L666.294923076923,311.32147121429443L667.9610769230769,307.61996927261356L668.4609230769231,225.83751068115234L668.7941538461539,307.22179527282714L669.6272307692308,311.0308010101319L672.2930769230769,311.6452763557434L672.6263076923077,297.81784973144534L673.4593846153846,311.28071994781493L673.626,316.2893345832825L674.2924615384615,314.37601375579834L674.6256923076922,311.06091585159305L675.792,197.9168769836426L676.9583076923077,306.67560653686525L678.9576923076924,310.7309223175049L679.7907692307692,218.8891513824463L681.7901538461538,248.4488479614258L681.9567692307692,307.48048610687255L682.9564615384616,317.03443307876586L683.123076923077,219.07266426086426L685.4556923076923,316.3224374771118L686.1221538461538,317.83568572998047L686.4553846153846,224.7651924133301L686.7886153846155,311.37965812683103L687.2884615384615,313.76649112701415L687.7883076923077,220.30123443603514L689.2878461538461,309.7996593475342L690.2875384615385,306.8772159576416L690.6207692307692,309.20914449691776L692.4535384615385,211.59036483764646L692.6201538461538,315.706213760376L693.6198461538461,317.38946056365967L694.7861538461538,314.959264755249L698.7849230769232,316.3649911880493L699.7846153846154,248.67593193054202L700.1178461538461,309.1639892578125L703.6167692307693,315.5165565490722L704.1166153846154,314.45747623443606L704.7830769230769,319.4272541999817L704.9496923076923,313.0689971923828L705.1163076923077,236.37307891845703L706.116,310.0424966812134L706.6158461538461,308.6792538642883L706.949076923077,311.0115909576416L708.4486153846154,257.1469081878662L709.6149230769231,318.9975814819336L710.448,250.7423824310303L711.7809230769232,227.98968544006348L712.4473846153846,247.01567230224612L713.1138461538461,215.94652862548827L715.2798461538462,318.4218126296997L715.613076923077,319.04891710281373L716.112923076923,315.26734657287597L718.1123076923077,318.8539246559143L718.7787692307693,313.780500125885L719.6118461538462,319.83902063369754L719.945076923077,313.2454044342041L721.6112307692307,316.26335735321044L721.9444615384615,316.12867670059205L722.2776923076923,316.6092344284058L724.4436923076923,234.90133895874024L727.1095384615385,247.51824989318848L727.9426153846154,319.64833903312683L729.108923076923,247.90130538940429L733.2743076923077,316.3168779373169L733.440923076923,316.6753901481628L733.6075384615384,312.53921871185304L734.7738461538462,316.5548807144165L736.44,237.88500137329103L737.772923076923,241.24697685241702L738.7726153846154,319.91345257759093L738.9392307692308,320.4400797843933L739.6056923076924,319.08197793960574L741.4384615384615,319.0687860488892L742.4381538461538,259.447412109375L743.4378461538462,311.6408723831177L743.9376923076924,312.3302052497864L746.436923076923,228.48884239196778L747.1033846153847,254.46925277709963L748.2696923076924,320.384202003479L748.9361538461538,319.51876230239867L749.7692307692307,236.46158294677736L750.6023076923076,312.7025742530823L751.2687692307693,314.71512365341187L751.4353846153847,321.38409605026243L753.2681538461538,311.716543006897L753.4347692307692,315.79110488891604L755.2675384615385,314.7691549301147L755.6007692307693,311.6677668571472L755.7673846153847,233.78371124267576L756.9336923076922,321.27525544166565L757.266923076923,314.7793187141418L757.4335384615384,319.2738311290741L757.6001538461538,321.1281008720398L757.7667692307692,242.43993072509767L758.7664615384616,314.5755764007568L762.4319999999999,244.13953971862796L765.2644615384615,321.5834263801575L766.0975384615384,317.6886322975159L766.2641538461538,320.8029779434204L766.5973846153846,316.16190376281736L767.9303076923077,316.56607189178465L769.9296923076922,316.20440540313723L777.5939999999999,321.7850388050079L779.9266153846154,320.0978096008301L780.0932307692308,320.1106369972229L781.9259999999999,318.8918040275574L782.0926153846153,318.3344902038574L782.4258461538462,212.19778060913086L782.7590769230769,322.7236988067627L783.2589230769231,316.0566650390625L783.4255384615385,320.55273356437687L783.7587692307693,245.84691925048827L787.5909230769231,318.21978864669796L788.424,246.66646270751954L788.9238461538462,316.6661235809326L789.4236923076922,320.58429136276243L790.2567692307691,320.41138486862184L792.0895384615385,322.34251685142516L793.5890769230768,322.19520206451415L794.088923076923,317.672260093689L794.2555384615384,323.42026147842404L795.7550769230769,264.0921993255615L796.7547692307692,318.3916657447815L799.4206153846154,316.8110160827637L800.4203076923077,234.9249549865723L801.0867692307692,248.59511032104493L801.5866153846154,320.81471586227417L802.5863076923077,322.66559500694274L802.9195384615385,321.9367906093598L804.4190769230769,249.10565872192385L805.0855384615385,228.7739730834961L806.0852307692307,318.7052730560303L806.9183076923077,322.2641695976257L807.918,319.26595344543455L809.4175384615385,320.2955928325653L810.5838461538463,318.8086011886597L811.2503076923077,316.4196352958679L812.7498461538462,316.9548671722412L815.2490769230769,321.4751064777374L816.4153846153846,259.2030406951904L816.9152307692308,319.35397481918335L817.2484615384615,321.21711559295653L817.4150769230769,320.99331107139585L818.0815384615385,316.1340579986572L818.2481538461537,322.55787591934205L820.4141538461538,251.50189247131345L821.4138461538461,319.6365740776062L821.5804615384615,322.4850882053375L821.9136923076923,315.5286209106446L822.9133846153846,323.425480556488L823.4132307692308,318.8079643249512L824.4129230769231,224.96605682373047L825.0793846153846,225.16194648742675L826.2456923076924,316.643825340271L827.9118461538461,318.08870687484745L828.9115384615384,320.55926342010497L829.578,322.03903727531434L830.077846153846,321.52849888801575L831.4107692307692,319.90484390258786L831.744,241.7442512512207L833.91,321.7570788860321L834.5764615384616,317.4217283248902L834.743076923077,321.8064848899841L837.9087692307692,321.4644129753113L838.0753846153846,320.32414054870605L838.5752307692308,320.61685953140255L839.7415384615384,233.93594970703126L840.0747692307692,320.41838636398313L841.4076923076923,322.1802848339081L841.7409230769231,227.5364948272705L841.9075384615384,322.8819824695587L844.0735384615384,320.6876335144043L844.4067692307692,238.36498832702637L846.0729230769232,317.5071601867676L846.5727692307693,317.87267789840695L848.4055384615384,248.1987648010254L848.9053846153846,315.5503363609314L849.2386153846154,323.45458602905273L849.5718461538461,322.7624683856964L851.5712307692307,320.91593613624576L854.4036923076924,255.02520675659179L855.2367692307693,323.4102819442749L856.902923076923,321.0092797279358L857.9026153846154,319.2201292991638L859.068923076923,218.46085052490233L860.0686153846153,322.24056758880613L860.4018461538461,224.05990791320798L861.0683076923077,236.7398323059082L862.2346153846154,320.8370141029358L862.4012307692308,243.00448036193848L862.5678461538462,315.876088142395L864.234,319.0799291610718L867.732923076923,221.82948303222653L868.566,314.8315275192261L869.3990769230769,321.2335178375244L870.3987692307693,229.12520942687988L872.064923076923,319.30637726783755L872.898,317.2539487838745L873.8976923076924,323.130041885376L874.5641538461539,318.4760662078857L874.7307692307693,321.1432614326477L876.0636923076923,324.06662106513977L876.5635384615384,318.65317239761356L876.7301538461538,322.73930797576907L877.0633846153846,247.0890197753906L877.5632307692307,323.80713815689086L877.7298461538461,245.46211738586427L877.8964615384615,314.8358974456787L878.7295384615385,322.52969470024107L879.0627692307693,213.1403789520264L879.5626153846154,322.4604477882385L879.7292307692308,248.10734481811525L879.8958461538462,320.0219447135925L880.0624615384615,319.85797533988955L880.3956923076923,242.4123332977295L880.8955384615384,321.86509337425235L881.0621538461538,249.19156723022462L882.0618461538462,325.3572343826294L883.0615384615385,206.27957839965822L883.3947692307693,319.0600882530212L883.8946153846153,320.1238929748535L885.8939999999999,320.22838268280026L887.2269230769231,317.64697580337526L887.3935384615385,320.8325390338898L887.5601538461539,325.3143912792206L888.5598461538461,324.4179925918579L889.7261538461538,240.9068515777588L890.5592307692308,317.8833643913269L891.7255384615385,252.99932327270508L893.8915384615385,321.84648513793945L894.8912307692308,323.8820147037506L895.2244615384616,319.7203577041626L895.7243076923077,257.9741661071777L896.8906153846153,324.90606451034546L897.8903076923076,325.1920944213867L898.3901538461539,215.42359542846677L898.7233846153847,321.45581731796267L898.89,324.7789671421051L902.0556923076923,319.14402809143064L903.5552307692308,322.84335708618164L905.5546153846153,323.88636460304264L906.0544615384616,321.2882500648499L906.5543076923077,319.6273615837097L908.7203076923076,321.9777892112732L910.0532307692308,325.4999188899994L911.3861538461539,318.9939525604248L911.5527692307693,324.21486511230466L912.0526153846154,322.9401563644409L912.3858461538462,242.498201751709L912.5524615384616,322.8094390869141L914.8850769230769,324.43575868606564L916.218,324.97639989852905L918.7172307692308,322.8196068763733L919.8835384615385,322.6716402053833L920.8832307692307,323.6587509155274L921.3830769230768,322.72531299591066L921.5496923076922,321.0525554180145L922.5493846153846,321.1448676109314L924.7153846153846,321.3099454879761L925.0486153846153,227.23823432922362L925.2152307692307,319.99895253181455L925.3818461538461,322.81260538101196L926.3815384615385,229.07279434204102L927.2146153846154,322.3362854003906L929.3806153846153,323.4365565776825L932.0464615384615,325.1990698814392L933.2127692307691,324.26771278381347L934.0458461538462,321.55117864608764L934.2124615384615,324.96105608940127L935.2121538461539,324.9935932159424L936.7116923076923,323.07989888191224L937.2115384615385,317.9208692550659L937.3781538461539,322.8775674819946L937.7113846153845,236.1206886291504L938.7110769230769,322.791975402832L938.8776923076923,321.6805901527405L939.2109230769231,323.50735960006716L940.044,321.6344615936279L940.5438461538462,320.09595108032227L943.0430769230769,257.8221439361572L943.8761538461538,319.50382604598997L944.8758461538462,323.0873349666595L946.0421538461538,321.8236681938171L946.7086153846154,322.251935005188L947.2084615384615,321.36792011260985L949.7076923076924,269.4890785217285L951.0406153846154,223.9826591491699L951.7070769230769,246.15689964294432L951.8736923076923,325.068310546875L954.8727692307692,325.4973043441772L955.3726153846154,322.5365479946136L955.5392307692308,322.5980233669281L955.8724615384615,318.2783220291138L956.2056923076923,324.9419912338257L956.3723076923077,249.06951370239258L957.0387692307692,223.9663730621338L957.2053846153846,322.9782580375671L959.0381538461538,240.22322845458984L960.0378461538461,324.2081439971924L960.7043076923077,323.1643584251404L964.5364615384615,323.36235694885255L966.7024615384615,324.17020053863524L968.0353846153846,323.9073760986328L968.8684615384615,323.4467684268951L969.0350769230769,242.96566772460935L969.3683076923077,325.7810121059418L969.5349230769232,325.16969203948975L971.2010769230769,317.93373069763186L971.3676923076923,321.68596143722533L973.8669230769232,323.1460165500641L974.3667692307693,248.3084655761719L976.1995384615384,321.82912759780885L976.3661538461538,228.5988716125488L976.6993846153846,319.75941467285156L976.866,325.069212770462L978.5321538461538,322.49474029541017L979.6984615384615,226.46802978515623L980.3649230769231,245.72589111328125L981.0313846153846,265.3066864013672L982.5309230769232,322.47570247650145L983.364,323.5802083969116L983.6972307692307,247.73189163208008L984.0304615384615,323.46990480422977L985.5300000000001,322.2680408477783L986.363076923077,217.9711223602295L987.1961538461538,322.55589122772216L989.5287692307693,325.5213719844818L989.6953846153847,241.4373550415039L990.0286153846155,320.17006759643556L990.8616923076924,324.287583732605L992.3612307692307,228.1046173095703L993.360923076923,323.6803281784058L995.526923076923,325.7286480903625L997.0264615384615,223.62668838500977L997.3596923076924,325.13742027282717L998.0261538461539,323.8799168586731L998.1927692307693,319.4497156620025L998.8592307692307,325.69525480270386L999.858923076923,321.1441606521607L1000.8586153846153,324.232865524292L1001.6916923076924,213.1414924621582L1002.0249230769231,323.1665483951569L1002.1915384615385,323.1851366043091L1002.5247692307693,319.32461500167847L1004.3575384615384,251.97442932128908L1005.024,250.881298828125L1006.5235384615385,322.3988582611084L1007.19,321.12375497817993L1007.8564615384615,324.99597444534305L1008.6895384615384,321.0854009628296L1008.8561538461538,325.6699204444885L1009.5226153846154,325.33234362602235L1010.6889230769231,321.7464935302734L1011.522,323.2289360046387L1011.8552307692307,319.22589111328125L1012.1884615384615,325.68272881507875L1012.3550769230769,262.09022827148436L1013.8546153846154,324.3283970832825L1014.0212307692308,319.47366814613343L1014.1878461538462,325.0373215198517L1015.1875384615385,322.69347381591797L1016.1872307692307,325.3783169746399" style="fill: none;" fill="none"></path></g></g></g></g></g></g><g transform="translate(34, 378)" clip-path="url(#clip_1)"><clipPath id="clip_1"><rect width="1083" height="22"></rect></clipPath><g><g><line x1="0" y1="0" x2="0" y2="5" style="visibility: inherit;" fill="rgb(0, 0, 0)" stroke="rgb(200, 195, 188)" stroke-width="1px"></line><line x1="83.3076923076923" y1="0" x2="83.3076923076923" y2="5" style="visibility: inherit;" fill="rgb(0, 0, 0)" stroke="rgb(200, 195, 188)" stroke-width="1px"></line><line x1="166.6153846153846" y1="0" x2="166.6153846153846" y2="5" style="visibility: inherit;" fill="rgb(0, 0, 0)" stroke="rgb(200, 195, 188)" stroke-width="1px"></line><line x1="249.92307692307693" y1="0" x2="249.92307692307693" y2="5" style="visibility: inherit;" fill="rgb(0, 0, 0)" stroke="rgb(200, 195, 188)" stroke-width="1px"></line><line x1="333.2307692307692" y1="0" x2="333.2307692307692" y2="5" style="visibility: inherit;" fill="rgb(0, 0, 0)" stroke="rgb(200, 195, 188)" stroke-width="1px"></line><line x1="416.53846153846155" y1="0" x2="416.53846153846155" y2="5" style="visibility: inherit;" fill="rgb(0, 0, 0)" stroke="rgb(200, 195, 188)" stroke-width="1px"></line><line x1="499.84615384615387" y1="0" x2="499.84615384615387" y2="5" style="visibility: inherit;" fill="rgb(0, 0, 0)" stroke="rgb(200, 195, 188)" stroke-width="1px"></line><line x1="583.1538461538461" y1="0" x2="583.1538461538461" y2="5" style="visibility: inherit;" fill="rgb(0, 0, 0)" stroke="rgb(200, 195, 188)" stroke-width="1px"></line><line x1="666.4615384615385" y1="0" x2="666.4615384615385" y2="5" style="visibility: inherit;" fill="rgb(0, 0, 0)" stroke="rgb(200, 195, 188)" stroke-width="1px"></line><line x1="749.7692307692307" y1="0" x2="749.7692307692307" y2="5" style="visibility: inherit;" fill="rgb(0, 0, 0)" stroke="rgb(200, 195, 188)" stroke-width="1px"></line><line x1="833.0769230769231" y1="0" x2="833.0769230769231" y2="5" style="visibility: inherit;" fill="rgb(0, 0, 0)" stroke="rgb(200, 195, 188)" stroke-width="1px"></line><line x1="916.3846153846154" y1="0" x2="916.3846153846154" y2="5" style="visibility: inherit;" fill="rgb(0, 0, 0)" stroke="rgb(200, 195, 188)" stroke-width="1px"></line><line x1="999.6923076923077" y1="0" x2="999.6923076923077" y2="5" style="visibility: inherit;" fill="rgb(0, 0, 0)" stroke="rgb(200, 195, 188)" stroke-width="1px"></line><line x1="1083" y1="0" x2="1083" y2="5" style="visibility: inherit;" fill="rgb(0, 0, 0)" stroke="rgb(200, 195, 188)" stroke-width="1px"></line></g><g transform="translate(0, 8)"><text x="0" y="0" dx="0em" dy="0.95em" style="text-anchor: middle; visibility: hidden; font-family: Roboto, sans-serif; font-size: 12px; font-weight: 200;" fill="rgb(197, 192, 184)" stroke="none" stroke-width="1px">-500</text><text x="83.3076923076923" y="0" dx="0em" dy="0.95em" style="text-anchor: middle; visibility: inherit; font-family: Roboto, sans-serif; font-size: 12px; font-weight: 200;" fill="rgb(197, 192, 184)" stroke="none" stroke-width="1px">0</text><text x="166.6153846153846" y="0" dx="0em" dy="0.95em" style="text-anchor: middle; visibility: inherit; font-family: Roboto, sans-serif; font-size: 12px; font-weight: 200;" fill="rgb(197, 192, 184)" stroke="none" stroke-width="1px">500</text><text x="249.92307692307693" y="0" dx="0em" dy="0.95em" style="text-anchor: middle; visibility: inherit; font-family: Roboto, sans-serif; font-size: 12px; font-weight: 200;" fill="rgb(197, 192, 184)" stroke="none" stroke-width="1px">1k</text><text x="333.2307692307692" y="0" dx="0em" dy="0.95em" style="text-anchor: middle; visibility: inherit; font-family: Roboto, sans-serif; font-size: 12px; font-weight: 200;" fill="rgb(197, 192, 184)" stroke="none" stroke-width="1px">1.5k</text><text x="416.53846153846155" y="0" dx="0em" dy="0.95em" style="text-anchor: middle; visibility: inherit; font-family: Roboto, sans-serif; font-size: 12px; font-weight: 200;" fill="rgb(197, 192, 184)" stroke="none" stroke-width="1px">2k</text><text x="499.84615384615387" y="0" dx="0em" dy="0.95em" style="text-anchor: middle; visibility: inherit; font-family: Roboto, sans-serif; font-size: 12px; font-weight: 200;" fill="rgb(197, 192, 184)" stroke="none" stroke-width="1px">2.5k</text><text x="583.1538461538461" y="0" dx="0em" dy="0.95em" style="text-anchor: middle; visibility: inherit; font-family: Roboto, sans-serif; font-size: 12px; font-weight: 200;" fill="rgb(197, 192, 184)" stroke="none" stroke-width="1px">3k</text><text x="666.4615384615385" y="0" dx="0em" dy="0.95em" style="text-anchor: middle; visibility: inherit; font-family: Roboto, sans-serif; font-size: 12px; font-weight: 200;" fill="rgb(197, 192, 184)" stroke="none" stroke-width="1px">3.5k</text><text x="749.7692307692307" y="0" dx="0em" dy="0.95em" style="text-anchor: middle; visibility: inherit; font-family: Roboto, sans-serif; font-size: 12px; font-weight: 200;" fill="rgb(197, 192, 184)" stroke="none" stroke-width="1px">4k</text><text x="833.0769230769231" y="0" dx="0em" dy="0.95em" style="text-anchor: middle; visibility: inherit; font-family: Roboto, sans-serif; font-size: 12px; font-weight: 200;" fill="rgb(197, 192, 184)" stroke="none" stroke-width="1px">4.5k</text><text x="916.3846153846154" y="0" dx="0em" dy="0.95em" style="text-anchor: middle; visibility: inherit; font-family: Roboto, sans-serif; font-size: 12px; font-weight: 200;" fill="rgb(197, 192, 184)" stroke="none" stroke-width="1px">5k</text><text x="999.6923076923077" y="0" dx="0em" dy="0.95em" style="text-anchor: middle; visibility: inherit; font-family: Roboto, sans-serif; font-size: 12px; font-weight: 200;" fill="rgb(197, 192, 184)" stroke="none" stroke-width="1px">5.5k</text><text x="1083" y="0" dx="0em" dy="0.95em" style="text-anchor: middle; visibility: hidden; font-family: Roboto, sans-serif; font-size: 12px; font-weight: 200;" fill="rgb(197, 192, 184)" stroke="none" stroke-width="1px">6k</text></g><line x1="0" y1="0" x2="1083" y2="0" fill="rgb(0, 0, 0)" stroke="rgb(200, 195, 188)" stroke-width="1px"></line></g></g></g></g></svg>