<svg viewBox="0 0 330 200" xmlns="http://www.w3.org/2000/svg"><g><g><g><g><g><line x1="34" y1="178" x2="29" y2="178" style="visibility: inherit;" fill="rgb(0, 0, 0)" stroke="rgb(204, 204, 204)" stroke-width="1px"></line><line x1="34" y1="155.75" x2="29" y2="155.75" style="visibility: inherit;" fill="rgb(0, 0, 0)" stroke="rgb(204, 204, 204)" stroke-width="1px"></line><line x1="34" y1="133.5" x2="29" y2="133.5" style="visibility: inherit;" fill="rgb(0, 0, 0)" stroke="rgb(204, 204, 204)" stroke-width="1px"></line><line x1="34" y1="111.25" x2="29" y2="111.25" style="visibility: inherit;" fill="rgb(0, 0, 0)" stroke="rgb(204, 204, 204)" stroke-width="1px"></line><line x1="34" y1="89" x2="29" y2="89" style="visibility: inherit;" fill="rgb(0, 0, 0)" stroke="rgb(204, 204, 204)" stroke-width="1px"></line><line x1="34" y1="66.75" x2="29" y2="66.75" style="visibility: inherit;" fill="rgb(0, 0, 0)" stroke="rgb(204, 204, 204)" stroke-width="1px"></line><line x1="34" y1="44.5" x2="29" y2="44.5" style="visibility: inherit;" fill="rgb(0, 0, 0)" stroke="rgb(204, 204, 204)" stroke-width="1px"></line><line x1="34" y1="22.25" x2="29" y2="22.25" style="visibility: inherit;" fill="rgb(0, 0, 0)" stroke="rgb(204, 204, 204)" stroke-width="1px"></line><line x1="34" y1="0" x2="29" y2="0" style="visibility: inherit;" fill="rgb(0, 0, 0)" stroke="rgb(204, 204, 204)" stroke-width="1px"></line></g><g transform="translate(24, 0)"><text x="0" y="178" dx="0em" dy="0.3em" style="text-anchor: end; visibility: hidden; font-family: Roboto, sans-serif; font-size: 12px; font-weight: 200;" fill="rgb(50, 49, 63)" stroke="none" stroke-width="1px">-5</text><text x="0" y="155.75" dx="0em" dy="0.3em" style="text-anchor: end; visibility: inherit; font-family: Roboto, sans-serif; font-size: 12px; font-weight: 200;" fill="rgb(50, 49, 63)" stroke="none" stroke-width="1px">0</text><text x="0" y="133.5" dx="0em" dy="0.3em" style="text-anchor: end; visibility: hidden; font-family: Roboto, sans-serif; font-size: 12px; font-weight: 200;" fill="rgb(50, 49, 63)" stroke="none" stroke-width="1px">5</text><text x="0" y="111.25" dx="0em" dy="0.3em" style="text-anchor: end; visibility: inherit; font-family: Roboto, sans-serif; font-size: 12px; font-weight: 200;" fill="rgb(50, 49, 63)" stroke="none" stroke-width="1px">10</text><text x="0" y="89" dx="0em" dy="0.3em" style="text-anchor: end; visibility: hidden; font-family: Roboto, sans-serif; font-size: 12px; font-weight: 200;" fill="rgb(50, 49, 63)" stroke="none" stroke-width="1px">15</text><text x="0" y="66.75" dx="0em" dy="0.3em" style="text-anchor: end; visibility: inherit; font-family: Roboto, sans-serif; font-size: 12px; font-weight: 200;" fill="rgb(50, 49, 63)" stroke="none" stroke-width="1px">20</text><text x="0" y="44.5" dx="0em" dy="0.3em" style="text-anchor: end; visibility: hidden; font-family: Roboto, sans-serif; font-size: 12px; font-weight: 200;" fill="rgb(50, 49, 63)" stroke="none" stroke-width="1px">25</text><text x="0" y="22.25" dx="0em" dy="0.3em" style="text-anchor: end; visibility: inherit; font-family: Roboto, sans-serif; font-size: 12px; font-weight: 200;" fill="rgb(50, 49, 63)" stroke="none" stroke-width="1px">30</text><text x="0" y="0" dx="0em" dy="0.3em" style="text-anchor: end; visibility: hidden; font-family: Roboto, sans-serif; font-size: 12px; font-weight: 200;" fill="rgb(50, 49, 63)" stroke="none" stroke-width="1px">35</text></g><line x1="34" y1="0" x2="34" y2="178" fill="rgb(0, 0, 0)" stroke="rgb(204, 204, 204)" stroke-width="1px"></line></g></g><g transform="translate(34, 0)" clip-path="url(#clip_0)"><clipPath id="clip_0"><rect width="296" height="178"></rect></clipPath><g><g><g><line x1="0" y1="0" x2="0" y2="178" fill="rgb(0, 0, 0)" stroke="rgb(60, 60, 60)" stroke-width="1px" opacity="0.25"></line><line x1="22.76923076923077" y1="0" x2="22.76923076923077" y2="178" fill="rgb(0, 0, 0)" stroke="rgb(60, 60, 60)" stroke-width="1px" opacity="0.25"></line><line x1="45.53846153846154" y1="0" x2="45.53846153846154" y2="178" fill="rgb(0, 0, 0)" stroke="rgb(60, 60, 60)" stroke-width="1px" opacity="0.25"></line><line x1="68.3076923076923" y1="0" x2="68.3076923076923" y2="178" fill="rgb(0, 0, 0)" stroke="rgb(60, 60, 60)" stroke-width="1px" opacity="0.25"></line><line x1="91.07692307692308" y1="0" x2="91.07692307692308" y2="178" fill="rgb(0, 0, 0)" stroke="rgb(60, 60, 60)" stroke-width="1px" opacity="0.25"></line><line x1="113.84615384615385" y1="0" x2="113.84615384615385" y2="178" fill="rgb(0, 0, 0)" stroke="rgb(60, 60, 60)" stroke-width="1px" opacity="0.25"></line><line x1="136.6153846153846" y1="0" x2="136.6153846153846" y2="178" fill="rgb(0, 0, 0)" stroke="rgb(60, 60, 60)" stroke-width="1px" opacity="0.25"></line><line x1="159.3846153846154" y1="0" x2="159.3846153846154" y2="178" fill="rgb(0, 0, 0)" stroke="rgb(60, 60, 60)" stroke-width="1px" opacity="0.25"></line><line x1="182.15384615384616" y1="0" x2="182.15384615384616" y2="178" fill="rgb(0, 0, 0)" stroke="rgb(60, 60, 60)" stroke-width="1px" opacity="0.25"></line><line x1="204.9230769230769" y1="0" x2="204.9230769230769" y2="178" fill="rgb(0, 0, 0)" stroke="rgb(60, 60, 60)" stroke-width="1px" opacity="0.25"></line><line x1="227.6923076923077" y1="0" x2="227.6923076923077" y2="178" fill="rgb(0, 0, 0)" stroke="rgb(60, 60, 60)" stroke-width="1px" opacity="0.25"></line><line x1="250.46153846153845" y1="0" x2="250.46153846153845" y2="178" fill="rgb(0, 0, 0)" stroke="rgb(60, 60, 60)" stroke-width="1px" opacity="0.25"></line><line x1="273.2307692307692" y1="0" x2="273.2307692307692" y2="178" fill="rgb(0, 0, 0)" stroke="rgb(60, 60, 60)" stroke-width="1px" opacity="0.25"></line><line x1="296" y1="0" x2="296" y2="178" fill="rgb(0, 0, 0)" stroke="rgb(60, 60, 60)" stroke-width="1px" opacity="0.25"></line></g><g><line x1="0" y1="178" x2="296" y2="178" fill="rgb(0, 0, 0)" stroke="rgb(60, 60, 60)" stroke-width="1px" opacity="0.25"></line><line x1="0" y1="155.75" x2="296" y2="155.75" fill="rgb(0, 0, 0)" stroke="rgb(60, 60, 60)" stroke-width="1px" opacity="0.25"></line><line x1="0" y1="133.5" x2="296" y2="133.5" fill="rgb(0, 0, 0)" stroke="rgb(60, 60, 60)" stroke-width="1px" opacity="0.25"></line><line x1="0" y1="111.25" x2="296" y2="111.25" fill="rgb(0, 0, 0)" stroke="rgb(60, 60, 60)" stroke-width="1px" opacity="0.25"></line><line x1="0" y1="89" x2="296" y2="89" fill="rgb(0, 0, 0)" stroke="rgb(60, 60, 60)" stroke-width="1px" opacity="0.25"></line><line x1="0" y1="66.75" x2="296" y2="66.75" fill="rgb(0, 0, 0)" stroke="rgb(60, 60, 60)" stroke-width="1px" opacity="0.25"></line><line x1="0" y1="44.5" x2="296" y2="44.5" fill="rgb(0, 0, 0)" stroke="rgb(60, 60, 60)" stroke-width="1px" opacity="0.25"></line><line x1="0" y1="22.25" x2="296" y2="22.25" fill="rgb(0, 0, 0)" stroke="rgb(60, 60, 60)" stroke-width="1px" opacity="0.25"></line><line x1="0" y1="0" x2="296" y2="0" fill="rgb(0, 0, 0)" stroke="rgb(60, 60, 60)" stroke-width="1px" opacity="0.25"></line></g></g></g><g><g><line x1="0" y1="155.75" x2="296" y2="155.75" fill="rgb(0, 0, 0)" stroke="rgb(153, 153, 153)" stroke-width="1.5px"></line></g></g><g><g><line x1="22.76923076923077" y1="0" x2="22.76923076923077" y2="178" fill="rgb(0, 0, 0)" stroke="rgb(153, 153, 153)" stroke-width="1.5px"></line></g></g><g><g><g><g><g><path stroke="rgb(255, 112, 67)" stroke-width="2px" d="M32.92430769230769,-5.4520443158032705L33.197538461538464,13.713836161969203L33.425230769230765,16.504815601609252L34.10830769230769,17.583882307066713L34.38153846153846,19.36480732314148L34.60923076923077,26.203203322008576L34.928,28.622087407460352L35.11015384615384,20.473148513967548L35.20123076923077,23.100079373732886L36.06646153846154,13.007162636896684L36.29415384615385,24.287495219402373L36.33969230769231,14.74673266355464L36.56738461538462,30.753849728164216L36.79507692307693,27.215990561628427L36.886153846153846,32.443651649314816L37.25046153846154,31.82885742480756L37.296,29.567002794067175L37.79692307692308,35.124677765992715L38.20676923076923,28.971747081603993L38.57107692307692,40.789813309444504L39.29969230769231,46.922242172696265L39.48184615384615,52.755487675759284L39.937230769230766,61.58527350146092L41.94092307692308,60.904751022568036L41.98646153846154,62.91761547560211L42.35076923076923,63.21528280159669L42.76061538461539,61.16704985368722L42.8516923076923,67.41290279429292L42.897230769230774,68.83845105767932L43.033846153846156,65.3091896379034L43.30707692307692,59.73864912057154L43.71692307692308,57.32287285246984L43.85353846153846,65.15583575677006L43.899076923076926,58.71371957845165L44.35446153846154,64.56447106591867L45.12861538461538,74.6184169077397L45.219692307692306,74.17090308806425L46.084923076923076,61.51247265423015L46.176,74.44613570740626L46.312615384615384,76.1534684727836L46.676923076923075,80.04578435362863L46.95015384615384,83.73457182372503L47.041230769230765,82.52689322546061L47.177846153846154,76.48924979636034L47.451076923076926,81.93170879047489L47.678769230769234,87.49761948204862L48.13415384615384,84.08624510536686L48.40738461538462,79.69444851738271L48.680615384615386,79.27618502534662L48.862769230769224,80.91537013386032L49.136,82.34356885155643L49.22707692307692,86.20987391591432L49.36369230769231,70.93976491046166L49.45476923076923,80.35085780949723L49.50030769230769,87.03839092928963L49.728,79.13651722358941L49.773538461538465,86.92853152327108L50.18338461538461,88.60490108711937L50.5476923076923,91.80208776225696L50.77538461538461,95.19571674960882L51.00307692307692,84.98687913118619L51.094153846153844,91.63016392051469L51.64061538461539,89.59674691950852L51.959384615384614,94.90520238754496L52.00492307692308,97.71974676059095L52.096,83.18902598146443L52.232615384615386,92.3266445965996L52.323692307692305,97.87501582213822L52.87015384615385,97.87275325243819L53.00676923076923,77.53537577501028L53.188923076923075,72.4558045513099L53.325538461538464,85.4167782668272L53.462153846153846,95.10724580073352L53.64430769230769,99.90456388821599L53.689846153846155,105.25059945124623L53.872,107.78952402316473L54.09969230769231,85.17977695967521L54.60061538461538,94.13365429226022L54.919384615384615,102.30391751279508L55.283692307692306,102.04723015397833L55.46584615384615,104.1934255633953L55.648,105.72331220830695L55.69353846153846,105.71517655685672L56.012307692307694,109.3192488326736L56.42215384615384,112.64270280683684L56.60430769230769,111.7803801756182L56.78646153846154,108.84782304174179L56.96861538461538,112.09332162503286L57.014153846153846,97.17905499436785L57.19630769230769,83.44690458475547L57.606153846153845,96.73858380615114L57.7883076923077,106.68143520533681L57.83384615384615,106.50530185806538L57.879384615384616,110.32202972476354L57.970461538461535,109.96772306862279L58.016000000000005,110.61353087486508L58.28923076923077,96.17002709425498L58.47138461538462,91.50139453719262L58.51692307692308,97.23075554555776L58.608000000000004,98.09475509277655L58.83569230769231,92.3906172081928L58.88123076923077,97.82887037069203L58.92676923076923,106.21892695111396L59.10892307692308,111.17069809724309L59.29107692307692,108.05469876938712L59.51876923076923,113.09663019188433L59.56430769230769,98.01327383046264L59.609846153846156,105.35631146624634L60.65723076923077,91.63722823259204L60.83938461538461,86.37247098801713L60.930461538461536,99.21878013919701L61.158153846153844,101.1069222278053L62.25107692307692,109.07580729405012L62.34215384615385,111.17901051092103L62.56984615384616,116.83782064943289L62.660923076923076,99.73993276136382L62.84307692307692,93.51186344252386L62.93415384615385,101.00230204836343L63.29846153846154,107.5148608242024L63.57169230769231,92.83462366310053L63.753846153846155,80.03561508683737L64.07261538461539,98.33447183149084L64.1636923076923,105.4692662440361L64.43692307692308,109.86761946932205L64.528,114.90427464637595L64.66461538461539,97.85126840110681L64.80123076923077,107.93359311006107L65.16553846153846,112.35528785456204L65.21107692307693,94.434028196746L65.34769230769231,103.9919769194209L65.66646153846155,111.16447874465486L65.80307692307693,116.64597009515106L66.21292307692308,120.46388126668536L66.39507692307693,121.889995162828L66.53169230769231,120.06279020377589L66.57723076923077,122.69275487940665L66.98707692307693,121.58951294351313L67.03261538461538,109.25545054870064L67.21476923076922,88.13936632989177L67.30584615384615,103.16432332347829L67.35138461538462,112.77033606142402L67.53353846153846,119.5861988483107L67.57907692307693,104.87223085988974L67.71569230769231,112.04392858284363L67.76123076923076,102.4463389917472L68.12553846153847,101.11963174130075L68.3076923076923,81.91959539762469L68.39876923076923,98.54213229007321L68.48984615384616,81.29861505977391L68.53538461538461,96.95006424994516L68.94523076923078,109.11003786332158L69.08184615384616,113.53338495020121L69.44615384615385,120.1588073678258L69.53723076923077,121.1328350608017L69.99261538461539,121.57941819575225L70.31138461538461,96.19689102975603L70.90338461538461,109.45809809212732L71.17661538461537,116.97837708380726L71.31323076923077,122.15856477491205L71.40430769230768,109.66245762868013L71.58646153846153,100.76648527361921L71.76861538461539,90.00447639213785L71.85969230769231,106.57098615876903L72.08738461538462,113.94493935532611L72.13292307692308,101.96397472159411L72.54276923076924,110.77669074497429L72.816,116.74271856762056L72.99815384615385,120.1135921276634L73.04369230769231,110.03412581187635L73.49907692307693,116.7276104682812L73.72676923076924,122.04960796798045L74.3643076923077,123.74389537313445L74.45538461538462,127.16292782866279L75.36615384615385,127.52612396862101L75.4116923076923,117.74335653296703L75.59384615384616,101.8748544806933L75.63938461538461,115.46057821957443L75.68492307692308,120.16617883710965L76.50461538461539,102.21482902925553L77.05107692307692,94.18614763117637L77.09661538461539,110.70186472235207L77.36984615384615,120.05810139833739L77.46092307692307,124.59056711112768L77.68861538461539,127.17661477992122L78.87261538461539,109.82742585342638L78.9636923076923,119.79006712437577L79.41907692307691,105.70500977993551L79.92,117.9954519567522L80.05661538461538,123.95798929081158L80.19323076923077,125.88590230671045L80.78523076923078,127.43715083913492L81.10400000000001,130.46564979265025L81.37723076923078,131.66924622362788L81.69600000000001,132.52856533709726L81.96923076923078,112.72100337614751L82.4246153846154,118.96274277848086L82.65230769230769,124.72258594800283L82.69784615384616,99.77799275379924L82.83446153846154,114.80981054104299L83.1076923076923,122.58609632371027L83.19876923076923,126.35541374515388L83.33538461538461,127.73521350282965L83.472,128.99619954144083L83.60861538461539,111.09342582532837L83.65415384615385,120.6333482045476L84.47384615384615,127.85971560111906L85.15692307692308,131.02354489106693L85.83999999999999,134.0313505502865L85.97661538461537,112.19769128872903L86.02215384615384,120.48485753484937L86.11323076923077,126.1629427572988L86.15876923076922,114.12801345711364L87.16061538461538,123.98270949676879L87.38830769230769,127.96191670033483L87.52492307692307,129.275971717436L87.70707692307693,132.23093974280292L87.79815384615385,113.27598270707091L87.98030769230769,101.01068285544372L88.16246153846154,95.93266097211632L88.34461538461538,88.45547819795486L89.48307692307694,106.54149408735204L89.52861538461538,118.98987197159151L90.02953846153846,126.27211155461323L90.39384615384614,129.36685972909362L90.43938461538461,132.052174496056L90.576,135.44021696531857L90.66707692307692,134.89274471929122L90.71261538461538,108.34963906485109L91.12246153846154,118.87443246768875L91.44123076923077,102.16503492311813L92.1243076923077,117.6226835496198L92.16984615384615,105.91773818534439L92.30646153846153,118.98631199957028L93.1716923076923,127.7740828368729L93.39938461538462,131.2149932774106L93.44492307692309,113.6862325234532L93.536,122.43506013174769L93.85476923076924,128.9648715950246L94.17353846153847,118.02823785645933L94.21907692307691,125.17728369059068L94.62892307692309,130.85138079537094L94.81107692307693,134.85465870030606L94.90215384615385,119.08440578536919L95.08430769230769,106.55447960708577L95.49415384615385,118.47561108120702L95.81292307692307,112.754052790692L95.85846153846154,123.2404511837307L96.08615384615385,128.53880604196448L96.45046153846154,132.1218683438829L96.86030769230769,131.97820657952616L96.90584615384616,111.3609820989608L97.08800000000001,95.70678968357083L97.3156923076923,112.06742191271208L97.45230769230768,102.04064346287383L97.54338461538462,114.95568652709564L97.68,124.49464976644659L97.81661538461539,112.7918243828782L97.99876923076924,103.52130077978185L98.36307692307692,91.96269547641403L98.72738461538462,89.90950197517948L98.90953846153846,96.87426607692286L99.04615384615384,113.57776899387862L99.09169230769231,103.63083652526394L99.36492307692308,118.31912638110073L99.77476923076922,127.92517583705278L99.95692307692308,133.04743702135855L100.00246153846155,117.76749957396017L100.048,127.64298196788684L100.13907692307693,131.78008246991666L100.27569230769231,132.7740158401348L100.59446153846154,134.31241565718756L101.00430769230769,136.0034482346446L101.45969230769231,119.38385635533753L101.64184615384616,113.3499736947943L101.73292307692307,124.33783167380865L101.86953846153845,129.69624837028252L102.09723076923078,134.05172844283143L102.23384615384616,135.21998998851993L102.27938461538461,137.37277970153937L102.32492307692307,139.57034208201677L102.5526153846154,115.41876866473741L103.19015384615385,125.43552560600034L103.6,130.62170787687535L103.87323076923077,133.6903625251975L104.192,118.39435991776742L104.23753846153846,126.2685267325208L104.64738461538461,131.54579304432662L104.96615384615384,134.041289579724L105.51261538461537,136.71546671620294L105.83138461538461,117.34636457104257L105.92246153846155,127.54494009577496L106.10461538461539,132.53190243103066L106.56,117.13380603228782L106.60553846153846,126.84480596205458L106.74215384615384,105.93119288814584L106.96984615384615,118.96429761727165L107.152,128.80143414783186L107.744,131.72837694911783L107.88061538461538,135.4718717123784L108.15384615384615,137.93305031929717L108.19938461538462,120.18345527931633L108.24492307692309,127.51847848585L109.79323076923076,134.14604396158904L110.06646153846154,136.4036323126224L110.38523076923076,115.58578328466814L110.65846153846154,125.66755559549571L110.84061538461539,132.05834996763375L110.9316923076923,115.52016270198526L111.02276923076923,126.73714896701637L111.296,114.87293091692246L111.43261538461539,125.8029064040048L111.5236923076923,131.54577613953728L111.6603076923077,121.43854940106856L111.79692307692308,129.4668626175546L111.93353846153846,134.6205101314916L112.34338461538462,138.4033475723108L112.43446153846153,138.9999416021252L112.98092307692309,140.19369598315623L113.02646153846153,139.6007270341305L113.072,141.3357877829783L113.70953846153847,141.94765252227262L113.8916923076923,142.50956284019156L114.07384615384615,141.6852095306683L114.256,141.74151811723522L114.43815384615385,140.75875164106256L114.52923076923076,141.669834071605L114.62030769230769,140.88503011596714L114.98461538461538,140.51337151844808L115.07569230769231,142.13560604285902L115.21230769230769,142.64700870055978L115.34892307692307,143.43223200046435L115.48553846153845,121.91786100508817L115.5766153846154,128.94460149074823L115.71323076923078,134.6220497242524L116.57846153846154,114.98847153377018L117.12492307692307,108.492604557225L117.17046153846154,121.49396845313841L117.21600000000001,130.14431700594983L117.30707692307692,109.24066430024959L117.35261538461539,123.80136688764486L117.4436923076923,132.33731063017603L117.53476923076923,135.75512953644608L117.71692307692307,137.84012816933165L117.89907692307692,140.59584954850297L118.12676923076923,140.44970252199423L118.21784615384615,113.59240581800611L118.53661538461539,125.9559236944322L118.67323076923077,133.66182903412607L118.90092307692308,136.68956681706683L119.08307692307693,139.24389344107016L119.31076923076922,121.67291088611427L119.40184615384615,130.03533689803209L119.4473846153846,135.1612619341989L120.13046153846155,138.42645427355646L120.26707692307693,139.41850474339412L120.40369230769231,121.3426558092933L120.44923076923078,130.84250073407298L120.6313846153846,135.79125247939947L120.72246153846154,139.44713395681694L120.95015384615384,117.00920055536457L120.99569230769231,126.5347079982044L121.31446153846154,118.23809015689382L121.36,128.29512934171015L121.54215384615384,134.91426582028183L121.63323076923078,138.31460051828452L121.72430769230769,139.74468583758969L121.90646153846154,141.34905297575173L122.36184615384616,140.57887803445922L122.45292307692307,142.7209670718352L122.544,143.68563449477196L122.58953846153847,121.79062826690102L122.7716923076923,114.58832891021385L122.90830769230769,126.23892842790016L123.27261538461538,133.7684103814395L123.45476923076923,137.51536618755054L124.0923076923077,140.34121305397625L124.27446153846155,140.72778690488025L124.36553846153846,141.31615016836457L124.59323076923076,122.5407045053156L124.63876923076923,129.8098919157214L124.72984615384614,135.37016911530657L124.82092307692308,137.66781593813994L124.86646153846155,140.0404662218958L124.95753846153846,124.96051968141019L125.04861538461537,132.02358744742642L125.09415384615384,137.20620645881993L125.41292307692308,140.11921161294762L125.54953846153846,142.10684616733064L125.77723076923077,141.48708578686993L126.64246153846153,142.7234775253599L127.09784615384615,143.04091476610094L127.37107692307691,142.5425929260897L127.50769230769231,126.01558875278516L127.64430769230769,133.98133585474423L127.78092307692309,138.0070499183031L127.82646153846153,141.15698536403727L127.872,119.7191392622456L128.3273846153846,128.31956481230648L128.3729230769231,135.24759785230393L128.41846153846154,125.18250921187064L128.50953846153845,132.66229932556902L129.056,136.9335608878753L129.10153846153847,139.24757936948666L129.19261538461538,141.70271458717662L129.55692307692308,142.89532853658483L129.96676923076924,143.60190800604514L130.74092307692308,143.4217583929139L131.37846153846152,144.26203472820745L131.56061538461537,144.4678607953061L131.60615384615386,144.15795615270554L131.69723076923077,125.11548551413307L132.06153846153848,115.44486934955651L132.1526153846154,126.9591708887561L132.33476923076924,134.11741754942798L132.79015384615386,121.90255727251568L133.15446153846153,114.26116977381824L133.20000000000002,127.07458593278002L133.70092307692306,115.59321927207034L134.06523076923077,111.75608441816165L134.33846153846153,124.22444356433388L134.38400000000001,132.5261170777788L134.47507692307693,136.80145708519876L134.56615384615384,139.65591261743702L134.79384615384615,120.32660737728592L135.65907692307692,130.51245274004648L135.9323076923077,136.20639730130023L135.97784615384614,138.91318371197215L136.43323076923076,121.32485026777168L136.5243076923077,131.13825610792864L136.70646153846155,136.27936830709118L136.752,139.1424102842196L137.25292307692308,141.22443297740125L137.38953846153845,141.70222232840243L137.66276923076921,141.59514128507246L137.89046153846155,120.494252015001L137.98153846153846,130.17532451680088L138.0726153846154,119.28421007949582L138.16369230769232,129.81034495448156L138.57353846153845,136.51914650210787L138.7556923076923,140.07668039088875L138.93784615384615,142.56242859891313L139.02892307692306,144.0720793994144L139.16553846153846,125.7844057435915L139.57538461538462,133.00498498172317L139.62092307692308,137.8081576293156L140.0763076923077,113.94317388209373L140.1673846153846,126.43516160293025L140.71384615384616,134.32352281358007L140.75938461538462,138.94840282884934L140.80492307692307,128.03557718925296L140.98707692307693,115.83328345497023L141.16923076923078,104.6517481415246L141.44246153846154,120.89925749354208L141.488,131.08958191426186L142.21661538461538,136.5040224525427L142.35323076923075,139.85050244170995L142.48984615384617,141.33465851687532L142.5353846153846,143.18148057784524L142.8996923076923,144.00276971534421L143.17292307692307,122.03679072782714L143.44615384615383,130.1761793036778L143.67384615384614,136.89729370948785L144.53907692307692,139.68646274493406L144.72123076923077,142.07921750120084L144.81230769230768,130.6180070899234L145.04,135.9746778882924L145.2676923076923,139.8710839222302L145.8596923076923,142.4878096455592L146.04184615384614,143.3654451342975L146.17846153846153,143.3133803541991L146.86153846153846,144.39037896248894L147.36246153846153,128.25482729585883L147.408,135.2639754790778L147.54461538461538,111.51252408139199L147.81784615384615,125.33856890745335L148.1366153846154,132.77896312563044L148.18215384615382,138.11713753037705L148.2276923076923,141.79255739148292L148.27323076923076,127.64004314002892L148.31876923076922,134.30580557380617L148.7286153846154,137.96200977918207L149.776,140.511380996446L149.82153846153847,142.5809632814766L149.86707692307692,143.69340421896229L150.18584615384617,144.7127510579887L150.68676923076924,144.24464800074475L150.77784615384616,145.29421087095008L151.3243076923077,146.04733027689971L151.36984615384617,130.67848147912812L151.50646153846154,137.0638877699613L151.59753846153848,139.54415047585007L151.64307692307693,142.08587204706095L151.73415384615384,119.49886541421068L152.5993846153846,129.98237111124308L152.82707692307693,111.26783941479273L152.9636923076923,123.84915906841604L153.1003076923077,132.72824909839062L153.51015384615383,138.39333157153743L153.5556923076923,124.55770865208994L153.92000000000002,116.37261980490142L153.96553846153847,128.3929347092882L154.23876923076924,135.8970717224464L154.3753846153846,140.6196130796066L154.64861538461537,126.98345459245391L154.7396923076923,134.12381708587853L154.83076923076925,120.91451062658815L155.6049230769231,131.66056997477645L155.696,138.058799946902L155.74153846153848,122.2999137572037L155.7870769230769,131.12190872738282L156.288,115.96840402549219L156.7433846153846,127.91193350950307L157.1076923076923,134.94856028079647L157.88184615384614,139.72361788463388L158.2006153846154,142.17071123905058L158.24615384615385,144.40072084180758L158.38276923076924,145.37689737744478L159.11138461538462,145.78053022067158L159.29353846153847,145.94215018177275L159.52123076923078,145.1874089063659L159.61230769230767,145.65437973865596L159.7033846153846,145.63890928583578L159.79446153846155,146.35026384447357L159.8855384615385,146.39577932509388L160.0676923076923,146.1965442237413L160.11323076923077,122.3543822990153L160.24984615384614,131.8335355178293L160.5230769230769,137.1349834475384L160.61415384615384,139.65821406563913L160.75076923076924,142.32093141866204L161.1150769230769,144.24873893256472L161.20615384615385,125.29405895707299L161.2516923076923,134.11494785688694L161.29723076923077,137.95301128233893L161.66153846153844,141.3600004101123L162.34461538461537,143.7903758135036L162.4356923076923,144.72674025098058L162.52676923076925,145.05772059559567L162.61784615384616,145.45332702517356L163.11876923076926,146.03521899056344L163.30092307692308,146.22136865897124L163.89292307692307,146.0734468343445L164.07507692307692,146.69871525541478L164.94030769230767,146.00800646648128L165.62338461538462,145.75689135852647L165.66892307692308,146.27766525544638L165.94215384615384,122.82848906873413L165.98769230769233,131.71684746956078L166.0787692307692,138.22312172064335L166.2153846153846,141.96216120606155L166.44307692307692,143.55471485069685L166.6252307692308,145.29133412606296L166.71630769230768,146.01503046850428L167.4449230769231,146.77720690310042L167.94584615384616,124.7881470330956L168.26461538461538,132.46980533411516L168.31015384615384,119.34385854608068L168.6289230769231,130.9147959053889L168.76553846153845,137.6257737219557L169.85846153846154,141.0980182349816L169.9950769230769,143.89851523757784L170.31384615384616,122.22836661172396L170.45046153846155,132.046124309495L170.49599999999998,113.46984266888792L170.58707692307692,126.9450169518691L170.63261538461538,135.0315898940028L170.95138461538463,139.7267227390445L171.5433846153846,142.26770855301837L171.77107692307692,126.25293783017528L172.18092307692308,135.0052788190158L172.272,138.8471677596636L172.36307692307693,142.04217677922648L172.68184615384615,130.4382424307561L173.27384615384616,136.66603463844635L173.36492307692308,139.66407623503312L173.63815384615387,141.93316568502013L174.00246153846152,144.34561280231608L174.2756923076923,145.87487535369954L174.32123076923077,121.20873834545945L174.5489230769231,130.88896797332487L174.77661538461538,137.89161328454804L175.09538461538463,142.04337723958488L175.45969230769228,144.18434699957368L175.64184615384616,144.7518538891363L175.82399999999998,145.33448243731783L176.416,146.43718562003687L176.50707692307694,128.59719078944156L176.59815384615385,134.9870485377671L176.73476923076922,139.84624229385625L176.96246153846153,142.71108951636654L177.7366153846154,144.5871612219125L177.9643076923077,127.53985082555474L178.784,135.4791849151174L178.96615384615387,140.5740467747998L179.10276923076924,143.63358743911695L179.33046153846152,144.42627603486602L179.64923076923077,144.87382036373273L179.83138461538462,146.28530338004384L179.92246153846153,145.78716284868213L180.1956923076923,146.88367107175046L180.24123076923075,146.58493566669378L180.51446153846152,127.88739086244914L180.83323076923077,135.89629462393768L181.10646153846153,141.2215614285031L181.24307692307693,128.0476446322178L181.5163076923077,136.1943595416293L182.01723076923076,140.8401155380574L182.1083076923077,143.6782160990338L182.5636923076923,145.15959283786418L182.7003076923077,126.32704899953248L182.79138461538463,134.32861810115838L183.01907692307694,139.31714540235916L183.7476923076923,143.16822559066247L183.83876923076923,144.20312868134755L184.06646153846154,145.91210049257623L184.112,146.82930867353647L184.29415384615385,146.86553902435045L184.38523076923076,147.1208367097839L184.704,121.7738872950354L185.02276923076923,131.18992676884406L185.56923076923076,137.4785164985089L185.79692307692306,123.96123415905407L186.3433846153846,112.06533294843537L186.38892307692308,125.66951834396662L186.66215384615384,134.7074876024493L186.7076923076923,114.51717704022934L187.34523076923077,127.80574951580174L187.5273846153846,136.27713826186064L187.61846153846153,122.24099056057098L187.70953846153847,132.12032161791302L187.84615384615384,138.76006280326354L187.98276923076924,121.13675774421398L188.39261538461537,131.1461839800245L188.66584615384616,136.7480352047185L188.75692307692307,141.83013222474455L189.25784615384617,116.28353416120171L189.3033846153846,129.24096760746932L189.57661538461537,137.04891632555183L189.89538461538461,141.32115822886382L190.9883076923077,144.02342837008806L191.26153846153846,131.92858687968834L191.35261538461538,138.2684693308579L192.30892307692307,142.28711154770295L192.44553846153846,144.57154218144083L192.6276923076923,146.4394158398322L192.67323076923077,146.22643907756876L192.71876923076923,125.5651242726521L192.99200000000002,134.01315992316464L193.1286153846154,139.2176790764383L193.2196923076923,142.44441880765268L193.6295384615385,123.38590041865532L193.9483076923077,133.78820179503933L194.17600000000002,121.25607934118375L194.54030769230772,113.35156437946L194.72246153846154,110.53748014684105L194.90461538461537,104.61648451754797L195.49661538461538,122.39319900673239L195.58769230769232,132.74578240395553L195.7243076923077,138.87073412228204L196.27076923076925,142.65180715017664L196.45292307692307,144.7464507537672L196.68061538461538,146.4697161053174L196.77169230769232,146.55310304728468L197.2270769230769,147.56598345617843L197.31815384615385,147.88111389744518L197.4092307692308,148.18510715167662L198.00123076923077,126.90185626030528L198.72984615384615,115.03961446571687L198.95753846153843,128.82372662477695L199.27630769230768,126.40211316259506L200.41476923076925,135.11422255225065L200.46030769230768,140.1732059251492L200.50584615384614,143.10038751669077L200.82461538461538,145.18672800962537L201.28,126.75044609608894L201.64430769230768,115.77543653430132L201.91753846153844,129.0775956188535L201.96307692307693,136.93149321764082L202.14523076923078,141.14198879176004L202.64615384615385,144.07765561445726L202.91938461538462,128.60743548216922L203.19261538461538,136.03674529875818L203.32923076923078,140.62306394389572L204.01230769230767,126.9341201961714L204.19446153846155,116.3261849511074L204.51323076923077,129.29332553317587L204.69538461538463,136.50611855846907L204.9230769230769,125.16023476041713L205.1507692307692,133.8047872872195L205.3329230769231,140.0022816068555L205.37846153846155,143.80851620475204L205.87938461538462,145.38160930895657L205.92492307692308,146.64103366627606L206.42584615384615,146.9613842063803L206.5169230769231,146.49077252707832L206.56246153846155,128.34158609009953L206.88123076923074,136.73483301459058L206.97230769230768,140.87216572796285L207.01784615384616,144.17159213086953L207.06338461538462,146.02704276955717L207.10892307692308,130.79794473598358L207.38215384615384,137.1232649227974L208.384,122.13211653119309L209.15815384615385,133.17498526266803L209.38584615384616,139.31041803652997L209.43138461538462,143.32287629780149L209.52246153846153,144.84804981194122L209.88676923076923,146.2034084465634L210.43323076923076,147.4347995201666L212.528,148.13249109267704L213.16553846153846,148.1226375322313L213.21107692307692,147.9306176889402L213.712,148.12365703037156L213.75753846153845,148.02862491280302L213.84861538461539,133.26240211290397L213.9396923076923,139.34223709083963L214.0763076923077,142.55430140004972L214.12184615384615,145.05294689837945L214.2129230769231,129.07429169478328L215.2603076923077,136.9554526738066L215.488,125.59465450833669L215.6246153846154,133.8581168436434L215.76123076923076,139.40724106213008L215.98892307692307,143.1006983612809L216.48984615384617,145.35918663351734L216.8996923076923,147.03803511624932L217.0363076923077,147.5881308279359L217.08184615384616,148.2973792864039L217.4916923076923,124.27243914563383L217.76492307692305,133.83380202030497L218.49353846153846,139.26055276617618L218.76676923076923,127.62467432633169L218.94892307692305,116.43908689865548L219.08553846153848,129.46029111414597L219.35876923076924,137.67090053480533L219.44984615384615,142.490895766745L219.85969230769228,129.69248732729554L220.04184615384617,117.89394996168494L220.31507692307693,130.06178541661666L220.54276923076924,137.73659189034322L220.816,142.0206024663974L221.22584615384616,144.74538482292468L221.5446153846154,145.79332671322808L221.72676923076924,146.61635284041395L222.1366153846154,147.4529120851459L222.8196923076923,148.0597447996677L223.13846153846154,128.403584173044L223.27507692307694,135.70806432886152L223.36615384615382,140.84757508232133L223.4116923076923,143.72849188681803L223.59384615384616,145.26205909750678L223.6393846153846,146.69493276656758L224.2313846153846,129.42540608633215L224.50461538461536,137.06671207659633L224.55015384615385,142.18250536866898L224.64123076923076,144.26866585700463L224.91446153846152,146.20375664406268L225.05107692307695,146.3022421418026L225.3243076923077,129.28150472035378L225.50646153846154,119.47616468066197L225.82523076923076,130.38244420882597L226.28061538461537,137.43685071585497L226.55384615384614,141.91149341653536L226.736,144.8222974013731L226.87261538461536,146.5823333782819L227.23692307692306,147.47520924823684L227.328,124.66973805199386L227.92000000000002,134.47965193134738L228.10215384615384,139.58564394439574L228.1476923076923,143.3382041247208L229.01292307692307,145.63277860829348L229.05846153846153,146.78261987894246L229.1950769230769,147.07316470938605L229.51384615384615,127.25011016367483L229.6049230769231,135.81511610888606L229.96923076923076,141.2310943802784L230.0603076923077,128.1500919461602L230.10584615384613,136.66661167146884L230.69784615384614,141.55221117020918L230.78892307692308,118.97502516556546L231.2443076923077,130.4310659101532L231.38092307692307,137.49555244987764L231.88184615384614,129.12805008259747L232.01846153846154,136.0081832514246L232.10953846153848,141.6895095411563L232.2006153846154,145.02857566497468L232.74707692307692,146.27828708304014L233.52123076923078,132.88780686743883L233.74892307692306,139.64646659784214L234.20430769230768,143.34704839284836L234.47753846153847,145.27016134915124L234.79630769230766,128.47290411387308L235.06953846153846,136.93119737860218L235.16061538461537,121.40244620654973L235.34276923076925,106.71657667168374L235.66153846153844,123.81076503043411L235.70707692307693,119.28814667847776L235.75261538461538,130.5091313027562L236.20800000000003,137.61177694697508L237.1643076923077,122.26528489529687L237.39200000000002,132.47974100792166L237.6196923076923,139.36068877627707L237.89292307692307,120.92694312721643L238.34830769230769,132.22837967151494L238.57600000000002,138.17272536321934L238.8492307692308,142.89024450757776L239.0313846153846,145.0393293737094L239.0769230769231,146.61257147066118L239.44123076923077,147.74514952702717L239.57784615384614,147.95398817422029L239.62338461538462,148.55854963518402L239.71446153846153,124.45838827644123L239.8510769230769,134.71834625455338L239.8966153846154,112.93046919377207L239.94215384615384,126.84838073892331L240.16984615384615,135.99860866453014L240.2609230769231,124.49544287434674L240.39753846153846,133.96952120489752L240.44307692307692,123.62490821854396L240.48861538461537,133.69646998510433L240.53415384615386,139.19432813325926L240.6252307692308,124.70255009650829L240.76184615384614,134.68381892394805L240.80738461538462,120.83699261398189L241.08061538461538,132.46000672370835L241.35384615384615,121.17786011332657L241.4449230769231,131.94996588965884L241.58153846153846,138.54490691864865L242.128,142.49887983348594L242.4923076923077,144.57843109337466L242.53784615384615,146.3341501424788L242.58338461538463,147.78321816146843L242.8566153846154,148.58569758665843L243.17538461538462,130.8872050662773L243.40307692307692,137.604440430399L243.72184615384614,125.98724532818568L244.31384615384616,135.30161490139827L244.58707692307692,140.97277911721147L244.67815384615386,143.95233156811284L244.81476923076923,129.98625560361796L245.13353846153845,138.00743239258915L245.4067692307692,142.75441692075248L245.5433846153846,126.37688599229523L245.63446153846155,134.86684809804362L245.67999999999998,140.8777761476064L246.54523076923076,143.8078056703105L246.95507692307692,145.89751193345157L247.50153846153844,147.65508671176772L247.63815384615387,148.22232760174478L247.7747692307692,148.08088601340893L248.36676923076922,148.474705352247L248.73107692307693,149.22171786419167L249.09538461538463,148.81744143600235L249.1409230769231,149.0358848693071L249.27753846153846,149.13684929621806L249.3686153846154,127.5086228872096L249.41415384615385,136.2700220885727L250.0516923076923,141.9058173193248L250.416,145.01700466714573L251.09907692307692,146.81866245175763L251.41784615384617,147.76543240013936L251.69107692307693,148.41816343464384L251.8276923076923,148.78156686781603L251.87323076923076,148.79587629651283L252.14646153846152,148.49891382703336L252.73846153846154,148.75938712030145L252.82953846153845,131.91100182097847L252.87507692307693,138.31963810182629L252.9206153846154,142.90716314826616L253.19384615384615,127.75221199342138L253.42153846153846,136.4787551626475L254.01353846153847,141.44812013297746L254.74215384615383,144.7211900185911L255.06092307692307,147.0712410373311L255.28861538461538,147.94307414071685L255.33415384615384,148.84177622185305L255.60738461538463,149.27128692737912L256.01723076923076,149.20803155822568L256.1538461538462,148.69005510999568L256.19938461538464,148.91863656636363L256.29046153846156,128.7263231026905L256.5636923076923,136.81454193757637L256.60923076923075,141.51842092613379L256.7003076923077,144.9650111194849L256.928,146.759694988513L257.0646153846154,147.86673574387075L257.7476923076923,128.09015109979532L257.9753846153846,136.0573918416704L258.2486153846154,141.09733687845502L258.5673846153846,144.32384167556543L258.74953846153846,146.41400555637227L258.88615384615383,147.97437325398175L259.5692307692308,130.24718117284803L259.9335384615385,116.89423449258823L260.1156923076923,113.60173202169429L260.16123076923077,128.431748207882L260.9809230769231,137.09605033425984L261.11753846153846,141.94173908489046L261.1630769230769,145.13331697140393L261.2541538461538,146.26357061478055L261.3452307692308,147.7627190614495L261.39076923076925,131.63642484812456L261.5729230769231,121.41617415707421L261.61846153846153,132.57553785777753L262.1193846153846,125.52955178342262L262.3926153846154,135.1973070497632L262.5747692307692,141.03965922566175L263.6221538461538,144.49987394554566L264.21415384615386,146.3043297037074L264.5784615384615,147.57874882129366L264.80615384615385,148.28138956968508L264.8516923076923,129.55950201955153L264.9427692307692,137.6250208604736L264.9883076923077,142.46112551143185L265.4436923076923,144.78678402573118L265.48923076923074,146.62522547763734L266.1723076923077,147.84301903320642L266.30892307692307,126.21039390130812L266.80984615384614,135.19256481149182L266.8553846153846,120.81210760485163L266.94646153846156,131.85116875774284L266.992,138.91646415118348L267.44738461538464,142.60760748221855L267.7661538461538,123.24981618305671L267.9483076923077,117.93055272329228L268.13046153846153,114.09230139868484L268.5403076923077,128.15420209298745L268.76800000000003,136.5903167708529L268.8590769230769,124.50507940195875L268.95015384615385,134.4456338175707L269.36,140.13781617215707L269.5876923076923,124.74136653740071L269.81538461538463,134.6812544012002L270.45292307692307,141.00793789767812L270.4984615384615,122.45748017635101L270.5895384615385,133.25548940662236L270.8172307692308,139.88391402342137L271.22707692307694,123.36565889226326L271.5003076923077,133.87064000431852L272.09230769230766,140.14179491081333L272.5021538461539,127.72169777320917L272.5932307692308,136.53133442739903L272.7753846153846,141.8401898118273L272.82092307692307,143.99654112174602L273.0030769230769,146.59885415264662L273.2763076923077,147.2315091945451L273.5495384615384,147.84148114071618L273.77723076923075,131.8072307750364L273.86830769230767,138.8099413874614L273.9138461538461,143.28735333221366L274.0049230769231,145.2210757013393L274.50584615384616,127.16340380169346L274.688,121.27756006513474L275.09784615384615,132.0974710309174L275.28000000000003,138.77809157393372L275.46215384615385,143.55083424819705L275.68984615384613,145.9470627723527L275.7353846153846,147.7144838534827L275.91753846153847,148.59470122355432L276.23630769230766,148.35930624781975L276.464,149.02748638855772L276.5550769230769,148.69450537006472L276.6461538461538,149.25662652278191L276.69169230769234,129.90017802014498L277.10153846153844,138.08637188729375L277.1470769230769,142.2627305201097L277.1926153846154,145.20955011435768L277.46584615384614,146.9796543049122L277.73907692307694,148.11128838582667" style="fill: none;" fill="none"></path></g></g></g></g><g opacity="0.2"><g><g><g><path stroke="rgb(255, 112, 67)" stroke-width="2px" d="M32.42338461538462,-10.462551879882827L32.92430769230769,11.240857124328613L33.197538461538464,42.46265459060669L33.425230769230765,20.691284561157236L34.10830769230769,19.202482318878165L34.38153846153846,22.036194801330566L34.60923076923077,36.46079721450806L34.928,32.25041351318359L35.11015384615384,8.249740219116203L35.20123076923077,27.040475654602048L36.06646153846154,-2.132212448120133L36.29415384615385,41.20799407958984L36.33969230769231,0.4355888366699219L36.56738461538462,54.76452531814576L36.79507692307693,21.909201812744143L36.886153846153846,40.2851432800293L37.25046153846154,30.906666088104245L37.296,26.174220848083493L37.79692307692308,43.46119022369385L38.20676923076923,19.742351055145264L38.57107692307692,58.516912651062015L39.29969230769231,56.12088546752929L39.48184615384615,61.50535593032836L39.937230769230766,74.82995223999023L41.94092307692308,59.88396730422974L41.98646153846154,65.93691215515136L42.35076923076923,63.66178379058837L42.76061538461539,58.094700431823725L42.8516923076923,76.7816822052002L42.897230769230774,70.97677345275879L43.033846153846156,60.01529750823974L43.30707692307692,51.38283834457397L43.71692307692308,53.699208450317386L43.85353846153846,76.90528011322021L43.899076923076926,49.050545310974115L44.35446153846154,73.34059829711914L45.12861538461538,89.69933567047119L45.219692307692306,73.49963235855103L46.084923076923076,42.524827003479004L46.176,93.84663028717041L46.312615384615384,78.7144676208496L46.676923076923075,85.88425817489625L46.95015384615384,89.26775302886963L47.041230769230765,80.71537532806397L47.177846153846154,67.43278465270996L47.451076923076926,90.09539728164673L47.678769230769234,95.84648551940919L48.13415384615384,78.96918354034423L48.40738461538462,73.10675363540649L48.680615384615386,78.64878978729249L48.862769230769224,83.37414779663087L49.136,84.48586692810059L49.22707692307692,92.00933151245117L49.36369230769231,48.03460140228272L49.45476923076923,94.46749715805053L49.50030769230769,97.06969060897828L49.728,67.28370666503906L49.773538461538465,98.61655297279358L50.18338461538461,91.11945543289184L50.5476923076923,96.59786777496338L50.77538461538461,100.2861602306366L51.00307692307692,69.67362270355224L51.094153846153844,101.59509110450745L51.64061538461539,86.54662141799926L51.959384615384614,102.86788558959961L52.00492307692308,101.94156332015991L52.096,61.39294481277466L52.232615384615386,106.03307251930237L52.323692307692305,106.19757266044617L52.87015384615385,97.86935939788819L53.00676923076923,47.029309558868405L53.188923076923075,64.83644771575928L53.325538461538464,104.85823884010316L53.462153846153846,109.64294710159302L53.64430769230769,107.1005410194397L53.689846153846155,113.26965279579163L53.872,111.59791088104248L54.09969230769231,51.26515636444091L54.60061538461538,107.5644702911377L54.919384615384615,114.55931234359741L55.283692307692306,101.66219911575317L55.46584615384615,107.41271867752076L55.648,108.01814217567444L55.69353846153846,105.7029730796814L56.012307692307694,114.72535724639893L56.42215384615384,117.62788376808166L56.60430769230769,110.48689622879029L56.78646153846154,104.44898734092712L56.96861538461538,116.96156949996949L57.014153846153846,74.80765504837036L57.19630769230769,62.84867897033692L57.606153846153845,116.67610263824463L57.7883076923077,121.5957123041153L57.83384615384615,106.2411018371582L57.879384615384616,116.04712152481079L57.970461538461535,109.43626308441162L58.016000000000005,111.58224258422851L58.28923076923077,74.50477142333985L58.47138461538462,84.49844570159912L58.51692307692308,105.82479705810547L58.608000000000004,99.39075441360474L58.83569230769231,83.83441038131714L58.88123076923077,105.98625011444092L58.92676923076923,118.80401182174683L59.10892307692308,118.59835481643677L59.29107692307692,103.38069977760316L59.51876923076923,120.6595273256302L59.56430769230769,75.38823928833008L59.609846153846156,116.37086791992188L60.65723076923077,71.05860338211059L60.83938461538461,78.47533512115479L60.930461538461536,118.4882438659668L61.158153846153844,103.93913536071777L62.25107692307692,121.02913489341736L62.34215384615385,114.33381533622742L62.56984615384616,125.32603585720062L62.660923076923076,74.09310092926026L62.84307692307692,84.16975946426392L62.93415384615385,112.2379599571228L63.29846153846154,117.28369898796082L63.57169230769231,70.81426792144775L63.753846153846155,60.837102222442624L64.07261538461539,125.78275694847108L64.1636923076923,116.171457862854L64.43692307692308,116.46514930725098L64.528,122.45925741195678L64.66461538461539,72.27175903320312L64.80123076923077,123.05708017349244L65.16553846153846,118.98782997131347L65.21107692307693,67.55213871002198L65.34769230769231,118.32890000343323L65.66646153846155,121.9232314825058L65.80307692307693,124.86820712089539L66.21292307692308,126.19074802398681L66.39507692307693,124.02916600704194L66.53169230769231,117.32198276519776L66.57723076923077,126.63770189285279L66.98707692307693,119.93465003967285L67.03261538461538,90.75435695648193L67.21476923076922,56.46524000167847L67.30584615384615,125.70175881385804L67.35138461538462,127.1793551683426L67.53353846153846,129.80999302864075L67.57907692307693,82.8012788772583L67.71569230769231,122.80147516727448L67.76123076923076,88.04995460510254L68.12553846153847,99.12957086563111L68.3076923076923,53.1195408821106L68.39876923076923,123.47593762874604L68.48984615384616,55.433339214324945L68.53538461538461,120.42723803520202L68.94523076923078,127.34999828338623L69.08184615384616,120.16840558052063L69.44615384615385,130.0969409942627L69.53723076923077,122.5938766002655L69.99261538461539,122.2492928981781L70.31138461538461,58.12310028076172L70.90338461538461,129.3499086856842L71.17661538461537,128.25879557132723L71.31323076923077,129.92884631156923L71.40430769230768,90.91829690933227L71.58646153846153,87.42252674102784L71.76861538461539,73.86146306991577L71.85969230769231,131.42075080871584L72.08738461538462,125.00586915016174L72.13292307692308,83.99252777099609L72.54276923076924,123.99576478004455L72.816,125.69176030158997L72.99815384615385,125.16990246772767L73.04369230769231,94.9149263381958L73.49907692307693,126.76783745288849L73.72676923076924,130.0326042175293L74.3643076923077,126.28532648086548L74.45538461538462,132.29147651195527L75.36615384615385,128.07091817855834L75.4116923076923,103.06920537948608L75.59384615384616,78.07210140228271L75.63938461538461,135.8391638278961L75.68492307692308,127.22457976341248L76.50461538461539,75.28780431747437L77.05107692307692,82.14312553405762L77.09661538461539,135.4754403591156L77.36984615384615,134.09245641231539L77.46092307692307,131.38926568031312L77.68861538461539,131.05568628311156L78.87261538461539,83.80364246368408L78.9636923076923,134.73402903079986L79.41907692307691,84.57742376327515L79.92,136.43111522197725L80.05661538461538,132.90179529190064L80.19323076923077,128.77777183055878L80.78523076923078,129.7640236377716L81.10400000000001,135.00839822292326L81.37723076923078,133.4746408700943L81.69600000000001,133.81754400730134L81.96923076923078,83.0096604347229L82.4246153846154,128.32535188198088L82.65230769230769,133.36235070228577L82.69784615384616,62.3611029624939L82.83446153846154,137.3575372219086L83.1076923076923,134.25052499771118L83.19876923076923,132.00938987731934L83.33538461538461,129.80491313934326L83.472,130.8876785993576L83.60861538461539,84.23926525115967L83.65415384615385,134.94323177337648L84.47384615384615,138.69926669597626L85.15692307692308,135.76928882598875L85.83999999999999,138.5430590391159L85.97661538461537,79.44720239639283L86.02215384615384,132.91560690402983L86.11323076923077,134.68007059097292L86.15876923076922,96.07561950683593L87.16061538461538,138.76475355625152L87.38830769230769,133.9307275056839L87.52492307692307,131.24705424308777L87.70707692307693,136.6633917808533L87.79815384615385,84.8435471534729L87.98030769230769,82.61273307800293L88.16246153846154,88.31562814712524L88.34461538461538,77.23970403671265L89.48307692307694,133.67051792144775L89.52861538461538,137.66243879795073L90.02953846153846,137.1954709291458L90.39384615384614,134.0089819908142L90.43938461538461,136.08014664649963L90.576,140.52228066921234L90.66707692307692,134.07153635025023L90.71261538461538,68.53498058319092L91.12246153846154,134.66162257194517L91.44123076923077,77.1009386062622L92.1243076923077,140.80915648937227L92.16984615384615,88.36032013893127L92.30646153846153,138.58917272090912L93.1716923076923,140.95573909282686L93.39938461538462,136.37635893821718L93.44492307692309,87.39309139251709L93.536,135.55830154418945L93.85476923076924,138.7595887899399L94.17353846153847,101.62328724861145L94.21907692307691,135.90085244178772L94.62892307692309,139.36252645254135L94.81107692307693,140.85957555770872L94.90215384615385,95.42902641296386L95.08430769230769,87.75959033966065L95.49415384615385,136.35730829238892L95.81292307692307,104.17171535491943L95.85846153846154,138.9700487732887L96.08615384615385,136.4863383293152L96.45046153846154,137.49646179676054L96.86030769230769,131.76271393299103L96.90584615384616,80.4351453781128L97.08800000000001,72.22550106048584L97.3156923076923,136.60837025642397L97.45230769230768,87.00047578811646L97.54338461538462,134.32825112342834L97.68,138.80309462547302L97.81661538461539,95.23758630752563L97.99876923076924,89.61551537513733L98.36307692307692,74.62478752136231L98.72738461538462,86.82971172332763L98.90953846153846,107.32141222953797L99.04615384615384,138.63302336931227L99.09169230769231,88.71043782234192L99.36492307692308,140.35156116485595L99.77476923076922,142.33425002098082L99.95692307692308,140.73082879781722L100.00246153846155,94.84759340286254L100.048,142.45620555877687L100.13907692307693,137.98573322296144L100.27569230769231,134.26491589546205L100.59446153846154,136.62001538276672L101.00430769230769,138.53999710083008L101.45969230769231,94.45446853637695L101.64184615384616,104.2991497039795L101.73292307692307,140.81961864233017L101.86953846153845,137.73387341499327L102.09723076923078,140.58494855165483L102.23384615384616,136.9723823070526L102.27938461538461,140.60196427106857L102.32492307692307,142.86668565273285L102.5526153846154,79.19140853881837L103.19015384615385,140.46066101789475L103.6,138.40098128318786L103.87323076923077,138.29334449768066L104.192,95.45035600662231L104.23753846153846,138.0797769546509L104.64738461538461,139.46169251203537L104.96615384615384,137.7845343828201L105.51261538461537,140.7267324209213L105.83138461538461,88.292711353302L105.92246153846155,142.84280338287354L106.10461538461539,140.0123459339142L106.56,94.03666143417358L106.60553846153846,141.41130585670473L106.74215384615384,74.56077327728272L106.96984615384615,138.5139547109604L107.152,143.5571389436722L107.744,136.11879115104674L107.88061538461538,141.0871138572693L108.15384615384615,141.6248182296753L108.19938461538462,93.55906271934509L108.24492307692309,138.52101329565048L109.79323076923076,144.0873921751976L110.06646153846154,139.79001483917236L110.38523076923076,84.35900974273682L110.65846153846154,140.79021406173706L110.84061538461539,141.64454152584076L110.9316923076923,90.71288180351257L111.02276923076923,143.56262836456298L111.296,97.07660384178162L111.43261538461539,142.1978696346283L111.5236923076923,140.16008074283602L111.6603076923077,106.27770929336548L111.79692307692308,141.50933244228364L111.93353846153846,142.35098140239714L112.34338461538462,144.07760373353958L112.43446153846153,139.89483264684677L112.98092307692309,141.98432755470276L113.02646153846153,138.7112736105919L113.072,143.93837890625L113.70953846153847,142.86544963121415L113.8916923076923,143.35242831707L114.07384615384615,140.44867956638336L114.256,141.82598099708557L114.43815384615385,139.2846019268036L114.52923076923076,143.03645771741867L114.62030769230769,139.7078241825104L114.98461538461538,139.9558836221695L115.07569230769231,144.5689578294754L115.21230769230769,143.4141126871109L115.34892307692307,144.6100669503212L115.48553846153845,89.64630451202393L115.5766153846154,139.48471221923828L115.71323076923078,143.13822207450866L116.57846153846154,85.53810424804688L117.12492307692307,98.74880409240723L117.17046153846154,140.99601429700851L117.21600000000001,143.1198398351669L117.30707692307692,77.88518524169922L117.35261538461539,145.6424207687378L117.4436923076923,145.1412262439728L117.53476923076923,140.88185789585114L117.71692307692307,140.96762611865998L117.89907692307692,144.72943161725996L118.12676923076923,140.23048198223114L118.21784615384615,73.30646076202393L118.53661538461539,144.50120050907137L118.67323076923077,145.22068704366686L118.90092307692308,141.23117349147796L119.08307692307693,143.0753833770752L119.31076923076922,95.31643705368042L119.40184615384615,142.5789759159088L119.4473846153846,142.8501494884491L120.13046153846155,143.3242427825928L120.26707692307693,140.90658044815063L120.40369230769231,94.22888240814208L120.44923076923078,145.09226812124254L120.6313846153846,143.21438009738924L120.72246153846154,144.9309561729431L120.95015384615384,83.35230045318603L120.99569230769231,140.82296916246415L121.31446153846154,105.79316339492797L121.36,143.38068811893461L121.54215384615384,144.84297053813933L121.63323076923078,143.41510256528855L121.72430769230769,141.8898138165474L121.90646153846154,143.75560368299486L122.36184615384616,139.42361562252043L122.45292307692307,145.93410062789917L122.544,145.1326356291771L122.58953846153847,88.9481189250946L122.7716923076923,103.78487987518311L122.90830769230769,143.7148277044296L123.27261538461538,145.0626333117485L123.45476923076923,143.1357998967171L124.0923076923077,144.5799833536148L124.27446153846155,141.30764768123626L124.36553846153846,142.198695063591L124.59323076923076,94.37753601074219L124.63876923076923,140.7136730313301L124.72984615384614,143.7105849146843L124.82092307692308,141.11428617238997L124.86646153846155,143.5994416475296L124.95753846153846,102.34059987068176L125.04861538461537,142.6181890964508L125.09415384615384,144.9801349759102L125.41292307692308,144.4887193441391L125.54953846153846,145.08829799890518L125.77723076923077,140.55744521617888L126.64246153846153,144.57806513309478L127.09784615384615,143.51707062721252L127.37107692307691,141.79511016607285L127.50769230769231,101.22508249282836L127.64430769230769,145.92995650768282L127.78092307692309,144.04562101364135L127.82646153846153,145.88188853263856L127.872,87.5623701095581L128.3273846153846,141.22020313739776L128.3729230769231,145.6396474123001L128.41846153846154,110.0848762512207L128.50953846153845,143.88198449611664L129.056,143.3404532313347L129.10153846153847,142.7186070919037L129.19261538461538,145.38541741371156L129.55692307692308,144.68424946069717L129.96676923076924,144.6617772102356L130.74092307692308,143.15153397321703L131.37846153846152,145.52244923114776L131.56061538461537,144.77659989595415L131.60615384615386,143.6930991888046L131.69723076923077,96.55177955627441L132.06153846153848,100.93894510269165L132.1526153846154,144.23062319755556L132.33476923076924,144.8547875404358L132.79015384615386,103.58026685714722L133.15446153846153,102.79908852577209L133.20000000000002,146.2947101712227L133.70092307692306,98.37116928100586L134.06523076923077,106.00038213729859L134.33846153846153,142.92698228359222L134.38400000000001,144.97862734794617L134.47507692307693,143.21446709632872L134.56615384615384,143.9375959157944L134.79384615384615,91.33264951705932L135.65907692307692,145.79122078418732L135.9323076923077,144.74731414318083L135.97784615384614,142.97336332798002L136.43323076923076,94.94235010147095L136.5243076923077,145.85836486816405L136.70646153846155,143.99103660583498L136.752,143.43697324991226L137.25292307692308,144.34746701717378L137.38953846153845,142.41890635490418L137.66276923076921,141.43451972007753L137.89046153846155,88.8429181098938L137.98153846153846,144.69693326950073L138.0726153846154,102.9475384235382L138.16369230769232,145.59954726696014L138.57353846153845,146.58234882354736L138.7556923076923,145.41298122406008L138.93784615384615,146.2910509109497L139.02892307692306,146.33655560016632L139.16553846153846,98.35289525985718L139.57538461538462,143.8358538389206L139.62092307692308,145.0129166007042L140.0763076923077,78.14569826126099L140.1673846153846,145.17314318418502L140.71384615384616,146.15606462955475L140.75938461538462,145.88572285175323L140.80492307692307,111.6663387298584L140.98707692307693,97.52984285354614L141.16923076923078,87.8794451713562L141.44246153846154,145.2705215215683L141.488,146.3750685453415L142.21661538461538,144.625683259964L142.35323076923075,144.8702224254608L142.48984615384617,143.5608926296234L142.5353846153846,145.95171366930006L142.8996923076923,145.2347034215927L143.17292307692307,89.08782224655151L143.44615384615383,142.38526216745376L143.67384615384614,146.97896531820297L144.53907692307692,143.87021629810332L144.72123076923077,145.66834963560106L144.81230769230768,113.42619147300721L145.04,144.00968408584595L145.2676923076923,145.7156929731369L145.8596923076923,146.41289823055266L146.04184615384614,144.68189836740495L146.17846153846153,143.2352831840515L146.86153846153846,146.0058768749237L147.36246153846153,104.0514997959137L147.408,145.77769775390627L147.54461538461538,75.88534698486328L147.81784615384615,146.07763614654542L148.1366153846154,143.93955445289612L148.18215384615382,146.12439913749697L148.2276923076923,147.3056871831417L148.27323076923076,106.4112717628479L148.31876923076922,144.30444922447205L148.7286153846154,143.44631608724595L149.776,144.3354378223419L149.82153846153847,145.68533670902252L149.86707692307692,145.36206562519075L150.18584615384617,146.24177131652831L150.68676923076924,143.54249341487886L150.77784615384616,146.86855517625807L151.3243076923077,147.17700938582422L151.36984615384617,107.62520828247071L151.50646153846154,146.64199720621107L151.59753846153848,143.2645445346832L151.64307692307693,145.89845440387725L151.73415384615384,85.6183554649353L152.5993846153846,145.70762965679168L152.82707692307693,83.19604187011718L152.9636923076923,142.72113854885103L153.1003076923077,146.04688414335251L153.51015384615383,146.89095528125765L153.5556923076923,103.8042742729187L153.92000000000002,104.09498653411865L153.96553846153847,146.42340706586836L154.23876923076924,147.1532772421837L154.3753846153846,147.7034251153469L154.64861538461537,106.52921686172485L154.7396923076923,144.83436082601546L154.83076923076925,101.10055093765259L155.6049230769231,147.77965899705887L155.696,147.65614490509031L155.74153846153848,98.66158447265624L155.7870769230769,144.3549011826515L156.288,93.23814697265625L156.7433846153846,145.82722773551941L157.1076923076923,145.5035004377365L157.88184615384614,146.88620429039L158.2006153846154,145.84135127067566L158.24615384615385,147.74573524594305L158.38276923076924,146.84116218090057L159.11138461538462,146.3859794855118L159.29353846153847,146.18458012342452L159.52123076923078,144.0552969932556L159.61230769230767,146.35483598709106L159.7033846153846,145.61570360660554L159.79446153846155,147.41729568243025L159.8855384615385,146.4640525460243L160.0676923076923,145.8976915717125L160.11323076923077,86.59113941192626L160.24984615384614,146.05226534605026L160.5230769230769,145.08715534210205L160.61415384615384,143.44305999279024L160.75076923076924,146.3150074481964L161.1150769230769,147.14045020341874L161.20615384615385,96.86203899383545L161.2516923076923,147.3462812066078L161.29723076923077,143.71010642051695L161.66153846153844,146.4704841017723L162.34461538461537,147.43593891859055L162.4356923076923,146.13128690719603L162.52676923076925,145.5541911125183L162.61784615384616,146.04673666954042L163.11876923076926,146.90805693864823L163.30092307692308,146.50059316158294L163.89292307692307,145.85156409740446L164.07507692307692,147.6366178870201L164.94030769230767,144.97194328308106L165.62338461538462,145.38021869659426L165.66892307692308,147.05882610082628L165.94215384615384,87.65472478866577L165.98769230769233,145.04938507080078L166.0787692307692,147.98253309726715L166.2153846153846,147.57072043418884L166.44307692307692,145.94354531764984L166.6252307692308,147.89626303911209L166.71630769230768,147.1005749821663L167.4449230769231,147.92047155499458L167.94584615384616,91.80455722808838L168.26461538461538,143.99229278564454L168.31015384615384,99.65493836402894L168.6289230769231,148.2712019443512L168.76553846153845,147.69224044680595L169.85846153846154,146.30638500452042L169.9950769230769,148.09926074147225L170.31384615384616,89.72314367294311L170.45046153846155,146.77276085615156L170.49599999999998,85.60542020797729L170.58707692307692,147.15777837634087L170.63261538461538,147.1614493072033L170.95138461538463,146.76942200660707L171.5433846153846,146.0791872739792L171.77107692307692,102.23078174591065L172.18092307692308,148.1337903022766L172.272,144.61000117063523L172.36307692307693,146.83469030857086L172.68184615384615,113.03234090805054L173.27384615384616,146.00772294998168L173.36492307692308,144.16113862991332L173.63815384615387,145.3367998600006L174.00246153846152,147.96428347826006L174.2756923076923,148.1687691807747L174.32123076923077,84.20953283309936L174.5489230769231,145.40931241512297L174.77661538461538,148.39558125138282L175.09538461538463,148.2710231721401L175.45969230769228,147.39580163955688L175.64184615384616,145.60311422348022L175.82399999999998,146.20842525959014L176.416,148.09124039411543L176.50707692307694,101.83719854354858L176.59815384615385,144.57183516025543L176.73476923076922,147.13503292798995L176.96246153846153,147.008360350132L177.7366153846154,147.40126878023148L177.9643076923077,101.96888523101806L178.784,147.38818604946138L178.96615384615387,148.21633956432342L179.10276923076924,148.22289843559267L179.33046153846152,145.61530892848967L179.64923076923077,145.54513685703276L179.83138461538462,148.4025279045105L179.92246153846153,145.03995205163957L180.1956923076923,148.528433406353L180.24123076923075,146.13683255910874L180.51446153846152,99.84107365608216L180.83323076923077,147.9096502661705L181.10646153846153,149.20946163535118L181.24307692307693,108.28676943778991L181.5163076923077,148.41443190574645L182.01723076923076,147.80874953269958L182.1083076923077,147.93536694049837L182.5636923076923,147.38165794610975L182.7003076923077,98.07823324203491L182.79138461538463,146.33097175359725L183.01907692307694,146.7999363541603L183.7476923076923,148.94484587311743L183.83876923076923,145.75548331737517L184.06646153846154,148.47555820941923L184.112,148.2051209449768L184.29415384615385,146.91988455057142L184.38523076923076,147.50378323793413L184.704,83.7534631729126L185.02276923076923,145.31398597955703L185.56923076923076,146.91140109300613L185.79692307692306,103.68531064987182L186.3433846153846,94.22148113250732L186.38892307692308,146.0757964372635L186.66215384615384,148.26444149017334L186.7076923076923,84.23171119689941L187.34523076923077,147.7386082291603L187.5273846153846,148.98422138094904L187.61846153846153,101.18676900863647L187.70953846153847,146.9393182039261L187.84615384615384,148.7196745812893L187.98276923076924,94.70180015563965L188.39261538461537,146.16032333374025L188.66584615384616,145.1508120417595L188.75692307692307,149.4532777547836L189.25784615384617,77.96363706588745L189.3033846153846,148.67711777687074L189.57661538461537,148.76083940267563L189.89538461538461,147.72952108383177L190.9883076923077,148.07683358192443L191.26153846153846,113.78632464408875L191.35261538461538,147.77829300761223L192.30892307692307,148.3150748729706L192.44553846153846,147.99818813204766L192.6276923076923,149.2412263274193L192.67323076923077,145.90697393417358L192.71876923076923,94.5731520652771L192.99200000000002,146.68521339893343L193.1286153846154,147.0244578063488L193.2196923076923,147.28452840447426L193.6295384615385,94.7981228351593L193.9483076923077,149.39165385961533L194.17600000000002,102.4578956604004L194.54030769230772,101.49479193687439L194.72246153846154,106.3163537979126L194.90461538461537,95.7349910736084L195.49661538461538,149.05827074050902L195.58769230769232,148.2746574997902L195.7243076923077,148.0581616997719L196.27076923076925,148.32341669201853L196.45292307692307,147.88841615915297L196.68061538461538,149.05461413264274L196.77169230769232,146.6781834602356L197.2270769230769,149.08530406951903L197.31815384615385,148.35380955934525L197.4092307692308,148.64109703302384L198.00123076923077,94.9769799232483L198.72984615384615,97.24625177383423L198.95753846153843,149.49989486336708L199.27630769230768,122.76969296932221L200.41476923076925,148.182386636734L200.46030769230768,147.76168098449708L200.50584615384614,147.49115990400313L200.82461538461538,148.31623874902724L201.28,99.09602322578431L201.64430769230768,99.31292219161988L201.91753846153844,149.03083424568175L201.96307692307693,148.71233961582183L202.14523076923078,147.45773215293886L202.64615384615385,148.4811558485031L202.91938461538462,105.40210528373719L203.19261538461538,147.18071002364158L203.32923076923078,147.50254191160204L204.01230769230767,106.40070457458496L204.19446153846155,100.41428208351135L204.51323076923077,148.7440364062786L204.69538461538463,147.32530809640886L204.9230769230769,108.14140906333924L205.1507692307692,146.7716160774231L205.3329230769231,149.29852308630942L205.37846153846155,149.51786810159683L205.87938461538462,147.74124896526337L205.92492307692308,148.53017020225525L206.42584615384615,147.4419100165367L206.5169230769231,145.7848550081253L206.56246153846155,101.11780643463135L206.88123076923074,149.32470340132713L206.97230769230768,147.07816479802133L207.01784615384616,149.1207317352295L207.06338461538462,148.81021872758865L207.10892307692308,107.95429768562317L207.38215384615384,146.61124520301817L208.384,99.64539394378662L209.15815384615385,149.73928835988045L209.38584615384616,148.51356719732283L209.43138461538462,149.3415636897087L209.52246153846153,147.13581008315086L209.88676923076923,148.2364463984966L210.43323076923076,149.28188613057137L212.528,149.17902845144272L213.16553846153846,148.10785719156266L213.21107692307692,147.6425879240036L213.712,148.4132160425186L213.75753846153845,147.88607673645018L213.84861538461539,111.11306791305542L213.9396923076923,148.46198955774307L214.0763076923077,147.3723978638649L214.12184615384615,148.80091514587403L214.2129230769231,105.10630888938904L215.2603076923077,148.7771941423416L215.488,108.55345726013184L215.6246153846154,146.2533103466034L215.76123076923076,147.73092738986017L215.98892307692307,148.6408843100071L216.48984615384617,148.74691904187202L216.8996923076923,149.55630784034727L217.0363076923077,148.41327439546583L217.08184615384616,149.36125197410584L217.4916923076923,88.23502893447876L217.76492307692305,148.17584633231164L218.49353846153846,147.40067888498308L218.76676923076923,110.17085666656494L218.94892307692305,99.66070575714112L219.08553846153848,148.99209743738174L219.35876923076924,149.98681466579436L219.44984615384615,149.72088861465454L219.85969230769228,110.49487466812134L220.04184615384617,100.19614391326904L220.31507692307693,148.31353859901427L220.54276923076924,149.2488016009331L220.816,148.44661833047869L221.22584615384616,148.8325583577156L221.5446153846154,147.36523954868315L221.72676923076924,147.85089203119279L222.1366153846154,148.7077509522438L222.8196923076923,148.96999387145044L223.13846153846154,98.91934323310852L223.27507692307694,146.66478456258776L223.36615384615382,148.55684121251105L223.4116923076923,148.04986709356308L223.59384615384616,147.56240991353988L223.6393846153846,148.84424327015878L224.2313846153846,103.521116065979L224.50461538461536,148.52867106199264L224.55015384615385,149.85619530677795L224.64123076923076,147.39790658950804L224.91446153846152,149.10639282464982L225.05107692307695,146.44997038841248L225.3243076923077,103.75039858818054L225.50646153846154,104.76815462112427L225.82523076923076,146.74186350107195L226.28061538461537,148.01846047639847L226.55384615384614,148.623457467556L226.736,149.1885033786297L226.87261538461536,149.2223873436451L227.23692307692306,148.81452305316927L227.328,90.46153125762939L227.92000000000002,149.19452275037767L228.10215384615384,147.24463196396826L228.1476923076923,148.96704439520838L229.01292307692307,149.0746403336525L229.05846153846153,148.5073817849159L229.1950769230769,147.50898195505144L229.51384615384615,97.51552834510804L229.6049230769231,148.6626250267029L229.96923076923076,149.35506178736685L230.0603076923077,108.52858829498291L230.10584615384613,149.44139125943184L230.69784615384614,148.88061041831972L230.78892307692308,85.10924615859986L231.2443076923077,147.61512702703476L231.38092307692307,148.09228225946427L231.88184615384614,116.57679653167725L232.01846153846154,146.32838300466537L232.10953846153848,150.21149897575378L232.2006153846154,150.03717485070229L232.74707692307692,148.15285421013832L233.52123076923078,112.80208654403687L233.74892307692306,149.7844561934471L234.20430769230768,148.89792108535767L234.47753846153847,148.15483078360558L234.79630769230766,103.27701826095581L235.06953846153846,149.61863727569582L235.16061538461537,98.10931944847107L235.34276923076925,84.68777236938476L235.66153846153844,149.45204756855966L235.70707692307693,112.50421915054321L235.75261538461538,147.3406082391739L236.20800000000003,148.2657454133034L237.1643076923077,99.24554681777954L237.39200000000002,147.80142517685888L237.6196923076923,149.68211042881012L237.89292307692307,93.2763246536255L238.34830769230769,149.18053448796272L238.57600000000002,147.08924390077593L238.8492307692308,149.96652322411538L239.0313846153846,148.26295667290688L239.0769230769231,148.97243461608886L239.44123076923077,149.44401661157607L239.57784615384614,148.26724614500998L239.62338461538462,149.46539182662966L239.71446153846153,88.30814623832703L239.8510769230769,150.10828322172165L239.8966153846154,80.2486536026001L239.94215384615384,147.72524805665014L240.16984615384615,149.72395055294035L240.2609230769231,107.24069418907166L240.39753846153846,148.18063870072365L240.44307692307692,108.10798873901368L240.48861538461537,148.80381263494493L240.53415384615386,147.44111535549163L240.6252307692308,102.96488304138184L240.76184615384614,149.65572216510773L240.80738461538462,100.06675314903259L241.08061538461538,149.89452788829803L241.35384615384615,104.2546401977539L241.4449230769231,148.10812455415726L241.58153846153846,148.4373184621334L242.128,148.4298392057419L242.4923076923077,147.6977579832077L242.53784615384615,148.96772871613504L242.58338461538463,149.95682018995285L242.8566153846154,149.78941672444344L243.17538461538462,104.33946628570557L243.40307692307692,147.68029347658157L243.72184615384614,108.56145267486572L244.31384615384616,149.27316926121713L244.58707692307692,149.47952544093133L244.67815384615386,148.42166024446487L244.81476923076923,109.0371416568756L245.13353846153845,150.039197576046L245.4067692307692,149.87489371299742L245.5433846153846,101.81058959960937L245.63446153846155,147.6017912566662L245.67999999999998,149.89416822195054L246.54523076923076,148.20284995436668L246.95507692307692,149.03207132816314L247.50153846153844,150.29144887924193L247.63815384615387,149.07318893671035L247.7747692307692,147.86872363090515L248.36676923076922,149.06543436050416L248.73107692307693,150.3422366321087L249.09538461538463,148.21102679371833L249.1409230769231,149.36355001926424L249.27753846153846,149.2882959365845L249.3686153846154,95.0662832736969L249.41415384615385,149.4121208906174L250.0516923076923,150.35951016545297L250.416,149.68378568887712L251.09907692307692,149.52114912867546L251.41784615384617,149.18558732271194L251.69107692307693,149.3972599864006L251.8276923076923,149.3266720175743L251.87323076923076,148.81734043955802L252.14646153846152,148.05347012281416L252.73846153846154,149.15009706020354L252.82953846153845,106.63842387199402L252.87507692307693,147.932592523098L252.9206153846154,149.78845071792603L253.19384615384615,105.01978526115417L253.42153846153846,149.56856991648672L254.01353846153847,148.90216758847237L254.74215384615383,149.63079484701157L255.06092307692307,150.59631756544113L255.28861538461538,149.25082379579544L255.33415384615384,150.18982934355736L255.60738461538463,149.9155529856682L256.01723076923076,149.11314850449563L256.1538461538462,147.91309043765068L256.19938461538464,149.2615087509155L256.29046153846156,98.43785290718078L256.5636923076923,148.94687018990518L256.60923076923075,148.57423940896987L256.7003076923077,150.13489640951158L256.928,149.4517207920551L257.0646153846154,149.52729687690734L257.7476923076923,98.42527413368225L257.9753846153846,148.00825295448303L258.2486153846154,148.6572544336319L258.5673846153846,149.16359887123107L258.74953846153846,149.54925137758255L258.88615384615383,150.31492480039597L259.5692307692308,103.65639305114746L259.9335384615385,96.86481447219849L260.1156923076923,108.6629783153534L260.16123076923077,150.67677248716356L260.9809230769231,150.0925035238266L261.11753846153846,149.2102722108364L261.1630769230769,149.92068380117416L261.2541538461538,147.95895107984543L261.3452307692308,150.01144173145295L261.39076923076925,107.44698352813721L261.5729230769231,106.08579812049865L261.61846153846153,149.31458340883253L262.1193846153846,114.96057267189026L262.3926153846154,149.69893994927406L262.5747692307692,149.80318748950958L263.6221538461538,149.69019602537153L264.21415384615386,149.01101334095003L264.5784615384615,149.49037749767305L264.80615384615385,149.3353506922722L264.8516923076923,101.4766706943512L264.9427692307692,149.72329912185668L264.9883076923077,149.71528248786925L265.4436923076923,148.27527179718018L265.48923076923074,149.3828876554966L266.1723076923077,149.66970936656L266.30892307692307,93.7614562034607L266.80984615384614,148.66582117676737L266.8553846153846,99.24142179489135L266.94646153846156,148.40976048707964L266.992,149.51440724134446L267.44738461538464,148.14432247877122L267.7661538461538,94.21312923431397L267.9483076923077,109.95165753364563L268.13046153846153,108.33492441177368L268.5403076923077,149.24705313444136L268.76800000000003,149.24448878765108L268.8590769230769,106.37722334861755L268.95015384615385,149.35646544098856L269.36,148.6760897040367L269.5876923076923,101.64669208526611L269.81538461538463,149.5910861968994L270.45292307692307,150.49796314239504L270.4984615384615,94.63179359436035L270.5895384615385,149.4525032520294L270.8172307692308,149.82655094861983L271.22707692307694,98.58827619552612L271.5003076923077,149.62811167240145L272.09230769230766,149.5485272705555L272.5021538461539,109.09155206680298L272.5932307692308,149.74578940868378L272.7753846153846,149.8034728884697L272.82092307692307,147.23106808662416L273.0030769230769,150.50232369899751L273.2763076923077,148.1804917573929L273.5495384615384,148.75643905997276L273.77723076923075,107.75585522651673L273.86830769230767,149.31400730609894L273.9138461538461,150.00347124934197L274.0049230769231,148.12165925502777L274.50584615384616,100.07689595222473L274.688,112.44879446029663L275.09784615384615,148.32733747959136L275.28000000000003,148.79902238845827L275.46215384615385,150.70994825959204L275.68984615384613,149.54140555858612L275.7353846153846,150.36561547517775L275.91753846153847,149.9150272786617L276.23630769230766,148.00621378421783L276.464,150.0297565996647L276.5550769230769,148.19503384232522L276.6461538461538,150.09980825185775L276.69169230769234,100.86550526618957L277.10153846153844,150.3656626880169L277.1470769230769,148.52726846933365L277.1926153846154,149.62977950572966L277.46584615384614,149.63481059074402L277.73907692307694,149.80873950719834" style="fill: none;" fill="none"></path></g></g></g></g></g></g><g transform="translate(34, 178)" clip-path="url(#clip_1)"><clipPath id="clip_1"><rect width="296" height="22"></rect></clipPath><g><g><line x1="0" y1="0" x2="0" y2="5" style="visibility: inherit;" fill="rgb(0, 0, 0)" stroke="rgb(204, 204, 204)" stroke-width="1px"></line><line x1="22.76923076923077" y1="0" x2="22.76923076923077" y2="5" style="visibility: inherit;" fill="rgb(0, 0, 0)" stroke="rgb(204, 204, 204)" stroke-width="1px"></line><line x1="45.53846153846154" y1="0" x2="45.53846153846154" y2="5" style="visibility: inherit;" fill="rgb(0, 0, 0)" stroke="rgb(204, 204, 204)" stroke-width="1px"></line><line x1="68.3076923076923" y1="0" x2="68.3076923076923" y2="5" style="visibility: inherit;" fill="rgb(0, 0, 0)" stroke="rgb(204, 204, 204)" stroke-width="1px"></line><line x1="91.07692307692308" y1="0" x2="91.07692307692308" y2="5" style="visibility: inherit;" fill="rgb(0, 0, 0)" stroke="rgb(204, 204, 204)" stroke-width="1px"></line><line x1="113.84615384615385" y1="0" x2="113.84615384615385" y2="5" style="visibility: inherit;" fill="rgb(0, 0, 0)" stroke="rgb(204, 204, 204)" stroke-width="1px"></line><line x1="136.6153846153846" y1="0" x2="136.6153846153846" y2="5" style="visibility: inherit;" fill="rgb(0, 0, 0)" stroke="rgb(204, 204, 204)" stroke-width="1px"></line><line x1="159.3846153846154" y1="0" x2="159.3846153846154" y2="5" style="visibility: inherit;" fill="rgb(0, 0, 0)" stroke="rgb(204, 204, 204)" stroke-width="1px"></line><line x1="182.15384615384616" y1="0" x2="182.15384615384616" y2="5" style="visibility: inherit;" fill="rgb(0, 0, 0)" stroke="rgb(204, 204, 204)" stroke-width="1px"></line><line x1="204.9230769230769" y1="0" x2="204.9230769230769" y2="5" style="visibility: inherit;" fill="rgb(0, 0, 0)" stroke="rgb(204, 204, 204)" stroke-width="1px"></line><line x1="227.6923076923077" y1="0" x2="227.6923076923077" y2="5" style="visibility: inherit;" fill="rgb(0, 0, 0)" stroke="rgb(204, 204, 204)" stroke-width="1px"></line><line x1="250.46153846153845" y1="0" x2="250.46153846153845" y2="5" style="visibility: inherit;" fill="rgb(0, 0, 0)" stroke="rgb(204, 204, 204)" stroke-width="1px"></line><line x1="273.2307692307692" y1="0" x2="273.2307692307692" y2="5" style="visibility: inherit;" fill="rgb(0, 0, 0)" stroke="rgb(204, 204, 204)" stroke-width="1px"></line><line x1="296" y1="0" x2="296" y2="5" style="visibility: inherit;" fill="rgb(0, 0, 0)" stroke="rgb(204, 204, 204)" stroke-width="1px"></line></g><g transform="translate(0, 8)"><text x="0" y="0" dx="0em" dy="0.95em" style="text-anchor: middle; visibility: hidden; font-family: Roboto, sans-serif; font-size: 12px; font-weight: 200;" fill="rgb(50, 49, 63)" stroke="none" stroke-width="1px">-500</text><text x="22.76923076923077" y="0" dx="0em" dy="0.95em" style="text-anchor: middle; visibility: inherit; font-family: Roboto, sans-serif; font-size: 12px; font-weight: 200;" fill="rgb(50, 49, 63)" stroke="none" stroke-width="1px">0</text><text x="45.53846153846154" y="0" dx="0em" dy="0.95em" style="text-anchor: middle; visibility: hidden; font-family: Roboto, sans-serif; font-size: 12px; font-weight: 200;" fill="rgb(50, 49, 63)" stroke="none" stroke-width="1px">500</text><text x="68.3076923076923" y="0" dx="0em" dy="0.95em" style="text-anchor: middle; visibility: inherit; font-family: Roboto, sans-serif; font-size: 12px; font-weight: 200;" fill="rgb(50, 49, 63)" stroke="none" stroke-width="1px">1k</text><text x="91.07692307692308" y="0" dx="0em" dy="0.95em" style="text-anchor: middle; visibility: hidden; font-family: Roboto, sans-serif; font-size: 12px; font-weight: 200;" fill="rgb(50, 49, 63)" stroke="none" stroke-width="1px">1.5k</text><text x="113.84615384615385" y="0" dx="0em" dy="0.95em" style="text-anchor: middle; visibility: inherit; font-family: Roboto, sans-serif; font-size: 12px; font-weight: 200;" fill="rgb(50, 49, 63)" stroke="none" stroke-width="1px">2k</text><text x="136.6153846153846" y="0" dx="0em" dy="0.95em" style="text-anchor: middle; visibility: hidden; font-family: Roboto, sans-serif; font-size: 12px; font-weight: 200;" fill="rgb(50, 49, 63)" stroke="none" stroke-width="1px">2.5k</text><text x="159.3846153846154" y="0" dx="0em" dy="0.95em" style="text-anchor: middle; visibility: inherit; font-family: Roboto, sans-serif; font-size: 12px; font-weight: 200;" fill="rgb(50, 49, 63)" stroke="none" stroke-width="1px">3k</text><text x="182.15384615384616" y="0" dx="0em" dy="0.95em" style="text-anchor: middle; visibility: hidden; font-family: Roboto, sans-serif; font-size: 12px; font-weight: 200;" fill="rgb(50, 49, 63)" stroke="none" stroke-width="1px">3.5k</text><text x="204.9230769230769" y="0" dx="0em" dy="0.95em" style="text-anchor: middle; visibility: inherit; font-family: Roboto, sans-serif; font-size: 12px; font-weight: 200;" fill="rgb(50, 49, 63)" stroke="none" stroke-width="1px">4k</text><text x="227.6923076923077" y="0" dx="0em" dy="0.95em" style="text-anchor: middle; visibility: hidden; font-family: Roboto, sans-serif; font-size: 12px; font-weight: 200;" fill="rgb(50, 49, 63)" stroke="none" stroke-width="1px">4.5k</text><text x="250.46153846153845" y="0" dx="0em" dy="0.95em" style="text-anchor: middle; visibility: inherit; font-family: Roboto, sans-serif; font-size: 12px; font-weight: 200;" fill="rgb(50, 49, 63)" stroke="none" stroke-width="1px">5k</text><text x="273.2307692307692" y="0" dx="0em" dy="0.95em" style="text-anchor: middle; visibility: hidden; font-family: Roboto, sans-serif; font-size: 12px; font-weight: 200;" fill="rgb(50, 49, 63)" stroke="none" stroke-width="1px">5.5k</text><text x="296" y="0" dx="0em" dy="0.95em" style="text-anchor: middle; visibility: hidden; font-family: Roboto, sans-serif; font-size: 12px; font-weight: 200;" fill="rgb(50, 49, 63)" stroke="none" stroke-width="1px">6k</text></g><line x1="0" y1="0" x2="296" y2="0" fill="rgb(0, 0, 0)" stroke="rgb(204, 204, 204)" stroke-width="1px"></line></g></g></g></g></svg>