<svg viewBox="0 0 1117 400" xmlns="http://www.w3.org/2000/svg"><g><g><g><g><g><line x1="34" y1="378" x2="29" y2="378" style="visibility: inherit;" fill="rgb(0, 0, 0)" stroke="rgb(204, 204, 204)" stroke-width="1px"></line><line x1="34" y1="336" x2="29" y2="336" style="visibility: inherit;" fill="rgb(0, 0, 0)" stroke="rgb(204, 204, 204)" stroke-width="1px"></line><line x1="34" y1="294" x2="29" y2="294" style="visibility: inherit;" fill="rgb(0, 0, 0)" stroke="rgb(204, 204, 204)" stroke-width="1px"></line><line x1="34" y1="252.00000000000003" x2="29" y2="252.00000000000003" style="visibility: inherit;" fill="rgb(0, 0, 0)" stroke="rgb(204, 204, 204)" stroke-width="1px"></line><line x1="34" y1="210" x2="29" y2="210" style="visibility: inherit;" fill="rgb(0, 0, 0)" stroke="rgb(204, 204, 204)" stroke-width="1px"></line><line x1="34" y1="168" x2="29" y2="168" style="visibility: inherit;" fill="rgb(0, 0, 0)" stroke="rgb(204, 204, 204)" stroke-width="1px"></line><line x1="34" y1="126.00000000000001" x2="29" y2="126.00000000000001" style="visibility: inherit;" fill="rgb(0, 0, 0)" stroke="rgb(204, 204, 204)" stroke-width="1px"></line><line x1="34" y1="84" x2="29" y2="84" style="visibility: inherit;" fill="rgb(0, 0, 0)" stroke="rgb(204, 204, 204)" stroke-width="1px"></line><line x1="34" y1="42.00000000000002" x2="29" y2="42.00000000000002" style="visibility: inherit;" fill="rgb(0, 0, 0)" stroke="rgb(204, 204, 204)" stroke-width="1px"></line><line x1="34" y1="0" x2="29" y2="0" style="visibility: inherit;" fill="rgb(0, 0, 0)" stroke="rgb(204, 204, 204)" stroke-width="1px"></line></g><g transform="translate(24, 0)"><text x="0" y="378" dx="0em" dy="0.3em" style="text-anchor: end; visibility: hidden; font-family: Roboto, sans-serif; font-size: 12px; font-weight: 200;" fill="rgb(50, 49, 63)" stroke="none" stroke-width="1px">-2</text><text x="0" y="336" dx="0em" dy="0.3em" style="text-anchor: end; visibility: inherit; font-family: Roboto, sans-serif; font-size: 12px; font-weight: 200;" fill="rgb(50, 49, 63)" stroke="none" stroke-width="1px">0</text><text x="0" y="294" dx="0em" dy="0.3em" style="text-anchor: end; visibility: inherit; font-family: Roboto, sans-serif; font-size: 12px; font-weight: 200;" fill="rgb(50, 49, 63)" stroke="none" stroke-width="1px">2</text><text x="0" y="252.00000000000003" dx="0em" dy="0.3em" style="text-anchor: end; visibility: inherit; font-family: Roboto, sans-serif; font-size: 12px; font-weight: 200;" fill="rgb(50, 49, 63)" stroke="none" stroke-width="1px">4</text><text x="0" y="210" dx="0em" dy="0.3em" style="text-anchor: end; visibility: inherit; font-family: Roboto, sans-serif; font-size: 12px; font-weight: 200;" fill="rgb(50, 49, 63)" stroke="none" stroke-width="1px">6</text><text x="0" y="168" dx="0em" dy="0.3em" style="text-anchor: end; visibility: inherit; font-family: Roboto, sans-serif; font-size: 12px; font-weight: 200;" fill="rgb(50, 49, 63)" stroke="none" stroke-width="1px">8</text><text x="0" y="126.00000000000001" dx="0em" dy="0.3em" style="text-anchor: end; visibility: inherit; font-family: Roboto, sans-serif; font-size: 12px; font-weight: 200;" fill="rgb(50, 49, 63)" stroke="none" stroke-width="1px">10</text><text x="0" y="84" dx="0em" dy="0.3em" style="text-anchor: end; visibility: inherit; font-family: Roboto, sans-serif; font-size: 12px; font-weight: 200;" fill="rgb(50, 49, 63)" stroke="none" stroke-width="1px">12</text><text x="0" y="42.00000000000002" dx="0em" dy="0.3em" style="text-anchor: end; visibility: inherit; font-family: Roboto, sans-serif; font-size: 12px; font-weight: 200;" fill="rgb(50, 49, 63)" stroke="none" stroke-width="1px">14</text><text x="0" y="0" dx="0em" dy="0.3em" style="text-anchor: end; visibility: hidden; font-family: Roboto, sans-serif; font-size: 12px; font-weight: 200;" fill="rgb(50, 49, 63)" stroke="none" stroke-width="1px">16</text></g><line x1="34" y1="0" x2="34" y2="378" fill="rgb(0, 0, 0)" stroke="rgb(204, 204, 204)" stroke-width="1px"></line></g></g><g transform="translate(34, 0)" clip-path="url(#clip_0)"><clipPath id="clip_0"><rect width="1083" height="378"></rect></clipPath><g><g><g><line x1="0" y1="0" x2="0" y2="378" fill="rgb(0, 0, 0)" stroke="rgb(60, 60, 60)" stroke-width="1px" opacity="0.25"></line><line x1="83.3076923076923" y1="0" x2="83.3076923076923" y2="378" fill="rgb(0, 0, 0)" stroke="rgb(60, 60, 60)" stroke-width="1px" opacity="0.25"></line><line x1="166.6153846153846" y1="0" x2="166.6153846153846" y2="378" fill="rgb(0, 0, 0)" stroke="rgb(60, 60, 60)" stroke-width="1px" opacity="0.25"></line><line x1="249.92307692307693" y1="0" x2="249.92307692307693" y2="378" fill="rgb(0, 0, 0)" stroke="rgb(60, 60, 60)" stroke-width="1px" opacity="0.25"></line><line x1="333.2307692307692" y1="0" x2="333.2307692307692" y2="378" fill="rgb(0, 0, 0)" stroke="rgb(60, 60, 60)" stroke-width="1px" opacity="0.25"></line><line x1="416.53846153846155" y1="0" x2="416.53846153846155" y2="378" fill="rgb(0, 0, 0)" stroke="rgb(60, 60, 60)" stroke-width="1px" opacity="0.25"></line><line x1="499.84615384615387" y1="0" x2="499.84615384615387" y2="378" fill="rgb(0, 0, 0)" stroke="rgb(60, 60, 60)" stroke-width="1px" opacity="0.25"></line><line x1="583.1538461538461" y1="0" x2="583.1538461538461" y2="378" fill="rgb(0, 0, 0)" stroke="rgb(60, 60, 60)" stroke-width="1px" opacity="0.25"></line><line x1="666.4615384615385" y1="0" x2="666.4615384615385" y2="378" fill="rgb(0, 0, 0)" stroke="rgb(60, 60, 60)" stroke-width="1px" opacity="0.25"></line><line x1="749.7692307692307" y1="0" x2="749.7692307692307" y2="378" fill="rgb(0, 0, 0)" stroke="rgb(60, 60, 60)" stroke-width="1px" opacity="0.25"></line><line x1="833.0769230769231" y1="0" x2="833.0769230769231" y2="378" fill="rgb(0, 0, 0)" stroke="rgb(60, 60, 60)" stroke-width="1px" opacity="0.25"></line><line x1="916.3846153846154" y1="0" x2="916.3846153846154" y2="378" fill="rgb(0, 0, 0)" stroke="rgb(60, 60, 60)" stroke-width="1px" opacity="0.25"></line><line x1="999.6923076923077" y1="0" x2="999.6923076923077" y2="378" fill="rgb(0, 0, 0)" stroke="rgb(60, 60, 60)" stroke-width="1px" opacity="0.25"></line><line x1="1083" y1="0" x2="1083" y2="378" fill="rgb(0, 0, 0)" stroke="rgb(60, 60, 60)" stroke-width="1px" opacity="0.25"></line></g><g><line x1="0" y1="378" x2="1083" y2="378" fill="rgb(0, 0, 0)" stroke="rgb(60, 60, 60)" stroke-width="1px" opacity="0.25"></line><line x1="0" y1="336" x2="1083" y2="336" fill="rgb(0, 0, 0)" stroke="rgb(60, 60, 60)" stroke-width="1px" opacity="0.25"></line><line x1="0" y1="294" x2="1083" y2="294" fill="rgb(0, 0, 0)" stroke="rgb(60, 60, 60)" stroke-width="1px" opacity="0.25"></line><line x1="0" y1="252.00000000000003" x2="1083" y2="252.00000000000003" fill="rgb(0, 0, 0)" stroke="rgb(60, 60, 60)" stroke-width="1px" opacity="0.25"></line><line x1="0" y1="210" x2="1083" y2="210" fill="rgb(0, 0, 0)" stroke="rgb(60, 60, 60)" stroke-width="1px" opacity="0.25"></line><line x1="0" y1="168" x2="1083" y2="168" fill="rgb(0, 0, 0)" stroke="rgb(60, 60, 60)" stroke-width="1px" opacity="0.25"></line><line x1="0" y1="126.00000000000001" x2="1083" y2="126.00000000000001" fill="rgb(0, 0, 0)" stroke="rgb(60, 60, 60)" stroke-width="1px" opacity="0.25"></line><line x1="0" y1="84" x2="1083" y2="84" fill="rgb(0, 0, 0)" stroke="rgb(60, 60, 60)" stroke-width="1px" opacity="0.25"></line><line x1="0" y1="42.00000000000002" x2="1083" y2="42.00000000000002" fill="rgb(0, 0, 0)" stroke="rgb(60, 60, 60)" stroke-width="1px" opacity="0.25"></line><line x1="0" y1="0" x2="1083" y2="0" fill="rgb(0, 0, 0)" stroke="rgb(60, 60, 60)" stroke-width="1px" opacity="0.25"></line></g></g></g><g><g><line x1="0" y1="336" x2="1083" y2="336" fill="rgb(0, 0, 0)" stroke="rgb(153, 153, 153)" stroke-width="1.5px"></line></g></g><g><g><line x1="83.3076923076923" y1="0" x2="83.3076923076923" y2="378" fill="rgb(0, 0, 0)" stroke="rgb(153, 153, 153)" stroke-width="1.5px"></line></g></g><g><g><g><g><g><path stroke="rgb(255, 112, 67)" stroke-width="2px" d="M120.46292307692308,-30.622165580928257L121.46261538461539,25.191449410402925L122.2956923076923,16.518132489782005L124.79492307692308,15.204074051357747L125.79461538461538,43.845776177653356L126.6276923076923,0.8730995959223171L127.794,29.803031999375296L128.46046153846154,16.02845765770606L128.7936923076923,25.07479021340577L131.9593846153846,-21.60928392941899L132.79246153846154,19.776994817294163L132.95907692307694,11.591456287427123L133.79215384615384,65.94699032850379L134.62523076923077,32.56484031179642L134.95846153846153,50.540684507412834L136.29138461538463,64.28932159363409L136.458,62.78461972006265L138.29076923076923,71.07678074328214L139.7903076923077,61.12661158248556L141.1232307692308,108.98918144252133L143.78907692307692,118.11499324053932L144.45553846153845,131.61630887159325L146.1216923076923,147.87383233530207L153.45276923076923,130.39123970878745L153.6193846153846,141.2698233998615L154.9523076923077,141.82662067871098L156.45184615384616,138.52637020385697L156.7850769230769,143.51650495312512L156.95169230769233,146.7085983454104L157.45153846153846,140.32894089811518L158.45123076923076,121.90977374907388L159.95076923076925,78.1317941200493L160.4506153846154,126.92268685411003L160.61723076923076,57.36172673648916L162.28338461538462,98.3182903143545L165.11584615384615,137.83796172218211L165.44907692307692,144.0068530373376L168.6147692307692,71.45316348866233L168.948,111.60114003655673L169.44784615384614,114.37465039156297L170.78076923076924,147.30952572382935L171.78046153846154,166.57166247104075L172.1136923076923,163.23347142061272L172.61353846153844,91.53033401203564L173.61323076923077,134.5716656782174L174.4463076923077,167.4177428685394L176.11246153846153,174.12370041625303L177.11215384615386,162.55423581371667L178.11184615384616,153.08294241291262L178.7783076923077,149.87589993871438L179.77800000000002,163.84206485031353L180.11123076923076,180.51740626858654L180.61107692307692,38.431770970624584L180.9443076923077,102.56861267697926L181.1109230769231,148.51265350706646L181.94400000000002,103.03782815770664L182.1106153846154,150.10064660928464L183.61015384615382,165.47858540667187L184.94307692307692,182.75325918467698L185.77615384615385,205.22281980676567L186.60923076923075,136.60463304616877L186.94246153846154,153.29793989239852L188.94184615384617,111.97183034168908L190.10815384615384,146.32294691411988L190.27476923076924,166.10135214810575L190.60799999999998,104.49761091044545L191.10784615384617,155.1647923610866L191.4410769230769,181.3741214646256L193.44046153846153,192.74967543920016L193.9403076923077,138.46916065597617L194.6067692307692,-17.72217258224436L195.1066153846154,83.58203840011626L195.60646153846156,143.13030309530654L196.27292307692306,171.10628740222788L196.43953846153846,199.7281982912513L197.106,221.29250807844952L197.93907692307693,143.83597695400329L199.77184615384616,183.41252710562952L200.93815384615385,206.54225751246216L202.27107692307692,206.51716473391775L202.93753846153845,206.40077163392976L203.604,216.2304453946035L203.77061538461538,214.27637301068785L204.93692307692308,227.9506165157633L206.43646153846151,243.1106756192968L207.10292307692308,244.374529150875L207.7693846153846,233.99622589811776L208.43584615384614,243.70914148369485L208.60246153846154,120.3022320215646L209.26892307692307,68.13082193998952L210.76846153846154,137.05964512627398L211.43492307692307,182.30565287471458L211.60153846153847,194.5947185146847L211.76815384615387,215.10759347605932L212.1013846153846,214.3159412022128L212.268,209.95544835780225L213.2676923076923,126.21189663919309L213.93415384615386,111.77634757824245L214.10076923076923,154.4484120015353L214.434,170.18466514373125L215.26707692307693,86.10470777764499L215.4336923076923,134.79847644576182L215.6003076923077,177.22679170852155L216.26676923076923,200.78521404794006L216.93323076923076,210.04667393047302L217.7663076923077,233.4535778980177L217.9329230769231,167.63197111014853L218.09953846153846,193.45798401191428L221.93169230769232,108.04220068546888L222.59815384615385,92.95718457754111L222.93138461538462,153.3575682309607L223.76446153846155,177.3998396675193L227.76323076923077,210.46609913589978L228.09646153846154,216.03054277469172L228.92953846153847,235.38103203993708L229.2627692307692,160.6959165872435L229.92923076923077,122.32395597346428L230.26246153846154,167.29282977609518L231.59538461538463,199.1019654895584L232.59507692307693,119.0995528594089L233.26153846153846,77.57200512262777L234.42784615384613,155.04919186218137L234.76107692307693,171.72860607495042L235.76076923076923,197.42050142878375L236.094,220.16983921405128L236.59384615384616,127.48139724180963L237.0936923076923,178.80727363256136L238.4266153846154,199.8545029200764L238.5932307692308,109.56519656405757L239.09307692307692,162.46802476063908L240.25938461538462,194.43940917858802L240.75923076923078,216.52735972529248L242.25876923076922,234.72738347128387L242.92523076923078,238.19771052405451L243.42507692307694,225.16187582615146L243.5916923076923,239.16694198967892L245.09123076923078,238.54262086702516L245.25784615384615,150.73553307624533L245.92430769230768,112.17875194413587L246.25753846153845,164.95399875559283L246.42415384615387,205.67372657726932L247.09061538461538,226.9908030621453L247.25723076923074,109.42279833508991L247.75707692307694,149.77987414570723L247.9236923076923,105.45266035778566L249.25661538461537,87.92233931769871L249.92307692307693,51.19029171317782L250.25630769230767,133.84140118986352L250.58953846153847,113.34552217143762L250.75615384615384,171.21618419061892L252.2556923076923,201.6452548335242L252.75553846153846,211.41255096377415L254.08846153846153,229.87035515178135L254.42169230769233,235.7821217672163L256.08784615384616,241.14573332644304L257.2541538461538,164.715561944108L259.4201538461538,200.5744929777746L260.41984615384615,233.20725491447237L260.91969230769234,247.92461787940854L261.2529230769231,168.02668311167832L261.9193846153846,119.84210087042494L262.58584615384615,90.81178136576082L262.91907692307694,155.14706695025484L263.7521538461538,197.137052178057L263.9187692307692,158.18937699775213L265.4183076923077,196.2711763428469L266.418,217.9802839307081L267.08446153846154,236.0923588960225L267.25107692307694,172.01104735665646L268.9172307692308,210.84038829405978L269.75030769230773,240.7757469153397L272.0829230769231,240.16841560220675L272.41615384615386,255.51982043752645L275.7484615384616,258.2591767702673L275.9150769230769,173.17185890639868L276.58153846153846,136.58395678976208L276.74815384615385,198.40915035712135L276.91476923076925,225.4708632916654L279.9138461538462,145.09261433425215L281.9132307692308,139.17667074288528L282.0798461538462,194.34737045339108L283.07953846153845,232.7572522090159L283.4127692307692,250.04257478274596L284.2458461538462,257.36254628871495L288.57784615384617,174.10982628091938L288.9110769230769,216.22335216656185L290.57723076923077,159.63259948047912L292.41,211.50217760057996L292.90984615384616,234.01873419554087L293.4096923076923,244.6988864294949L295.5756923076923,251.06253950311324L296.742,258.2483624965762L297.74169230769235,271.62595565025896L298.908,270.27183555903963L299.90769230769234,186.9656823595937L301.5738461538462,218.0300890994415L302.4069230769231,243.81310427143248L302.5735384615385,144.30587861510557L303.0733846153846,201.22921255572106L304.07307692307694,232.72606532182374L304.4063076923077,249.90480518583104L304.9061538461538,257.06018457557946L305.40599999999995,263.3737541779648L305.9058461538462,187.29314670233555L306.07246153846154,222.73016544144522L309.07153846153847,251.37738716579184L311.57076923076926,259.03060176358645L314.07,273.640249457276L314.56984615384613,205.309411362598L314.7364615384615,232.18179435479024L315.06969230769226,247.4698792633258L315.23630769230766,162.4627121649291L318.9018461538461,208.55446865332758L319.7349230769231,231.98194915159127L320.23476923076925,247.71015261473403L320.9012307692308,255.68037356652107L321.2344615384615,141.55913051198294L321.9009230769231,139.49274835723858L322.56738461538464,122.30249525152577L323.2338461538461,109.15323444034419L327.39923076923077,171.00274541274166L327.56584615384617,215.11492468294773L329.39861538461537,243.45362220631404L330.73153846153843,256.81750308529354L330.89815384615383,266.1662779513348L331.39799999999997,275.58649725099497L331.73123076923076,273.86628853309213L331.89784615384616,211.2256504239324L333.39738461538457,239.09384972701568L334.5636923076923,184.7951251438266L337.0629230769231,230.55576418465415L337.2295384615384,155.67224520818016L337.7293846153846,210.46057902798427L340.8950769230769,245.3026978196226L341.7281538461539,262.15134554037587L341.89476923076927,193.9634303863593L342.228,228.3408210644572L343.39430769230773,251.34543273266848L344.5606153846154,196.9137007559341L344.72723076923074,229.12526846915495L346.22676923076926,252.57135143870119L346.89323076923074,263.44107622500667L347.22646153846154,194.25777851698638L347.89292307692307,135.1823778340688L349.3924615384616,194.3710430258197L350.5587692307692,130.7802742835094L350.7253846153846,194.31793492533026L351.5584615384616,227.25695339141643L352.8913846153846,253.8861057239673L354.39092307692306,260.1528695272148L354.55753846153846,190.68678320924883L355.224,136.22723143983154L356.0570769230769,187.6177342038647L356.55692307692306,129.22408977158645L356.89015384615385,187.64442595844136L357.39000000000004,229.50013852718274L357.8898461538462,169.55416331650494L358.5563076923077,134.90797024942447L359.8892307692308,128.2160109399379L361.22215384615384,92.75306618920686L361.8886153846154,111.30311344094112L362.3884615384615,179.2563949467363L362.5550769230769,149.26671958217753L363.55476923076924,206.65253949314197L365.05430769230765,243.66327638715413L365.72076923076924,262.36605388694943L365.88738461538463,176.8837734149333L366.05400000000003,223.12122207203126L366.38723076923077,247.49015210460794L366.8870769230769,256.27163013452986L368.05338461538463,262.94220590969746L369.5529230769231,272.2568959258844L371.2190769230769,187.8772275366097L371.8855384615385,168.6552267502373L372.2187692307692,218.88057363215833L372.71861538461536,243.64409773459283L373.55169230769235,261.06860271042734L374.0515384615385,268.2592249807486L374.2181538461538,276.278913456009L374.3847692307692,286.19154622424014L375.2178461538462,206.46015287797667L377.55046153846155,236.53385911799086L379.04999999999995,258.67785293112166L380.04969230769234,269.59099463373406L381.21599999999995,186.59555785506953L381.3826153846154,229.12593164831392L382.8821538461538,252.497746984899L384.04846153846154,260.7267903570771L386.04784615384614,272.8740863373542L387.2141538461538,205.22686497990273L387.54738461538466,244.0215806998252L388.21384615384613,263.601141931858L389.88,188.7254167570152L390.0466153846154,230.14703069767225L390.54646153846153,169.37947131777324L391.37953846153846,216.86526089659043L392.046,251.9667671069545L394.212,265.0979446139957L394.7118461538461,277.397252295436L395.71153846153845,286.10371840835904L395.87815384615385,208.03451879525954L396.04476923076925,239.5859708291577L401.7096923076923,264.58590785874645L402.7093846153846,269.11982712873055L403.8756923076923,229.41141120033404L404.8753846153846,253.3653170075234L405.54184615384617,267.7809892538915L405.8750769230769,196.25012088082607L406.2083076923077,240.00135555423722L407.208,156.84879764650717L407.70784615384616,213.5309250875381L408.0410769230769,244.82640913272303L408.5409230769231,203.74201170888188L409.04076923076923,239.28867826632646L409.5406153846154,262.56920419795506L411.0401538461538,278.14792176880354L411.3733846153846,279.9943097400541L413.3727692307693,287.06525564002243L413.5393846153846,286.89160795096905L413.706,295.0267183964512L416.0386153846154,296.43472953945763L416.7050769230769,301.23642752355556L417.3715384615385,297.139373718418L418.038,296.82221013231117L418.70446153846154,296.881763827342L419.0376923076923,301.1531974622835L419.3709230769231,296.43298941548045L420.70384615384614,292.21437824782953L421.0370769230769,298.15921562324297L421.5369230769231,295.6301717842241L422.0367692307692,297.8435731938255L422.53661538461535,223.9345382339222L422.86984615384614,249.87558709898371L423.36969230769233,269.64016034197084L426.5353846153846,193.1396282791571L428.5347692307692,161.0520898031876L428.7013846153846,212.9797185616306L428.868,247.77188236454796L429.2012307692308,165.46864089333815L429.3678461538462,221.95679402925848L429.7010769230769,254.8472143684523L430.03430769230766,267.01571597306116L430.7007692307692,270.0829630234729L431.3672307692308,282.9851171695525L432.20030769230766,285.11852429648246L432.53353846153846,183.77064155542854L433.6998461538462,230.83776811959746L434.1996923076923,261.31262457491397L435.03276923076925,276.08635661674407L435.6992307692308,285.83461574121037L436.53230769230765,219.64117700698208L436.86553846153845,252.54670047069925L437.0321538461538,269.72087029996715L439.53138461538464,280.38401358356L440.0312307692308,280.46902108806324L440.5310769230769,230.01171470056744L440.6976923076923,259.2820037863897L441.36415384615384,275.4509637750534L441.69738461538464,288.5807263134329L442.5304615384615,209.3899622010236L442.6970769230769,242.94844808858903L443.86338461538463,197.01979860474032L444.03,237.88433781152582L444.6964615384615,266.1451363020278L445.02969230769236,281.18352610189544L445.3629230769231,286.5050600428511L446.02938461538463,290.1940251385647L447.6955384615385,288.15942312452063L448.0287692307692,296.49983268483203L448.36199999999997,300.2214779705031L448.52861538461536,226.4741583734884L449.19507692307695,177.99209695280396L449.6949230769231,227.82574756873134L451.02784615384616,259.4819484229832L451.6943076923077,277.14807446455654L454.0269230769231,289.8805525759202L454.6933846153846,291.331889132222L455.0266153846154,292.2947599289182L455.8596923076923,224.06229068025132L456.0263076923077,253.33763080349075L456.3595384615384,275.872641882363L456.6927692307692,283.2827379709858L456.85938461538467,291.01766996421685L457.1926153846154,209.46178682350083L457.52584615384615,243.98280520262097L457.69246153846154,268.83304364098177L458.8587692307692,280.3110270417515L459.3586153846154,289.3136395404806L460.1916923076923,290.38165792167604L463.3573846153846,297.14365444386254L465.02353846153846,297.2173840153471L466.02323076923074,296.42442135502426L466.5230769230769,220.25990641408876L467.0229230769231,254.81757238086297L467.52276923076926,272.97917248354094L467.6893846153846,287.3322837444886L467.856,221.80573468761116L469.52215384615386,250.23136370990554L469.68876923076925,274.36390911110567L469.8553846153846,235.9246423874398L470.1886153846154,258.9963425537407L472.188,275.87432464006304L472.3546153846154,285.988485765712L472.6878461538461,295.3438650800327L474.02076923076925,295.8711411496126L475.5203076923077,299.9257806027009L478.35276923076924,300.020956032519L480.6853846153846,302.8466740566757L481.35184615384617,303.3461389135281L481.51846153846157,303.3524359459257L481.8516923076923,219.7848254438982L483.1846153846154,193.42303569297465L483.51784615384616,238.50863146293443L484.1843076923077,265.36548514073064L485.85046153846156,200.27205445113756L487.1833846153846,170.8909731491982L487.35,225.71142715123767L489.1827692307692,197.7829670542924L490.5156923076923,148.5007487079172L491.5153846153846,207.20433158520873L491.682,246.5568158319236L492.01523076923075,267.2620329195643L492.3484615384615,280.4351883491506L493.1815384615385,203.87986682418773L496.34723076923075,245.06020645239226L497.3469230769231,268.832476925482L497.5135384615385,279.3489206741033L499.17969230769233,224.98415556608305L499.5129230769231,258.83001431857747L500.1793846153846,276.0776087345791L500.346,287.13324431789584L502.1787692307692,294.60590689309043L502.67861538461534,297.7731121595359L503.67830769230767,294.80683728549815L504.5113846153846,228.24685604866707L504.8446153846154,257.6521913498423L505.1778461538462,223.63120204745422L505.5110769230769,254.65506309591945L507.0106153846154,277.8107617039872L507.6770769230769,289.809977968895L508.34353846153846,296.1201155426285L508.67676923076925,301.1067192221988L509.1766153846154,219.57875931652242L510.6761538461538,251.3814543508998L510.84276923076925,272.69844997069305L512.5089230769231,198.91149323070684L512.8421538461538,242.38982558777712L514.8415384615384,266.68318147975674L515.0081538461538,283.14914114188235L515.1747692307692,218.87487820929937L515.8412307692308,159.78377854911477L516.5076923076923,131.24954416804303L517.5073846153846,199.14760295422548L517.674,242.06441697997855L520.3398461538461,265.0156215758503L520.8396923076923,281.38008994647146L521.3395384615385,290.0219059156673L521.5061538461538,295.8980537037431L522.839076923077,297.4225293505417L523.8387692307692,204.9105023210184L524.8384615384615,240.7059318819604L525.6715384615385,269.38182734244833L528.8372307692308,281.0772278236971L529.5036923076923,291.07322487399733L529.8369230769231,217.26380758980366L530.67,252.2914671748844L531.503076923077,274.1479149252157L533.669076923077,287.2368928188074L534.3355384615385,293.4374209638827L534.8353846153846,295.2793634174104L537.3346153846154,299.0709852360389L539.1673846153845,240.668280838889L539.334,265.4779449456704L539.8338461538461,192.3178193660839L540.8335384615384,238.16508808685919L541.9998461538462,261.2029174265479L542.1664615384615,277.6463412342796L542.3330769230769,291.6927528797584L542.4996923076923,222.80020067805037L542.6663076923077,250.47734969683876L544.1658461538462,270.0163233866L547.998,282.05478190122267L548.1646153846154,291.7344686432971L548.3312307692308,295.06193987395125L549.4975384615385,300.01277928272344L551.3303076923077,297.7759958548513L551.6635384615386,303.5007617737751L553.6629230769231,308.0009761491955L553.8295384615385,251.76966451642156L554.3293846153846,274.7801343383625L554.6626153846154,284.98275197638475L554.8292307692308,291.9657528227175L555.1624615384615,236.88891748342542L558.3281538461538,264.00893699975984L559.1612307692308,203.40917994887934L559.661076923077,240.01766768879475L560.1609230769232,265.0664363848376L561.6604615384615,283.0158829299931L561.8270769230769,197.9914297824099L563.16,152.3234169819948L563.3266153846155,214.86390583151558L564.3263076923078,252.40213504096258L564.8261538461538,277.2540921608233L565.8258461538461,219.8939637803807L566.1590769230769,251.56734865091883L566.4923076923077,166.218441111938L569.3247692307692,225.2282187122678L569.658,259.9576148497209L569.8246153846154,228.08018986625345L569.9912307692307,256.5268100276164L571.8240000000001,206.45687733737063L573.4901538461538,246.1462356725182L574.8230769230769,270.87176540367875L577.6555384615384,288.52081620021505L578.8218461538461,295.0382632930508L578.9884615384615,302.53002746817054L579.4883076923078,304.24214577625145L582.1541538461538,304.0417287823555L582.8206153846154,304.9940481947063L583.6536923076924,303.3068507651209L583.9869230769231,305.3316692435574L584.3201538461539,306.3874445392985L584.6533846153847,310.1730195781171L584.9866153846154,310.1935050070631L585.6530769230769,308.95803606393025L585.8196923076923,225.56060120989136L586.3195384615384,257.9056350083903L587.3192307692307,276.24556110452147L587.6524615384616,284.9142817387016L588.1523076923078,292.9190702753682L589.4852307692307,298.8740398596179L589.8184615384615,231.29617951574633L589.9850769230769,263.96718048013867L590.1516923076923,279.4514017519809L591.4846153846154,289.3563938389693L593.9838461538461,300.2658986240908L594.3170769230769,304.58930063189774L594.6503076923077,304.53291635478564L594.9835384615384,305.52646511057037L596.8163076923078,308.0335199431122L597.4827692307692,307.20135323974733L599.6487692307693,307.6052901790932L600.3152307692308,311.12898845949144L603.4809230769231,307.87429916547757L605.9801538461538,306.6721075754584L606.1467692307692,309.23333737738255L607.1464615384615,235.85178678922256L607.313076923077,262.7955979924941L607.6463076923077,284.036883379313L608.1461538461539,293.52915660458365L608.9792307692308,299.6795035834167L609.6456923076923,305.6824452778729L609.978923076923,307.371060699286L612.6447692307693,310.309203583039L614.4775384615384,241.82957808854408L615.6438461538462,264.7462610285415L615.8104615384616,215.49483684783777L616.9767692307693,255.7830539231634L617.4766153846153,277.1288074782572L621.4753846153847,290.05490351504574L621.9752307692307,300.2277873562961L623.1415384615385,221.0482122544759L623.6413846153847,255.32846529747923L623.808,230.00951547304322L624.1412307692308,261.97548991965965L624.3078461538462,283.5550849588377L625.4741538461539,292.7890989393987L627.6401538461539,299.4194044358133L628.4732307692308,243.08833890477408L629.9727692307692,271.2603195507502L630.3059999999999,283.6197297095761L630.6392307692307,294.29476615902814L631.8055384615385,240.88339160154482L633.9715384615384,266.5199715511216L634.3047692307692,279.66726991034824L635.3044615384616,288.69025366602705L636.6373846153846,298.7908601349495L637.637076923077,306.2984687558354L637.8036923076922,240.29013700911645L638.6367692307692,266.6381407954052L639.4698461538462,286.77798778878184L640.6361538461539,298.8601160709055L641.9690769230768,302.5857427992816L642.6355384615384,305.4470997857091L643.302,305.0224607591055L645.468,307.15616058136357L645.8012307692308,240.08815626397924L646.1344615384616,265.5894624954176L646.6343076923076,284.2451240876741L647.4673846153846,292.8219454681532L650.2998461538461,301.07873399231767L651.1329230769231,223.94979090198242L654.132,257.3470049542449L654.7984615384615,278.199855032102L655.2983076923077,292.64221741112215L656.1313846153846,297.91926856846896L657.2976923076923,301.13620202548077L657.9641538461539,306.23061442856056L658.2973846153845,305.15157509138623L659.2970769230769,310.01263203794025L659.4636923076923,307.74302767857466L660.4633846153846,212.85106830087042L661.6296923076923,253.76327836684428L662.6293846153845,278.77730884654545L663.1292307692308,177.71090206207768L664.1289230769231,230.69563756407462L665.9616923076923,262.84627782119014L666.294923076923,282.88931772001206L667.9610769230769,293.7063493066288L668.4609230769231,208.50664726097924L668.7941538461539,246.411534495351L669.6272307692308,270.79816400241685L672.2930769230769,287.9752693845739L672.6263076923077,294.14551738941134L673.4593846153846,300.59459755446585L673.626,305.6576273776655L674.2924615384615,306.89013292417314L674.6256923076922,309.1030795218074L675.792,223.26436312446137L676.9583076923077,255.2665735688754L678.9576923076924,276.6010057334273L679.7907692307692,231.24943553234152L681.7901538461538,194.6131748844684L681.9567692307692,238.65670736369492L682.9564615384616,268.82019944034226L683.123076923077,221.7384323778284L685.4556923076923,256.6723202528079L686.1221538461538,281.0121241844606L686.4553846153846,240.17513015490243L686.7886153846155,268.4257946647493L687.2884615384615,287.91945151312876L687.7883076923077,224.99126975431284L689.2878461538461,258.7243857901945L690.2875384615385,275.8059841943773L690.6207692307692,292.5697024913426L692.4535384615385,196.3995805890438L692.6201538461538,243.74472748703226L693.6198461538461,273.5341117827085L694.7861538461538,287.74606793212814L698.7849230769232,298.2055732315059L699.7846153846154,244.3089632931516L700.1178461538461,270.49996075291426L703.6167692307693,288.2865141943633L704.1166153846154,296.912148089143L704.7830769230769,305.8555475776985L704.9496923076923,306.3267789784428L705.1163076923077,244.83055377622583L706.116,269.9020267046698L706.6158461538461,285.6502290080314L706.949076923077,295.53055545749214L708.4486153846154,207.6332701031086L709.6149230769231,251.77919695280295L710.448,171.4154578536886L711.7809230769232,154.4636336141907L712.4473846153846,164.63814759099978L713.1138461538461,143.96550879385768L715.2798461538462,213.74285851422968L715.613076923077,254.69901386799825L716.112923076923,278.4401519769574L718.1123076923077,293.287644366869L718.7787692307693,300.3354173066906L719.6118461538462,307.15932221190286L719.945076923077,305.4377471624383L721.6112307692307,311.2032240878683L721.9444615384615,312.66224950856815L722.2776923076923,314.4305181402376L724.4436923076923,239.86423587193553L727.1095384615385,180.89982318514862L727.9426153846154,236.46159860869813L729.108923076923,214.05158170092443L733.2743076923077,254.19045786874497L733.440923076923,278.17811983118656L733.6075384615384,292.5126983242643L734.7738461538462,301.44359616741013L736.44,247.48316705408376L737.772923076923,188.32300951589752L738.7726153846154,238.77039772575858L738.9392307692308,270.27235304299455L739.6056923076924,287.1868784605471L741.4384615384615,297.2698655712013L742.4381538461538,230.27331308051376L743.4378461538462,262.00473849489947L743.9376923076924,281.70677914926205L746.436923076923,222.73599909966467L747.1033846153847,175.7944787932949L748.2696923076924,232.64352673253515L748.9361538461538,264.9102123854226L749.7692307692307,207.2749184773961L750.6023076923076,249.02395443955658L751.2687692307693,276.7463395645595L751.4353846153847,294.03728685679295L753.2681538461538,300.89101229847824L753.4347692307692,306.515842930921L755.2675384615385,308.29535866764076L755.6007692307693,307.01573067299654L755.7673846153847,247.47926834459383L756.9336923076922,276.13052918455173L757.266923076923,287.59856959546306L757.4335384615384,298.49122665145813L757.6001538461538,306.36753915440335L757.7667692307692,229.00341610128459L758.7664615384616,261.6299123049663L762.4319999999999,217.68089614396612L765.2644615384615,258.5544537191708L766.0975384615384,280.4688379457664L766.2641538461538,296.1201656157417L766.5973846153846,299.5403319057609L767.9303076923077,306.3834927711955L769.9296923076922,311.4517624517722L777.5939999999999,315.23326307180184L779.9266153846154,315.36214517141974L780.0932307692308,315.42169932476037L781.9259999999999,314.92461221189114L782.0926153846153,315.3943975494552L782.4258461538462,240.5255961254983L782.7590769230769,270.93595632527763L783.2589230769231,287.347617439118L783.4255384615385,299.5953369448703L783.7587692307693,246.22718812883625L787.5909230769231,274.9777369848533L788.424,232.50852672765518L788.9238461538462,263.3211962253443L789.4236923076922,283.98902873221584L790.2567692307691,297.57257039561L792.0895384615385,304.90435857304414L793.5890769230768,310.59712597565937L794.088923076923,311.41870534918957L794.2555384615384,314.56403911413105L795.7550769230769,236.3706378239474L796.7547692307692,265.66947694409373L799.4206153846154,283.3658952461987L800.4203076923077,244.09374788685494L801.0867692307692,183.59270884563838L801.5866153846154,238.21264902335594L802.5863076923077,270.93413867701406L802.9195384615385,290.20150073855706L804.4190769230769,231.00442934328072L805.0855384615385,195.16562376197427L806.0852307692307,241.0597781764045L806.9183076923077,270.7190086619005L807.918,288.80361798858314L809.4175384615385,299.95506136092945L810.5838461538463,305.6476224927509L811.2503076923077,307.9388193528893L812.7498461538462,310.1659895563747L815.2490769230769,312.70963706878575L816.4153846153846,239.1433538812861L816.9152307692308,267.92574631085785L817.2484615384615,287.3006136352467L817.4150769230769,298.84213142005484L818.0815384615385,303.16299550776415L818.2481538461537,308.8610706868454L820.4141538461538,234.97810481445097L821.4138461538461,266.1582641509539L821.5804615384615,287.6832269613365L821.9136923076923,296.602472673918L822.9133846153846,305.10945296947074L823.4132307692308,306.83541312613437L824.4129230769231,248.61069497345892L825.0793846153846,213.32590947675112L826.2456923076924,252.54807263688687L827.9118461538461,276.4077932243135L828.9115384615384,292.08885008124037L829.578,303.6000687004776L830.077846153846,309.64092858562776L831.4107692307692,311.7031697745914L831.744,253.43198258374892L833.91,278.8746845167563L834.5764615384616,292.3740873480848L834.743076923077,301.03694687753983L837.9087692307692,307.03218869251054L838.0753846153846,311.34978234697604L838.5752307692308,313.01443033176196L839.7415384615384,236.93315237019976L840.0747692307692,267.2203362062843L841.4076923076923,286.70208836050455L841.7409230769231,192.3193090465762L841.9075384615384,242.8288956944405L844.0735384615384,271.23744771863574L844.4067692307692,200.63914374104473L846.0729230769232,244.89754101986486L846.5727692307693,272.03354929301025L848.4055384615384,210.71136874206593L848.9053846153846,249.08883229641754L849.2386153846154,277.63198559134383L849.5718461538461,294.7912743607115L851.5712307692307,302.33283165210196L854.4036923076924,250.82061497636857L855.2367692307693,279.35775900046957L856.902923076923,293.83541078663427L857.9026153846154,301.4086759763751L859.068923076923,253.25639294849597L860.0686153846153,278.68121323148466L860.4018461538461,223.63965101933513L861.0683076923077,184.67936022219678L862.2346153846154,238.66469518624322L862.4012307692308,187.2248608129178L862.5678461538462,237.94126862626996L864.234,269.4973972698553L867.732923076923,202.96081400278234L868.566,246.0919888994874L869.3990769230769,274.3147528279889L870.3987692307693,228.26306205445937L872.064923076923,263.0972372856999L872.898,282.45553790135773L873.8976923076924,298.276472345612L874.5641538461539,304.44323059059474L874.7307692307693,309.69909951768693L876.0636923076923,312.92904852439386L876.5635384615384,312.83970550661934L876.7301538461538,315.3471604822019L877.0633846153846,253.25739907252424L877.5632307692307,280.41435455696364L877.7298461538461,202.60309996257172L877.8964615384615,246.05673874646394L878.7295384615385,274.0949688507913L879.0627692307693,216.90123370610462L879.5626153846154,256.13615800930734L879.7292307692308,193.87606202360197L879.8958461538462,243.81476926086071L880.0624615384615,271.53810338543485L880.3956923076923,239.31405103425166L880.8955384615384,271.2633801711797L881.0621538461538,206.33355681974876L882.0618461538462,252.63329940366265L883.0615384615385,213.59062989549352L883.3947692307693,252.83049850461788L883.8946153846153,277.00540340422333L885.8939999999999,291.3288151531145L887.2269230769231,299.56555162124187L887.3935384615385,305.82219985873905L887.5601538461539,311.84233763069756L888.5598461538461,314.8535684242895L889.7261538461538,252.43345605701512L890.5592307692308,276.9872063360828L891.7255384615385,213.80452701820246L893.8915384615385,255.07103482111282L894.8912307692308,281.7563612414836L895.2244615384616,294.39313473423954L895.7243076923077,241.80583170724296L896.8906153846153,273.6093605737232L897.8903076923076,292.0128715741839L898.3901538461539,230.76761674333844L898.7233846153847,263.9161857572152L898.89,287.4742018584582L902.0556923076923,297.38691955829694L903.5552307692308,305.13626564756055L905.5546153846153,311.91107648143185L906.0544615384616,313.5027608485759L906.5543076923077,311.2545833356226L908.7203076923076,312.28803776306177L910.0532307692308,316.28556238771836L911.3861538461539,314.7821649262986L911.5527692307693,316.76496283708104L912.0526153846154,317.0981209784632L912.3858461538462,250.16868169962675L912.5524615384616,277.0246333590705L914.8850769230769,294.87727987239117L916.218,304.90221054237696L918.7172307692308,309.3810396604634L919.8835384615385,312.7911924608288L920.8832307692307,315.68027039097177L921.3830769230768,316.4413063748266L921.5496923076922,315.919907583212L922.5493846153846,316.0711556991429L924.7153846153846,315.9675980520541L925.0486153846153,244.51627813054887L925.2152307692307,270.04652000828844L925.3818461538461,289.18627096035635L926.3815384615385,248.1643817473564L927.2146153846154,276.3850724487968L929.3806153846153,292.86102231678177L932.0464615384615,303.4557780285884L933.2127692307691,310.8587592041617L934.0458461538462,312.79547755695137L934.2124615384615,316.2727454708621L935.2121538461539,318.06731549540785L936.7116923076923,316.403643987415L937.2115384615385,315.93265758862367L937.3781538461539,316.12637321299474L937.7113846153845,232.33135295001364L938.7110769230769,266.4266882663232L938.8776923076923,286.93684377224815L939.2109230769231,301.19967178077445L940.044,308.1097350810226L940.5438461538462,311.89150354231936L943.0430769230769,259.41509984115083L943.8761538461538,278.829437960263L944.8758461538462,293.9818541700101L946.0421538461538,301.8284070786509L946.7086153846154,307.740971535246L947.2084615384615,313.25503318893936L949.7076923076924,255.66847897403258L951.0406153846154,215.10637951393613L951.7070769230769,163.6875841170531L951.8736923076923,227.15580107867603L954.8727692307692,265.46216198265483L955.3726153846154,284.75712373530826L955.5392307692308,299.11415807411646L955.8724615384615,305.5735663414334L956.2056923076923,310.6996185922822L956.3723076923077,230.03367191220528L957.0387692307692,212.7910266260219L957.2053846153846,255.03864585995154L959.0381538461538,225.2684818961589L960.0378461538461,263.0262156044464L960.7043076923077,285.9636538574112L964.5364615384615,299.18394001418426L966.7024615384615,306.9071357971077L968.0353846153846,311.72252387557296L968.8684615384615,313.9809276983372L969.0350769230769,224.8525687649984L969.3683076923077,262.90000148982637L969.5349230769232,286.926671626394L971.2010769230769,297.5396090282351L971.3676923076923,305.0536855896324L973.8669230769232,310.6258841776854L974.3667692307693,222.5371165051464L976.1995384615384,260.8919264182093L976.3661538461538,207.74791410593048L976.6993846153846,250.20234004871756L976.866,278.35076646933976L978.5321538461538,293.8084826524855L979.6984615384615,239.57010012005574L980.3649230769231,205.81252744874246L981.0313846153846,169.72699400830794L982.5309230769232,229.84718869357425L983.364,263.7171038998909L983.6972307692307,214.98411136947553L984.0304615384615,255.83618778039502L985.5300000000001,280.88060621052676L986.363076923077,213.69864723461683L987.1961538461538,255.67648721562514L989.5287692307693,282.53832149998357L989.6953846153847,224.83040027914055L990.0286153846155,261.6079226320839L990.8616923076924,285.3204859009896L992.3612307692307,252.08392400214157L993.360923076923,278.16208988826924L995.526923076923,295.31826528550056L997.0264615384615,231.49279480362458L997.3596923076924,267.00835307350474L998.0261538461539,288.54489917701903L998.1927692307693,296.9961417385723L998.8592307692307,307.3405824106208L999.858923076923,308.1828686953349L1000.8586153846153,311.87079561714904L1001.6916923076924,256.4651993093764L1002.0249230769231,279.8234621034786L1002.1915384615385,296.51384166161563L1002.5247692307693,304.35728189516277L1004.3575384615384,229.95897744398238L1005.024,181.69844325960233L1006.5235384615385,236.18897657740445L1007.19,268.00296316831304L1007.8564615384615,289.92142673903106L1008.6895384615384,300.7353081975782L1008.8561538461538,309.42716547694226L1009.5226153846154,314.11402893570914L1010.6889230769231,314.51031668488895L1011.522,317.29820027056167L1011.8552307692307,316.85199674429197L1012.1884615384615,317.6639418629509L1012.3550769230769,237.4718064324678L1013.8546153846154,271.86637324432263L1014.0212307692308,288.89674240553217L1014.1878461538462,301.8322911155452L1015.1875384615385,308.6932087118763L1016.1872307692307,314.55349961372247" style="fill: none;" fill="none"></path></g></g></g></g><g opacity="0.2"><g><g><g><path stroke="rgb(255, 112, 67)" stroke-width="2px" d="M112.96523076923077,-85.74388504028322L113.7983076923077,30.729515075683594L114.13153846153845,-42.85067367553712L118.63015384615385,-141.12699508666992L120.46292307692308,47.16115951538084L121.46261538461539,108.91186523437499L122.2956923076923,3.508157730102525L124.79492307692308,13.23298645019533L125.79461538461538,86.80832862854005L126.6276923076923,-63.585914611816406L127.794,73.19793033599855L128.46046153846154,-4.633403778076135L128.7936923076923,38.64428901672362L131.9593846153846,-91.63539505004881L132.79246153846154,81.85641288757323L132.95907692307694,-0.6868515014648158L133.79215384615384,147.48029136657715L134.62523076923077,-17.50838470458986L134.95846153846153,77.50445079803465L136.29138461538463,84.91227722167967L136.458,60.527566909790046L138.29076923076923,83.51502227783202L139.7903076923077,46.20135784149168L141.1232307692308,180.7830362319946L143.78907692307692,131.8037109375L144.45553846153845,151.86828231811523L146.1216923076923,172.26011753082275L153.45276923076923,104.16735076904298L153.6193846153846,157.58769893646243L154.9523076923077,142.66181659698486L156.45184615384616,133.57599449157715L156.7850769230769,151.00170707702637L156.95169230769233,151.49673843383786L157.45153846153846,130.75945472717285L158.45123076923076,94.28102302551268L159.95076923076925,12.464824676513654L160.4506153846154,200.10902595520017L160.61723076923076,-46.97971343994141L162.28338461538462,159.75313568115234L165.11584615384615,197.11746883392337L165.44907692307692,153.2601900100708L168.6147692307692,-37.37737083435059L168.948,171.82310485839844L169.44784615384614,118.53491592407227L170.78076923076924,196.711838722229L171.78046153846154,195.4648675918579L172.1136923076923,158.2261848449707L172.61353846153844,-16.024372100830067L173.61323076923077,199.13366317749023L174.4463076923077,216.68685865402222L176.11246153846153,184.1826367378235L177.11215384615386,145.20003890991214L178.11184615384616,138.87600231170654L178.7783076923077,145.065336227417L179.77800000000002,184.79131221771237L180.11123076923076,205.53041839599607L180.61107692307692,-174.6966819763184L180.9443076923077,198.7738752365112L181.1109230769231,217.42871475219724L181.94400000000002,34.82559013366697L182.1106153846154,220.69487428665164L183.61015384615382,188.5454936027527L184.94307692307692,208.6652698516846L185.77615384615385,238.92716073989868L186.60923076923075,33.67735290527345L186.94246153846154,178.33790016174316L188.94184615384617,49.98266601562502L190.10815384615384,197.84962177276614L190.27476923076924,195.7689599990845L190.60799999999998,12.091999053955092L191.10784615384617,231.16556453704834L191.4410769230769,220.6881151199341L193.44046153846153,209.813006401062L193.9403076923077,57.04838848114015L194.6067692307692,-252.00917243957517L195.1066153846154,235.53835487365723L195.60646153846156,232.45270013809204L196.27292307692306,213.0702638626099L196.43953846153846,242.66106462478638L197.106,253.63897275924685L197.93907692307693,27.65118026733397L199.77184615384616,242.77735233306888L200.93815384615385,241.23685312271115L202.27107692307692,206.47952556610107L202.93753846153845,206.22618198394775L203.604,230.974956035614L203.77061538461538,211.34526443481445L204.93692307692308,248.4619817733765L206.43646153846151,265.85076427459717L207.10292307692308,246.27030944824222L207.7693846153846,218.42877101898193L208.43584615384614,258.27851486206055L208.60246153846154,-64.80813217163087L209.26892307692307,-10.126293182373065L210.76846153846154,240.45287990570066L211.43492307692307,250.17466449737552L211.60153846153847,213.02831697463986L211.76815384615387,245.87690591812134L212.1013846153846,213.12846279144287L212.268,203.4147090911865L213.2676923076923,0.5965690612792922L213.93415384615386,90.12302398681642L214.10076923076923,218.45650863647464L214.434,193.78904485702515L215.26707692307693,-40.0152282714844L215.4336923076923,207.83912944793704L215.6003076923077,240.86926460266113L216.26676923076923,236.12284755706787L216.93323076923076,223.93886375427246L217.7663076923077,268.5639338493347L217.9329230769231,68.89956092834473L218.09953846153846,232.19700336456302L221.93169230769232,-20.08147430419923L222.59815384615385,70.32966041564943L222.93138461538462,243.9581437110901L223.76446153846155,213.46324682235715L227.76323076923077,260.06548833847046L228.09646153846154,224.37720823287964L228.92953846153847,264.4067659378052L229.2627692307692,48.66824340820313L229.92923076923077,64.76601505279541L230.26246153846154,234.7461404800415L231.59538461538463,246.81566905975342L232.59507692307693,-0.904066085815467L233.26153846153846,15.280683517456046L234.42784615384613,271.26497197151184L234.76107692307693,196.747727394104L235.76076923076923,235.95834445953372L236.094,254.29384589195254L236.59384615384616,-11.551265716552706L237.0936923076923,255.79608821868894L238.4266153846154,231.42534685134888L238.5932307692308,-25.868762969970714L239.09307692307692,241.82226705551147L240.25938461538462,242.3964858055115L240.75923076923078,249.65928554534912L242.25876923076922,262.027419090271L242.92523076923078,243.40320110321042L243.42507692307694,205.60812377929688L243.5916923076923,260.1745412349701L245.09123076923078,237.60613918304446L245.25784615384615,19.024901390075673L245.92430769230768,54.343580245971665L246.25753846153845,244.11686897277832L246.42415384615387,266.75331830978394L247.09061538461538,258.96641778945923L247.25723076923074,-66.92920875549314L247.75707692307694,210.3154878616333L247.9236923076923,38.9618396759033L249.25661538461537,61.62685775756834L249.92307692307693,-3.907779693603525L250.25630769230767,257.81806540489197L250.58953846153847,82.60170364379883L250.75615384615384,258.02217721939087L252.2556923076923,247.2888607978821L252.75553846153846,226.06349515914917L254.08846153846153,257.5570614337921L254.42169230769233,244.64977169036862L256.08784615384616,249.1911506652832L257.2541538461538,50.07030487060545L259.4201538461538,254.36288952827454L260.41984615384615,282.15639781951904L260.91969230769234,270.00066232681274L261.2529230769231,48.179780960083015L261.9193846153846,47.56522750854494L262.58584615384615,47.266302108764656L262.91907692307694,251.64999532699585L263.7521538461538,260.12203001976013L263.9187692307692,99.76786422729492L265.4183076923077,253.39387536048892L266.418,250.54394531249997L267.08446153846154,263.26047134399414L267.25107692307694,75.88908004760742L268.9172307692308,269.0843997001648L269.75030769230773,285.6787848472595L272.0829230769231,239.25741863250732L272.41615384615386,278.546927690506L275.7484615384616,262.36821126937866L275.9150769230769,45.540882110595696L276.58153846153846,81.70210361480713L276.74815384615385,291.1469407081604L276.91476923076925,266.06343269348145L279.9138461538462,24.525240898132314L281.9132307692308,130.30275535583496L282.0798461538462,277.1034200191498L283.07953846153845,290.372074842453L283.4127692307692,275.97055864334106L284.2458461538462,268.34250354766846L288.57784615384617,49.23074626922608L288.9110769230769,279.39364099502563L290.57723076923077,74.74647045135498L292.41,289.3065447807312L292.90984615384616,267.7935690879822L293.4096923076923,260.719114780426L295.5756923076923,260.60801911354065L296.742,269.02709698677063L297.74169230769235,291.6923453807831L298.908,268.2406554222107L299.90769230769234,62.00645256042478L301.5738461538462,264.62669920921326L302.4069230769231,282.48762702941895L302.5735384615385,-4.954959869384728L303.0733846153846,286.6142134666443L304.07307692307694,279.9713444709778L304.4063076923077,275.67291498184204L304.9061538461538,267.793253660202L305.40599999999995,272.84410858154297L305.9058461538462,73.17223548889159L306.07246153846154,275.88569355010986L309.07153846153847,294.3482197523117L311.57076923076926,270.5104236602783L314.07,295.55472099781036L314.56984615384613,102.81315422058104L314.7364615384615,272.4903688430786L315.06969230769226,270.40200662612915L315.23630769230766,34.95196151733399L318.9018461538461,277.6921033859253L319.7349230769231,267.1231698989868L320.23476923076925,271.30245780944824L320.9012307692308,267.63570499420166L321.2344615384615,-29.622734069824208L321.9009230769231,136.39317512512207L322.56738461538464,96.51711559295654L323.2338461538461,89.42934322357179L327.39923076923077,263.7770118713379L327.56584615384617,281.28319358825684L329.39861538461537,285.9616684913635L330.73153846153843,276.8633244037628L330.89815384615383,280.18944025039673L331.39799999999997,289.71682620048523L331.73123076923076,271.2859754562378L331.89784615384616,117.26469326019287L333.39738461538457,280.8961486816406L334.5636923076923,103.34703826904295L337.0629230769231,299.1967227458954L337.2295384615384,43.34696674346926L337.7293846153846,292.64307975769043L340.8950769230769,297.5658760070801L341.7281538461539,287.42431712150574L341.89476923076927,91.68155765533447L342.228,279.906907081604L343.39430769230773,285.85235023498535L344.5606153846154,115.26610279083252L344.72723076923074,277.4426200389862L346.22676923076926,287.74047589302063L346.89323076923074,279.7456634044647L347.22646153846154,90.48283195495607L347.89292307692307,46.56927680969237L349.3924615384616,283.15404081344604L350.5587692307692,35.39412117004393L350.7253846153846,289.6244258880615L351.5584615384616,276.66548109054565L352.8913846153846,293.8298342227936L354.39092307692306,269.5530152320862L354.55753846153846,86.48765373229979L355.224,54.53790378570557L356.0570769230769,264.70348834991455L356.55692307692306,41.63362312316895L356.89015384615385,275.27493023872375L357.39000000000004,292.2837073802948L357.8898461538462,79.63520050048828L358.5563076923077,82.9386806488037L359.8892307692308,118.17807197570802L361.22215384615384,39.55864906311036L361.8886153846154,139.12818431854245L362.3884615384615,281.1863172054291L362.5550769230769,104.28220653533937L363.55476923076924,292.7312693595886L365.05430769230765,299.1793817281723L365.72076923076924,290.42022013664246L365.88738461538463,48.660352706909194L366.05400000000003,292.4773950576782L366.38723076923077,284.0435471534729L366.8870769230769,269.44384717941284L368.05338461538463,272.94806957244873L369.5529230769231,286.2289309501648L371.2190769230769,61.30772495269775L371.8855384615385,139.8222255706787L372.2187692307692,294.21859395504L372.71861538461536,280.78938388824463L373.55169230769235,287.2053601741791L374.0515384615385,279.04515838623047L374.2181538461538,288.30844616889954L374.3847692307692,301.0604953765869L375.2178461538462,86.86306285858153L377.55046153846155,281.6444184780121L379.04999999999995,291.89384365081787L380.04969230769234,285.9607071876526L381.21599999999995,62.10240268707276L381.3826153846154,292.92149233818054L382.8821538461538,287.5554699897766L384.04846153846154,273.07035541534424L386.04784615384614,291.0950303077698L387.2141538461538,103.7560329437256L387.54738461538466,302.21365427970886L388.21384615384613,292.9704837799072L389.88,76.41182899475099L390.0466153846154,292.27945160865784L390.54646153846153,78.22813224792479L391.37953846153846,288.0939452648163L392.046,304.6190264225006L394.212,284.7947108745575L394.7118461538461,295.84621381759644L395.71153846153845,299.16341757774353L395.87815384615385,90.93071937561034L396.04476923076925,286.9131488800049L401.7096923076923,302.0858134031296L402.7093846153846,275.92070603370667L403.8756923076923,169.84878730773926L404.8753846153846,289.2961757183075L405.54184615384617,289.4044976234436L405.8750769230769,88.95381832122804L406.2083076923077,305.62820756435394L407.208,32.11996078491212L407.70784615384616,298.5541162490845L408.0410769230769,291.7696352005005L408.5409230769231,142.11541557312012L409.04076923076923,292.6086781024933L409.5406153846154,297.48999309539795L411.0401538461538,301.5159981250763L411.3733846153846,282.76389169692993L413.3727692307693,297.671674489975L413.5393846153846,286.6311364173889L413.706,307.2293840646744L416.0386153846154,298.5467462539673L416.7050769230769,308.43897449970245L417.3715384615385,290.99379301071167L418.038,296.34646475315094L418.70446153846154,296.9710943698883L419.0376923076923,307.56034791469574L419.3709230769231,289.3526773452759L420.70384615384614,285.88646149635315L421.0370769230769,307.0764716863632L421.5369230769231,291.8366060256958L422.0367692307692,301.16367530822754L422.53661538461535,113.07098579406738L422.86984615384614,288.7871603965759L423.36969230769233,299.2870202064514L426.5353846153846,78.38883018493654L428.5347692307692,112.92078208923341L428.7013846153846,290.87116169929504L428.868,299.96012806892395L429.2012307692308,42.01377868652342L429.3678461538462,306.68902373313904L429.7010769230769,304.18284487724304L430.03430769230766,285.26846837997437L430.7007692307692,274.6838335990906L431.3672307692308,302.3383483886719L432.20030769230766,288.31863498687744L432.53353846153846,31.74881744384764L433.6998461538462,301.43845796585083L434.1996923076923,307.0249092578888L435.03276923076925,298.24695467948914L435.6992307692308,300.45700442790985L436.53230769230765,120.35101890563965L436.86553846153845,301.904985666275L437.0321538461538,295.482125043869L439.53138461538464,296.3787285089493L440.0312307692308,280.5965323448181L440.5310769230769,154.32575511932373L440.6976923076923,303.187437415123L441.36415384615384,299.704403758049L441.69738461538464,308.2753701210022L442.5304615384615,90.60381603240968L442.6970769230769,293.28617691993713L443.86338461538463,128.12682437896729L444.03,299.1811466217041L444.6964615384615,308.53633403778076L445.02969230769236,303.7411108016968L445.3629230769231,294.48736095428467L446.02938461538463,295.727472782135L447.6955384615385,285.1075201034546L448.0287692307692,309.0104470252991L448.36199999999997,305.8039458990097L448.52861538461536,115.85317897796632L449.19507692307695,105.26900482177736L449.6949230769231,302.5762234926224L451.02784615384616,306.96624970436096L451.6943076923077,303.6472635269165L454.0269230769231,308.9792697429657L454.6933846153846,293.5088939666748L455.0266153846154,293.7390661239624L455.8596923076923,121.71358680725096L456.0263076923077,297.2506409883499L456.3595384615384,309.6751585006714L456.6927692307692,294.39788210392L456.85938461538467,302.6200679540634L457.1926153846154,87.12796211242676L457.52584615384615,295.76433277130127L457.69246153846154,306.10840129852295L458.8587692307692,297.5280021429062L459.3586153846154,302.8175582885742L460.1916923076923,291.98368549346924L463.3573846153846,307.28664922714233L465.02353846153846,297.32797837257385L466.02323076923074,295.2349773645401L466.5230769230769,106.01313400268553L467.0229230769231,306.65407133102417L467.52276923076926,300.221572637558L467.6893846153846,308.86195063591003L467.856,123.51591110229494L469.52215384615386,292.86980724334717L469.68876923076925,310.5627272129059L469.8553846153846,178.2657423019409L470.1886153846154,293.60389280319214L472.188,301.1912977695465L472.3546153846154,301.1597274541855L472.6878461538461,309.3769340515137L474.02076923076925,296.66205525398254L475.5203076923077,306.0077397823334L478.35276923076924,300.1637191772461L480.6853846153846,307.08525109291077L481.35184615384617,304.09533619880676L481.51846153846157,303.3618814945221L481.8516923076923,94.43340969085692L483.1846153846154,153.88035106658936L483.51784615384616,306.13702511787415L484.1843076923077,305.6507656574249L485.85046153846156,102.63190841674805L487.1833846153846,126.81935119628908L487.35,307.9421081542969L489.1827692307692,155.8902769088745L490.5156923076923,74.57742118835448L491.5153846153846,295.25970590114594L491.682,305.58554220199585L492.01523076923075,298.3198585510254L492.3484615384615,300.1949214935303L493.1815384615385,89.04688453674316L496.34723076923075,306.8307158946991L497.3469230769231,304.4908826351166L497.5135384615385,295.1235862970352L499.17969230769233,143.43700790405273L499.5129230769231,309.59880244731903L500.1793846153846,301.94900035858154L500.346,303.7166976928711L502.1787692307692,305.81490075588226L502.67861538461534,302.5239200592041L503.67830769230767,290.3574249744415L504.5113846153846,128.40688419342038L504.8446153846154,301.7601943016052L505.1778461538462,172.5997180938721L505.5110769230769,301.19085466861725L507.0106153846154,312.54430961608887L507.6770769230769,307.8088023662567L508.34353846153846,305.58532190322876L508.67676923076925,308.58662474155426L509.1766153846154,97.2868194580078L510.6761538461538,299.0854969024658L510.84276923076925,304.673943400383L512.5089230769231,88.23105812072754L512.8421538461538,307.60732412338257L514.8415384615384,303.12321531772614L515.0081538461538,307.8480806350708L515.1747692307692,122.4634838104248L515.8412307692308,71.14712905883789L516.5076923076923,88.44819259643556L517.5073846153846,300.99469113349915L517.674,306.4396380186081L520.3398461538461,299.4424284696579L520.8396923076923,305.92679250240326L521.3395384615385,302.98462986946106L521.5061538461538,304.7122753858566L522.839076923077,299.70924282073975L523.8387692307692,66.1424617767334L524.8384615384615,294.3990762233734L525.6715384615385,312.39567053318024L528.8372307692308,298.6203285455704L529.5036923076923,306.06722044944763L529.8369230769231,106.5496816635132L530.67,304.8329565525055L531.503076923077,306.9325865507126L533.669076923077,306.87035965919495L534.3355384615385,302.73821318149567L534.8353846153846,298.042277097702L537.3346153846154,304.7584179639816L539.1673846153845,153.06422424316406L539.334,302.6924411058426L539.8338461538461,82.57763099670412L540.8335384615384,306.93599116802216L541.9998461538462,295.75966143608093L542.1664615384615,302.3114769458771L542.3330769230769,312.7623703479767L542.4996923076923,119.46137237548828L542.6663076923077,291.99307322502136L544.1658461538462,299.32478392124176L547.998,300.11246967315674L548.1646153846154,306.2539987564087L548.3312307692308,300.05314671993256L549.4975384615385,307.43903839588165L551.3303076923077,294.4208207130432L551.6635384615386,312.08791065216064L553.6629230769231,314.75129771232605L553.8295384615385,167.42269706726074L554.3293846153846,309.2958390712738L554.6626153846154,300.2866784334183L554.8292307692308,302.4402540922165L555.1624615384615,154.2736644744873L558.3281538461538,304.6889662742615L559.1612307692308,112.50954437255858L559.661076923077,294.9303992986679L560.1609230769232,302.6395894289017L561.6604615384615,309.94005274772644L561.8270769230769,70.45475006103517L563.16,83.82139778137208L563.3266153846155,308.6746391057968L564.3263076923078,308.70947885513306L564.8261538461538,314.5320278406143L565.8258461538461,133.8537712097168L566.1590769230769,299.0774259567261L566.4923076923077,38.195079803466776L569.3247692307692,313.74288511276245L569.658,312.0517090559006L569.8246153846154,180.26405239105225L569.9912307692307,299.19674026966095L571.8240000000001,131.35197830200195L573.4901538461538,305.68027317523956L574.8230769230769,307.9600600004196L577.6555384615384,314.99439239501953L578.8218461538461,304.8144339323044L578.9884615384615,313.7676737308502L579.4883076923078,306.8103232383728L582.1541538461538,303.74110329151154L582.8206153846154,306.4225273132324L583.6536923076924,300.7760546207428L583.9869230769231,308.36889696121216L584.3201538461539,307.97110748291016L584.6533846153847,315.8513821363449L584.9866153846154,310.2242331504822L585.6530769230769,307.10483264923096L585.8196923076923,100.46444892883302L586.3195384615384,306.4231857061386L587.3192307692307,303.75545024871826L587.6524615384616,297.9173626899719L588.1523076923078,304.92625308036804L589.4852307692307,307.80649423599243L589.8184615384615,129.92938899993896L589.9850769230769,312.9736819267273L590.1516923076923,302.67773365974426L591.4846153846154,304.2138819694519L593.9838461538461,316.63015580177307L594.3170769230769,311.0744036436081L594.6503076923077,304.44833993911743L594.9835384615384,307.01678824424744L596.8163076923078,311.79410219192505L597.4827692307692,305.9531031847L599.6487692307693,308.2111955881119L600.3152307692308,316.4145358800888L603.4809230769231,302.9922652244568L605.9801538461538,304.8688201904297L606.1467692307692,313.07518208026886L607.1464615384615,125.77946090698241L607.313076923077,303.2113147974014L607.6463076923077,315.8988114595413L608.1461538461539,307.7675664424896L608.9792307692308,308.90502405166626L609.6456923076923,314.6868578195572L609.978923076923,309.90398383140564L612.6447692307693,314.7164179086685L614.4775384615384,139.11013984680176L615.6438461538462,299.1212854385376L615.8104615384616,141.61770057678223L616.9767692307693,316.2153795361519L617.4766153846153,309.1474378108978L621.4753846153847,309.4440475702286L621.9752307692307,315.4871131181717L623.1415384615385,102.2788496017456L623.6413846153847,306.74884486198425L623.808,192.03109073638916L624.1412307692308,309.92445158958435L624.3078461538462,315.9244775176048L625.4741538461539,306.6401199102402L627.6401538461539,309.3648626804352L628.4732307692308,158.59174060821533L629.9727692307692,313.51829051971436L630.3059999999999,302.15884494781494L630.6392307692307,310.3073208332062L631.8055384615385,160.76632976531982L633.9715384615384,304.97484147548676L634.3047692307692,299.38821744918823L635.3044615384616,302.2247292995453L636.6373846153846,313.94176983833313L637.637076923077,317.5598816871643L637.8036923076922,141.2776393890381L638.6367692307692,306.16014647483826L639.4698461538462,316.98775827884674L640.6361538461539,316.98330849409103L641.9690769230768,308.1741828918457L642.6355384615384,309.73913526535034L643.302,304.38550221920013L645.468,310.35671031475067L645.8012307692308,139.4861497879028L646.1344615384616,303.8414218425751L646.6343076923076,312.22861647605896L647.4673846153846,305.68717753887177L650.2998461538461,313.46391677856445L651.1329230769231,108.2563762664795L654.132,307.44282603263855L654.7984615384615,309.47913014888763L655.2983076923077,314.3057609796524L656.1313846153846,305.83484530448914L657.2976923076923,305.96160221099854L657.9641538461539,313.87223303318024L658.2973846153845,303.5330160856247L659.2970769230769,317.3042174577713L659.4636923076923,304.33862113952637L660.4633846153846,70.51312923431395L661.6296923076923,315.13159346580505L662.6293846153845,316.29835456609726L663.1292307692308,26.111291885375977L664.1289230769231,310.17274081707L665.9616923076923,311.0722382068634L666.294923076923,312.95387756824493L667.9610769230769,309.93189668655396L668.4609230769231,80.7070941925049L668.7941538461539,303.26886534690857L669.6272307692308,307.37810826301575L672.2930769230769,313.74092745780945L672.6263076923077,303.4008893966675L673.4593846153846,310.26821780204773L673.626,313.2521721124649L674.2924615384615,308.73889124393463L674.6256923076922,312.42249941825867L675.792,94.5062885284424L676.9583076923077,303.2698892354965L678.9576923076924,308.6026539802551L679.7907692307692,163.2220802307129L681.7901538461538,139.65878391265872L681.9567692307692,304.7220060825348L682.9564615384616,314.0654375553131L683.123076923077,151.11578178405762L685.4556923076923,309.0731520652771L686.1221538461538,317.5218300819397L686.4553846153846,178.91963911056519L686.7886153846155,310.80179142951965L687.2884615384615,317.15993678569794L687.7883076923077,130.59899711608887L689.2878461538461,309.32405984401703L690.2875384615385,301.42838180065155L690.6207692307692,317.71527993679047L692.4535384615385,52.14439773559571L692.6201538461538,314.7624478340149L693.6198461538461,318.218188226223L694.7861538461538,309.06400215625763L698.7849230769232,313.8948311805725L699.7846153846154,163.46404838562012L700.1178461538461,309.7864569425583L703.6167692307693,314.96634435653687L704.1166153846154,309.85059893131256L704.7830769230769,319.2706468105316L704.9496923076923,307.0336260795593L705.1163076923077,152.5862159729004L706.116,307.5092360973358L706.6158461538461,309.27253246307373L706.949076923077,310.35104513168335L708.4486153846154,75.7873420715332L709.6149230769231,317.9980872273445L710.448,50.86984920501709L711.7809230769232,129.03589725494388L712.4473846153846,179.89991855621338L713.1138461538461,112.95655059814452L715.2798461538462,318.4088830947876L715.613076923077,316.1332468986511L716.112923076923,314.0518591403961L718.1123076923077,315.55888295173645L718.7787692307693,310.90707671642303L719.6118461538462,317.3951795697212L719.945076923077,302.8553845882416L721.6112307692307,319.8514394760132L721.9444615384615,314.8507876396179L722.2776923076923,317.08292108774185L724.4436923076923,128.01481246948245L727.1095384615385,92.45320415496825L727.9426153846154,319.80426174402237L729.108923076923,180.43655633926392L733.2743076923077,314.39877212047577L733.440923076923,314.15961277484894L733.6075384615384,314.0145660638809L734.7738461538462,314.8399429321289L736.44,166.54252338409424L737.772923076923,99.58277320861815L738.7726153846154,314.44148004055023L738.9392307692308,317.5252860188484L739.6056923076924,312.5586665868759L741.4384615384615,312.3943462371826L742.4381538461538,129.77848434448242L743.4378461538462,309.60187661647797L743.9376923076924,311.25984013080597L746.436923076923,134.27982902526855L747.1033846153847,105.38219833374025L748.2696923076924,317.91709864139557L748.9361538461538,313.3102408647537L749.7692307692307,120.82197761535646L750.6023076923076,311.64750838279724L751.2687692307693,318.32991725206375L751.4353846153847,319.9737077951431L753.2681538461538,311.17160046100616L753.4347692307692,314.95308887958527L755.2675384615385,310.96463227272034L755.6007692307693,305.0962886810303L755.7673846153847,158.17457485198977L756.9336923076922,319.1074204444885L757.266923076923,304.80063021183014L757.4335384615384,314.83021223545074L757.6001538461538,318.1820079088211L757.7667692307692,112.95723152160643L758.7664615384616,310.5696566104889L762.4319999999999,151.7573719024658L765.2644615384615,319.86479008197784L766.0975384615384,313.3404142856598L766.2641538461538,319.59715712070465L766.5973846153846,304.6705813407898L767.9303076923077,316.6482340693474L769.9296923076922,319.0541669726372L777.5939999999999,320.9055140018463L779.9266153846154,315.55546832084656L780.0932307692308,315.5110305547714L781.9259999999999,314.1789815425873L782.0926153846153,316.0990755558014L782.4258461538462,128.222393989563L782.7590769230769,316.5514966249466L783.2589230769231,311.96510910987854L783.4255384615385,317.96691620349884L783.7587692307693,166.17496490478516L787.5909230769231,318.10356026887894L788.424,168.80471134185788L788.9238461538462,309.54020047187805L789.4236923076922,314.9907774925232L790.2567692307691,317.9478828907013L792.0895384615385,315.90204083919525L793.5890769230768,319.1362770795822L794.088923076923,312.65107440948486L794.2555384615384,319.2820397615433L795.7550769230769,119.08053588867186L796.7547692307692,309.61773562431335L799.4206153846154,309.9105226993561L800.4203076923077,185.18552684783936L801.0867692307692,92.84115028381349L801.5866153846154,320.14255928993225L802.5863076923077,320.0163731575012L802.9195384615385,319.1025438308716L804.4190769230769,142.2088222503662L805.0855384615385,141.40741539001465L806.0852307692307,309.9010097980499L806.9183076923077,315.20785439014435L807.918,315.9305319786072L809.4175384615385,316.68222641944885L810.5838461538463,314.1864641904831L811.2503076923077,311.3756146430969L812.7498461538462,313.5067448616028L815.2490769230769,316.52510833740234L816.4153846153846,128.79392910003662L816.9152307692308,311.09933495521545L817.2484615384615,316.36291462183L817.4150769230769,316.15440809726715L818.0815384615385,309.644291639328L818.2481538461537,317.4081834554672L820.4141538461538,124.15365600585936L821.4138461538461,312.9285031557083L821.5804615384615,319.9706711769104L821.9136923076923,309.9813412427902L822.9133846153846,317.86992341279984L823.4132307692308,309.42435336112976L824.4129230769231,161.2736177444458L825.0793846153846,160.39873123168945L826.2456923076924,311.38131737709045L827.9118461538461,312.1973741054535L828.9115384615384,315.61043536663055L829.578,320.8668966293335L830.077846153846,318.70221841335297L831.4107692307692,314.7965315580368L831.744,166.02520179748535L833.91,317.0387374162674L834.5764615384616,312.6231915950775L834.743076923077,314.0312361717224L837.9087692307692,316.0250514149666L838.0753846153846,317.8261728286743L838.5752307692308,315.5114023089409L839.7415384615384,122.81123542785643L840.0747692307692,312.6511119604111L841.4076923076923,315.924716591835L841.7409230769231,50.74514007568357L841.9075384615384,318.5932756662369L844.0735384615384,313.8502757549286L844.4067692307692,94.74168777465822L846.0729230769232,311.2851369380951L846.5727692307693,312.73756170272827L848.4055384615384,118.72809791564941L848.9053846153846,306.65502762794495L849.2386153846154,320.44671553373337L849.5718461538461,320.5302075147629L851.5712307692307,313.6451675891876L854.4036923076924,173.55228996276855L855.2367692307693,322.1634750366211L856.902923076923,315.55188846588135L857.9026153846154,312.7685737609863L859.068923076923,181.02796840667725L860.0686153846153,316.8184436559677L860.4018461538461,141.07730770111087L861.0683076923077,126.23892402648926L862.2346153846154,319.6426976323128L862.4012307692308,110.06510925292967L862.5678461538462,314.0158803462982L864.234,316.8315902352333L867.732923076923,103.15593910217284L868.566,310.788751244545L869.3990769230769,316.6488987207413L870.3987692307693,159.18552589416504L872.064923076923,315.34850013256073L872.898,311.49298882484436L873.8976923076924,322.0078740119934L874.5641538461539,313.69336795806885L874.7307692307693,317.5829029083252L876.0636923076923,317.77397203445435L876.5635384615384,312.7056909799576L876.7301538461538,319.1083429455757L877.0633846153846,160.1227569580078L877.5632307692307,321.14978778362274L877.7298461538461,85.88621807098387L877.8964615384615,311.23719692230225L878.7295384615385,316.15231400728226L879.0627692307693,131.1106309890747L879.5626153846154,314.9885444641113L879.7292307692308,100.48591804504395L879.8958461538462,318.7228301167488L880.0624615384615,313.12310457229614L880.3956923076923,190.97797250747684L880.8955384615384,319.18737387657166L881.0621538461538,108.93882179260255L882.0618461538462,322.0829132795334L883.0615384615385,155.02662563323975L883.3947692307693,311.69030141830444L883.8946153846153,313.2677607536316L885.8939999999999,312.8139327764511L887.2269230769231,311.9206563234329L887.3935384615385,315.2071722149849L887.5601538461539,320.87254428863525L888.5598461538461,319.37041461467743L889.7261538461538,158.80328750610352L890.5592307692308,313.81783175468445L891.7255384615385,119.03050804138184L893.8915384615385,316.97079652547836L894.8912307692308,321.7843508720398L895.2244615384616,313.3482949733734L895.7243076923077,162.92487716674805L896.8906153846153,321.3146538734436L897.8903076923076,319.6181380748749L898.3901538461539,138.8997344970703L898.7233846153847,313.6390392780304L898.89,322.81122601032257L902.0556923076923,312.2559961080551L903.5552307692308,316.760284781456L905.5546153846153,322.07329273223877L906.0544615384616,315.890287399292L906.5543076923077,307.8823170661926L908.7203076923076,313.8382194042206L910.0532307692308,322.2818493247032L911.3861538461539,312.527068734169L911.5527692307693,319.7391597032547L912.0526153846154,317.5978581905365L912.3858461538462,149.77452278137207L912.5524615384616,317.3085608482361L914.8850769230769,321.65624964237213L916.218,319.93960654735565L918.7172307692308,316.0992833375931L919.8835384615385,317.90642166137695L920.8832307692307,320.0138872861862L921.3830769230768,317.5828603506088L921.5496923076922,315.1378093957901L922.5493846153846,316.29802787303925L924.7153846153846,315.8122615814209L925.0486153846153,137.33929824829102L925.2152307692307,308.34188282489777L925.3818461538461,317.89589738845825L926.3815384615385,186.63154792785645L927.2146153846154,318.7161085009575L929.3806153846153,317.57494711875916L932.0464615384615,319.3479115962982L933.2127692307691,321.96323096752167L934.0458461538462,315.70055508613586L934.2124615384615,321.4886473417282L935.2121538461539,320.75917053222656L936.7116923076923,313.9081367254257L937.2115384615385,315.22617799043655L937.3781538461539,316.4169466495514L937.7113846153845,106.638822555542L938.7110769230769,317.5696912407875L938.8776923076923,317.70207703113556L939.2109230769231,322.59391379356384L940.044,318.47483003139496L940.5438461538462,317.5641562342644L943.0430769230769,180.7004942893982L943.8761538461538,307.9509451389313L944.8758461538462,316.7104784846306L946.0421538461538,313.59823644161224L946.7086153846154,316.60981822013855L947.2084615384615,321.52612566947937L949.7076923076924,169.28864765167236L951.0406153846154,154.2632303237915L951.7070769230769,86.5593910217285L951.8736923076923,322.35812652111053L954.8727692307692,322.92170333862305L955.3726153846154,313.69956636428833L955.5392307692308,320.6497095823288L955.8724615384615,315.26267874240875L956.2056923076923,318.38869696855545L956.3723076923077,109.03475189208983L957.0387692307692,186.92705869674683L957.2053846153846,318.41007471084595L959.0381538461538,180.61323595046997L960.0378461538461,319.66281616687775L960.7043076923077,320.36981123685837L964.5364615384615,319.0143692493439L966.7024615384615,318.49192947149277L968.0353846153846,318.9456059932709L968.8684615384615,317.3685334324837L969.0350769230769,91.16003036499023L969.3683076923077,319.97115057706833L969.5349230769232,322.9666768312454L971.2010769230769,313.4590151309967L971.3676923076923,316.32480043172836L973.8669230769232,318.98418205976486L974.3667692307693,90.40396499633788L976.1995384615384,318.42414128780365L976.3661538461538,128.0318956375122L976.6993846153846,313.88397896289825L976.866,320.57340610027313L978.5321538461538,316.99505692720413L979.6984615384615,158.21252632141113L980.3649230769231,155.17616844177246L981.0313846153846,115.59869384765625L982.5309230769232,320.0274807214737L983.364,314.52197670936584L983.6972307692307,141.88462257385257L984.0304615384615,317.1143023967743L985.5300000000001,318.44723385572433L986.363076923077,112.92570877075195L987.1961538461538,318.6432471871376L989.5287692307693,322.8310729265213L989.6953846153847,138.26851844787598L990.0286153846155,316.774206161499L990.8616923076924,320.889330804348L992.3612307692307,202.22908115386963L993.360923076923,317.27933871746063L995.526923076923,321.05252838134766L997.0264615384615,135.75458908081055L997.3596923076924,320.2816904783249L998.0261538461539,320.84971833229065L998.1927692307693,309.6730055809021L998.8592307692307,322.85724341869354L999.858923076923,309.446298122406L1000.8586153846153,317.4026859998703L1001.6916923076924,173.35680484771729L1002.0249230769231,314.86085629463196L1002.1915384615385,321.54941099882126L1002.5247692307693,316.1224422454834L1004.3575384615384,118.36152076721191L1005.024,109.30764198303221L1006.5235384615385,317.92477655410767L1007.19,315.72394305467606L1007.8564615384615,322.79912209510803L1008.6895384615384,316.95613038539886L1008.8561538461538,322.46495139598846L1009.5226153846154,321.1443241238594L1010.6889230769231,315.1047483086586L1011.522,321.48002564907074L1011.8552307692307,316.1826914548874L1012.1884615384615,318.88185954093933L1012.3550769230769,117.18360328674315L1013.8546153846154,323.4582234621048L1014.0212307692308,314.4422961473465L1014.1878461538462,321.2356141805649L1015.1875384615385,318.98458510637283L1016.1872307692307,323.3439359664917" style="fill: none;" fill="none"></path></g></g></g></g></g></g><g transform="translate(34, 378)" clip-path="url(#clip_1)"><clipPath id="clip_1"><rect width="1083" height="22"></rect></clipPath><g><g><line x1="0" y1="0" x2="0" y2="5" style="visibility: inherit;" fill="rgb(0, 0, 0)" stroke="rgb(204, 204, 204)" stroke-width="1px"></line><line x1="83.3076923076923" y1="0" x2="83.3076923076923" y2="5" style="visibility: inherit;" fill="rgb(0, 0, 0)" stroke="rgb(204, 204, 204)" stroke-width="1px"></line><line x1="166.6153846153846" y1="0" x2="166.6153846153846" y2="5" style="visibility: inherit;" fill="rgb(0, 0, 0)" stroke="rgb(204, 204, 204)" stroke-width="1px"></line><line x1="249.92307692307693" y1="0" x2="249.92307692307693" y2="5" style="visibility: inherit;" fill="rgb(0, 0, 0)" stroke="rgb(204, 204, 204)" stroke-width="1px"></line><line x1="333.2307692307692" y1="0" x2="333.2307692307692" y2="5" style="visibility: inherit;" fill="rgb(0, 0, 0)" stroke="rgb(204, 204, 204)" stroke-width="1px"></line><line x1="416.53846153846155" y1="0" x2="416.53846153846155" y2="5" style="visibility: inherit;" fill="rgb(0, 0, 0)" stroke="rgb(204, 204, 204)" stroke-width="1px"></line><line x1="499.84615384615387" y1="0" x2="499.84615384615387" y2="5" style="visibility: inherit;" fill="rgb(0, 0, 0)" stroke="rgb(204, 204, 204)" stroke-width="1px"></line><line x1="583.1538461538461" y1="0" x2="583.1538461538461" y2="5" style="visibility: inherit;" fill="rgb(0, 0, 0)" stroke="rgb(204, 204, 204)" stroke-width="1px"></line><line x1="666.4615384615385" y1="0" x2="666.4615384615385" y2="5" style="visibility: inherit;" fill="rgb(0, 0, 0)" stroke="rgb(204, 204, 204)" stroke-width="1px"></line><line x1="749.7692307692307" y1="0" x2="749.7692307692307" y2="5" style="visibility: inherit;" fill="rgb(0, 0, 0)" stroke="rgb(204, 204, 204)" stroke-width="1px"></line><line x1="833.0769230769231" y1="0" x2="833.0769230769231" y2="5" style="visibility: inherit;" fill="rgb(0, 0, 0)" stroke="rgb(204, 204, 204)" stroke-width="1px"></line><line x1="916.3846153846154" y1="0" x2="916.3846153846154" y2="5" style="visibility: inherit;" fill="rgb(0, 0, 0)" stroke="rgb(204, 204, 204)" stroke-width="1px"></line><line x1="999.6923076923077" y1="0" x2="999.6923076923077" y2="5" style="visibility: inherit;" fill="rgb(0, 0, 0)" stroke="rgb(204, 204, 204)" stroke-width="1px"></line><line x1="1083" y1="0" x2="1083" y2="5" style="visibility: inherit;" fill="rgb(0, 0, 0)" stroke="rgb(204, 204, 204)" stroke-width="1px"></line></g><g transform="translate(0, 8)"><text x="0" y="0" dx="0em" dy="0.95em" style="text-anchor: middle; visibility: hidden; font-family: Roboto, sans-serif; font-size: 12px; font-weight: 200;" fill="rgb(50, 49, 63)" stroke="none" stroke-width="1px">-500</text><text x="83.3076923076923" y="0" dx="0em" dy="0.95em" style="text-anchor: middle; visibility: inherit; font-family: Roboto, sans-serif; font-size: 12px; font-weight: 200;" fill="rgb(50, 49, 63)" stroke="none" stroke-width="1px">0</text><text x="166.6153846153846" y="0" dx="0em" dy="0.95em" style="text-anchor: middle; visibility: inherit; font-family: Roboto, sans-serif; font-size: 12px; font-weight: 200;" fill="rgb(50, 49, 63)" stroke="none" stroke-width="1px">500</text><text x="249.92307692307693" y="0" dx="0em" dy="0.95em" style="text-anchor: middle; visibility: inherit; font-family: Roboto, sans-serif; font-size: 12px; font-weight: 200;" fill="rgb(50, 49, 63)" stroke="none" stroke-width="1px">1k</text><text x="333.2307692307692" y="0" dx="0em" dy="0.95em" style="text-anchor: middle; visibility: inherit; font-family: Roboto, sans-serif; font-size: 12px; font-weight: 200;" fill="rgb(50, 49, 63)" stroke="none" stroke-width="1px">1.5k</text><text x="416.53846153846155" y="0" dx="0em" dy="0.95em" style="text-anchor: middle; visibility: inherit; font-family: Roboto, sans-serif; font-size: 12px; font-weight: 200;" fill="rgb(50, 49, 63)" stroke="none" stroke-width="1px">2k</text><text x="499.84615384615387" y="0" dx="0em" dy="0.95em" style="text-anchor: middle; visibility: inherit; font-family: Roboto, sans-serif; font-size: 12px; font-weight: 200;" fill="rgb(50, 49, 63)" stroke="none" stroke-width="1px">2.5k</text><text x="583.1538461538461" y="0" dx="0em" dy="0.95em" style="text-anchor: middle; visibility: inherit; font-family: Roboto, sans-serif; font-size: 12px; font-weight: 200;" fill="rgb(50, 49, 63)" stroke="none" stroke-width="1px">3k</text><text x="666.4615384615385" y="0" dx="0em" dy="0.95em" style="text-anchor: middle; visibility: inherit; font-family: Roboto, sans-serif; font-size: 12px; font-weight: 200;" fill="rgb(50, 49, 63)" stroke="none" stroke-width="1px">3.5k</text><text x="749.7692307692307" y="0" dx="0em" dy="0.95em" style="text-anchor: middle; visibility: inherit; font-family: Roboto, sans-serif; font-size: 12px; font-weight: 200;" fill="rgb(50, 49, 63)" stroke="none" stroke-width="1px">4k</text><text x="833.0769230769231" y="0" dx="0em" dy="0.95em" style="text-anchor: middle; visibility: inherit; font-family: Roboto, sans-serif; font-size: 12px; font-weight: 200;" fill="rgb(50, 49, 63)" stroke="none" stroke-width="1px">4.5k</text><text x="916.3846153846154" y="0" dx="0em" dy="0.95em" style="text-anchor: middle; visibility: inherit; font-family: Roboto, sans-serif; font-size: 12px; font-weight: 200;" fill="rgb(50, 49, 63)" stroke="none" stroke-width="1px">5k</text><text x="999.6923076923077" y="0" dx="0em" dy="0.95em" style="text-anchor: middle; visibility: inherit; font-family: Roboto, sans-serif; font-size: 12px; font-weight: 200;" fill="rgb(50, 49, 63)" stroke="none" stroke-width="1px">5.5k</text><text x="1083" y="0" dx="0em" dy="0.95em" style="text-anchor: middle; visibility: hidden; font-family: Roboto, sans-serif; font-size: 12px; font-weight: 200;" fill="rgb(50, 49, 63)" stroke="none" stroke-width="1px">6k</text></g><line x1="0" y1="0" x2="1083" y2="0" fill="rgb(0, 0, 0)" stroke="rgb(204, 204, 204)" stroke-width="1px"></line></g></g></g></g></svg>